G04 #@! TF.GenerationSoftware,KiCad,Pcbnew,(7.0.0)*
G04 #@! TF.CreationDate,2023-10-12T13:51:26-04:00*
G04 #@! TF.ProjectId,ZBox3-0,5a426f78-332d-4302-9e6b-696361645f70,rev?*
G04 #@! TF.SameCoordinates,Original*
G04 #@! TF.FileFunction,Legend,Bot*
G04 #@! TF.FilePolarity,Positive*
%FSLAX46Y46*%
G04 Gerber Fmt 4.6, Leading zero omitted, Abs format (unit mm)*
G04 Created by KiCad (PCBNEW (7.0.0)) date 2023-10-12 13:51:26*
%MOMM*%
%LPD*%
G01*
G04 APERTURE LIST*
%ADD10C,0.150000*%
%ADD11C,0.120000*%
%ADD12C,0.100000*%
%ADD13C,0.200000*%
G04 APERTURE END LIST*
D10*
X181514285Y-118717714D02*
X181552381Y-118755809D01*
X181552381Y-118755809D02*
X181666666Y-118793904D01*
X181666666Y-118793904D02*
X181742857Y-118793904D01*
X181742857Y-118793904D02*
X181857143Y-118755809D01*
X181857143Y-118755809D02*
X181933333Y-118679619D01*
X181933333Y-118679619D02*
X181971428Y-118603428D01*
X181971428Y-118603428D02*
X182009524Y-118451047D01*
X182009524Y-118451047D02*
X182009524Y-118336761D01*
X182009524Y-118336761D02*
X181971428Y-118184380D01*
X181971428Y-118184380D02*
X181933333Y-118108190D01*
X181933333Y-118108190D02*
X181857143Y-118032000D01*
X181857143Y-118032000D02*
X181742857Y-117993904D01*
X181742857Y-117993904D02*
X181666666Y-117993904D01*
X181666666Y-117993904D02*
X181552381Y-118032000D01*
X181552381Y-118032000D02*
X181514285Y-118070095D01*
X180752381Y-118793904D02*
X181209524Y-118793904D01*
X180980952Y-118793904D02*
X180980952Y-117993904D01*
X180980952Y-117993904D02*
X181057143Y-118108190D01*
X181057143Y-118108190D02*
X181133333Y-118184380D01*
X181133333Y-118184380D02*
X181209524Y-118222476D01*
X180485714Y-117993904D02*
X179952380Y-117993904D01*
X179952380Y-117993904D02*
X180295238Y-118793904D01*
X155426380Y-218256714D02*
X154426380Y-218256714D01*
X154426380Y-218256714D02*
X154426380Y-218494809D01*
X154426380Y-218494809D02*
X154474000Y-218637666D01*
X154474000Y-218637666D02*
X154569238Y-218732904D01*
X154569238Y-218732904D02*
X154664476Y-218780523D01*
X154664476Y-218780523D02*
X154854952Y-218828142D01*
X154854952Y-218828142D02*
X154997809Y-218828142D01*
X154997809Y-218828142D02*
X155188285Y-218780523D01*
X155188285Y-218780523D02*
X155283523Y-218732904D01*
X155283523Y-218732904D02*
X155378761Y-218637666D01*
X155378761Y-218637666D02*
X155426380Y-218494809D01*
X155426380Y-218494809D02*
X155426380Y-218256714D01*
X155426380Y-219780523D02*
X155426380Y-219209095D01*
X155426380Y-219494809D02*
X154426380Y-219494809D01*
X154426380Y-219494809D02*
X154569238Y-219399571D01*
X154569238Y-219399571D02*
X154664476Y-219304333D01*
X154664476Y-219304333D02*
X154712095Y-219209095D01*
X154854952Y-220351952D02*
X154807333Y-220256714D01*
X154807333Y-220256714D02*
X154759714Y-220209095D01*
X154759714Y-220209095D02*
X154664476Y-220161476D01*
X154664476Y-220161476D02*
X154616857Y-220161476D01*
X154616857Y-220161476D02*
X154521619Y-220209095D01*
X154521619Y-220209095D02*
X154474000Y-220256714D01*
X154474000Y-220256714D02*
X154426380Y-220351952D01*
X154426380Y-220351952D02*
X154426380Y-220542428D01*
X154426380Y-220542428D02*
X154474000Y-220637666D01*
X154474000Y-220637666D02*
X154521619Y-220685285D01*
X154521619Y-220685285D02*
X154616857Y-220732904D01*
X154616857Y-220732904D02*
X154664476Y-220732904D01*
X154664476Y-220732904D02*
X154759714Y-220685285D01*
X154759714Y-220685285D02*
X154807333Y-220637666D01*
X154807333Y-220637666D02*
X154854952Y-220542428D01*
X154854952Y-220542428D02*
X154854952Y-220351952D01*
X154854952Y-220351952D02*
X154902571Y-220256714D01*
X154902571Y-220256714D02*
X154950190Y-220209095D01*
X154950190Y-220209095D02*
X155045428Y-220161476D01*
X155045428Y-220161476D02*
X155235904Y-220161476D01*
X155235904Y-220161476D02*
X155331142Y-220209095D01*
X155331142Y-220209095D02*
X155378761Y-220256714D01*
X155378761Y-220256714D02*
X155426380Y-220351952D01*
X155426380Y-220351952D02*
X155426380Y-220542428D01*
X155426380Y-220542428D02*
X155378761Y-220637666D01*
X155378761Y-220637666D02*
X155331142Y-220685285D01*
X155331142Y-220685285D02*
X155235904Y-220732904D01*
X155235904Y-220732904D02*
X155045428Y-220732904D01*
X155045428Y-220732904D02*
X154950190Y-220685285D01*
X154950190Y-220685285D02*
X154902571Y-220637666D01*
X154902571Y-220637666D02*
X154854952Y-220542428D01*
X233467714Y-53616667D02*
X233505809Y-53578571D01*
X233505809Y-53578571D02*
X233543904Y-53464286D01*
X233543904Y-53464286D02*
X233543904Y-53388095D01*
X233543904Y-53388095D02*
X233505809Y-53273809D01*
X233505809Y-53273809D02*
X233429619Y-53197619D01*
X233429619Y-53197619D02*
X233353428Y-53159524D01*
X233353428Y-53159524D02*
X233201047Y-53121428D01*
X233201047Y-53121428D02*
X233086761Y-53121428D01*
X233086761Y-53121428D02*
X232934380Y-53159524D01*
X232934380Y-53159524D02*
X232858190Y-53197619D01*
X232858190Y-53197619D02*
X232782000Y-53273809D01*
X232782000Y-53273809D02*
X232743904Y-53388095D01*
X232743904Y-53388095D02*
X232743904Y-53464286D01*
X232743904Y-53464286D02*
X232782000Y-53578571D01*
X232782000Y-53578571D02*
X232820095Y-53616667D01*
X233543904Y-54378571D02*
X233543904Y-53921428D01*
X233543904Y-54150000D02*
X232743904Y-54150000D01*
X232743904Y-54150000D02*
X232858190Y-54073809D01*
X232858190Y-54073809D02*
X232934380Y-53997619D01*
X232934380Y-53997619D02*
X232972476Y-53921428D01*
X236514285Y-71967714D02*
X236552381Y-72005809D01*
X236552381Y-72005809D02*
X236666666Y-72043904D01*
X236666666Y-72043904D02*
X236742857Y-72043904D01*
X236742857Y-72043904D02*
X236857143Y-72005809D01*
X236857143Y-72005809D02*
X236933333Y-71929619D01*
X236933333Y-71929619D02*
X236971428Y-71853428D01*
X236971428Y-71853428D02*
X237009524Y-71701047D01*
X237009524Y-71701047D02*
X237009524Y-71586761D01*
X237009524Y-71586761D02*
X236971428Y-71434380D01*
X236971428Y-71434380D02*
X236933333Y-71358190D01*
X236933333Y-71358190D02*
X236857143Y-71282000D01*
X236857143Y-71282000D02*
X236742857Y-71243904D01*
X236742857Y-71243904D02*
X236666666Y-71243904D01*
X236666666Y-71243904D02*
X236552381Y-71282000D01*
X236552381Y-71282000D02*
X236514285Y-71320095D01*
X235752381Y-72043904D02*
X236209524Y-72043904D01*
X235980952Y-72043904D02*
X235980952Y-71243904D01*
X235980952Y-71243904D02*
X236057143Y-71358190D01*
X236057143Y-71358190D02*
X236133333Y-71434380D01*
X236133333Y-71434380D02*
X236209524Y-71472476D01*
X235028571Y-71243904D02*
X235409523Y-71243904D01*
X235409523Y-71243904D02*
X235447619Y-71624857D01*
X235447619Y-71624857D02*
X235409523Y-71586761D01*
X235409523Y-71586761D02*
X235333333Y-71548666D01*
X235333333Y-71548666D02*
X235142857Y-71548666D01*
X235142857Y-71548666D02*
X235066666Y-71586761D01*
X235066666Y-71586761D02*
X235028571Y-71624857D01*
X235028571Y-71624857D02*
X234990476Y-71701047D01*
X234990476Y-71701047D02*
X234990476Y-71891523D01*
X234990476Y-71891523D02*
X235028571Y-71967714D01*
X235028571Y-71967714D02*
X235066666Y-72005809D01*
X235066666Y-72005809D02*
X235142857Y-72043904D01*
X235142857Y-72043904D02*
X235333333Y-72043904D01*
X235333333Y-72043904D02*
X235409523Y-72005809D01*
X235409523Y-72005809D02*
X235447619Y-71967714D01*
X237383332Y-60217714D02*
X237421428Y-60255809D01*
X237421428Y-60255809D02*
X237535713Y-60293904D01*
X237535713Y-60293904D02*
X237611904Y-60293904D01*
X237611904Y-60293904D02*
X237726190Y-60255809D01*
X237726190Y-60255809D02*
X237802380Y-60179619D01*
X237802380Y-60179619D02*
X237840475Y-60103428D01*
X237840475Y-60103428D02*
X237878571Y-59951047D01*
X237878571Y-59951047D02*
X237878571Y-59836761D01*
X237878571Y-59836761D02*
X237840475Y-59684380D01*
X237840475Y-59684380D02*
X237802380Y-59608190D01*
X237802380Y-59608190D02*
X237726190Y-59532000D01*
X237726190Y-59532000D02*
X237611904Y-59493904D01*
X237611904Y-59493904D02*
X237535713Y-59493904D01*
X237535713Y-59493904D02*
X237421428Y-59532000D01*
X237421428Y-59532000D02*
X237383332Y-59570095D01*
X236659523Y-59493904D02*
X237040475Y-59493904D01*
X237040475Y-59493904D02*
X237078571Y-59874857D01*
X237078571Y-59874857D02*
X237040475Y-59836761D01*
X237040475Y-59836761D02*
X236964285Y-59798666D01*
X236964285Y-59798666D02*
X236773809Y-59798666D01*
X236773809Y-59798666D02*
X236697618Y-59836761D01*
X236697618Y-59836761D02*
X236659523Y-59874857D01*
X236659523Y-59874857D02*
X236621428Y-59951047D01*
X236621428Y-59951047D02*
X236621428Y-60141523D01*
X236621428Y-60141523D02*
X236659523Y-60217714D01*
X236659523Y-60217714D02*
X236697618Y-60255809D01*
X236697618Y-60255809D02*
X236773809Y-60293904D01*
X236773809Y-60293904D02*
X236964285Y-60293904D01*
X236964285Y-60293904D02*
X237040475Y-60255809D01*
X237040475Y-60255809D02*
X237078571Y-60217714D01*
X152936380Y-106371714D02*
X151936380Y-106371714D01*
X151936380Y-106371714D02*
X151936380Y-106609809D01*
X151936380Y-106609809D02*
X151984000Y-106752666D01*
X151984000Y-106752666D02*
X152079238Y-106847904D01*
X152079238Y-106847904D02*
X152174476Y-106895523D01*
X152174476Y-106895523D02*
X152364952Y-106943142D01*
X152364952Y-106943142D02*
X152507809Y-106943142D01*
X152507809Y-106943142D02*
X152698285Y-106895523D01*
X152698285Y-106895523D02*
X152793523Y-106847904D01*
X152793523Y-106847904D02*
X152888761Y-106752666D01*
X152888761Y-106752666D02*
X152936380Y-106609809D01*
X152936380Y-106609809D02*
X152936380Y-106371714D01*
X152936380Y-107895523D02*
X152936380Y-107324095D01*
X152936380Y-107609809D02*
X151936380Y-107609809D01*
X151936380Y-107609809D02*
X152079238Y-107514571D01*
X152079238Y-107514571D02*
X152174476Y-107419333D01*
X152174476Y-107419333D02*
X152222095Y-107324095D01*
X152031619Y-108276476D02*
X151984000Y-108324095D01*
X151984000Y-108324095D02*
X151936380Y-108419333D01*
X151936380Y-108419333D02*
X151936380Y-108657428D01*
X151936380Y-108657428D02*
X151984000Y-108752666D01*
X151984000Y-108752666D02*
X152031619Y-108800285D01*
X152031619Y-108800285D02*
X152126857Y-108847904D01*
X152126857Y-108847904D02*
X152222095Y-108847904D01*
X152222095Y-108847904D02*
X152364952Y-108800285D01*
X152364952Y-108800285D02*
X152936380Y-108228857D01*
X152936380Y-108228857D02*
X152936380Y-108847904D01*
X233476190Y-77141190D02*
X233476190Y-77617380D01*
X233809523Y-76617380D02*
X233476190Y-77141190D01*
X233476190Y-77141190D02*
X233142857Y-76617380D01*
X232285714Y-77617380D02*
X232857142Y-77617380D01*
X232571428Y-77617380D02*
X232571428Y-76617380D01*
X232571428Y-76617380D02*
X232666666Y-76760238D01*
X232666666Y-76760238D02*
X232761904Y-76855476D01*
X232761904Y-76855476D02*
X232857142Y-76903095D01*
X261357380Y-100832714D02*
X260357380Y-100832714D01*
X260357380Y-100832714D02*
X260357380Y-101070809D01*
X260357380Y-101070809D02*
X260405000Y-101213666D01*
X260405000Y-101213666D02*
X260500238Y-101308904D01*
X260500238Y-101308904D02*
X260595476Y-101356523D01*
X260595476Y-101356523D02*
X260785952Y-101404142D01*
X260785952Y-101404142D02*
X260928809Y-101404142D01*
X260928809Y-101404142D02*
X261119285Y-101356523D01*
X261119285Y-101356523D02*
X261214523Y-101308904D01*
X261214523Y-101308904D02*
X261309761Y-101213666D01*
X261309761Y-101213666D02*
X261357380Y-101070809D01*
X261357380Y-101070809D02*
X261357380Y-100832714D01*
X260357380Y-101737476D02*
X260357380Y-102356523D01*
X260357380Y-102356523D02*
X260738333Y-102023190D01*
X260738333Y-102023190D02*
X260738333Y-102166047D01*
X260738333Y-102166047D02*
X260785952Y-102261285D01*
X260785952Y-102261285D02*
X260833571Y-102308904D01*
X260833571Y-102308904D02*
X260928809Y-102356523D01*
X260928809Y-102356523D02*
X261166904Y-102356523D01*
X261166904Y-102356523D02*
X261262142Y-102308904D01*
X261262142Y-102308904D02*
X261309761Y-102261285D01*
X261309761Y-102261285D02*
X261357380Y-102166047D01*
X261357380Y-102166047D02*
X261357380Y-101880333D01*
X261357380Y-101880333D02*
X261309761Y-101785095D01*
X261309761Y-101785095D02*
X261262142Y-101737476D01*
X260452619Y-102737476D02*
X260405000Y-102785095D01*
X260405000Y-102785095D02*
X260357380Y-102880333D01*
X260357380Y-102880333D02*
X260357380Y-103118428D01*
X260357380Y-103118428D02*
X260405000Y-103213666D01*
X260405000Y-103213666D02*
X260452619Y-103261285D01*
X260452619Y-103261285D02*
X260547857Y-103308904D01*
X260547857Y-103308904D02*
X260643095Y-103308904D01*
X260643095Y-103308904D02*
X260785952Y-103261285D01*
X260785952Y-103261285D02*
X261357380Y-102689857D01*
X261357380Y-102689857D02*
X261357380Y-103308904D01*
X243718380Y-140124714D02*
X242718380Y-140124714D01*
X242718380Y-140124714D02*
X242718380Y-140362809D01*
X242718380Y-140362809D02*
X242766000Y-140505666D01*
X242766000Y-140505666D02*
X242861238Y-140600904D01*
X242861238Y-140600904D02*
X242956476Y-140648523D01*
X242956476Y-140648523D02*
X243146952Y-140696142D01*
X243146952Y-140696142D02*
X243289809Y-140696142D01*
X243289809Y-140696142D02*
X243480285Y-140648523D01*
X243480285Y-140648523D02*
X243575523Y-140600904D01*
X243575523Y-140600904D02*
X243670761Y-140505666D01*
X243670761Y-140505666D02*
X243718380Y-140362809D01*
X243718380Y-140362809D02*
X243718380Y-140124714D01*
X242813619Y-141077095D02*
X242766000Y-141124714D01*
X242766000Y-141124714D02*
X242718380Y-141219952D01*
X242718380Y-141219952D02*
X242718380Y-141458047D01*
X242718380Y-141458047D02*
X242766000Y-141553285D01*
X242766000Y-141553285D02*
X242813619Y-141600904D01*
X242813619Y-141600904D02*
X242908857Y-141648523D01*
X242908857Y-141648523D02*
X243004095Y-141648523D01*
X243004095Y-141648523D02*
X243146952Y-141600904D01*
X243146952Y-141600904D02*
X243718380Y-141029476D01*
X243718380Y-141029476D02*
X243718380Y-141648523D01*
X243051714Y-142505666D02*
X243718380Y-142505666D01*
X242670761Y-142267571D02*
X243385047Y-142029476D01*
X243385047Y-142029476D02*
X243385047Y-142648523D01*
X106407380Y-126154905D02*
X105407380Y-126154905D01*
X105407380Y-126154905D02*
X105407380Y-126393000D01*
X105407380Y-126393000D02*
X105455000Y-126535857D01*
X105455000Y-126535857D02*
X105550238Y-126631095D01*
X105550238Y-126631095D02*
X105645476Y-126678714D01*
X105645476Y-126678714D02*
X105835952Y-126726333D01*
X105835952Y-126726333D02*
X105978809Y-126726333D01*
X105978809Y-126726333D02*
X106169285Y-126678714D01*
X106169285Y-126678714D02*
X106264523Y-126631095D01*
X106264523Y-126631095D02*
X106359761Y-126535857D01*
X106359761Y-126535857D02*
X106407380Y-126393000D01*
X106407380Y-126393000D02*
X106407380Y-126154905D01*
X105407380Y-127059667D02*
X105407380Y-127726333D01*
X105407380Y-127726333D02*
X106407380Y-127297762D01*
X84189380Y-102252905D02*
X83189380Y-102252905D01*
X83189380Y-102252905D02*
X83189380Y-102491000D01*
X83189380Y-102491000D02*
X83237000Y-102633857D01*
X83237000Y-102633857D02*
X83332238Y-102729095D01*
X83332238Y-102729095D02*
X83427476Y-102776714D01*
X83427476Y-102776714D02*
X83617952Y-102824333D01*
X83617952Y-102824333D02*
X83760809Y-102824333D01*
X83760809Y-102824333D02*
X83951285Y-102776714D01*
X83951285Y-102776714D02*
X84046523Y-102729095D01*
X84046523Y-102729095D02*
X84141761Y-102633857D01*
X84141761Y-102633857D02*
X84189380Y-102491000D01*
X84189380Y-102491000D02*
X84189380Y-102252905D01*
X83284619Y-103205286D02*
X83237000Y-103252905D01*
X83237000Y-103252905D02*
X83189380Y-103348143D01*
X83189380Y-103348143D02*
X83189380Y-103586238D01*
X83189380Y-103586238D02*
X83237000Y-103681476D01*
X83237000Y-103681476D02*
X83284619Y-103729095D01*
X83284619Y-103729095D02*
X83379857Y-103776714D01*
X83379857Y-103776714D02*
X83475095Y-103776714D01*
X83475095Y-103776714D02*
X83617952Y-103729095D01*
X83617952Y-103729095D02*
X84189380Y-103157667D01*
X84189380Y-103157667D02*
X84189380Y-103776714D01*
X240561904Y-51207380D02*
X240561904Y-52016904D01*
X240561904Y-52016904D02*
X240514285Y-52112142D01*
X240514285Y-52112142D02*
X240466666Y-52159761D01*
X240466666Y-52159761D02*
X240371428Y-52207380D01*
X240371428Y-52207380D02*
X240180952Y-52207380D01*
X240180952Y-52207380D02*
X240085714Y-52159761D01*
X240085714Y-52159761D02*
X240038095Y-52112142D01*
X240038095Y-52112142D02*
X239990476Y-52016904D01*
X239990476Y-52016904D02*
X239990476Y-51207380D01*
X239085714Y-51207380D02*
X239276190Y-51207380D01*
X239276190Y-51207380D02*
X239371428Y-51255000D01*
X239371428Y-51255000D02*
X239419047Y-51302619D01*
X239419047Y-51302619D02*
X239514285Y-51445476D01*
X239514285Y-51445476D02*
X239561904Y-51635952D01*
X239561904Y-51635952D02*
X239561904Y-52016904D01*
X239561904Y-52016904D02*
X239514285Y-52112142D01*
X239514285Y-52112142D02*
X239466666Y-52159761D01*
X239466666Y-52159761D02*
X239371428Y-52207380D01*
X239371428Y-52207380D02*
X239180952Y-52207380D01*
X239180952Y-52207380D02*
X239085714Y-52159761D01*
X239085714Y-52159761D02*
X239038095Y-52112142D01*
X239038095Y-52112142D02*
X238990476Y-52016904D01*
X238990476Y-52016904D02*
X238990476Y-51778809D01*
X238990476Y-51778809D02*
X239038095Y-51683571D01*
X239038095Y-51683571D02*
X239085714Y-51635952D01*
X239085714Y-51635952D02*
X239180952Y-51588333D01*
X239180952Y-51588333D02*
X239371428Y-51588333D01*
X239371428Y-51588333D02*
X239466666Y-51635952D01*
X239466666Y-51635952D02*
X239514285Y-51683571D01*
X239514285Y-51683571D02*
X239561904Y-51778809D01*
X226883332Y-64717714D02*
X226921428Y-64755809D01*
X226921428Y-64755809D02*
X227035713Y-64793904D01*
X227035713Y-64793904D02*
X227111904Y-64793904D01*
X227111904Y-64793904D02*
X227226190Y-64755809D01*
X227226190Y-64755809D02*
X227302380Y-64679619D01*
X227302380Y-64679619D02*
X227340475Y-64603428D01*
X227340475Y-64603428D02*
X227378571Y-64451047D01*
X227378571Y-64451047D02*
X227378571Y-64336761D01*
X227378571Y-64336761D02*
X227340475Y-64184380D01*
X227340475Y-64184380D02*
X227302380Y-64108190D01*
X227302380Y-64108190D02*
X227226190Y-64032000D01*
X227226190Y-64032000D02*
X227111904Y-63993904D01*
X227111904Y-63993904D02*
X227035713Y-63993904D01*
X227035713Y-63993904D02*
X226921428Y-64032000D01*
X226921428Y-64032000D02*
X226883332Y-64070095D01*
X226197618Y-63993904D02*
X226349999Y-63993904D01*
X226349999Y-63993904D02*
X226426190Y-64032000D01*
X226426190Y-64032000D02*
X226464285Y-64070095D01*
X226464285Y-64070095D02*
X226540475Y-64184380D01*
X226540475Y-64184380D02*
X226578571Y-64336761D01*
X226578571Y-64336761D02*
X226578571Y-64641523D01*
X226578571Y-64641523D02*
X226540475Y-64717714D01*
X226540475Y-64717714D02*
X226502380Y-64755809D01*
X226502380Y-64755809D02*
X226426190Y-64793904D01*
X226426190Y-64793904D02*
X226273809Y-64793904D01*
X226273809Y-64793904D02*
X226197618Y-64755809D01*
X226197618Y-64755809D02*
X226159523Y-64717714D01*
X226159523Y-64717714D02*
X226121428Y-64641523D01*
X226121428Y-64641523D02*
X226121428Y-64451047D01*
X226121428Y-64451047D02*
X226159523Y-64374857D01*
X226159523Y-64374857D02*
X226197618Y-64336761D01*
X226197618Y-64336761D02*
X226273809Y-64298666D01*
X226273809Y-64298666D02*
X226426190Y-64298666D01*
X226426190Y-64298666D02*
X226502380Y-64336761D01*
X226502380Y-64336761D02*
X226540475Y-64374857D01*
X226540475Y-64374857D02*
X226578571Y-64451047D01*
X166241380Y-85733714D02*
X165241380Y-85733714D01*
X165241380Y-85733714D02*
X165241380Y-85971809D01*
X165241380Y-85971809D02*
X165289000Y-86114666D01*
X165289000Y-86114666D02*
X165384238Y-86209904D01*
X165384238Y-86209904D02*
X165479476Y-86257523D01*
X165479476Y-86257523D02*
X165669952Y-86305142D01*
X165669952Y-86305142D02*
X165812809Y-86305142D01*
X165812809Y-86305142D02*
X166003285Y-86257523D01*
X166003285Y-86257523D02*
X166098523Y-86209904D01*
X166098523Y-86209904D02*
X166193761Y-86114666D01*
X166193761Y-86114666D02*
X166241380Y-85971809D01*
X166241380Y-85971809D02*
X166241380Y-85733714D01*
X165574714Y-87162285D02*
X166241380Y-87162285D01*
X165193761Y-86924190D02*
X165908047Y-86686095D01*
X165908047Y-86686095D02*
X165908047Y-87305142D01*
X165241380Y-87876571D02*
X165241380Y-87971809D01*
X165241380Y-87971809D02*
X165289000Y-88067047D01*
X165289000Y-88067047D02*
X165336619Y-88114666D01*
X165336619Y-88114666D02*
X165431857Y-88162285D01*
X165431857Y-88162285D02*
X165622333Y-88209904D01*
X165622333Y-88209904D02*
X165860428Y-88209904D01*
X165860428Y-88209904D02*
X166050904Y-88162285D01*
X166050904Y-88162285D02*
X166146142Y-88114666D01*
X166146142Y-88114666D02*
X166193761Y-88067047D01*
X166193761Y-88067047D02*
X166241380Y-87971809D01*
X166241380Y-87971809D02*
X166241380Y-87876571D01*
X166241380Y-87876571D02*
X166193761Y-87781333D01*
X166193761Y-87781333D02*
X166146142Y-87733714D01*
X166146142Y-87733714D02*
X166050904Y-87686095D01*
X166050904Y-87686095D02*
X165860428Y-87638476D01*
X165860428Y-87638476D02*
X165622333Y-87638476D01*
X165622333Y-87638476D02*
X165431857Y-87686095D01*
X165431857Y-87686095D02*
X165336619Y-87733714D01*
X165336619Y-87733714D02*
X165289000Y-87781333D01*
X165289000Y-87781333D02*
X165241380Y-87876571D01*
X312050380Y-136546714D02*
X311050380Y-136546714D01*
X311050380Y-136546714D02*
X311050380Y-136784809D01*
X311050380Y-136784809D02*
X311098000Y-136927666D01*
X311098000Y-136927666D02*
X311193238Y-137022904D01*
X311193238Y-137022904D02*
X311288476Y-137070523D01*
X311288476Y-137070523D02*
X311478952Y-137118142D01*
X311478952Y-137118142D02*
X311621809Y-137118142D01*
X311621809Y-137118142D02*
X311812285Y-137070523D01*
X311812285Y-137070523D02*
X311907523Y-137022904D01*
X311907523Y-137022904D02*
X312002761Y-136927666D01*
X312002761Y-136927666D02*
X312050380Y-136784809D01*
X312050380Y-136784809D02*
X312050380Y-136546714D01*
X311145619Y-137499095D02*
X311098000Y-137546714D01*
X311098000Y-137546714D02*
X311050380Y-137641952D01*
X311050380Y-137641952D02*
X311050380Y-137880047D01*
X311050380Y-137880047D02*
X311098000Y-137975285D01*
X311098000Y-137975285D02*
X311145619Y-138022904D01*
X311145619Y-138022904D02*
X311240857Y-138070523D01*
X311240857Y-138070523D02*
X311336095Y-138070523D01*
X311336095Y-138070523D02*
X311478952Y-138022904D01*
X311478952Y-138022904D02*
X312050380Y-137451476D01*
X312050380Y-137451476D02*
X312050380Y-138070523D01*
X311050380Y-138403857D02*
X311050380Y-139070523D01*
X311050380Y-139070523D02*
X312050380Y-138641952D01*
X229383332Y-70217714D02*
X229421428Y-70255809D01*
X229421428Y-70255809D02*
X229535713Y-70293904D01*
X229535713Y-70293904D02*
X229611904Y-70293904D01*
X229611904Y-70293904D02*
X229726190Y-70255809D01*
X229726190Y-70255809D02*
X229802380Y-70179619D01*
X229802380Y-70179619D02*
X229840475Y-70103428D01*
X229840475Y-70103428D02*
X229878571Y-69951047D01*
X229878571Y-69951047D02*
X229878571Y-69836761D01*
X229878571Y-69836761D02*
X229840475Y-69684380D01*
X229840475Y-69684380D02*
X229802380Y-69608190D01*
X229802380Y-69608190D02*
X229726190Y-69532000D01*
X229726190Y-69532000D02*
X229611904Y-69493904D01*
X229611904Y-69493904D02*
X229535713Y-69493904D01*
X229535713Y-69493904D02*
X229421428Y-69532000D01*
X229421428Y-69532000D02*
X229383332Y-69570095D01*
X229116666Y-69493904D02*
X228621428Y-69493904D01*
X228621428Y-69493904D02*
X228888094Y-69798666D01*
X228888094Y-69798666D02*
X228773809Y-69798666D01*
X228773809Y-69798666D02*
X228697618Y-69836761D01*
X228697618Y-69836761D02*
X228659523Y-69874857D01*
X228659523Y-69874857D02*
X228621428Y-69951047D01*
X228621428Y-69951047D02*
X228621428Y-70141523D01*
X228621428Y-70141523D02*
X228659523Y-70217714D01*
X228659523Y-70217714D02*
X228697618Y-70255809D01*
X228697618Y-70255809D02*
X228773809Y-70293904D01*
X228773809Y-70293904D02*
X229002380Y-70293904D01*
X229002380Y-70293904D02*
X229078571Y-70255809D01*
X229078571Y-70255809D02*
X229116666Y-70217714D01*
D11*
X251322880Y-72365334D02*
X251346690Y-72436762D01*
X251346690Y-72436762D02*
X251346690Y-72555810D01*
X251346690Y-72555810D02*
X251322880Y-72603429D01*
X251322880Y-72603429D02*
X251299071Y-72627238D01*
X251299071Y-72627238D02*
X251251452Y-72651048D01*
X251251452Y-72651048D02*
X251203833Y-72651048D01*
X251203833Y-72651048D02*
X251156214Y-72627238D01*
X251156214Y-72627238D02*
X251132404Y-72603429D01*
X251132404Y-72603429D02*
X251108595Y-72555810D01*
X251108595Y-72555810D02*
X251084785Y-72460572D01*
X251084785Y-72460572D02*
X251060976Y-72412953D01*
X251060976Y-72412953D02*
X251037166Y-72389143D01*
X251037166Y-72389143D02*
X250989547Y-72365334D01*
X250989547Y-72365334D02*
X250941928Y-72365334D01*
X250941928Y-72365334D02*
X250894309Y-72389143D01*
X250894309Y-72389143D02*
X250870500Y-72412953D01*
X250870500Y-72412953D02*
X250846690Y-72460572D01*
X250846690Y-72460572D02*
X250846690Y-72579619D01*
X250846690Y-72579619D02*
X250870500Y-72651048D01*
X250846690Y-72817714D02*
X251346690Y-72936762D01*
X251346690Y-72936762D02*
X250989547Y-73032000D01*
X250989547Y-73032000D02*
X251346690Y-73127238D01*
X251346690Y-73127238D02*
X250846690Y-73246286D01*
X250894309Y-73412953D02*
X250870500Y-73436762D01*
X250870500Y-73436762D02*
X250846690Y-73484381D01*
X250846690Y-73484381D02*
X250846690Y-73603429D01*
X250846690Y-73603429D02*
X250870500Y-73651048D01*
X250870500Y-73651048D02*
X250894309Y-73674857D01*
X250894309Y-73674857D02*
X250941928Y-73698667D01*
X250941928Y-73698667D02*
X250989547Y-73698667D01*
X250989547Y-73698667D02*
X251060976Y-73674857D01*
X251060976Y-73674857D02*
X251346690Y-73389143D01*
X251346690Y-73389143D02*
X251346690Y-73698667D01*
D10*
X231543904Y-53616667D02*
X231162952Y-53350000D01*
X231543904Y-53159524D02*
X230743904Y-53159524D01*
X230743904Y-53159524D02*
X230743904Y-53464286D01*
X230743904Y-53464286D02*
X230782000Y-53540476D01*
X230782000Y-53540476D02*
X230820095Y-53578571D01*
X230820095Y-53578571D02*
X230896285Y-53616667D01*
X230896285Y-53616667D02*
X231010571Y-53616667D01*
X231010571Y-53616667D02*
X231086761Y-53578571D01*
X231086761Y-53578571D02*
X231124857Y-53540476D01*
X231124857Y-53540476D02*
X231162952Y-53464286D01*
X231162952Y-53464286D02*
X231162952Y-53159524D01*
X230743904Y-53883333D02*
X230743904Y-54378571D01*
X230743904Y-54378571D02*
X231048666Y-54111905D01*
X231048666Y-54111905D02*
X231048666Y-54226190D01*
X231048666Y-54226190D02*
X231086761Y-54302381D01*
X231086761Y-54302381D02*
X231124857Y-54340476D01*
X231124857Y-54340476D02*
X231201047Y-54378571D01*
X231201047Y-54378571D02*
X231391523Y-54378571D01*
X231391523Y-54378571D02*
X231467714Y-54340476D01*
X231467714Y-54340476D02*
X231505809Y-54302381D01*
X231505809Y-54302381D02*
X231543904Y-54226190D01*
X231543904Y-54226190D02*
X231543904Y-53997619D01*
X231543904Y-53997619D02*
X231505809Y-53921428D01*
X231505809Y-53921428D02*
X231467714Y-53883333D01*
X86953380Y-77406905D02*
X85953380Y-77406905D01*
X85953380Y-77406905D02*
X85953380Y-77645000D01*
X85953380Y-77645000D02*
X86001000Y-77787857D01*
X86001000Y-77787857D02*
X86096238Y-77883095D01*
X86096238Y-77883095D02*
X86191476Y-77930714D01*
X86191476Y-77930714D02*
X86381952Y-77978333D01*
X86381952Y-77978333D02*
X86524809Y-77978333D01*
X86524809Y-77978333D02*
X86715285Y-77930714D01*
X86715285Y-77930714D02*
X86810523Y-77883095D01*
X86810523Y-77883095D02*
X86905761Y-77787857D01*
X86905761Y-77787857D02*
X86953380Y-77645000D01*
X86953380Y-77645000D02*
X86953380Y-77406905D01*
X86953380Y-78454524D02*
X86953380Y-78645000D01*
X86953380Y-78645000D02*
X86905761Y-78740238D01*
X86905761Y-78740238D02*
X86858142Y-78787857D01*
X86858142Y-78787857D02*
X86715285Y-78883095D01*
X86715285Y-78883095D02*
X86524809Y-78930714D01*
X86524809Y-78930714D02*
X86143857Y-78930714D01*
X86143857Y-78930714D02*
X86048619Y-78883095D01*
X86048619Y-78883095D02*
X86001000Y-78835476D01*
X86001000Y-78835476D02*
X85953380Y-78740238D01*
X85953380Y-78740238D02*
X85953380Y-78549762D01*
X85953380Y-78549762D02*
X86001000Y-78454524D01*
X86001000Y-78454524D02*
X86048619Y-78406905D01*
X86048619Y-78406905D02*
X86143857Y-78359286D01*
X86143857Y-78359286D02*
X86381952Y-78359286D01*
X86381952Y-78359286D02*
X86477190Y-78406905D01*
X86477190Y-78406905D02*
X86524809Y-78454524D01*
X86524809Y-78454524D02*
X86572428Y-78549762D01*
X86572428Y-78549762D02*
X86572428Y-78740238D01*
X86572428Y-78740238D02*
X86524809Y-78835476D01*
X86524809Y-78835476D02*
X86477190Y-78883095D01*
X86477190Y-78883095D02*
X86381952Y-78930714D01*
X215059380Y-174932714D02*
X214059380Y-174932714D01*
X214059380Y-174932714D02*
X214059380Y-175170809D01*
X214059380Y-175170809D02*
X214107000Y-175313666D01*
X214107000Y-175313666D02*
X214202238Y-175408904D01*
X214202238Y-175408904D02*
X214297476Y-175456523D01*
X214297476Y-175456523D02*
X214487952Y-175504142D01*
X214487952Y-175504142D02*
X214630809Y-175504142D01*
X214630809Y-175504142D02*
X214821285Y-175456523D01*
X214821285Y-175456523D02*
X214916523Y-175408904D01*
X214916523Y-175408904D02*
X215011761Y-175313666D01*
X215011761Y-175313666D02*
X215059380Y-175170809D01*
X215059380Y-175170809D02*
X215059380Y-174932714D01*
X214154619Y-175885095D02*
X214107000Y-175932714D01*
X214107000Y-175932714D02*
X214059380Y-176027952D01*
X214059380Y-176027952D02*
X214059380Y-176266047D01*
X214059380Y-176266047D02*
X214107000Y-176361285D01*
X214107000Y-176361285D02*
X214154619Y-176408904D01*
X214154619Y-176408904D02*
X214249857Y-176456523D01*
X214249857Y-176456523D02*
X214345095Y-176456523D01*
X214345095Y-176456523D02*
X214487952Y-176408904D01*
X214487952Y-176408904D02*
X215059380Y-175837476D01*
X215059380Y-175837476D02*
X215059380Y-176456523D01*
X214154619Y-176837476D02*
X214107000Y-176885095D01*
X214107000Y-176885095D02*
X214059380Y-176980333D01*
X214059380Y-176980333D02*
X214059380Y-177218428D01*
X214059380Y-177218428D02*
X214107000Y-177313666D01*
X214107000Y-177313666D02*
X214154619Y-177361285D01*
X214154619Y-177361285D02*
X214249857Y-177408904D01*
X214249857Y-177408904D02*
X214345095Y-177408904D01*
X214345095Y-177408904D02*
X214487952Y-177361285D01*
X214487952Y-177361285D02*
X215059380Y-176789857D01*
X215059380Y-176789857D02*
X215059380Y-177408904D01*
X241163332Y-60993904D02*
X241429999Y-60612952D01*
X241620475Y-60993904D02*
X241620475Y-60193904D01*
X241620475Y-60193904D02*
X241315713Y-60193904D01*
X241315713Y-60193904D02*
X241239523Y-60232000D01*
X241239523Y-60232000D02*
X241201428Y-60270095D01*
X241201428Y-60270095D02*
X241163332Y-60346285D01*
X241163332Y-60346285D02*
X241163332Y-60460571D01*
X241163332Y-60460571D02*
X241201428Y-60536761D01*
X241201428Y-60536761D02*
X241239523Y-60574857D01*
X241239523Y-60574857D02*
X241315713Y-60612952D01*
X241315713Y-60612952D02*
X241620475Y-60612952D01*
X240439523Y-60193904D02*
X240820475Y-60193904D01*
X240820475Y-60193904D02*
X240858571Y-60574857D01*
X240858571Y-60574857D02*
X240820475Y-60536761D01*
X240820475Y-60536761D02*
X240744285Y-60498666D01*
X240744285Y-60498666D02*
X240553809Y-60498666D01*
X240553809Y-60498666D02*
X240477618Y-60536761D01*
X240477618Y-60536761D02*
X240439523Y-60574857D01*
X240439523Y-60574857D02*
X240401428Y-60651047D01*
X240401428Y-60651047D02*
X240401428Y-60841523D01*
X240401428Y-60841523D02*
X240439523Y-60917714D01*
X240439523Y-60917714D02*
X240477618Y-60955809D01*
X240477618Y-60955809D02*
X240553809Y-60993904D01*
X240553809Y-60993904D02*
X240744285Y-60993904D01*
X240744285Y-60993904D02*
X240820475Y-60955809D01*
X240820475Y-60955809D02*
X240858571Y-60917714D01*
X220358380Y-131218714D02*
X219358380Y-131218714D01*
X219358380Y-131218714D02*
X219358380Y-131456809D01*
X219358380Y-131456809D02*
X219406000Y-131599666D01*
X219406000Y-131599666D02*
X219501238Y-131694904D01*
X219501238Y-131694904D02*
X219596476Y-131742523D01*
X219596476Y-131742523D02*
X219786952Y-131790142D01*
X219786952Y-131790142D02*
X219929809Y-131790142D01*
X219929809Y-131790142D02*
X220120285Y-131742523D01*
X220120285Y-131742523D02*
X220215523Y-131694904D01*
X220215523Y-131694904D02*
X220310761Y-131599666D01*
X220310761Y-131599666D02*
X220358380Y-131456809D01*
X220358380Y-131456809D02*
X220358380Y-131218714D01*
X219358380Y-132123476D02*
X219358380Y-132742523D01*
X219358380Y-132742523D02*
X219739333Y-132409190D01*
X219739333Y-132409190D02*
X219739333Y-132552047D01*
X219739333Y-132552047D02*
X219786952Y-132647285D01*
X219786952Y-132647285D02*
X219834571Y-132694904D01*
X219834571Y-132694904D02*
X219929809Y-132742523D01*
X219929809Y-132742523D02*
X220167904Y-132742523D01*
X220167904Y-132742523D02*
X220263142Y-132694904D01*
X220263142Y-132694904D02*
X220310761Y-132647285D01*
X220310761Y-132647285D02*
X220358380Y-132552047D01*
X220358380Y-132552047D02*
X220358380Y-132266333D01*
X220358380Y-132266333D02*
X220310761Y-132171095D01*
X220310761Y-132171095D02*
X220263142Y-132123476D01*
X219358380Y-133599666D02*
X219358380Y-133409190D01*
X219358380Y-133409190D02*
X219406000Y-133313952D01*
X219406000Y-133313952D02*
X219453619Y-133266333D01*
X219453619Y-133266333D02*
X219596476Y-133171095D01*
X219596476Y-133171095D02*
X219786952Y-133123476D01*
X219786952Y-133123476D02*
X220167904Y-133123476D01*
X220167904Y-133123476D02*
X220263142Y-133171095D01*
X220263142Y-133171095D02*
X220310761Y-133218714D01*
X220310761Y-133218714D02*
X220358380Y-133313952D01*
X220358380Y-133313952D02*
X220358380Y-133504428D01*
X220358380Y-133504428D02*
X220310761Y-133599666D01*
X220310761Y-133599666D02*
X220263142Y-133647285D01*
X220263142Y-133647285D02*
X220167904Y-133694904D01*
X220167904Y-133694904D02*
X219929809Y-133694904D01*
X219929809Y-133694904D02*
X219834571Y-133647285D01*
X219834571Y-133647285D02*
X219786952Y-133599666D01*
X219786952Y-133599666D02*
X219739333Y-133504428D01*
X219739333Y-133504428D02*
X219739333Y-133313952D01*
X219739333Y-133313952D02*
X219786952Y-133218714D01*
X219786952Y-133218714D02*
X219834571Y-133171095D01*
X219834571Y-133171095D02*
X219929809Y-133123476D01*
X236514285Y-51217714D02*
X236552381Y-51255809D01*
X236552381Y-51255809D02*
X236666666Y-51293904D01*
X236666666Y-51293904D02*
X236742857Y-51293904D01*
X236742857Y-51293904D02*
X236857143Y-51255809D01*
X236857143Y-51255809D02*
X236933333Y-51179619D01*
X236933333Y-51179619D02*
X236971428Y-51103428D01*
X236971428Y-51103428D02*
X237009524Y-50951047D01*
X237009524Y-50951047D02*
X237009524Y-50836761D01*
X237009524Y-50836761D02*
X236971428Y-50684380D01*
X236971428Y-50684380D02*
X236933333Y-50608190D01*
X236933333Y-50608190D02*
X236857143Y-50532000D01*
X236857143Y-50532000D02*
X236742857Y-50493904D01*
X236742857Y-50493904D02*
X236666666Y-50493904D01*
X236666666Y-50493904D02*
X236552381Y-50532000D01*
X236552381Y-50532000D02*
X236514285Y-50570095D01*
X235752381Y-51293904D02*
X236209524Y-51293904D01*
X235980952Y-51293904D02*
X235980952Y-50493904D01*
X235980952Y-50493904D02*
X236057143Y-50608190D01*
X236057143Y-50608190D02*
X236133333Y-50684380D01*
X236133333Y-50684380D02*
X236209524Y-50722476D01*
X235066666Y-50760571D02*
X235066666Y-51293904D01*
X235257142Y-50455809D02*
X235447619Y-51027238D01*
X235447619Y-51027238D02*
X234952380Y-51027238D01*
X222764285Y-61717714D02*
X222802381Y-61755809D01*
X222802381Y-61755809D02*
X222916666Y-61793904D01*
X222916666Y-61793904D02*
X222992857Y-61793904D01*
X222992857Y-61793904D02*
X223107143Y-61755809D01*
X223107143Y-61755809D02*
X223183333Y-61679619D01*
X223183333Y-61679619D02*
X223221428Y-61603428D01*
X223221428Y-61603428D02*
X223259524Y-61451047D01*
X223259524Y-61451047D02*
X223259524Y-61336761D01*
X223259524Y-61336761D02*
X223221428Y-61184380D01*
X223221428Y-61184380D02*
X223183333Y-61108190D01*
X223183333Y-61108190D02*
X223107143Y-61032000D01*
X223107143Y-61032000D02*
X222992857Y-60993904D01*
X222992857Y-60993904D02*
X222916666Y-60993904D01*
X222916666Y-60993904D02*
X222802381Y-61032000D01*
X222802381Y-61032000D02*
X222764285Y-61070095D01*
X222002381Y-61793904D02*
X222459524Y-61793904D01*
X222230952Y-61793904D02*
X222230952Y-60993904D01*
X222230952Y-60993904D02*
X222307143Y-61108190D01*
X222307143Y-61108190D02*
X222383333Y-61184380D01*
X222383333Y-61184380D02*
X222459524Y-61222476D01*
X221507142Y-60993904D02*
X221430952Y-60993904D01*
X221430952Y-60993904D02*
X221354761Y-61032000D01*
X221354761Y-61032000D02*
X221316666Y-61070095D01*
X221316666Y-61070095D02*
X221278571Y-61146285D01*
X221278571Y-61146285D02*
X221240476Y-61298666D01*
X221240476Y-61298666D02*
X221240476Y-61489142D01*
X221240476Y-61489142D02*
X221278571Y-61641523D01*
X221278571Y-61641523D02*
X221316666Y-61717714D01*
X221316666Y-61717714D02*
X221354761Y-61755809D01*
X221354761Y-61755809D02*
X221430952Y-61793904D01*
X221430952Y-61793904D02*
X221507142Y-61793904D01*
X221507142Y-61793904D02*
X221583333Y-61755809D01*
X221583333Y-61755809D02*
X221621428Y-61717714D01*
X221621428Y-61717714D02*
X221659523Y-61641523D01*
X221659523Y-61641523D02*
X221697619Y-61489142D01*
X221697619Y-61489142D02*
X221697619Y-61298666D01*
X221697619Y-61298666D02*
X221659523Y-61146285D01*
X221659523Y-61146285D02*
X221621428Y-61070095D01*
X221621428Y-61070095D02*
X221583333Y-61032000D01*
X221583333Y-61032000D02*
X221507142Y-60993904D01*
X182393332Y-53043904D02*
X182659999Y-52662952D01*
X182850475Y-53043904D02*
X182850475Y-52243904D01*
X182850475Y-52243904D02*
X182545713Y-52243904D01*
X182545713Y-52243904D02*
X182469523Y-52282000D01*
X182469523Y-52282000D02*
X182431428Y-52320095D01*
X182431428Y-52320095D02*
X182393332Y-52396285D01*
X182393332Y-52396285D02*
X182393332Y-52510571D01*
X182393332Y-52510571D02*
X182431428Y-52586761D01*
X182431428Y-52586761D02*
X182469523Y-52624857D01*
X182469523Y-52624857D02*
X182545713Y-52662952D01*
X182545713Y-52662952D02*
X182850475Y-52662952D01*
X182088571Y-52320095D02*
X182050475Y-52282000D01*
X182050475Y-52282000D02*
X181974285Y-52243904D01*
X181974285Y-52243904D02*
X181783809Y-52243904D01*
X181783809Y-52243904D02*
X181707618Y-52282000D01*
X181707618Y-52282000D02*
X181669523Y-52320095D01*
X181669523Y-52320095D02*
X181631428Y-52396285D01*
X181631428Y-52396285D02*
X181631428Y-52472476D01*
X181631428Y-52472476D02*
X181669523Y-52586761D01*
X181669523Y-52586761D02*
X182126666Y-53043904D01*
X182126666Y-53043904D02*
X181631428Y-53043904D01*
X126811380Y-140600905D02*
X125811380Y-140600905D01*
X125811380Y-140600905D02*
X125811380Y-140839000D01*
X125811380Y-140839000D02*
X125859000Y-140981857D01*
X125859000Y-140981857D02*
X125954238Y-141077095D01*
X125954238Y-141077095D02*
X126049476Y-141124714D01*
X126049476Y-141124714D02*
X126239952Y-141172333D01*
X126239952Y-141172333D02*
X126382809Y-141172333D01*
X126382809Y-141172333D02*
X126573285Y-141124714D01*
X126573285Y-141124714D02*
X126668523Y-141077095D01*
X126668523Y-141077095D02*
X126763761Y-140981857D01*
X126763761Y-140981857D02*
X126811380Y-140839000D01*
X126811380Y-140839000D02*
X126811380Y-140600905D01*
X126239952Y-141743762D02*
X126192333Y-141648524D01*
X126192333Y-141648524D02*
X126144714Y-141600905D01*
X126144714Y-141600905D02*
X126049476Y-141553286D01*
X126049476Y-141553286D02*
X126001857Y-141553286D01*
X126001857Y-141553286D02*
X125906619Y-141600905D01*
X125906619Y-141600905D02*
X125859000Y-141648524D01*
X125859000Y-141648524D02*
X125811380Y-141743762D01*
X125811380Y-141743762D02*
X125811380Y-141934238D01*
X125811380Y-141934238D02*
X125859000Y-142029476D01*
X125859000Y-142029476D02*
X125906619Y-142077095D01*
X125906619Y-142077095D02*
X126001857Y-142124714D01*
X126001857Y-142124714D02*
X126049476Y-142124714D01*
X126049476Y-142124714D02*
X126144714Y-142077095D01*
X126144714Y-142077095D02*
X126192333Y-142029476D01*
X126192333Y-142029476D02*
X126239952Y-141934238D01*
X126239952Y-141934238D02*
X126239952Y-141743762D01*
X126239952Y-141743762D02*
X126287571Y-141648524D01*
X126287571Y-141648524D02*
X126335190Y-141600905D01*
X126335190Y-141600905D02*
X126430428Y-141553286D01*
X126430428Y-141553286D02*
X126620904Y-141553286D01*
X126620904Y-141553286D02*
X126716142Y-141600905D01*
X126716142Y-141600905D02*
X126763761Y-141648524D01*
X126763761Y-141648524D02*
X126811380Y-141743762D01*
X126811380Y-141743762D02*
X126811380Y-141934238D01*
X126811380Y-141934238D02*
X126763761Y-142029476D01*
X126763761Y-142029476D02*
X126716142Y-142077095D01*
X126716142Y-142077095D02*
X126620904Y-142124714D01*
X126620904Y-142124714D02*
X126430428Y-142124714D01*
X126430428Y-142124714D02*
X126335190Y-142077095D01*
X126335190Y-142077095D02*
X126287571Y-142029476D01*
X126287571Y-142029476D02*
X126239952Y-141934238D01*
X238189380Y-90430714D02*
X237189380Y-90430714D01*
X237189380Y-90430714D02*
X237189380Y-90668809D01*
X237189380Y-90668809D02*
X237237000Y-90811666D01*
X237237000Y-90811666D02*
X237332238Y-90906904D01*
X237332238Y-90906904D02*
X237427476Y-90954523D01*
X237427476Y-90954523D02*
X237617952Y-91002142D01*
X237617952Y-91002142D02*
X237760809Y-91002142D01*
X237760809Y-91002142D02*
X237951285Y-90954523D01*
X237951285Y-90954523D02*
X238046523Y-90906904D01*
X238046523Y-90906904D02*
X238141761Y-90811666D01*
X238141761Y-90811666D02*
X238189380Y-90668809D01*
X238189380Y-90668809D02*
X238189380Y-90430714D01*
X237189380Y-91335476D02*
X237189380Y-91954523D01*
X237189380Y-91954523D02*
X237570333Y-91621190D01*
X237570333Y-91621190D02*
X237570333Y-91764047D01*
X237570333Y-91764047D02*
X237617952Y-91859285D01*
X237617952Y-91859285D02*
X237665571Y-91906904D01*
X237665571Y-91906904D02*
X237760809Y-91954523D01*
X237760809Y-91954523D02*
X237998904Y-91954523D01*
X237998904Y-91954523D02*
X238094142Y-91906904D01*
X238094142Y-91906904D02*
X238141761Y-91859285D01*
X238141761Y-91859285D02*
X238189380Y-91764047D01*
X238189380Y-91764047D02*
X238189380Y-91478333D01*
X238189380Y-91478333D02*
X238141761Y-91383095D01*
X238141761Y-91383095D02*
X238094142Y-91335476D01*
X237522714Y-92811666D02*
X238189380Y-92811666D01*
X237141761Y-92573571D02*
X237856047Y-92335476D01*
X237856047Y-92335476D02*
X237856047Y-92954523D01*
X220427714Y-52965714D02*
X220465809Y-52927618D01*
X220465809Y-52927618D02*
X220503904Y-52813333D01*
X220503904Y-52813333D02*
X220503904Y-52737142D01*
X220503904Y-52737142D02*
X220465809Y-52622856D01*
X220465809Y-52622856D02*
X220389619Y-52546666D01*
X220389619Y-52546666D02*
X220313428Y-52508571D01*
X220313428Y-52508571D02*
X220161047Y-52470475D01*
X220161047Y-52470475D02*
X220046761Y-52470475D01*
X220046761Y-52470475D02*
X219894380Y-52508571D01*
X219894380Y-52508571D02*
X219818190Y-52546666D01*
X219818190Y-52546666D02*
X219742000Y-52622856D01*
X219742000Y-52622856D02*
X219703904Y-52737142D01*
X219703904Y-52737142D02*
X219703904Y-52813333D01*
X219703904Y-52813333D02*
X219742000Y-52927618D01*
X219742000Y-52927618D02*
X219780095Y-52965714D01*
X220503904Y-53727618D02*
X220503904Y-53270475D01*
X220503904Y-53499047D02*
X219703904Y-53499047D01*
X219703904Y-53499047D02*
X219818190Y-53422856D01*
X219818190Y-53422856D02*
X219894380Y-53346666D01*
X219894380Y-53346666D02*
X219932476Y-53270475D01*
X219703904Y-53994285D02*
X219703904Y-54489523D01*
X219703904Y-54489523D02*
X220008666Y-54222857D01*
X220008666Y-54222857D02*
X220008666Y-54337142D01*
X220008666Y-54337142D02*
X220046761Y-54413333D01*
X220046761Y-54413333D02*
X220084857Y-54451428D01*
X220084857Y-54451428D02*
X220161047Y-54489523D01*
X220161047Y-54489523D02*
X220351523Y-54489523D01*
X220351523Y-54489523D02*
X220427714Y-54451428D01*
X220427714Y-54451428D02*
X220465809Y-54413333D01*
X220465809Y-54413333D02*
X220503904Y-54337142D01*
X220503904Y-54337142D02*
X220503904Y-54108571D01*
X220503904Y-54108571D02*
X220465809Y-54032380D01*
X220465809Y-54032380D02*
X220427714Y-53994285D01*
X111732380Y-75985714D02*
X110732380Y-75985714D01*
X110732380Y-75985714D02*
X110732380Y-76223809D01*
X110732380Y-76223809D02*
X110780000Y-76366666D01*
X110780000Y-76366666D02*
X110875238Y-76461904D01*
X110875238Y-76461904D02*
X110970476Y-76509523D01*
X110970476Y-76509523D02*
X111160952Y-76557142D01*
X111160952Y-76557142D02*
X111303809Y-76557142D01*
X111303809Y-76557142D02*
X111494285Y-76509523D01*
X111494285Y-76509523D02*
X111589523Y-76461904D01*
X111589523Y-76461904D02*
X111684761Y-76366666D01*
X111684761Y-76366666D02*
X111732380Y-76223809D01*
X111732380Y-76223809D02*
X111732380Y-75985714D01*
X111732380Y-77509523D02*
X111732380Y-76938095D01*
X111732380Y-77223809D02*
X110732380Y-77223809D01*
X110732380Y-77223809D02*
X110875238Y-77128571D01*
X110875238Y-77128571D02*
X110970476Y-77033333D01*
X110970476Y-77033333D02*
X111018095Y-76938095D01*
X110732380Y-78128571D02*
X110732380Y-78223809D01*
X110732380Y-78223809D02*
X110780000Y-78319047D01*
X110780000Y-78319047D02*
X110827619Y-78366666D01*
X110827619Y-78366666D02*
X110922857Y-78414285D01*
X110922857Y-78414285D02*
X111113333Y-78461904D01*
X111113333Y-78461904D02*
X111351428Y-78461904D01*
X111351428Y-78461904D02*
X111541904Y-78414285D01*
X111541904Y-78414285D02*
X111637142Y-78366666D01*
X111637142Y-78366666D02*
X111684761Y-78319047D01*
X111684761Y-78319047D02*
X111732380Y-78223809D01*
X111732380Y-78223809D02*
X111732380Y-78128571D01*
X111732380Y-78128571D02*
X111684761Y-78033333D01*
X111684761Y-78033333D02*
X111637142Y-77985714D01*
X111637142Y-77985714D02*
X111541904Y-77938095D01*
X111541904Y-77938095D02*
X111351428Y-77890476D01*
X111351428Y-77890476D02*
X111113333Y-77890476D01*
X111113333Y-77890476D02*
X110922857Y-77938095D01*
X110922857Y-77938095D02*
X110827619Y-77985714D01*
X110827619Y-77985714D02*
X110780000Y-78033333D01*
X110780000Y-78033333D02*
X110732380Y-78128571D01*
X199467714Y-117735714D02*
X199505809Y-117697618D01*
X199505809Y-117697618D02*
X199543904Y-117583333D01*
X199543904Y-117583333D02*
X199543904Y-117507142D01*
X199543904Y-117507142D02*
X199505809Y-117392856D01*
X199505809Y-117392856D02*
X199429619Y-117316666D01*
X199429619Y-117316666D02*
X199353428Y-117278571D01*
X199353428Y-117278571D02*
X199201047Y-117240475D01*
X199201047Y-117240475D02*
X199086761Y-117240475D01*
X199086761Y-117240475D02*
X198934380Y-117278571D01*
X198934380Y-117278571D02*
X198858190Y-117316666D01*
X198858190Y-117316666D02*
X198782000Y-117392856D01*
X198782000Y-117392856D02*
X198743904Y-117507142D01*
X198743904Y-117507142D02*
X198743904Y-117583333D01*
X198743904Y-117583333D02*
X198782000Y-117697618D01*
X198782000Y-117697618D02*
X198820095Y-117735714D01*
X198820095Y-118040475D02*
X198782000Y-118078571D01*
X198782000Y-118078571D02*
X198743904Y-118154761D01*
X198743904Y-118154761D02*
X198743904Y-118345237D01*
X198743904Y-118345237D02*
X198782000Y-118421428D01*
X198782000Y-118421428D02*
X198820095Y-118459523D01*
X198820095Y-118459523D02*
X198896285Y-118497618D01*
X198896285Y-118497618D02*
X198972476Y-118497618D01*
X198972476Y-118497618D02*
X199086761Y-118459523D01*
X199086761Y-118459523D02*
X199543904Y-118002380D01*
X199543904Y-118002380D02*
X199543904Y-118497618D01*
X198743904Y-118764285D02*
X198743904Y-119259523D01*
X198743904Y-119259523D02*
X199048666Y-118992857D01*
X199048666Y-118992857D02*
X199048666Y-119107142D01*
X199048666Y-119107142D02*
X199086761Y-119183333D01*
X199086761Y-119183333D02*
X199124857Y-119221428D01*
X199124857Y-119221428D02*
X199201047Y-119259523D01*
X199201047Y-119259523D02*
X199391523Y-119259523D01*
X199391523Y-119259523D02*
X199467714Y-119221428D01*
X199467714Y-119221428D02*
X199505809Y-119183333D01*
X199505809Y-119183333D02*
X199543904Y-119107142D01*
X199543904Y-119107142D02*
X199543904Y-118878571D01*
X199543904Y-118878571D02*
X199505809Y-118802380D01*
X199505809Y-118802380D02*
X199467714Y-118764285D01*
X237483332Y-64717714D02*
X237521428Y-64755809D01*
X237521428Y-64755809D02*
X237635713Y-64793904D01*
X237635713Y-64793904D02*
X237711904Y-64793904D01*
X237711904Y-64793904D02*
X237826190Y-64755809D01*
X237826190Y-64755809D02*
X237902380Y-64679619D01*
X237902380Y-64679619D02*
X237940475Y-64603428D01*
X237940475Y-64603428D02*
X237978571Y-64451047D01*
X237978571Y-64451047D02*
X237978571Y-64336761D01*
X237978571Y-64336761D02*
X237940475Y-64184380D01*
X237940475Y-64184380D02*
X237902380Y-64108190D01*
X237902380Y-64108190D02*
X237826190Y-64032000D01*
X237826190Y-64032000D02*
X237711904Y-63993904D01*
X237711904Y-63993904D02*
X237635713Y-63993904D01*
X237635713Y-63993904D02*
X237521428Y-64032000D01*
X237521428Y-64032000D02*
X237483332Y-64070095D01*
X237216666Y-63993904D02*
X236683332Y-63993904D01*
X236683332Y-63993904D02*
X237026190Y-64793904D01*
X258796380Y-75985714D02*
X257796380Y-75985714D01*
X257796380Y-75985714D02*
X257796380Y-76223809D01*
X257796380Y-76223809D02*
X257844000Y-76366666D01*
X257844000Y-76366666D02*
X257939238Y-76461904D01*
X257939238Y-76461904D02*
X258034476Y-76509523D01*
X258034476Y-76509523D02*
X258224952Y-76557142D01*
X258224952Y-76557142D02*
X258367809Y-76557142D01*
X258367809Y-76557142D02*
X258558285Y-76509523D01*
X258558285Y-76509523D02*
X258653523Y-76461904D01*
X258653523Y-76461904D02*
X258748761Y-76366666D01*
X258748761Y-76366666D02*
X258796380Y-76223809D01*
X258796380Y-76223809D02*
X258796380Y-75985714D01*
X257796380Y-76890476D02*
X257796380Y-77509523D01*
X257796380Y-77509523D02*
X258177333Y-77176190D01*
X258177333Y-77176190D02*
X258177333Y-77319047D01*
X258177333Y-77319047D02*
X258224952Y-77414285D01*
X258224952Y-77414285D02*
X258272571Y-77461904D01*
X258272571Y-77461904D02*
X258367809Y-77509523D01*
X258367809Y-77509523D02*
X258605904Y-77509523D01*
X258605904Y-77509523D02*
X258701142Y-77461904D01*
X258701142Y-77461904D02*
X258748761Y-77414285D01*
X258748761Y-77414285D02*
X258796380Y-77319047D01*
X258796380Y-77319047D02*
X258796380Y-77033333D01*
X258796380Y-77033333D02*
X258748761Y-76938095D01*
X258748761Y-76938095D02*
X258701142Y-76890476D01*
X257796380Y-77842857D02*
X257796380Y-78461904D01*
X257796380Y-78461904D02*
X258177333Y-78128571D01*
X258177333Y-78128571D02*
X258177333Y-78271428D01*
X258177333Y-78271428D02*
X258224952Y-78366666D01*
X258224952Y-78366666D02*
X258272571Y-78414285D01*
X258272571Y-78414285D02*
X258367809Y-78461904D01*
X258367809Y-78461904D02*
X258605904Y-78461904D01*
X258605904Y-78461904D02*
X258701142Y-78414285D01*
X258701142Y-78414285D02*
X258748761Y-78366666D01*
X258748761Y-78366666D02*
X258796380Y-78271428D01*
X258796380Y-78271428D02*
X258796380Y-77985714D01*
X258796380Y-77985714D02*
X258748761Y-77890476D01*
X258748761Y-77890476D02*
X258701142Y-77842857D01*
X185392857Y-111662142D02*
X185440476Y-111709761D01*
X185440476Y-111709761D02*
X185583333Y-111757380D01*
X185583333Y-111757380D02*
X185678571Y-111757380D01*
X185678571Y-111757380D02*
X185821428Y-111709761D01*
X185821428Y-111709761D02*
X185916666Y-111614523D01*
X185916666Y-111614523D02*
X185964285Y-111519285D01*
X185964285Y-111519285D02*
X186011904Y-111328809D01*
X186011904Y-111328809D02*
X186011904Y-111185952D01*
X186011904Y-111185952D02*
X185964285Y-110995476D01*
X185964285Y-110995476D02*
X185916666Y-110900238D01*
X185916666Y-110900238D02*
X185821428Y-110805000D01*
X185821428Y-110805000D02*
X185678571Y-110757380D01*
X185678571Y-110757380D02*
X185583333Y-110757380D01*
X185583333Y-110757380D02*
X185440476Y-110805000D01*
X185440476Y-110805000D02*
X185392857Y-110852619D01*
X184440476Y-111757380D02*
X185011904Y-111757380D01*
X184726190Y-111757380D02*
X184726190Y-110757380D01*
X184726190Y-110757380D02*
X184821428Y-110900238D01*
X184821428Y-110900238D02*
X184916666Y-110995476D01*
X184916666Y-110995476D02*
X185011904Y-111043095D01*
X183964285Y-111757380D02*
X183773809Y-111757380D01*
X183773809Y-111757380D02*
X183678571Y-111709761D01*
X183678571Y-111709761D02*
X183630952Y-111662142D01*
X183630952Y-111662142D02*
X183535714Y-111519285D01*
X183535714Y-111519285D02*
X183488095Y-111328809D01*
X183488095Y-111328809D02*
X183488095Y-110947857D01*
X183488095Y-110947857D02*
X183535714Y-110852619D01*
X183535714Y-110852619D02*
X183583333Y-110805000D01*
X183583333Y-110805000D02*
X183678571Y-110757380D01*
X183678571Y-110757380D02*
X183869047Y-110757380D01*
X183869047Y-110757380D02*
X183964285Y-110805000D01*
X183964285Y-110805000D02*
X184011904Y-110852619D01*
X184011904Y-110852619D02*
X184059523Y-110947857D01*
X184059523Y-110947857D02*
X184059523Y-111185952D01*
X184059523Y-111185952D02*
X184011904Y-111281190D01*
X184011904Y-111281190D02*
X183964285Y-111328809D01*
X183964285Y-111328809D02*
X183869047Y-111376428D01*
X183869047Y-111376428D02*
X183678571Y-111376428D01*
X183678571Y-111376428D02*
X183583333Y-111328809D01*
X183583333Y-111328809D02*
X183535714Y-111281190D01*
X183535714Y-111281190D02*
X183488095Y-111185952D01*
X186597380Y-111923333D02*
X186121190Y-111590000D01*
X186597380Y-111351905D02*
X185597380Y-111351905D01*
X185597380Y-111351905D02*
X185597380Y-111732857D01*
X185597380Y-111732857D02*
X185645000Y-111828095D01*
X185645000Y-111828095D02*
X185692619Y-111875714D01*
X185692619Y-111875714D02*
X185787857Y-111923333D01*
X185787857Y-111923333D02*
X185930714Y-111923333D01*
X185930714Y-111923333D02*
X186025952Y-111875714D01*
X186025952Y-111875714D02*
X186073571Y-111828095D01*
X186073571Y-111828095D02*
X186121190Y-111732857D01*
X186121190Y-111732857D02*
X186121190Y-111351905D01*
X186025952Y-112494762D02*
X185978333Y-112399524D01*
X185978333Y-112399524D02*
X185930714Y-112351905D01*
X185930714Y-112351905D02*
X185835476Y-112304286D01*
X185835476Y-112304286D02*
X185787857Y-112304286D01*
X185787857Y-112304286D02*
X185692619Y-112351905D01*
X185692619Y-112351905D02*
X185645000Y-112399524D01*
X185645000Y-112399524D02*
X185597380Y-112494762D01*
X185597380Y-112494762D02*
X185597380Y-112685238D01*
X185597380Y-112685238D02*
X185645000Y-112780476D01*
X185645000Y-112780476D02*
X185692619Y-112828095D01*
X185692619Y-112828095D02*
X185787857Y-112875714D01*
X185787857Y-112875714D02*
X185835476Y-112875714D01*
X185835476Y-112875714D02*
X185930714Y-112828095D01*
X185930714Y-112828095D02*
X185978333Y-112780476D01*
X185978333Y-112780476D02*
X186025952Y-112685238D01*
X186025952Y-112685238D02*
X186025952Y-112494762D01*
X186025952Y-112494762D02*
X186073571Y-112399524D01*
X186073571Y-112399524D02*
X186121190Y-112351905D01*
X186121190Y-112351905D02*
X186216428Y-112304286D01*
X186216428Y-112304286D02*
X186406904Y-112304286D01*
X186406904Y-112304286D02*
X186502142Y-112351905D01*
X186502142Y-112351905D02*
X186549761Y-112399524D01*
X186549761Y-112399524D02*
X186597380Y-112494762D01*
X186597380Y-112494762D02*
X186597380Y-112685238D01*
X186597380Y-112685238D02*
X186549761Y-112780476D01*
X186549761Y-112780476D02*
X186502142Y-112828095D01*
X186502142Y-112828095D02*
X186406904Y-112875714D01*
X186406904Y-112875714D02*
X186216428Y-112875714D01*
X186216428Y-112875714D02*
X186121190Y-112828095D01*
X186121190Y-112828095D02*
X186073571Y-112780476D01*
X186073571Y-112780476D02*
X186025952Y-112685238D01*
X233753332Y-71043904D02*
X234019999Y-70662952D01*
X234210475Y-71043904D02*
X234210475Y-70243904D01*
X234210475Y-70243904D02*
X233905713Y-70243904D01*
X233905713Y-70243904D02*
X233829523Y-70282000D01*
X233829523Y-70282000D02*
X233791428Y-70320095D01*
X233791428Y-70320095D02*
X233753332Y-70396285D01*
X233753332Y-70396285D02*
X233753332Y-70510571D01*
X233753332Y-70510571D02*
X233791428Y-70586761D01*
X233791428Y-70586761D02*
X233829523Y-70624857D01*
X233829523Y-70624857D02*
X233905713Y-70662952D01*
X233905713Y-70662952D02*
X234210475Y-70662952D01*
X233486666Y-70243904D02*
X232953332Y-70243904D01*
X232953332Y-70243904D02*
X233296190Y-71043904D01*
X61367380Y-112175905D02*
X60367380Y-112175905D01*
X60367380Y-112175905D02*
X60367380Y-112414000D01*
X60367380Y-112414000D02*
X60415000Y-112556857D01*
X60415000Y-112556857D02*
X60510238Y-112652095D01*
X60510238Y-112652095D02*
X60605476Y-112699714D01*
X60605476Y-112699714D02*
X60795952Y-112747333D01*
X60795952Y-112747333D02*
X60938809Y-112747333D01*
X60938809Y-112747333D02*
X61129285Y-112699714D01*
X61129285Y-112699714D02*
X61224523Y-112652095D01*
X61224523Y-112652095D02*
X61319761Y-112556857D01*
X61319761Y-112556857D02*
X61367380Y-112414000D01*
X61367380Y-112414000D02*
X61367380Y-112175905D01*
X61367380Y-113699714D02*
X61367380Y-113128286D01*
X61367380Y-113414000D02*
X60367380Y-113414000D01*
X60367380Y-113414000D02*
X60510238Y-113318762D01*
X60510238Y-113318762D02*
X60605476Y-113223524D01*
X60605476Y-113223524D02*
X60653095Y-113128286D01*
X240059380Y-174932714D02*
X239059380Y-174932714D01*
X239059380Y-174932714D02*
X239059380Y-175170809D01*
X239059380Y-175170809D02*
X239107000Y-175313666D01*
X239107000Y-175313666D02*
X239202238Y-175408904D01*
X239202238Y-175408904D02*
X239297476Y-175456523D01*
X239297476Y-175456523D02*
X239487952Y-175504142D01*
X239487952Y-175504142D02*
X239630809Y-175504142D01*
X239630809Y-175504142D02*
X239821285Y-175456523D01*
X239821285Y-175456523D02*
X239916523Y-175408904D01*
X239916523Y-175408904D02*
X240011761Y-175313666D01*
X240011761Y-175313666D02*
X240059380Y-175170809D01*
X240059380Y-175170809D02*
X240059380Y-174932714D01*
X239154619Y-175885095D02*
X239107000Y-175932714D01*
X239107000Y-175932714D02*
X239059380Y-176027952D01*
X239059380Y-176027952D02*
X239059380Y-176266047D01*
X239059380Y-176266047D02*
X239107000Y-176361285D01*
X239107000Y-176361285D02*
X239154619Y-176408904D01*
X239154619Y-176408904D02*
X239249857Y-176456523D01*
X239249857Y-176456523D02*
X239345095Y-176456523D01*
X239345095Y-176456523D02*
X239487952Y-176408904D01*
X239487952Y-176408904D02*
X240059380Y-175837476D01*
X240059380Y-175837476D02*
X240059380Y-176456523D01*
X239059380Y-176789857D02*
X239059380Y-177408904D01*
X239059380Y-177408904D02*
X239440333Y-177075571D01*
X239440333Y-177075571D02*
X239440333Y-177218428D01*
X239440333Y-177218428D02*
X239487952Y-177313666D01*
X239487952Y-177313666D02*
X239535571Y-177361285D01*
X239535571Y-177361285D02*
X239630809Y-177408904D01*
X239630809Y-177408904D02*
X239868904Y-177408904D01*
X239868904Y-177408904D02*
X239964142Y-177361285D01*
X239964142Y-177361285D02*
X240011761Y-177313666D01*
X240011761Y-177313666D02*
X240059380Y-177218428D01*
X240059380Y-177218428D02*
X240059380Y-176932714D01*
X240059380Y-176932714D02*
X240011761Y-176837476D01*
X240011761Y-176837476D02*
X239964142Y-176789857D01*
X192464285Y-111117380D02*
X192464285Y-110117380D01*
X192464285Y-110117380D02*
X192226190Y-110117380D01*
X192226190Y-110117380D02*
X192083333Y-110165000D01*
X192083333Y-110165000D02*
X191988095Y-110260238D01*
X191988095Y-110260238D02*
X191940476Y-110355476D01*
X191940476Y-110355476D02*
X191892857Y-110545952D01*
X191892857Y-110545952D02*
X191892857Y-110688809D01*
X191892857Y-110688809D02*
X191940476Y-110879285D01*
X191940476Y-110879285D02*
X191988095Y-110974523D01*
X191988095Y-110974523D02*
X192083333Y-111069761D01*
X192083333Y-111069761D02*
X192226190Y-111117380D01*
X192226190Y-111117380D02*
X192464285Y-111117380D01*
X191035714Y-110450714D02*
X191035714Y-111117380D01*
X191273809Y-110069761D02*
X191511904Y-110784047D01*
X191511904Y-110784047D02*
X190892857Y-110784047D01*
X190083333Y-110450714D02*
X190083333Y-111117380D01*
X190321428Y-110069761D02*
X190559523Y-110784047D01*
X190559523Y-110784047D02*
X189940476Y-110784047D01*
X183514285Y-119967714D02*
X183552381Y-120005809D01*
X183552381Y-120005809D02*
X183666666Y-120043904D01*
X183666666Y-120043904D02*
X183742857Y-120043904D01*
X183742857Y-120043904D02*
X183857143Y-120005809D01*
X183857143Y-120005809D02*
X183933333Y-119929619D01*
X183933333Y-119929619D02*
X183971428Y-119853428D01*
X183971428Y-119853428D02*
X184009524Y-119701047D01*
X184009524Y-119701047D02*
X184009524Y-119586761D01*
X184009524Y-119586761D02*
X183971428Y-119434380D01*
X183971428Y-119434380D02*
X183933333Y-119358190D01*
X183933333Y-119358190D02*
X183857143Y-119282000D01*
X183857143Y-119282000D02*
X183742857Y-119243904D01*
X183742857Y-119243904D02*
X183666666Y-119243904D01*
X183666666Y-119243904D02*
X183552381Y-119282000D01*
X183552381Y-119282000D02*
X183514285Y-119320095D01*
X182752381Y-120043904D02*
X183209524Y-120043904D01*
X182980952Y-120043904D02*
X182980952Y-119243904D01*
X182980952Y-119243904D02*
X183057143Y-119358190D01*
X183057143Y-119358190D02*
X183133333Y-119434380D01*
X183133333Y-119434380D02*
X183209524Y-119472476D01*
X182295238Y-119586761D02*
X182371428Y-119548666D01*
X182371428Y-119548666D02*
X182409523Y-119510571D01*
X182409523Y-119510571D02*
X182447619Y-119434380D01*
X182447619Y-119434380D02*
X182447619Y-119396285D01*
X182447619Y-119396285D02*
X182409523Y-119320095D01*
X182409523Y-119320095D02*
X182371428Y-119282000D01*
X182371428Y-119282000D02*
X182295238Y-119243904D01*
X182295238Y-119243904D02*
X182142857Y-119243904D01*
X182142857Y-119243904D02*
X182066666Y-119282000D01*
X182066666Y-119282000D02*
X182028571Y-119320095D01*
X182028571Y-119320095D02*
X181990476Y-119396285D01*
X181990476Y-119396285D02*
X181990476Y-119434380D01*
X181990476Y-119434380D02*
X182028571Y-119510571D01*
X182028571Y-119510571D02*
X182066666Y-119548666D01*
X182066666Y-119548666D02*
X182142857Y-119586761D01*
X182142857Y-119586761D02*
X182295238Y-119586761D01*
X182295238Y-119586761D02*
X182371428Y-119624857D01*
X182371428Y-119624857D02*
X182409523Y-119662952D01*
X182409523Y-119662952D02*
X182447619Y-119739142D01*
X182447619Y-119739142D02*
X182447619Y-119891523D01*
X182447619Y-119891523D02*
X182409523Y-119967714D01*
X182409523Y-119967714D02*
X182371428Y-120005809D01*
X182371428Y-120005809D02*
X182295238Y-120043904D01*
X182295238Y-120043904D02*
X182142857Y-120043904D01*
X182142857Y-120043904D02*
X182066666Y-120005809D01*
X182066666Y-120005809D02*
X182028571Y-119967714D01*
X182028571Y-119967714D02*
X181990476Y-119891523D01*
X181990476Y-119891523D02*
X181990476Y-119739142D01*
X181990476Y-119739142D02*
X182028571Y-119662952D01*
X182028571Y-119662952D02*
X182066666Y-119624857D01*
X182066666Y-119624857D02*
X182142857Y-119586761D01*
X185282380Y-85733714D02*
X184282380Y-85733714D01*
X184282380Y-85733714D02*
X184282380Y-85971809D01*
X184282380Y-85971809D02*
X184330000Y-86114666D01*
X184330000Y-86114666D02*
X184425238Y-86209904D01*
X184425238Y-86209904D02*
X184520476Y-86257523D01*
X184520476Y-86257523D02*
X184710952Y-86305142D01*
X184710952Y-86305142D02*
X184853809Y-86305142D01*
X184853809Y-86305142D02*
X185044285Y-86257523D01*
X185044285Y-86257523D02*
X185139523Y-86209904D01*
X185139523Y-86209904D02*
X185234761Y-86114666D01*
X185234761Y-86114666D02*
X185282380Y-85971809D01*
X185282380Y-85971809D02*
X185282380Y-85733714D01*
X184615714Y-87162285D02*
X185282380Y-87162285D01*
X184234761Y-86924190D02*
X184949047Y-86686095D01*
X184949047Y-86686095D02*
X184949047Y-87305142D01*
X185282380Y-88209904D02*
X185282380Y-87638476D01*
X185282380Y-87924190D02*
X184282380Y-87924190D01*
X184282380Y-87924190D02*
X184425238Y-87828952D01*
X184425238Y-87828952D02*
X184520476Y-87733714D01*
X184520476Y-87733714D02*
X184568095Y-87638476D01*
X130470380Y-174932714D02*
X129470380Y-174932714D01*
X129470380Y-174932714D02*
X129470380Y-175170809D01*
X129470380Y-175170809D02*
X129518000Y-175313666D01*
X129518000Y-175313666D02*
X129613238Y-175408904D01*
X129613238Y-175408904D02*
X129708476Y-175456523D01*
X129708476Y-175456523D02*
X129898952Y-175504142D01*
X129898952Y-175504142D02*
X130041809Y-175504142D01*
X130041809Y-175504142D02*
X130232285Y-175456523D01*
X130232285Y-175456523D02*
X130327523Y-175408904D01*
X130327523Y-175408904D02*
X130422761Y-175313666D01*
X130422761Y-175313666D02*
X130470380Y-175170809D01*
X130470380Y-175170809D02*
X130470380Y-174932714D01*
X130470380Y-176456523D02*
X130470380Y-175885095D01*
X130470380Y-176170809D02*
X129470380Y-176170809D01*
X129470380Y-176170809D02*
X129613238Y-176075571D01*
X129613238Y-176075571D02*
X129708476Y-175980333D01*
X129708476Y-175980333D02*
X129756095Y-175885095D01*
X129803714Y-177313666D02*
X130470380Y-177313666D01*
X129422761Y-177075571D02*
X130137047Y-176837476D01*
X130137047Y-176837476D02*
X130137047Y-177456523D01*
X240953380Y-115277714D02*
X239953380Y-115277714D01*
X239953380Y-115277714D02*
X239953380Y-115515809D01*
X239953380Y-115515809D02*
X240001000Y-115658666D01*
X240001000Y-115658666D02*
X240096238Y-115753904D01*
X240096238Y-115753904D02*
X240191476Y-115801523D01*
X240191476Y-115801523D02*
X240381952Y-115849142D01*
X240381952Y-115849142D02*
X240524809Y-115849142D01*
X240524809Y-115849142D02*
X240715285Y-115801523D01*
X240715285Y-115801523D02*
X240810523Y-115753904D01*
X240810523Y-115753904D02*
X240905761Y-115658666D01*
X240905761Y-115658666D02*
X240953380Y-115515809D01*
X240953380Y-115515809D02*
X240953380Y-115277714D01*
X240048619Y-116230095D02*
X240001000Y-116277714D01*
X240001000Y-116277714D02*
X239953380Y-116372952D01*
X239953380Y-116372952D02*
X239953380Y-116611047D01*
X239953380Y-116611047D02*
X240001000Y-116706285D01*
X240001000Y-116706285D02*
X240048619Y-116753904D01*
X240048619Y-116753904D02*
X240143857Y-116801523D01*
X240143857Y-116801523D02*
X240239095Y-116801523D01*
X240239095Y-116801523D02*
X240381952Y-116753904D01*
X240381952Y-116753904D02*
X240953380Y-116182476D01*
X240953380Y-116182476D02*
X240953380Y-116801523D01*
X240381952Y-117372952D02*
X240334333Y-117277714D01*
X240334333Y-117277714D02*
X240286714Y-117230095D01*
X240286714Y-117230095D02*
X240191476Y-117182476D01*
X240191476Y-117182476D02*
X240143857Y-117182476D01*
X240143857Y-117182476D02*
X240048619Y-117230095D01*
X240048619Y-117230095D02*
X240001000Y-117277714D01*
X240001000Y-117277714D02*
X239953380Y-117372952D01*
X239953380Y-117372952D02*
X239953380Y-117563428D01*
X239953380Y-117563428D02*
X240001000Y-117658666D01*
X240001000Y-117658666D02*
X240048619Y-117706285D01*
X240048619Y-117706285D02*
X240143857Y-117753904D01*
X240143857Y-117753904D02*
X240191476Y-117753904D01*
X240191476Y-117753904D02*
X240286714Y-117706285D01*
X240286714Y-117706285D02*
X240334333Y-117658666D01*
X240334333Y-117658666D02*
X240381952Y-117563428D01*
X240381952Y-117563428D02*
X240381952Y-117372952D01*
X240381952Y-117372952D02*
X240429571Y-117277714D01*
X240429571Y-117277714D02*
X240477190Y-117230095D01*
X240477190Y-117230095D02*
X240572428Y-117182476D01*
X240572428Y-117182476D02*
X240762904Y-117182476D01*
X240762904Y-117182476D02*
X240858142Y-117230095D01*
X240858142Y-117230095D02*
X240905761Y-117277714D01*
X240905761Y-117277714D02*
X240953380Y-117372952D01*
X240953380Y-117372952D02*
X240953380Y-117563428D01*
X240953380Y-117563428D02*
X240905761Y-117658666D01*
X240905761Y-117658666D02*
X240858142Y-117706285D01*
X240858142Y-117706285D02*
X240762904Y-117753904D01*
X240762904Y-117753904D02*
X240572428Y-117753904D01*
X240572428Y-117753904D02*
X240477190Y-117706285D01*
X240477190Y-117706285D02*
X240429571Y-117658666D01*
X240429571Y-117658666D02*
X240381952Y-117563428D01*
X166241380Y-66839714D02*
X165241380Y-66839714D01*
X165241380Y-66839714D02*
X165241380Y-67077809D01*
X165241380Y-67077809D02*
X165289000Y-67220666D01*
X165289000Y-67220666D02*
X165384238Y-67315904D01*
X165384238Y-67315904D02*
X165479476Y-67363523D01*
X165479476Y-67363523D02*
X165669952Y-67411142D01*
X165669952Y-67411142D02*
X165812809Y-67411142D01*
X165812809Y-67411142D02*
X166003285Y-67363523D01*
X166003285Y-67363523D02*
X166098523Y-67315904D01*
X166098523Y-67315904D02*
X166193761Y-67220666D01*
X166193761Y-67220666D02*
X166241380Y-67077809D01*
X166241380Y-67077809D02*
X166241380Y-66839714D01*
X165241380Y-67744476D02*
X165241380Y-68363523D01*
X165241380Y-68363523D02*
X165622333Y-68030190D01*
X165622333Y-68030190D02*
X165622333Y-68173047D01*
X165622333Y-68173047D02*
X165669952Y-68268285D01*
X165669952Y-68268285D02*
X165717571Y-68315904D01*
X165717571Y-68315904D02*
X165812809Y-68363523D01*
X165812809Y-68363523D02*
X166050904Y-68363523D01*
X166050904Y-68363523D02*
X166146142Y-68315904D01*
X166146142Y-68315904D02*
X166193761Y-68268285D01*
X166193761Y-68268285D02*
X166241380Y-68173047D01*
X166241380Y-68173047D02*
X166241380Y-67887333D01*
X166241380Y-67887333D02*
X166193761Y-67792095D01*
X166193761Y-67792095D02*
X166146142Y-67744476D01*
X165241380Y-68696857D02*
X165241380Y-69363523D01*
X165241380Y-69363523D02*
X166241380Y-68934952D01*
X155470380Y-174932714D02*
X154470380Y-174932714D01*
X154470380Y-174932714D02*
X154470380Y-175170809D01*
X154470380Y-175170809D02*
X154518000Y-175313666D01*
X154518000Y-175313666D02*
X154613238Y-175408904D01*
X154613238Y-175408904D02*
X154708476Y-175456523D01*
X154708476Y-175456523D02*
X154898952Y-175504142D01*
X154898952Y-175504142D02*
X155041809Y-175504142D01*
X155041809Y-175504142D02*
X155232285Y-175456523D01*
X155232285Y-175456523D02*
X155327523Y-175408904D01*
X155327523Y-175408904D02*
X155422761Y-175313666D01*
X155422761Y-175313666D02*
X155470380Y-175170809D01*
X155470380Y-175170809D02*
X155470380Y-174932714D01*
X155470380Y-176456523D02*
X155470380Y-175885095D01*
X155470380Y-176170809D02*
X154470380Y-176170809D01*
X154470380Y-176170809D02*
X154613238Y-176075571D01*
X154613238Y-176075571D02*
X154708476Y-175980333D01*
X154708476Y-175980333D02*
X154756095Y-175885095D01*
X154470380Y-177361285D02*
X154470380Y-176885095D01*
X154470380Y-176885095D02*
X154946571Y-176837476D01*
X154946571Y-176837476D02*
X154898952Y-176885095D01*
X154898952Y-176885095D02*
X154851333Y-176980333D01*
X154851333Y-176980333D02*
X154851333Y-177218428D01*
X154851333Y-177218428D02*
X154898952Y-177313666D01*
X154898952Y-177313666D02*
X154946571Y-177361285D01*
X154946571Y-177361285D02*
X155041809Y-177408904D01*
X155041809Y-177408904D02*
X155279904Y-177408904D01*
X155279904Y-177408904D02*
X155375142Y-177361285D01*
X155375142Y-177361285D02*
X155422761Y-177313666D01*
X155422761Y-177313666D02*
X155470380Y-177218428D01*
X155470380Y-177218428D02*
X155470380Y-176980333D01*
X155470380Y-176980333D02*
X155422761Y-176885095D01*
X155422761Y-176885095D02*
X155375142Y-176837476D01*
X185893332Y-54043904D02*
X186159999Y-53662952D01*
X186350475Y-54043904D02*
X186350475Y-53243904D01*
X186350475Y-53243904D02*
X186045713Y-53243904D01*
X186045713Y-53243904D02*
X185969523Y-53282000D01*
X185969523Y-53282000D02*
X185931428Y-53320095D01*
X185931428Y-53320095D02*
X185893332Y-53396285D01*
X185893332Y-53396285D02*
X185893332Y-53510571D01*
X185893332Y-53510571D02*
X185931428Y-53586761D01*
X185931428Y-53586761D02*
X185969523Y-53624857D01*
X185969523Y-53624857D02*
X186045713Y-53662952D01*
X186045713Y-53662952D02*
X186350475Y-53662952D01*
X185131428Y-54043904D02*
X185588571Y-54043904D01*
X185359999Y-54043904D02*
X185359999Y-53243904D01*
X185359999Y-53243904D02*
X185436190Y-53358190D01*
X185436190Y-53358190D02*
X185512380Y-53434380D01*
X185512380Y-53434380D02*
X185588571Y-53472476D01*
X232761904Y-59047380D02*
X232761904Y-59856904D01*
X232761904Y-59856904D02*
X232714285Y-59952142D01*
X232714285Y-59952142D02*
X232666666Y-59999761D01*
X232666666Y-59999761D02*
X232571428Y-60047380D01*
X232571428Y-60047380D02*
X232380952Y-60047380D01*
X232380952Y-60047380D02*
X232285714Y-59999761D01*
X232285714Y-59999761D02*
X232238095Y-59952142D01*
X232238095Y-59952142D02*
X232190476Y-59856904D01*
X232190476Y-59856904D02*
X232190476Y-59047380D01*
X231761904Y-59142619D02*
X231714285Y-59095000D01*
X231714285Y-59095000D02*
X231619047Y-59047380D01*
X231619047Y-59047380D02*
X231380952Y-59047380D01*
X231380952Y-59047380D02*
X231285714Y-59095000D01*
X231285714Y-59095000D02*
X231238095Y-59142619D01*
X231238095Y-59142619D02*
X231190476Y-59237857D01*
X231190476Y-59237857D02*
X231190476Y-59333095D01*
X231190476Y-59333095D02*
X231238095Y-59475952D01*
X231238095Y-59475952D02*
X231809523Y-60047380D01*
X231809523Y-60047380D02*
X231190476Y-60047380D01*
X202764380Y-196700714D02*
X201764380Y-196700714D01*
X201764380Y-196700714D02*
X201764380Y-196938809D01*
X201764380Y-196938809D02*
X201812000Y-197081666D01*
X201812000Y-197081666D02*
X201907238Y-197176904D01*
X201907238Y-197176904D02*
X202002476Y-197224523D01*
X202002476Y-197224523D02*
X202192952Y-197272142D01*
X202192952Y-197272142D02*
X202335809Y-197272142D01*
X202335809Y-197272142D02*
X202526285Y-197224523D01*
X202526285Y-197224523D02*
X202621523Y-197176904D01*
X202621523Y-197176904D02*
X202716761Y-197081666D01*
X202716761Y-197081666D02*
X202764380Y-196938809D01*
X202764380Y-196938809D02*
X202764380Y-196700714D01*
X202764380Y-198224523D02*
X202764380Y-197653095D01*
X202764380Y-197938809D02*
X201764380Y-197938809D01*
X201764380Y-197938809D02*
X201907238Y-197843571D01*
X201907238Y-197843571D02*
X202002476Y-197748333D01*
X202002476Y-197748333D02*
X202050095Y-197653095D01*
X202764380Y-198700714D02*
X202764380Y-198891190D01*
X202764380Y-198891190D02*
X202716761Y-198986428D01*
X202716761Y-198986428D02*
X202669142Y-199034047D01*
X202669142Y-199034047D02*
X202526285Y-199129285D01*
X202526285Y-199129285D02*
X202335809Y-199176904D01*
X202335809Y-199176904D02*
X201954857Y-199176904D01*
X201954857Y-199176904D02*
X201859619Y-199129285D01*
X201859619Y-199129285D02*
X201812000Y-199081666D01*
X201812000Y-199081666D02*
X201764380Y-198986428D01*
X201764380Y-198986428D02*
X201764380Y-198795952D01*
X201764380Y-198795952D02*
X201812000Y-198700714D01*
X201812000Y-198700714D02*
X201859619Y-198653095D01*
X201859619Y-198653095D02*
X201954857Y-198605476D01*
X201954857Y-198605476D02*
X202192952Y-198605476D01*
X202192952Y-198605476D02*
X202288190Y-198653095D01*
X202288190Y-198653095D02*
X202335809Y-198700714D01*
X202335809Y-198700714D02*
X202383428Y-198795952D01*
X202383428Y-198795952D02*
X202383428Y-198986428D01*
X202383428Y-198986428D02*
X202335809Y-199081666D01*
X202335809Y-199081666D02*
X202288190Y-199129285D01*
X202288190Y-199129285D02*
X202192952Y-199176904D01*
X204324380Y-85733714D02*
X203324380Y-85733714D01*
X203324380Y-85733714D02*
X203324380Y-85971809D01*
X203324380Y-85971809D02*
X203372000Y-86114666D01*
X203372000Y-86114666D02*
X203467238Y-86209904D01*
X203467238Y-86209904D02*
X203562476Y-86257523D01*
X203562476Y-86257523D02*
X203752952Y-86305142D01*
X203752952Y-86305142D02*
X203895809Y-86305142D01*
X203895809Y-86305142D02*
X204086285Y-86257523D01*
X204086285Y-86257523D02*
X204181523Y-86209904D01*
X204181523Y-86209904D02*
X204276761Y-86114666D01*
X204276761Y-86114666D02*
X204324380Y-85971809D01*
X204324380Y-85971809D02*
X204324380Y-85733714D01*
X203657714Y-87162285D02*
X204324380Y-87162285D01*
X203276761Y-86924190D02*
X203991047Y-86686095D01*
X203991047Y-86686095D02*
X203991047Y-87305142D01*
X203419619Y-87638476D02*
X203372000Y-87686095D01*
X203372000Y-87686095D02*
X203324380Y-87781333D01*
X203324380Y-87781333D02*
X203324380Y-88019428D01*
X203324380Y-88019428D02*
X203372000Y-88114666D01*
X203372000Y-88114666D02*
X203419619Y-88162285D01*
X203419619Y-88162285D02*
X203514857Y-88209904D01*
X203514857Y-88209904D02*
X203610095Y-88209904D01*
X203610095Y-88209904D02*
X203752952Y-88162285D01*
X203752952Y-88162285D02*
X204324380Y-87590857D01*
X204324380Y-87590857D02*
X204324380Y-88209904D01*
X309285380Y-111699714D02*
X308285380Y-111699714D01*
X308285380Y-111699714D02*
X308285380Y-111937809D01*
X308285380Y-111937809D02*
X308333000Y-112080666D01*
X308333000Y-112080666D02*
X308428238Y-112175904D01*
X308428238Y-112175904D02*
X308523476Y-112223523D01*
X308523476Y-112223523D02*
X308713952Y-112271142D01*
X308713952Y-112271142D02*
X308856809Y-112271142D01*
X308856809Y-112271142D02*
X309047285Y-112223523D01*
X309047285Y-112223523D02*
X309142523Y-112175904D01*
X309142523Y-112175904D02*
X309237761Y-112080666D01*
X309237761Y-112080666D02*
X309285380Y-111937809D01*
X309285380Y-111937809D02*
X309285380Y-111699714D01*
X308285380Y-112604476D02*
X308285380Y-113223523D01*
X308285380Y-113223523D02*
X308666333Y-112890190D01*
X308666333Y-112890190D02*
X308666333Y-113033047D01*
X308666333Y-113033047D02*
X308713952Y-113128285D01*
X308713952Y-113128285D02*
X308761571Y-113175904D01*
X308761571Y-113175904D02*
X308856809Y-113223523D01*
X308856809Y-113223523D02*
X309094904Y-113223523D01*
X309094904Y-113223523D02*
X309190142Y-113175904D01*
X309190142Y-113175904D02*
X309237761Y-113128285D01*
X309237761Y-113128285D02*
X309285380Y-113033047D01*
X309285380Y-113033047D02*
X309285380Y-112747333D01*
X309285380Y-112747333D02*
X309237761Y-112652095D01*
X309237761Y-112652095D02*
X309190142Y-112604476D01*
X309285380Y-114175904D02*
X309285380Y-113604476D01*
X309285380Y-113890190D02*
X308285380Y-113890190D01*
X308285380Y-113890190D02*
X308428238Y-113794952D01*
X308428238Y-113794952D02*
X308523476Y-113699714D01*
X308523476Y-113699714D02*
X308571095Y-113604476D01*
X229514285Y-74667714D02*
X229552381Y-74705809D01*
X229552381Y-74705809D02*
X229666666Y-74743904D01*
X229666666Y-74743904D02*
X229742857Y-74743904D01*
X229742857Y-74743904D02*
X229857143Y-74705809D01*
X229857143Y-74705809D02*
X229933333Y-74629619D01*
X229933333Y-74629619D02*
X229971428Y-74553428D01*
X229971428Y-74553428D02*
X230009524Y-74401047D01*
X230009524Y-74401047D02*
X230009524Y-74286761D01*
X230009524Y-74286761D02*
X229971428Y-74134380D01*
X229971428Y-74134380D02*
X229933333Y-74058190D01*
X229933333Y-74058190D02*
X229857143Y-73982000D01*
X229857143Y-73982000D02*
X229742857Y-73943904D01*
X229742857Y-73943904D02*
X229666666Y-73943904D01*
X229666666Y-73943904D02*
X229552381Y-73982000D01*
X229552381Y-73982000D02*
X229514285Y-74020095D01*
X228752381Y-74743904D02*
X229209524Y-74743904D01*
X228980952Y-74743904D02*
X228980952Y-73943904D01*
X228980952Y-73943904D02*
X229057143Y-74058190D01*
X229057143Y-74058190D02*
X229133333Y-74134380D01*
X229133333Y-74134380D02*
X229209524Y-74172476D01*
X228066666Y-73943904D02*
X228219047Y-73943904D01*
X228219047Y-73943904D02*
X228295238Y-73982000D01*
X228295238Y-73982000D02*
X228333333Y-74020095D01*
X228333333Y-74020095D02*
X228409523Y-74134380D01*
X228409523Y-74134380D02*
X228447619Y-74286761D01*
X228447619Y-74286761D02*
X228447619Y-74591523D01*
X228447619Y-74591523D02*
X228409523Y-74667714D01*
X228409523Y-74667714D02*
X228371428Y-74705809D01*
X228371428Y-74705809D02*
X228295238Y-74743904D01*
X228295238Y-74743904D02*
X228142857Y-74743904D01*
X228142857Y-74743904D02*
X228066666Y-74705809D01*
X228066666Y-74705809D02*
X228028571Y-74667714D01*
X228028571Y-74667714D02*
X227990476Y-74591523D01*
X227990476Y-74591523D02*
X227990476Y-74401047D01*
X227990476Y-74401047D02*
X228028571Y-74324857D01*
X228028571Y-74324857D02*
X228066666Y-74286761D01*
X228066666Y-74286761D02*
X228142857Y-74248666D01*
X228142857Y-74248666D02*
X228295238Y-74248666D01*
X228295238Y-74248666D02*
X228371428Y-74286761D01*
X228371428Y-74286761D02*
X228409523Y-74324857D01*
X228409523Y-74324857D02*
X228447619Y-74401047D01*
X196232857Y-117587380D02*
X196566190Y-117111190D01*
X196804285Y-117587380D02*
X196804285Y-116587380D01*
X196804285Y-116587380D02*
X196423333Y-116587380D01*
X196423333Y-116587380D02*
X196328095Y-116635000D01*
X196328095Y-116635000D02*
X196280476Y-116682619D01*
X196280476Y-116682619D02*
X196232857Y-116777857D01*
X196232857Y-116777857D02*
X196232857Y-116920714D01*
X196232857Y-116920714D02*
X196280476Y-117015952D01*
X196280476Y-117015952D02*
X196328095Y-117063571D01*
X196328095Y-117063571D02*
X196423333Y-117111190D01*
X196423333Y-117111190D02*
X196804285Y-117111190D01*
X195280476Y-117587380D02*
X195851904Y-117587380D01*
X195566190Y-117587380D02*
X195566190Y-116587380D01*
X195566190Y-116587380D02*
X195661428Y-116730238D01*
X195661428Y-116730238D02*
X195756666Y-116825476D01*
X195756666Y-116825476D02*
X195851904Y-116873095D01*
X194661428Y-116587380D02*
X194566190Y-116587380D01*
X194566190Y-116587380D02*
X194470952Y-116635000D01*
X194470952Y-116635000D02*
X194423333Y-116682619D01*
X194423333Y-116682619D02*
X194375714Y-116777857D01*
X194375714Y-116777857D02*
X194328095Y-116968333D01*
X194328095Y-116968333D02*
X194328095Y-117206428D01*
X194328095Y-117206428D02*
X194375714Y-117396904D01*
X194375714Y-117396904D02*
X194423333Y-117492142D01*
X194423333Y-117492142D02*
X194470952Y-117539761D01*
X194470952Y-117539761D02*
X194566190Y-117587380D01*
X194566190Y-117587380D02*
X194661428Y-117587380D01*
X194661428Y-117587380D02*
X194756666Y-117539761D01*
X194756666Y-117539761D02*
X194804285Y-117492142D01*
X194804285Y-117492142D02*
X194851904Y-117396904D01*
X194851904Y-117396904D02*
X194899523Y-117206428D01*
X194899523Y-117206428D02*
X194899523Y-116968333D01*
X194899523Y-116968333D02*
X194851904Y-116777857D01*
X194851904Y-116777857D02*
X194804285Y-116682619D01*
X194804285Y-116682619D02*
X194756666Y-116635000D01*
X194756666Y-116635000D02*
X194661428Y-116587380D01*
X109172380Y-101308905D02*
X108172380Y-101308905D01*
X108172380Y-101308905D02*
X108172380Y-101547000D01*
X108172380Y-101547000D02*
X108220000Y-101689857D01*
X108220000Y-101689857D02*
X108315238Y-101785095D01*
X108315238Y-101785095D02*
X108410476Y-101832714D01*
X108410476Y-101832714D02*
X108600952Y-101880333D01*
X108600952Y-101880333D02*
X108743809Y-101880333D01*
X108743809Y-101880333D02*
X108934285Y-101832714D01*
X108934285Y-101832714D02*
X109029523Y-101785095D01*
X109029523Y-101785095D02*
X109124761Y-101689857D01*
X109124761Y-101689857D02*
X109172380Y-101547000D01*
X109172380Y-101547000D02*
X109172380Y-101308905D01*
X108172380Y-102213667D02*
X108172380Y-102832714D01*
X108172380Y-102832714D02*
X108553333Y-102499381D01*
X108553333Y-102499381D02*
X108553333Y-102642238D01*
X108553333Y-102642238D02*
X108600952Y-102737476D01*
X108600952Y-102737476D02*
X108648571Y-102785095D01*
X108648571Y-102785095D02*
X108743809Y-102832714D01*
X108743809Y-102832714D02*
X108981904Y-102832714D01*
X108981904Y-102832714D02*
X109077142Y-102785095D01*
X109077142Y-102785095D02*
X109124761Y-102737476D01*
X109124761Y-102737476D02*
X109172380Y-102642238D01*
X109172380Y-102642238D02*
X109172380Y-102356524D01*
X109172380Y-102356524D02*
X109124761Y-102261286D01*
X109124761Y-102261286D02*
X109077142Y-102213667D01*
X289104380Y-126623714D02*
X288104380Y-126623714D01*
X288104380Y-126623714D02*
X288104380Y-126861809D01*
X288104380Y-126861809D02*
X288152000Y-127004666D01*
X288152000Y-127004666D02*
X288247238Y-127099904D01*
X288247238Y-127099904D02*
X288342476Y-127147523D01*
X288342476Y-127147523D02*
X288532952Y-127195142D01*
X288532952Y-127195142D02*
X288675809Y-127195142D01*
X288675809Y-127195142D02*
X288866285Y-127147523D01*
X288866285Y-127147523D02*
X288961523Y-127099904D01*
X288961523Y-127099904D02*
X289056761Y-127004666D01*
X289056761Y-127004666D02*
X289104380Y-126861809D01*
X289104380Y-126861809D02*
X289104380Y-126623714D01*
X288199619Y-127576095D02*
X288152000Y-127623714D01*
X288152000Y-127623714D02*
X288104380Y-127718952D01*
X288104380Y-127718952D02*
X288104380Y-127957047D01*
X288104380Y-127957047D02*
X288152000Y-128052285D01*
X288152000Y-128052285D02*
X288199619Y-128099904D01*
X288199619Y-128099904D02*
X288294857Y-128147523D01*
X288294857Y-128147523D02*
X288390095Y-128147523D01*
X288390095Y-128147523D02*
X288532952Y-128099904D01*
X288532952Y-128099904D02*
X289104380Y-127528476D01*
X289104380Y-127528476D02*
X289104380Y-128147523D01*
X288104380Y-129004666D02*
X288104380Y-128814190D01*
X288104380Y-128814190D02*
X288152000Y-128718952D01*
X288152000Y-128718952D02*
X288199619Y-128671333D01*
X288199619Y-128671333D02*
X288342476Y-128576095D01*
X288342476Y-128576095D02*
X288532952Y-128528476D01*
X288532952Y-128528476D02*
X288913904Y-128528476D01*
X288913904Y-128528476D02*
X289009142Y-128576095D01*
X289009142Y-128576095D02*
X289056761Y-128623714D01*
X289056761Y-128623714D02*
X289104380Y-128718952D01*
X289104380Y-128718952D02*
X289104380Y-128909428D01*
X289104380Y-128909428D02*
X289056761Y-129004666D01*
X289056761Y-129004666D02*
X289009142Y-129052285D01*
X289009142Y-129052285D02*
X288913904Y-129099904D01*
X288913904Y-129099904D02*
X288675809Y-129099904D01*
X288675809Y-129099904D02*
X288580571Y-129052285D01*
X288580571Y-129052285D02*
X288532952Y-129004666D01*
X288532952Y-129004666D02*
X288485333Y-128909428D01*
X288485333Y-128909428D02*
X288485333Y-128718952D01*
X288485333Y-128718952D02*
X288532952Y-128623714D01*
X288532952Y-128623714D02*
X288580571Y-128576095D01*
X288580571Y-128576095D02*
X288675809Y-128528476D01*
X264122380Y-125678714D02*
X263122380Y-125678714D01*
X263122380Y-125678714D02*
X263122380Y-125916809D01*
X263122380Y-125916809D02*
X263170000Y-126059666D01*
X263170000Y-126059666D02*
X263265238Y-126154904D01*
X263265238Y-126154904D02*
X263360476Y-126202523D01*
X263360476Y-126202523D02*
X263550952Y-126250142D01*
X263550952Y-126250142D02*
X263693809Y-126250142D01*
X263693809Y-126250142D02*
X263884285Y-126202523D01*
X263884285Y-126202523D02*
X263979523Y-126154904D01*
X263979523Y-126154904D02*
X264074761Y-126059666D01*
X264074761Y-126059666D02*
X264122380Y-125916809D01*
X264122380Y-125916809D02*
X264122380Y-125678714D01*
X263217619Y-126631095D02*
X263170000Y-126678714D01*
X263170000Y-126678714D02*
X263122380Y-126773952D01*
X263122380Y-126773952D02*
X263122380Y-127012047D01*
X263122380Y-127012047D02*
X263170000Y-127107285D01*
X263170000Y-127107285D02*
X263217619Y-127154904D01*
X263217619Y-127154904D02*
X263312857Y-127202523D01*
X263312857Y-127202523D02*
X263408095Y-127202523D01*
X263408095Y-127202523D02*
X263550952Y-127154904D01*
X263550952Y-127154904D02*
X264122380Y-126583476D01*
X264122380Y-126583476D02*
X264122380Y-127202523D01*
X263122380Y-128107285D02*
X263122380Y-127631095D01*
X263122380Y-127631095D02*
X263598571Y-127583476D01*
X263598571Y-127583476D02*
X263550952Y-127631095D01*
X263550952Y-127631095D02*
X263503333Y-127726333D01*
X263503333Y-127726333D02*
X263503333Y-127964428D01*
X263503333Y-127964428D02*
X263550952Y-128059666D01*
X263550952Y-128059666D02*
X263598571Y-128107285D01*
X263598571Y-128107285D02*
X263693809Y-128154904D01*
X263693809Y-128154904D02*
X263931904Y-128154904D01*
X263931904Y-128154904D02*
X264027142Y-128107285D01*
X264027142Y-128107285D02*
X264074761Y-128059666D01*
X264074761Y-128059666D02*
X264122380Y-127964428D01*
X264122380Y-127964428D02*
X264122380Y-127726333D01*
X264122380Y-127726333D02*
X264074761Y-127631095D01*
X264074761Y-127631095D02*
X264027142Y-127583476D01*
X230543904Y-53616667D02*
X230162952Y-53350000D01*
X230543904Y-53159524D02*
X229743904Y-53159524D01*
X229743904Y-53159524D02*
X229743904Y-53464286D01*
X229743904Y-53464286D02*
X229782000Y-53540476D01*
X229782000Y-53540476D02*
X229820095Y-53578571D01*
X229820095Y-53578571D02*
X229896285Y-53616667D01*
X229896285Y-53616667D02*
X230010571Y-53616667D01*
X230010571Y-53616667D02*
X230086761Y-53578571D01*
X230086761Y-53578571D02*
X230124857Y-53540476D01*
X230124857Y-53540476D02*
X230162952Y-53464286D01*
X230162952Y-53464286D02*
X230162952Y-53159524D01*
X230010571Y-54302381D02*
X230543904Y-54302381D01*
X229705809Y-54111905D02*
X230277238Y-53921428D01*
X230277238Y-53921428D02*
X230277238Y-54416667D01*
X232883332Y-69967714D02*
X232921428Y-70005809D01*
X232921428Y-70005809D02*
X233035713Y-70043904D01*
X233035713Y-70043904D02*
X233111904Y-70043904D01*
X233111904Y-70043904D02*
X233226190Y-70005809D01*
X233226190Y-70005809D02*
X233302380Y-69929619D01*
X233302380Y-69929619D02*
X233340475Y-69853428D01*
X233340475Y-69853428D02*
X233378571Y-69701047D01*
X233378571Y-69701047D02*
X233378571Y-69586761D01*
X233378571Y-69586761D02*
X233340475Y-69434380D01*
X233340475Y-69434380D02*
X233302380Y-69358190D01*
X233302380Y-69358190D02*
X233226190Y-69282000D01*
X233226190Y-69282000D02*
X233111904Y-69243904D01*
X233111904Y-69243904D02*
X233035713Y-69243904D01*
X233035713Y-69243904D02*
X232921428Y-69282000D01*
X232921428Y-69282000D02*
X232883332Y-69320095D01*
X232502380Y-70043904D02*
X232349999Y-70043904D01*
X232349999Y-70043904D02*
X232273809Y-70005809D01*
X232273809Y-70005809D02*
X232235713Y-69967714D01*
X232235713Y-69967714D02*
X232159523Y-69853428D01*
X232159523Y-69853428D02*
X232121428Y-69701047D01*
X232121428Y-69701047D02*
X232121428Y-69396285D01*
X232121428Y-69396285D02*
X232159523Y-69320095D01*
X232159523Y-69320095D02*
X232197618Y-69282000D01*
X232197618Y-69282000D02*
X232273809Y-69243904D01*
X232273809Y-69243904D02*
X232426190Y-69243904D01*
X232426190Y-69243904D02*
X232502380Y-69282000D01*
X232502380Y-69282000D02*
X232540475Y-69320095D01*
X232540475Y-69320095D02*
X232578571Y-69396285D01*
X232578571Y-69396285D02*
X232578571Y-69586761D01*
X232578571Y-69586761D02*
X232540475Y-69662952D01*
X232540475Y-69662952D02*
X232502380Y-69701047D01*
X232502380Y-69701047D02*
X232426190Y-69739142D01*
X232426190Y-69739142D02*
X232273809Y-69739142D01*
X232273809Y-69739142D02*
X232197618Y-69701047D01*
X232197618Y-69701047D02*
X232159523Y-69662952D01*
X232159523Y-69662952D02*
X232121428Y-69586761D01*
X129576380Y-115753905D02*
X128576380Y-115753905D01*
X128576380Y-115753905D02*
X128576380Y-115992000D01*
X128576380Y-115992000D02*
X128624000Y-116134857D01*
X128624000Y-116134857D02*
X128719238Y-116230095D01*
X128719238Y-116230095D02*
X128814476Y-116277714D01*
X128814476Y-116277714D02*
X129004952Y-116325333D01*
X129004952Y-116325333D02*
X129147809Y-116325333D01*
X129147809Y-116325333D02*
X129338285Y-116277714D01*
X129338285Y-116277714D02*
X129433523Y-116230095D01*
X129433523Y-116230095D02*
X129528761Y-116134857D01*
X129528761Y-116134857D02*
X129576380Y-115992000D01*
X129576380Y-115992000D02*
X129576380Y-115753905D01*
X128909714Y-117182476D02*
X129576380Y-117182476D01*
X128528761Y-116944381D02*
X129243047Y-116706286D01*
X129243047Y-116706286D02*
X129243047Y-117325333D01*
X132340380Y-90430714D02*
X131340380Y-90430714D01*
X131340380Y-90430714D02*
X131340380Y-90668809D01*
X131340380Y-90668809D02*
X131388000Y-90811666D01*
X131388000Y-90811666D02*
X131483238Y-90906904D01*
X131483238Y-90906904D02*
X131578476Y-90954523D01*
X131578476Y-90954523D02*
X131768952Y-91002142D01*
X131768952Y-91002142D02*
X131911809Y-91002142D01*
X131911809Y-91002142D02*
X132102285Y-90954523D01*
X132102285Y-90954523D02*
X132197523Y-90906904D01*
X132197523Y-90906904D02*
X132292761Y-90811666D01*
X132292761Y-90811666D02*
X132340380Y-90668809D01*
X132340380Y-90668809D02*
X132340380Y-90430714D01*
X132340380Y-91954523D02*
X132340380Y-91383095D01*
X132340380Y-91668809D02*
X131340380Y-91668809D01*
X131340380Y-91668809D02*
X131483238Y-91573571D01*
X131483238Y-91573571D02*
X131578476Y-91478333D01*
X131578476Y-91478333D02*
X131626095Y-91383095D01*
X132340380Y-92906904D02*
X132340380Y-92335476D01*
X132340380Y-92621190D02*
X131340380Y-92621190D01*
X131340380Y-92621190D02*
X131483238Y-92525952D01*
X131483238Y-92525952D02*
X131578476Y-92430714D01*
X131578476Y-92430714D02*
X131626095Y-92335476D01*
X58478380Y-137022905D02*
X57478380Y-137022905D01*
X57478380Y-137022905D02*
X57478380Y-137261000D01*
X57478380Y-137261000D02*
X57526000Y-137403857D01*
X57526000Y-137403857D02*
X57621238Y-137499095D01*
X57621238Y-137499095D02*
X57716476Y-137546714D01*
X57716476Y-137546714D02*
X57906952Y-137594333D01*
X57906952Y-137594333D02*
X58049809Y-137594333D01*
X58049809Y-137594333D02*
X58240285Y-137546714D01*
X58240285Y-137546714D02*
X58335523Y-137499095D01*
X58335523Y-137499095D02*
X58430761Y-137403857D01*
X58430761Y-137403857D02*
X58478380Y-137261000D01*
X58478380Y-137261000D02*
X58478380Y-137022905D01*
X57478380Y-138499095D02*
X57478380Y-138022905D01*
X57478380Y-138022905D02*
X57954571Y-137975286D01*
X57954571Y-137975286D02*
X57906952Y-138022905D01*
X57906952Y-138022905D02*
X57859333Y-138118143D01*
X57859333Y-138118143D02*
X57859333Y-138356238D01*
X57859333Y-138356238D02*
X57906952Y-138451476D01*
X57906952Y-138451476D02*
X57954571Y-138499095D01*
X57954571Y-138499095D02*
X58049809Y-138546714D01*
X58049809Y-138546714D02*
X58287904Y-138546714D01*
X58287904Y-138546714D02*
X58383142Y-138499095D01*
X58383142Y-138499095D02*
X58430761Y-138451476D01*
X58430761Y-138451476D02*
X58478380Y-138356238D01*
X58478380Y-138356238D02*
X58478380Y-138118143D01*
X58478380Y-138118143D02*
X58430761Y-138022905D01*
X58430761Y-138022905D02*
X58383142Y-137975286D01*
X204324380Y-66839714D02*
X203324380Y-66839714D01*
X203324380Y-66839714D02*
X203324380Y-67077809D01*
X203324380Y-67077809D02*
X203372000Y-67220666D01*
X203372000Y-67220666D02*
X203467238Y-67315904D01*
X203467238Y-67315904D02*
X203562476Y-67363523D01*
X203562476Y-67363523D02*
X203752952Y-67411142D01*
X203752952Y-67411142D02*
X203895809Y-67411142D01*
X203895809Y-67411142D02*
X204086285Y-67363523D01*
X204086285Y-67363523D02*
X204181523Y-67315904D01*
X204181523Y-67315904D02*
X204276761Y-67220666D01*
X204276761Y-67220666D02*
X204324380Y-67077809D01*
X204324380Y-67077809D02*
X204324380Y-66839714D01*
X203324380Y-67744476D02*
X203324380Y-68363523D01*
X203324380Y-68363523D02*
X203705333Y-68030190D01*
X203705333Y-68030190D02*
X203705333Y-68173047D01*
X203705333Y-68173047D02*
X203752952Y-68268285D01*
X203752952Y-68268285D02*
X203800571Y-68315904D01*
X203800571Y-68315904D02*
X203895809Y-68363523D01*
X203895809Y-68363523D02*
X204133904Y-68363523D01*
X204133904Y-68363523D02*
X204229142Y-68315904D01*
X204229142Y-68315904D02*
X204276761Y-68268285D01*
X204276761Y-68268285D02*
X204324380Y-68173047D01*
X204324380Y-68173047D02*
X204324380Y-67887333D01*
X204324380Y-67887333D02*
X204276761Y-67792095D01*
X204276761Y-67792095D02*
X204229142Y-67744476D01*
X204324380Y-68839714D02*
X204324380Y-69030190D01*
X204324380Y-69030190D02*
X204276761Y-69125428D01*
X204276761Y-69125428D02*
X204229142Y-69173047D01*
X204229142Y-69173047D02*
X204086285Y-69268285D01*
X204086285Y-69268285D02*
X203895809Y-69315904D01*
X203895809Y-69315904D02*
X203514857Y-69315904D01*
X203514857Y-69315904D02*
X203419619Y-69268285D01*
X203419619Y-69268285D02*
X203372000Y-69220666D01*
X203372000Y-69220666D02*
X203324380Y-69125428D01*
X203324380Y-69125428D02*
X203324380Y-68934952D01*
X203324380Y-68934952D02*
X203372000Y-68839714D01*
X203372000Y-68839714D02*
X203419619Y-68792095D01*
X203419619Y-68792095D02*
X203514857Y-68744476D01*
X203514857Y-68744476D02*
X203752952Y-68744476D01*
X203752952Y-68744476D02*
X203848190Y-68792095D01*
X203848190Y-68792095D02*
X203895809Y-68839714D01*
X203895809Y-68839714D02*
X203943428Y-68934952D01*
X203943428Y-68934952D02*
X203943428Y-69125428D01*
X203943428Y-69125428D02*
X203895809Y-69220666D01*
X203895809Y-69220666D02*
X203848190Y-69268285D01*
X203848190Y-69268285D02*
X203752952Y-69315904D01*
X193706666Y-117587380D02*
X194039999Y-117111190D01*
X194278094Y-117587380D02*
X194278094Y-116587380D01*
X194278094Y-116587380D02*
X193897142Y-116587380D01*
X193897142Y-116587380D02*
X193801904Y-116635000D01*
X193801904Y-116635000D02*
X193754285Y-116682619D01*
X193754285Y-116682619D02*
X193706666Y-116777857D01*
X193706666Y-116777857D02*
X193706666Y-116920714D01*
X193706666Y-116920714D02*
X193754285Y-117015952D01*
X193754285Y-117015952D02*
X193801904Y-117063571D01*
X193801904Y-117063571D02*
X193897142Y-117111190D01*
X193897142Y-117111190D02*
X194278094Y-117111190D01*
X193230475Y-117587380D02*
X193039999Y-117587380D01*
X193039999Y-117587380D02*
X192944761Y-117539761D01*
X192944761Y-117539761D02*
X192897142Y-117492142D01*
X192897142Y-117492142D02*
X192801904Y-117349285D01*
X192801904Y-117349285D02*
X192754285Y-117158809D01*
X192754285Y-117158809D02*
X192754285Y-116777857D01*
X192754285Y-116777857D02*
X192801904Y-116682619D01*
X192801904Y-116682619D02*
X192849523Y-116635000D01*
X192849523Y-116635000D02*
X192944761Y-116587380D01*
X192944761Y-116587380D02*
X193135237Y-116587380D01*
X193135237Y-116587380D02*
X193230475Y-116635000D01*
X193230475Y-116635000D02*
X193278094Y-116682619D01*
X193278094Y-116682619D02*
X193325713Y-116777857D01*
X193325713Y-116777857D02*
X193325713Y-117015952D01*
X193325713Y-117015952D02*
X193278094Y-117111190D01*
X193278094Y-117111190D02*
X193230475Y-117158809D01*
X193230475Y-117158809D02*
X193135237Y-117206428D01*
X193135237Y-117206428D02*
X192944761Y-117206428D01*
X192944761Y-117206428D02*
X192849523Y-117158809D01*
X192849523Y-117158809D02*
X192801904Y-117111190D01*
X192801904Y-117111190D02*
X192754285Y-117015952D01*
X198543904Y-117735714D02*
X198162952Y-117469047D01*
X198543904Y-117278571D02*
X197743904Y-117278571D01*
X197743904Y-117278571D02*
X197743904Y-117583333D01*
X197743904Y-117583333D02*
X197782000Y-117659523D01*
X197782000Y-117659523D02*
X197820095Y-117697618D01*
X197820095Y-117697618D02*
X197896285Y-117735714D01*
X197896285Y-117735714D02*
X198010571Y-117735714D01*
X198010571Y-117735714D02*
X198086761Y-117697618D01*
X198086761Y-117697618D02*
X198124857Y-117659523D01*
X198124857Y-117659523D02*
X198162952Y-117583333D01*
X198162952Y-117583333D02*
X198162952Y-117278571D01*
X198543904Y-118497618D02*
X198543904Y-118040475D01*
X198543904Y-118269047D02*
X197743904Y-118269047D01*
X197743904Y-118269047D02*
X197858190Y-118192856D01*
X197858190Y-118192856D02*
X197934380Y-118116666D01*
X197934380Y-118116666D02*
X197972476Y-118040475D01*
X198543904Y-119259523D02*
X198543904Y-118802380D01*
X198543904Y-119030952D02*
X197743904Y-119030952D01*
X197743904Y-119030952D02*
X197858190Y-118954761D01*
X197858190Y-118954761D02*
X197934380Y-118878571D01*
X197934380Y-118878571D02*
X197972476Y-118802380D01*
X283575380Y-76930714D02*
X282575380Y-76930714D01*
X282575380Y-76930714D02*
X282575380Y-77168809D01*
X282575380Y-77168809D02*
X282623000Y-77311666D01*
X282623000Y-77311666D02*
X282718238Y-77406904D01*
X282718238Y-77406904D02*
X282813476Y-77454523D01*
X282813476Y-77454523D02*
X283003952Y-77502142D01*
X283003952Y-77502142D02*
X283146809Y-77502142D01*
X283146809Y-77502142D02*
X283337285Y-77454523D01*
X283337285Y-77454523D02*
X283432523Y-77406904D01*
X283432523Y-77406904D02*
X283527761Y-77311666D01*
X283527761Y-77311666D02*
X283575380Y-77168809D01*
X283575380Y-77168809D02*
X283575380Y-76930714D01*
X282670619Y-77883095D02*
X282623000Y-77930714D01*
X282623000Y-77930714D02*
X282575380Y-78025952D01*
X282575380Y-78025952D02*
X282575380Y-78264047D01*
X282575380Y-78264047D02*
X282623000Y-78359285D01*
X282623000Y-78359285D02*
X282670619Y-78406904D01*
X282670619Y-78406904D02*
X282765857Y-78454523D01*
X282765857Y-78454523D02*
X282861095Y-78454523D01*
X282861095Y-78454523D02*
X283003952Y-78406904D01*
X283003952Y-78406904D02*
X283575380Y-77835476D01*
X283575380Y-77835476D02*
X283575380Y-78454523D01*
X283575380Y-78930714D02*
X283575380Y-79121190D01*
X283575380Y-79121190D02*
X283527761Y-79216428D01*
X283527761Y-79216428D02*
X283480142Y-79264047D01*
X283480142Y-79264047D02*
X283337285Y-79359285D01*
X283337285Y-79359285D02*
X283146809Y-79406904D01*
X283146809Y-79406904D02*
X282765857Y-79406904D01*
X282765857Y-79406904D02*
X282670619Y-79359285D01*
X282670619Y-79359285D02*
X282623000Y-79311666D01*
X282623000Y-79311666D02*
X282575380Y-79216428D01*
X282575380Y-79216428D02*
X282575380Y-79025952D01*
X282575380Y-79025952D02*
X282623000Y-78930714D01*
X282623000Y-78930714D02*
X282670619Y-78883095D01*
X282670619Y-78883095D02*
X282765857Y-78835476D01*
X282765857Y-78835476D02*
X283003952Y-78835476D01*
X283003952Y-78835476D02*
X283099190Y-78883095D01*
X283099190Y-78883095D02*
X283146809Y-78930714D01*
X283146809Y-78930714D02*
X283194428Y-79025952D01*
X283194428Y-79025952D02*
X283194428Y-79216428D01*
X283194428Y-79216428D02*
X283146809Y-79311666D01*
X283146809Y-79311666D02*
X283099190Y-79359285D01*
X283099190Y-79359285D02*
X283003952Y-79406904D01*
X232467714Y-53616667D02*
X232505809Y-53578571D01*
X232505809Y-53578571D02*
X232543904Y-53464286D01*
X232543904Y-53464286D02*
X232543904Y-53388095D01*
X232543904Y-53388095D02*
X232505809Y-53273809D01*
X232505809Y-53273809D02*
X232429619Y-53197619D01*
X232429619Y-53197619D02*
X232353428Y-53159524D01*
X232353428Y-53159524D02*
X232201047Y-53121428D01*
X232201047Y-53121428D02*
X232086761Y-53121428D01*
X232086761Y-53121428D02*
X231934380Y-53159524D01*
X231934380Y-53159524D02*
X231858190Y-53197619D01*
X231858190Y-53197619D02*
X231782000Y-53273809D01*
X231782000Y-53273809D02*
X231743904Y-53388095D01*
X231743904Y-53388095D02*
X231743904Y-53464286D01*
X231743904Y-53464286D02*
X231782000Y-53578571D01*
X231782000Y-53578571D02*
X231820095Y-53616667D01*
X232010571Y-54302381D02*
X232543904Y-54302381D01*
X231705809Y-54111905D02*
X232277238Y-53921428D01*
X232277238Y-53921428D02*
X232277238Y-54416667D01*
X222764285Y-60717714D02*
X222802381Y-60755809D01*
X222802381Y-60755809D02*
X222916666Y-60793904D01*
X222916666Y-60793904D02*
X222992857Y-60793904D01*
X222992857Y-60793904D02*
X223107143Y-60755809D01*
X223107143Y-60755809D02*
X223183333Y-60679619D01*
X223183333Y-60679619D02*
X223221428Y-60603428D01*
X223221428Y-60603428D02*
X223259524Y-60451047D01*
X223259524Y-60451047D02*
X223259524Y-60336761D01*
X223259524Y-60336761D02*
X223221428Y-60184380D01*
X223221428Y-60184380D02*
X223183333Y-60108190D01*
X223183333Y-60108190D02*
X223107143Y-60032000D01*
X223107143Y-60032000D02*
X222992857Y-59993904D01*
X222992857Y-59993904D02*
X222916666Y-59993904D01*
X222916666Y-59993904D02*
X222802381Y-60032000D01*
X222802381Y-60032000D02*
X222764285Y-60070095D01*
X222002381Y-60793904D02*
X222459524Y-60793904D01*
X222230952Y-60793904D02*
X222230952Y-59993904D01*
X222230952Y-59993904D02*
X222307143Y-60108190D01*
X222307143Y-60108190D02*
X222383333Y-60184380D01*
X222383333Y-60184380D02*
X222459524Y-60222476D01*
X221240476Y-60793904D02*
X221697619Y-60793904D01*
X221469047Y-60793904D02*
X221469047Y-59993904D01*
X221469047Y-59993904D02*
X221545238Y-60108190D01*
X221545238Y-60108190D02*
X221621428Y-60184380D01*
X221621428Y-60184380D02*
X221697619Y-60222476D01*
X227764380Y-196700714D02*
X226764380Y-196700714D01*
X226764380Y-196700714D02*
X226764380Y-196938809D01*
X226764380Y-196938809D02*
X226812000Y-197081666D01*
X226812000Y-197081666D02*
X226907238Y-197176904D01*
X226907238Y-197176904D02*
X227002476Y-197224523D01*
X227002476Y-197224523D02*
X227192952Y-197272142D01*
X227192952Y-197272142D02*
X227335809Y-197272142D01*
X227335809Y-197272142D02*
X227526285Y-197224523D01*
X227526285Y-197224523D02*
X227621523Y-197176904D01*
X227621523Y-197176904D02*
X227716761Y-197081666D01*
X227716761Y-197081666D02*
X227764380Y-196938809D01*
X227764380Y-196938809D02*
X227764380Y-196700714D01*
X226859619Y-197653095D02*
X226812000Y-197700714D01*
X226812000Y-197700714D02*
X226764380Y-197795952D01*
X226764380Y-197795952D02*
X226764380Y-198034047D01*
X226764380Y-198034047D02*
X226812000Y-198129285D01*
X226812000Y-198129285D02*
X226859619Y-198176904D01*
X226859619Y-198176904D02*
X226954857Y-198224523D01*
X226954857Y-198224523D02*
X227050095Y-198224523D01*
X227050095Y-198224523D02*
X227192952Y-198176904D01*
X227192952Y-198176904D02*
X227764380Y-197605476D01*
X227764380Y-197605476D02*
X227764380Y-198224523D01*
X227764380Y-199176904D02*
X227764380Y-198605476D01*
X227764380Y-198891190D02*
X226764380Y-198891190D01*
X226764380Y-198891190D02*
X226907238Y-198795952D01*
X226907238Y-198795952D02*
X227002476Y-198700714D01*
X227002476Y-198700714D02*
X227050095Y-198605476D01*
X142765380Y-196700714D02*
X141765380Y-196700714D01*
X141765380Y-196700714D02*
X141765380Y-196938809D01*
X141765380Y-196938809D02*
X141813000Y-197081666D01*
X141813000Y-197081666D02*
X141908238Y-197176904D01*
X141908238Y-197176904D02*
X142003476Y-197224523D01*
X142003476Y-197224523D02*
X142193952Y-197272142D01*
X142193952Y-197272142D02*
X142336809Y-197272142D01*
X142336809Y-197272142D02*
X142527285Y-197224523D01*
X142527285Y-197224523D02*
X142622523Y-197176904D01*
X142622523Y-197176904D02*
X142717761Y-197081666D01*
X142717761Y-197081666D02*
X142765380Y-196938809D01*
X142765380Y-196938809D02*
X142765380Y-196700714D01*
X142765380Y-198224523D02*
X142765380Y-197653095D01*
X142765380Y-197938809D02*
X141765380Y-197938809D01*
X141765380Y-197938809D02*
X141908238Y-197843571D01*
X141908238Y-197843571D02*
X142003476Y-197748333D01*
X142003476Y-197748333D02*
X142051095Y-197653095D01*
X141765380Y-199081666D02*
X141765380Y-198891190D01*
X141765380Y-198891190D02*
X141813000Y-198795952D01*
X141813000Y-198795952D02*
X141860619Y-198748333D01*
X141860619Y-198748333D02*
X142003476Y-198653095D01*
X142003476Y-198653095D02*
X142193952Y-198605476D01*
X142193952Y-198605476D02*
X142574904Y-198605476D01*
X142574904Y-198605476D02*
X142670142Y-198653095D01*
X142670142Y-198653095D02*
X142717761Y-198700714D01*
X142717761Y-198700714D02*
X142765380Y-198795952D01*
X142765380Y-198795952D02*
X142765380Y-198986428D01*
X142765380Y-198986428D02*
X142717761Y-199081666D01*
X142717761Y-199081666D02*
X142670142Y-199129285D01*
X142670142Y-199129285D02*
X142574904Y-199176904D01*
X142574904Y-199176904D02*
X142336809Y-199176904D01*
X142336809Y-199176904D02*
X142241571Y-199129285D01*
X142241571Y-199129285D02*
X142193952Y-199081666D01*
X142193952Y-199081666D02*
X142146333Y-198986428D01*
X142146333Y-198986428D02*
X142146333Y-198795952D01*
X142146333Y-198795952D02*
X142193952Y-198700714D01*
X142193952Y-198700714D02*
X142241571Y-198653095D01*
X142241571Y-198653095D02*
X142336809Y-198605476D01*
X286339380Y-101776714D02*
X285339380Y-101776714D01*
X285339380Y-101776714D02*
X285339380Y-102014809D01*
X285339380Y-102014809D02*
X285387000Y-102157666D01*
X285387000Y-102157666D02*
X285482238Y-102252904D01*
X285482238Y-102252904D02*
X285577476Y-102300523D01*
X285577476Y-102300523D02*
X285767952Y-102348142D01*
X285767952Y-102348142D02*
X285910809Y-102348142D01*
X285910809Y-102348142D02*
X286101285Y-102300523D01*
X286101285Y-102300523D02*
X286196523Y-102252904D01*
X286196523Y-102252904D02*
X286291761Y-102157666D01*
X286291761Y-102157666D02*
X286339380Y-102014809D01*
X286339380Y-102014809D02*
X286339380Y-101776714D01*
X285339380Y-102681476D02*
X285339380Y-103300523D01*
X285339380Y-103300523D02*
X285720333Y-102967190D01*
X285720333Y-102967190D02*
X285720333Y-103110047D01*
X285720333Y-103110047D02*
X285767952Y-103205285D01*
X285767952Y-103205285D02*
X285815571Y-103252904D01*
X285815571Y-103252904D02*
X285910809Y-103300523D01*
X285910809Y-103300523D02*
X286148904Y-103300523D01*
X286148904Y-103300523D02*
X286244142Y-103252904D01*
X286244142Y-103252904D02*
X286291761Y-103205285D01*
X286291761Y-103205285D02*
X286339380Y-103110047D01*
X286339380Y-103110047D02*
X286339380Y-102824333D01*
X286339380Y-102824333D02*
X286291761Y-102729095D01*
X286291761Y-102729095D02*
X286244142Y-102681476D01*
X285339380Y-103919571D02*
X285339380Y-104014809D01*
X285339380Y-104014809D02*
X285387000Y-104110047D01*
X285387000Y-104110047D02*
X285434619Y-104157666D01*
X285434619Y-104157666D02*
X285529857Y-104205285D01*
X285529857Y-104205285D02*
X285720333Y-104252904D01*
X285720333Y-104252904D02*
X285958428Y-104252904D01*
X285958428Y-104252904D02*
X286148904Y-104205285D01*
X286148904Y-104205285D02*
X286244142Y-104157666D01*
X286244142Y-104157666D02*
X286291761Y-104110047D01*
X286291761Y-104110047D02*
X286339380Y-104014809D01*
X286339380Y-104014809D02*
X286339380Y-103919571D01*
X286339380Y-103919571D02*
X286291761Y-103824333D01*
X286291761Y-103824333D02*
X286244142Y-103776714D01*
X286244142Y-103776714D02*
X286148904Y-103729095D01*
X286148904Y-103729095D02*
X285958428Y-103681476D01*
X285958428Y-103681476D02*
X285720333Y-103681476D01*
X285720333Y-103681476D02*
X285529857Y-103729095D01*
X285529857Y-103729095D02*
X285434619Y-103776714D01*
X285434619Y-103776714D02*
X285387000Y-103824333D01*
X285387000Y-103824333D02*
X285339380Y-103919571D01*
X200467714Y-117735714D02*
X200505809Y-117697618D01*
X200505809Y-117697618D02*
X200543904Y-117583333D01*
X200543904Y-117583333D02*
X200543904Y-117507142D01*
X200543904Y-117507142D02*
X200505809Y-117392856D01*
X200505809Y-117392856D02*
X200429619Y-117316666D01*
X200429619Y-117316666D02*
X200353428Y-117278571D01*
X200353428Y-117278571D02*
X200201047Y-117240475D01*
X200201047Y-117240475D02*
X200086761Y-117240475D01*
X200086761Y-117240475D02*
X199934380Y-117278571D01*
X199934380Y-117278571D02*
X199858190Y-117316666D01*
X199858190Y-117316666D02*
X199782000Y-117392856D01*
X199782000Y-117392856D02*
X199743904Y-117507142D01*
X199743904Y-117507142D02*
X199743904Y-117583333D01*
X199743904Y-117583333D02*
X199782000Y-117697618D01*
X199782000Y-117697618D02*
X199820095Y-117735714D01*
X199820095Y-118040475D02*
X199782000Y-118078571D01*
X199782000Y-118078571D02*
X199743904Y-118154761D01*
X199743904Y-118154761D02*
X199743904Y-118345237D01*
X199743904Y-118345237D02*
X199782000Y-118421428D01*
X199782000Y-118421428D02*
X199820095Y-118459523D01*
X199820095Y-118459523D02*
X199896285Y-118497618D01*
X199896285Y-118497618D02*
X199972476Y-118497618D01*
X199972476Y-118497618D02*
X200086761Y-118459523D01*
X200086761Y-118459523D02*
X200543904Y-118002380D01*
X200543904Y-118002380D02*
X200543904Y-118497618D01*
X200543904Y-119259523D02*
X200543904Y-118802380D01*
X200543904Y-119030952D02*
X199743904Y-119030952D01*
X199743904Y-119030952D02*
X199858190Y-118954761D01*
X199858190Y-118954761D02*
X199934380Y-118878571D01*
X199934380Y-118878571D02*
X199972476Y-118802380D01*
X185282380Y-66839714D02*
X184282380Y-66839714D01*
X184282380Y-66839714D02*
X184282380Y-67077809D01*
X184282380Y-67077809D02*
X184330000Y-67220666D01*
X184330000Y-67220666D02*
X184425238Y-67315904D01*
X184425238Y-67315904D02*
X184520476Y-67363523D01*
X184520476Y-67363523D02*
X184710952Y-67411142D01*
X184710952Y-67411142D02*
X184853809Y-67411142D01*
X184853809Y-67411142D02*
X185044285Y-67363523D01*
X185044285Y-67363523D02*
X185139523Y-67315904D01*
X185139523Y-67315904D02*
X185234761Y-67220666D01*
X185234761Y-67220666D02*
X185282380Y-67077809D01*
X185282380Y-67077809D02*
X185282380Y-66839714D01*
X184282380Y-67744476D02*
X184282380Y-68363523D01*
X184282380Y-68363523D02*
X184663333Y-68030190D01*
X184663333Y-68030190D02*
X184663333Y-68173047D01*
X184663333Y-68173047D02*
X184710952Y-68268285D01*
X184710952Y-68268285D02*
X184758571Y-68315904D01*
X184758571Y-68315904D02*
X184853809Y-68363523D01*
X184853809Y-68363523D02*
X185091904Y-68363523D01*
X185091904Y-68363523D02*
X185187142Y-68315904D01*
X185187142Y-68315904D02*
X185234761Y-68268285D01*
X185234761Y-68268285D02*
X185282380Y-68173047D01*
X185282380Y-68173047D02*
X185282380Y-67887333D01*
X185282380Y-67887333D02*
X185234761Y-67792095D01*
X185234761Y-67792095D02*
X185187142Y-67744476D01*
X184710952Y-68934952D02*
X184663333Y-68839714D01*
X184663333Y-68839714D02*
X184615714Y-68792095D01*
X184615714Y-68792095D02*
X184520476Y-68744476D01*
X184520476Y-68744476D02*
X184472857Y-68744476D01*
X184472857Y-68744476D02*
X184377619Y-68792095D01*
X184377619Y-68792095D02*
X184330000Y-68839714D01*
X184330000Y-68839714D02*
X184282380Y-68934952D01*
X184282380Y-68934952D02*
X184282380Y-69125428D01*
X184282380Y-69125428D02*
X184330000Y-69220666D01*
X184330000Y-69220666D02*
X184377619Y-69268285D01*
X184377619Y-69268285D02*
X184472857Y-69315904D01*
X184472857Y-69315904D02*
X184520476Y-69315904D01*
X184520476Y-69315904D02*
X184615714Y-69268285D01*
X184615714Y-69268285D02*
X184663333Y-69220666D01*
X184663333Y-69220666D02*
X184710952Y-69125428D01*
X184710952Y-69125428D02*
X184710952Y-68934952D01*
X184710952Y-68934952D02*
X184758571Y-68839714D01*
X184758571Y-68839714D02*
X184806190Y-68792095D01*
X184806190Y-68792095D02*
X184901428Y-68744476D01*
X184901428Y-68744476D02*
X185091904Y-68744476D01*
X185091904Y-68744476D02*
X185187142Y-68792095D01*
X185187142Y-68792095D02*
X185234761Y-68839714D01*
X185234761Y-68839714D02*
X185282380Y-68934952D01*
X185282380Y-68934952D02*
X185282380Y-69125428D01*
X185282380Y-69125428D02*
X185234761Y-69220666D01*
X185234761Y-69220666D02*
X185187142Y-69268285D01*
X185187142Y-69268285D02*
X185091904Y-69315904D01*
X185091904Y-69315904D02*
X184901428Y-69315904D01*
X184901428Y-69315904D02*
X184806190Y-69268285D01*
X184806190Y-69268285D02*
X184758571Y-69220666D01*
X184758571Y-69220666D02*
X184710952Y-69125428D01*
X245983332Y-52623904D02*
X246249999Y-52242952D01*
X246440475Y-52623904D02*
X246440475Y-51823904D01*
X246440475Y-51823904D02*
X246135713Y-51823904D01*
X246135713Y-51823904D02*
X246059523Y-51862000D01*
X246059523Y-51862000D02*
X246021428Y-51900095D01*
X246021428Y-51900095D02*
X245983332Y-51976285D01*
X245983332Y-51976285D02*
X245983332Y-52090571D01*
X245983332Y-52090571D02*
X246021428Y-52166761D01*
X246021428Y-52166761D02*
X246059523Y-52204857D01*
X246059523Y-52204857D02*
X246135713Y-52242952D01*
X246135713Y-52242952D02*
X246440475Y-52242952D01*
X245297618Y-51823904D02*
X245449999Y-51823904D01*
X245449999Y-51823904D02*
X245526190Y-51862000D01*
X245526190Y-51862000D02*
X245564285Y-51900095D01*
X245564285Y-51900095D02*
X245640475Y-52014380D01*
X245640475Y-52014380D02*
X245678571Y-52166761D01*
X245678571Y-52166761D02*
X245678571Y-52471523D01*
X245678571Y-52471523D02*
X245640475Y-52547714D01*
X245640475Y-52547714D02*
X245602380Y-52585809D01*
X245602380Y-52585809D02*
X245526190Y-52623904D01*
X245526190Y-52623904D02*
X245373809Y-52623904D01*
X245373809Y-52623904D02*
X245297618Y-52585809D01*
X245297618Y-52585809D02*
X245259523Y-52547714D01*
X245259523Y-52547714D02*
X245221428Y-52471523D01*
X245221428Y-52471523D02*
X245221428Y-52281047D01*
X245221428Y-52281047D02*
X245259523Y-52204857D01*
X245259523Y-52204857D02*
X245297618Y-52166761D01*
X245297618Y-52166761D02*
X245373809Y-52128666D01*
X245373809Y-52128666D02*
X245526190Y-52128666D01*
X245526190Y-52128666D02*
X245602380Y-52166761D01*
X245602380Y-52166761D02*
X245640475Y-52204857D01*
X245640475Y-52204857D02*
X245678571Y-52281047D01*
X228467714Y-53616667D02*
X228505809Y-53578571D01*
X228505809Y-53578571D02*
X228543904Y-53464286D01*
X228543904Y-53464286D02*
X228543904Y-53388095D01*
X228543904Y-53388095D02*
X228505809Y-53273809D01*
X228505809Y-53273809D02*
X228429619Y-53197619D01*
X228429619Y-53197619D02*
X228353428Y-53159524D01*
X228353428Y-53159524D02*
X228201047Y-53121428D01*
X228201047Y-53121428D02*
X228086761Y-53121428D01*
X228086761Y-53121428D02*
X227934380Y-53159524D01*
X227934380Y-53159524D02*
X227858190Y-53197619D01*
X227858190Y-53197619D02*
X227782000Y-53273809D01*
X227782000Y-53273809D02*
X227743904Y-53388095D01*
X227743904Y-53388095D02*
X227743904Y-53464286D01*
X227743904Y-53464286D02*
X227782000Y-53578571D01*
X227782000Y-53578571D02*
X227820095Y-53616667D01*
X228086761Y-54073809D02*
X228048666Y-53997619D01*
X228048666Y-53997619D02*
X228010571Y-53959524D01*
X228010571Y-53959524D02*
X227934380Y-53921428D01*
X227934380Y-53921428D02*
X227896285Y-53921428D01*
X227896285Y-53921428D02*
X227820095Y-53959524D01*
X227820095Y-53959524D02*
X227782000Y-53997619D01*
X227782000Y-53997619D02*
X227743904Y-54073809D01*
X227743904Y-54073809D02*
X227743904Y-54226190D01*
X227743904Y-54226190D02*
X227782000Y-54302381D01*
X227782000Y-54302381D02*
X227820095Y-54340476D01*
X227820095Y-54340476D02*
X227896285Y-54378571D01*
X227896285Y-54378571D02*
X227934380Y-54378571D01*
X227934380Y-54378571D02*
X228010571Y-54340476D01*
X228010571Y-54340476D02*
X228048666Y-54302381D01*
X228048666Y-54302381D02*
X228086761Y-54226190D01*
X228086761Y-54226190D02*
X228086761Y-54073809D01*
X228086761Y-54073809D02*
X228124857Y-53997619D01*
X228124857Y-53997619D02*
X228162952Y-53959524D01*
X228162952Y-53959524D02*
X228239142Y-53921428D01*
X228239142Y-53921428D02*
X228391523Y-53921428D01*
X228391523Y-53921428D02*
X228467714Y-53959524D01*
X228467714Y-53959524D02*
X228505809Y-53997619D01*
X228505809Y-53997619D02*
X228543904Y-54073809D01*
X228543904Y-54073809D02*
X228543904Y-54226190D01*
X228543904Y-54226190D02*
X228505809Y-54302381D01*
X228505809Y-54302381D02*
X228467714Y-54340476D01*
X228467714Y-54340476D02*
X228391523Y-54378571D01*
X228391523Y-54378571D02*
X228239142Y-54378571D01*
X228239142Y-54378571D02*
X228162952Y-54340476D01*
X228162952Y-54340476D02*
X228124857Y-54302381D01*
X228124857Y-54302381D02*
X228086761Y-54226190D01*
X150171380Y-131218714D02*
X149171380Y-131218714D01*
X149171380Y-131218714D02*
X149171380Y-131456809D01*
X149171380Y-131456809D02*
X149219000Y-131599666D01*
X149219000Y-131599666D02*
X149314238Y-131694904D01*
X149314238Y-131694904D02*
X149409476Y-131742523D01*
X149409476Y-131742523D02*
X149599952Y-131790142D01*
X149599952Y-131790142D02*
X149742809Y-131790142D01*
X149742809Y-131790142D02*
X149933285Y-131742523D01*
X149933285Y-131742523D02*
X150028523Y-131694904D01*
X150028523Y-131694904D02*
X150123761Y-131599666D01*
X150123761Y-131599666D02*
X150171380Y-131456809D01*
X150171380Y-131456809D02*
X150171380Y-131218714D01*
X150171380Y-132742523D02*
X150171380Y-132171095D01*
X150171380Y-132456809D02*
X149171380Y-132456809D01*
X149171380Y-132456809D02*
X149314238Y-132361571D01*
X149314238Y-132361571D02*
X149409476Y-132266333D01*
X149409476Y-132266333D02*
X149457095Y-132171095D01*
X149171380Y-133075857D02*
X149171380Y-133694904D01*
X149171380Y-133694904D02*
X149552333Y-133361571D01*
X149552333Y-133361571D02*
X149552333Y-133504428D01*
X149552333Y-133504428D02*
X149599952Y-133599666D01*
X149599952Y-133599666D02*
X149647571Y-133647285D01*
X149647571Y-133647285D02*
X149742809Y-133694904D01*
X149742809Y-133694904D02*
X149980904Y-133694904D01*
X149980904Y-133694904D02*
X150076142Y-133647285D01*
X150076142Y-133647285D02*
X150123761Y-133599666D01*
X150123761Y-133599666D02*
X150171380Y-133504428D01*
X150171380Y-133504428D02*
X150171380Y-133218714D01*
X150171380Y-133218714D02*
X150123761Y-133123476D01*
X150123761Y-133123476D02*
X150076142Y-133075857D01*
D11*
X237996880Y-72301334D02*
X238020690Y-72372762D01*
X238020690Y-72372762D02*
X238020690Y-72491810D01*
X238020690Y-72491810D02*
X237996880Y-72539429D01*
X237996880Y-72539429D02*
X237973071Y-72563238D01*
X237973071Y-72563238D02*
X237925452Y-72587048D01*
X237925452Y-72587048D02*
X237877833Y-72587048D01*
X237877833Y-72587048D02*
X237830214Y-72563238D01*
X237830214Y-72563238D02*
X237806404Y-72539429D01*
X237806404Y-72539429D02*
X237782595Y-72491810D01*
X237782595Y-72491810D02*
X237758785Y-72396572D01*
X237758785Y-72396572D02*
X237734976Y-72348953D01*
X237734976Y-72348953D02*
X237711166Y-72325143D01*
X237711166Y-72325143D02*
X237663547Y-72301334D01*
X237663547Y-72301334D02*
X237615928Y-72301334D01*
X237615928Y-72301334D02*
X237568309Y-72325143D01*
X237568309Y-72325143D02*
X237544500Y-72348953D01*
X237544500Y-72348953D02*
X237520690Y-72396572D01*
X237520690Y-72396572D02*
X237520690Y-72515619D01*
X237520690Y-72515619D02*
X237544500Y-72587048D01*
X237520690Y-72753714D02*
X238020690Y-72872762D01*
X238020690Y-72872762D02*
X237663547Y-72968000D01*
X237663547Y-72968000D02*
X238020690Y-73063238D01*
X238020690Y-73063238D02*
X237520690Y-73182286D01*
X238020690Y-73634667D02*
X238020690Y-73348953D01*
X238020690Y-73491810D02*
X237520690Y-73491810D01*
X237520690Y-73491810D02*
X237592119Y-73444191D01*
X237592119Y-73444191D02*
X237639738Y-73396572D01*
X237639738Y-73396572D02*
X237663547Y-73348953D01*
D10*
X206571428Y-51493904D02*
X206571428Y-50693904D01*
X206571428Y-50693904D02*
X206380952Y-50693904D01*
X206380952Y-50693904D02*
X206266666Y-50732000D01*
X206266666Y-50732000D02*
X206190476Y-50808190D01*
X206190476Y-50808190D02*
X206152381Y-50884380D01*
X206152381Y-50884380D02*
X206114285Y-51036761D01*
X206114285Y-51036761D02*
X206114285Y-51151047D01*
X206114285Y-51151047D02*
X206152381Y-51303428D01*
X206152381Y-51303428D02*
X206190476Y-51379619D01*
X206190476Y-51379619D02*
X206266666Y-51455809D01*
X206266666Y-51455809D02*
X206380952Y-51493904D01*
X206380952Y-51493904D02*
X206571428Y-51493904D01*
X205428571Y-50960571D02*
X205428571Y-51493904D01*
X205619047Y-50655809D02*
X205809524Y-51227238D01*
X205809524Y-51227238D02*
X205314285Y-51227238D01*
X205085714Y-50693904D02*
X204590476Y-50693904D01*
X204590476Y-50693904D02*
X204857142Y-50998666D01*
X204857142Y-50998666D02*
X204742857Y-50998666D01*
X204742857Y-50998666D02*
X204666666Y-51036761D01*
X204666666Y-51036761D02*
X204628571Y-51074857D01*
X204628571Y-51074857D02*
X204590476Y-51151047D01*
X204590476Y-51151047D02*
X204590476Y-51341523D01*
X204590476Y-51341523D02*
X204628571Y-51417714D01*
X204628571Y-51417714D02*
X204666666Y-51455809D01*
X204666666Y-51455809D02*
X204742857Y-51493904D01*
X204742857Y-51493904D02*
X204971428Y-51493904D01*
X204971428Y-51493904D02*
X205047619Y-51455809D01*
X205047619Y-51455809D02*
X205085714Y-51417714D01*
X217261904Y-54717380D02*
X217261904Y-55526904D01*
X217261904Y-55526904D02*
X217214285Y-55622142D01*
X217214285Y-55622142D02*
X217166666Y-55669761D01*
X217166666Y-55669761D02*
X217071428Y-55717380D01*
X217071428Y-55717380D02*
X216880952Y-55717380D01*
X216880952Y-55717380D02*
X216785714Y-55669761D01*
X216785714Y-55669761D02*
X216738095Y-55622142D01*
X216738095Y-55622142D02*
X216690476Y-55526904D01*
X216690476Y-55526904D02*
X216690476Y-54717380D01*
X215738095Y-54717380D02*
X216214285Y-54717380D01*
X216214285Y-54717380D02*
X216261904Y-55193571D01*
X216261904Y-55193571D02*
X216214285Y-55145952D01*
X216214285Y-55145952D02*
X216119047Y-55098333D01*
X216119047Y-55098333D02*
X215880952Y-55098333D01*
X215880952Y-55098333D02*
X215785714Y-55145952D01*
X215785714Y-55145952D02*
X215738095Y-55193571D01*
X215738095Y-55193571D02*
X215690476Y-55288809D01*
X215690476Y-55288809D02*
X215690476Y-55526904D01*
X215690476Y-55526904D02*
X215738095Y-55622142D01*
X215738095Y-55622142D02*
X215785714Y-55669761D01*
X215785714Y-55669761D02*
X215880952Y-55717380D01*
X215880952Y-55717380D02*
X216119047Y-55717380D01*
X216119047Y-55717380D02*
X216214285Y-55669761D01*
X216214285Y-55669761D02*
X216261904Y-55622142D01*
X81424380Y-127099905D02*
X80424380Y-127099905D01*
X80424380Y-127099905D02*
X80424380Y-127338000D01*
X80424380Y-127338000D02*
X80472000Y-127480857D01*
X80472000Y-127480857D02*
X80567238Y-127576095D01*
X80567238Y-127576095D02*
X80662476Y-127623714D01*
X80662476Y-127623714D02*
X80852952Y-127671333D01*
X80852952Y-127671333D02*
X80995809Y-127671333D01*
X80995809Y-127671333D02*
X81186285Y-127623714D01*
X81186285Y-127623714D02*
X81281523Y-127576095D01*
X81281523Y-127576095D02*
X81376761Y-127480857D01*
X81376761Y-127480857D02*
X81424380Y-127338000D01*
X81424380Y-127338000D02*
X81424380Y-127099905D01*
X80424380Y-128528476D02*
X80424380Y-128338000D01*
X80424380Y-128338000D02*
X80472000Y-128242762D01*
X80472000Y-128242762D02*
X80519619Y-128195143D01*
X80519619Y-128195143D02*
X80662476Y-128099905D01*
X80662476Y-128099905D02*
X80852952Y-128052286D01*
X80852952Y-128052286D02*
X81233904Y-128052286D01*
X81233904Y-128052286D02*
X81329142Y-128099905D01*
X81329142Y-128099905D02*
X81376761Y-128147524D01*
X81376761Y-128147524D02*
X81424380Y-128242762D01*
X81424380Y-128242762D02*
X81424380Y-128433238D01*
X81424380Y-128433238D02*
X81376761Y-128528476D01*
X81376761Y-128528476D02*
X81329142Y-128576095D01*
X81329142Y-128576095D02*
X81233904Y-128623714D01*
X81233904Y-128623714D02*
X80995809Y-128623714D01*
X80995809Y-128623714D02*
X80900571Y-128576095D01*
X80900571Y-128576095D02*
X80852952Y-128528476D01*
X80852952Y-128528476D02*
X80805333Y-128433238D01*
X80805333Y-128433238D02*
X80805333Y-128242762D01*
X80805333Y-128242762D02*
X80852952Y-128147524D01*
X80852952Y-128147524D02*
X80900571Y-128099905D01*
X80900571Y-128099905D02*
X80995809Y-128052286D01*
X229467714Y-53616667D02*
X229505809Y-53578571D01*
X229505809Y-53578571D02*
X229543904Y-53464286D01*
X229543904Y-53464286D02*
X229543904Y-53388095D01*
X229543904Y-53388095D02*
X229505809Y-53273809D01*
X229505809Y-53273809D02*
X229429619Y-53197619D01*
X229429619Y-53197619D02*
X229353428Y-53159524D01*
X229353428Y-53159524D02*
X229201047Y-53121428D01*
X229201047Y-53121428D02*
X229086761Y-53121428D01*
X229086761Y-53121428D02*
X228934380Y-53159524D01*
X228934380Y-53159524D02*
X228858190Y-53197619D01*
X228858190Y-53197619D02*
X228782000Y-53273809D01*
X228782000Y-53273809D02*
X228743904Y-53388095D01*
X228743904Y-53388095D02*
X228743904Y-53464286D01*
X228743904Y-53464286D02*
X228782000Y-53578571D01*
X228782000Y-53578571D02*
X228820095Y-53616667D01*
X228820095Y-53921428D02*
X228782000Y-53959524D01*
X228782000Y-53959524D02*
X228743904Y-54035714D01*
X228743904Y-54035714D02*
X228743904Y-54226190D01*
X228743904Y-54226190D02*
X228782000Y-54302381D01*
X228782000Y-54302381D02*
X228820095Y-54340476D01*
X228820095Y-54340476D02*
X228896285Y-54378571D01*
X228896285Y-54378571D02*
X228972476Y-54378571D01*
X228972476Y-54378571D02*
X229086761Y-54340476D01*
X229086761Y-54340476D02*
X229543904Y-53883333D01*
X229543904Y-53883333D02*
X229543904Y-54378571D01*
X217593380Y-106371714D02*
X216593380Y-106371714D01*
X216593380Y-106371714D02*
X216593380Y-106609809D01*
X216593380Y-106609809D02*
X216641000Y-106752666D01*
X216641000Y-106752666D02*
X216736238Y-106847904D01*
X216736238Y-106847904D02*
X216831476Y-106895523D01*
X216831476Y-106895523D02*
X217021952Y-106943142D01*
X217021952Y-106943142D02*
X217164809Y-106943142D01*
X217164809Y-106943142D02*
X217355285Y-106895523D01*
X217355285Y-106895523D02*
X217450523Y-106847904D01*
X217450523Y-106847904D02*
X217545761Y-106752666D01*
X217545761Y-106752666D02*
X217593380Y-106609809D01*
X217593380Y-106609809D02*
X217593380Y-106371714D01*
X216593380Y-107276476D02*
X216593380Y-107895523D01*
X216593380Y-107895523D02*
X216974333Y-107562190D01*
X216974333Y-107562190D02*
X216974333Y-107705047D01*
X216974333Y-107705047D02*
X217021952Y-107800285D01*
X217021952Y-107800285D02*
X217069571Y-107847904D01*
X217069571Y-107847904D02*
X217164809Y-107895523D01*
X217164809Y-107895523D02*
X217402904Y-107895523D01*
X217402904Y-107895523D02*
X217498142Y-107847904D01*
X217498142Y-107847904D02*
X217545761Y-107800285D01*
X217545761Y-107800285D02*
X217593380Y-107705047D01*
X217593380Y-107705047D02*
X217593380Y-107419333D01*
X217593380Y-107419333D02*
X217545761Y-107324095D01*
X217545761Y-107324095D02*
X217498142Y-107276476D01*
X216593380Y-108800285D02*
X216593380Y-108324095D01*
X216593380Y-108324095D02*
X217069571Y-108276476D01*
X217069571Y-108276476D02*
X217021952Y-108324095D01*
X217021952Y-108324095D02*
X216974333Y-108419333D01*
X216974333Y-108419333D02*
X216974333Y-108657428D01*
X216974333Y-108657428D02*
X217021952Y-108752666D01*
X217021952Y-108752666D02*
X217069571Y-108800285D01*
X217069571Y-108800285D02*
X217164809Y-108847904D01*
X217164809Y-108847904D02*
X217402904Y-108847904D01*
X217402904Y-108847904D02*
X217498142Y-108800285D01*
X217498142Y-108800285D02*
X217545761Y-108752666D01*
X217545761Y-108752666D02*
X217593380Y-108657428D01*
X217593380Y-108657428D02*
X217593380Y-108419333D01*
X217593380Y-108419333D02*
X217545761Y-108324095D01*
X217545761Y-108324095D02*
X217498142Y-108276476D01*
X197467714Y-117735714D02*
X197505809Y-117697618D01*
X197505809Y-117697618D02*
X197543904Y-117583333D01*
X197543904Y-117583333D02*
X197543904Y-117507142D01*
X197543904Y-117507142D02*
X197505809Y-117392856D01*
X197505809Y-117392856D02*
X197429619Y-117316666D01*
X197429619Y-117316666D02*
X197353428Y-117278571D01*
X197353428Y-117278571D02*
X197201047Y-117240475D01*
X197201047Y-117240475D02*
X197086761Y-117240475D01*
X197086761Y-117240475D02*
X196934380Y-117278571D01*
X196934380Y-117278571D02*
X196858190Y-117316666D01*
X196858190Y-117316666D02*
X196782000Y-117392856D01*
X196782000Y-117392856D02*
X196743904Y-117507142D01*
X196743904Y-117507142D02*
X196743904Y-117583333D01*
X196743904Y-117583333D02*
X196782000Y-117697618D01*
X196782000Y-117697618D02*
X196820095Y-117735714D01*
X196820095Y-118040475D02*
X196782000Y-118078571D01*
X196782000Y-118078571D02*
X196743904Y-118154761D01*
X196743904Y-118154761D02*
X196743904Y-118345237D01*
X196743904Y-118345237D02*
X196782000Y-118421428D01*
X196782000Y-118421428D02*
X196820095Y-118459523D01*
X196820095Y-118459523D02*
X196896285Y-118497618D01*
X196896285Y-118497618D02*
X196972476Y-118497618D01*
X196972476Y-118497618D02*
X197086761Y-118459523D01*
X197086761Y-118459523D02*
X197543904Y-118002380D01*
X197543904Y-118002380D02*
X197543904Y-118497618D01*
X196820095Y-118802380D02*
X196782000Y-118840476D01*
X196782000Y-118840476D02*
X196743904Y-118916666D01*
X196743904Y-118916666D02*
X196743904Y-119107142D01*
X196743904Y-119107142D02*
X196782000Y-119183333D01*
X196782000Y-119183333D02*
X196820095Y-119221428D01*
X196820095Y-119221428D02*
X196896285Y-119259523D01*
X196896285Y-119259523D02*
X196972476Y-119259523D01*
X196972476Y-119259523D02*
X197086761Y-119221428D01*
X197086761Y-119221428D02*
X197543904Y-118764285D01*
X197543904Y-118764285D02*
X197543904Y-119259523D01*
X215102380Y-218256714D02*
X214102380Y-218256714D01*
X214102380Y-218256714D02*
X214102380Y-218494809D01*
X214102380Y-218494809D02*
X214150000Y-218637666D01*
X214150000Y-218637666D02*
X214245238Y-218732904D01*
X214245238Y-218732904D02*
X214340476Y-218780523D01*
X214340476Y-218780523D02*
X214530952Y-218828142D01*
X214530952Y-218828142D02*
X214673809Y-218828142D01*
X214673809Y-218828142D02*
X214864285Y-218780523D01*
X214864285Y-218780523D02*
X214959523Y-218732904D01*
X214959523Y-218732904D02*
X215054761Y-218637666D01*
X215054761Y-218637666D02*
X215102380Y-218494809D01*
X215102380Y-218494809D02*
X215102380Y-218256714D01*
X214197619Y-219209095D02*
X214150000Y-219256714D01*
X214150000Y-219256714D02*
X214102380Y-219351952D01*
X214102380Y-219351952D02*
X214102380Y-219590047D01*
X214102380Y-219590047D02*
X214150000Y-219685285D01*
X214150000Y-219685285D02*
X214197619Y-219732904D01*
X214197619Y-219732904D02*
X214292857Y-219780523D01*
X214292857Y-219780523D02*
X214388095Y-219780523D01*
X214388095Y-219780523D02*
X214530952Y-219732904D01*
X214530952Y-219732904D02*
X215102380Y-219161476D01*
X215102380Y-219161476D02*
X215102380Y-219780523D01*
X214102380Y-220399571D02*
X214102380Y-220494809D01*
X214102380Y-220494809D02*
X214150000Y-220590047D01*
X214150000Y-220590047D02*
X214197619Y-220637666D01*
X214197619Y-220637666D02*
X214292857Y-220685285D01*
X214292857Y-220685285D02*
X214483333Y-220732904D01*
X214483333Y-220732904D02*
X214721428Y-220732904D01*
X214721428Y-220732904D02*
X214911904Y-220685285D01*
X214911904Y-220685285D02*
X215007142Y-220637666D01*
X215007142Y-220637666D02*
X215054761Y-220590047D01*
X215054761Y-220590047D02*
X215102380Y-220494809D01*
X215102380Y-220494809D02*
X215102380Y-220399571D01*
X215102380Y-220399571D02*
X215054761Y-220304333D01*
X215054761Y-220304333D02*
X215007142Y-220256714D01*
X215007142Y-220256714D02*
X214911904Y-220209095D01*
X214911904Y-220209095D02*
X214721428Y-220161476D01*
X214721428Y-220161476D02*
X214483333Y-220161476D01*
X214483333Y-220161476D02*
X214292857Y-220209095D01*
X214292857Y-220209095D02*
X214197619Y-220256714D01*
X214197619Y-220256714D02*
X214150000Y-220304333D01*
X214150000Y-220304333D02*
X214102380Y-220399571D01*
X201467714Y-117735714D02*
X201505809Y-117697618D01*
X201505809Y-117697618D02*
X201543904Y-117583333D01*
X201543904Y-117583333D02*
X201543904Y-117507142D01*
X201543904Y-117507142D02*
X201505809Y-117392856D01*
X201505809Y-117392856D02*
X201429619Y-117316666D01*
X201429619Y-117316666D02*
X201353428Y-117278571D01*
X201353428Y-117278571D02*
X201201047Y-117240475D01*
X201201047Y-117240475D02*
X201086761Y-117240475D01*
X201086761Y-117240475D02*
X200934380Y-117278571D01*
X200934380Y-117278571D02*
X200858190Y-117316666D01*
X200858190Y-117316666D02*
X200782000Y-117392856D01*
X200782000Y-117392856D02*
X200743904Y-117507142D01*
X200743904Y-117507142D02*
X200743904Y-117583333D01*
X200743904Y-117583333D02*
X200782000Y-117697618D01*
X200782000Y-117697618D02*
X200820095Y-117735714D01*
X200820095Y-118040475D02*
X200782000Y-118078571D01*
X200782000Y-118078571D02*
X200743904Y-118154761D01*
X200743904Y-118154761D02*
X200743904Y-118345237D01*
X200743904Y-118345237D02*
X200782000Y-118421428D01*
X200782000Y-118421428D02*
X200820095Y-118459523D01*
X200820095Y-118459523D02*
X200896285Y-118497618D01*
X200896285Y-118497618D02*
X200972476Y-118497618D01*
X200972476Y-118497618D02*
X201086761Y-118459523D01*
X201086761Y-118459523D02*
X201543904Y-118002380D01*
X201543904Y-118002380D02*
X201543904Y-118497618D01*
X200743904Y-118992857D02*
X200743904Y-119069047D01*
X200743904Y-119069047D02*
X200782000Y-119145238D01*
X200782000Y-119145238D02*
X200820095Y-119183333D01*
X200820095Y-119183333D02*
X200896285Y-119221428D01*
X200896285Y-119221428D02*
X201048666Y-119259523D01*
X201048666Y-119259523D02*
X201239142Y-119259523D01*
X201239142Y-119259523D02*
X201391523Y-119221428D01*
X201391523Y-119221428D02*
X201467714Y-119183333D01*
X201467714Y-119183333D02*
X201505809Y-119145238D01*
X201505809Y-119145238D02*
X201543904Y-119069047D01*
X201543904Y-119069047D02*
X201543904Y-118992857D01*
X201543904Y-118992857D02*
X201505809Y-118916666D01*
X201505809Y-118916666D02*
X201467714Y-118878571D01*
X201467714Y-118878571D02*
X201391523Y-118840476D01*
X201391523Y-118840476D02*
X201239142Y-118802380D01*
X201239142Y-118802380D02*
X201048666Y-118802380D01*
X201048666Y-118802380D02*
X200896285Y-118840476D01*
X200896285Y-118840476D02*
X200820095Y-118878571D01*
X200820095Y-118878571D02*
X200782000Y-118916666D01*
X200782000Y-118916666D02*
X200743904Y-118992857D01*
X167765380Y-196700714D02*
X166765380Y-196700714D01*
X166765380Y-196700714D02*
X166765380Y-196938809D01*
X166765380Y-196938809D02*
X166813000Y-197081666D01*
X166813000Y-197081666D02*
X166908238Y-197176904D01*
X166908238Y-197176904D02*
X167003476Y-197224523D01*
X167003476Y-197224523D02*
X167193952Y-197272142D01*
X167193952Y-197272142D02*
X167336809Y-197272142D01*
X167336809Y-197272142D02*
X167527285Y-197224523D01*
X167527285Y-197224523D02*
X167622523Y-197176904D01*
X167622523Y-197176904D02*
X167717761Y-197081666D01*
X167717761Y-197081666D02*
X167765380Y-196938809D01*
X167765380Y-196938809D02*
X167765380Y-196700714D01*
X167765380Y-198224523D02*
X167765380Y-197653095D01*
X167765380Y-197938809D02*
X166765380Y-197938809D01*
X166765380Y-197938809D02*
X166908238Y-197843571D01*
X166908238Y-197843571D02*
X167003476Y-197748333D01*
X167003476Y-197748333D02*
X167051095Y-197653095D01*
X166765380Y-198557857D02*
X166765380Y-199224523D01*
X166765380Y-199224523D02*
X167765380Y-198795952D01*
D11*
X156088000Y-165247000D02*
X161188000Y-165247000D01*
X159988000Y-169447000D02*
X165088000Y-169447000D01*
X156088000Y-165247000D02*
G75*
G03*
X154088000Y-167247000I-1J-1999999D01*
G01*
X159988000Y-169447000D02*
G75*
G03*
X157988000Y-171447000I-1J-1999999D01*
G01*
X143383000Y-187015000D02*
X148483000Y-187015000D01*
X147283000Y-191215000D02*
X152383000Y-191215000D01*
X143383000Y-187015000D02*
G75*
G03*
X141383000Y-189015000I-1J-1999999D01*
G01*
X147283000Y-191215000D02*
G75*
G03*
X145283000Y-193215000I-1J-1999999D01*
G01*
X244336000Y-130439000D02*
X249436000Y-130439000D01*
X248236000Y-134639000D02*
X253336000Y-134639000D01*
X244336000Y-130439000D02*
G75*
G03*
X242336000Y-132439000I-1J-1999999D01*
G01*
X248236000Y-134639000D02*
G75*
G03*
X246236000Y-136639000I-1J-1999999D01*
G01*
X204942000Y-76048000D02*
X210042000Y-76048000D01*
X208842000Y-80248000D02*
X213942000Y-80248000D01*
X204942000Y-76048000D02*
G75*
G03*
X202942000Y-78048000I-1J-1999999D01*
G01*
X208842000Y-80248000D02*
G75*
G03*
X206842000Y-82248000I-1J-1999999D01*
G01*
X84807000Y-92091000D02*
X89907000Y-92091000D01*
X88707000Y-96291000D02*
X93807000Y-96291000D01*
X84807000Y-92091000D02*
G75*
G03*
X82807000Y-94091000I-1J-1999999D01*
G01*
X88707000Y-96291000D02*
G75*
G03*
X86707000Y-98291000I-1J-1999999D01*
G01*
X168383000Y-187015000D02*
X173483000Y-187015000D01*
X172283000Y-191215000D02*
X177383000Y-191215000D01*
X168383000Y-187015000D02*
G75*
G03*
X166383000Y-189015000I-1J-1999999D01*
G01*
X172283000Y-191215000D02*
G75*
G03*
X170283000Y-193215000I-1J-1999999D01*
G01*
X156044000Y-208571000D02*
X161144000Y-208571000D01*
X159944000Y-212771000D02*
X165044000Y-212771000D01*
X156044000Y-208571000D02*
G75*
G03*
X154044000Y-210571000I-1J-1999999D01*
G01*
X159944000Y-212771000D02*
G75*
G03*
X157944000Y-214771000I-1J-1999999D01*
G01*
X241571000Y-105592000D02*
X246671000Y-105592000D01*
X245471000Y-109792000D02*
X250571000Y-109792000D01*
X241571000Y-105592000D02*
G75*
G03*
X239571000Y-107592000I-1J-1999999D01*
G01*
X245471000Y-109792000D02*
G75*
G03*
X243471000Y-111792000I-1J-1999999D01*
G01*
X240677000Y-165247000D02*
X245777000Y-165247000D01*
X244577000Y-169447000D02*
X249677000Y-169447000D01*
X240677000Y-165247000D02*
G75*
G03*
X238677000Y-167247000I-1J-1999999D01*
G01*
X244577000Y-169447000D02*
G75*
G03*
X242577000Y-171447000I-1J-1999999D01*
G01*
X131088000Y-165247000D02*
X136188000Y-165247000D01*
X134988000Y-169447000D02*
X140088000Y-169447000D01*
X131088000Y-165247000D02*
G75*
G03*
X129088000Y-167247000I-1J-1999999D01*
G01*
X134988000Y-169447000D02*
G75*
G03*
X132988000Y-171447000I-1J-1999999D01*
G01*
X264740000Y-115993000D02*
X269840000Y-115993000D01*
X268640000Y-120193000D02*
X273740000Y-120193000D01*
X264740000Y-115993000D02*
G75*
G03*
X262740000Y-117993000I-1J-1999999D01*
G01*
X268640000Y-120193000D02*
G75*
G03*
X266640000Y-122193000I-1J-1999999D01*
G01*
X61861000Y-102014000D02*
X66961000Y-102014000D01*
X65761000Y-106214000D02*
X70861000Y-106214000D01*
X61861000Y-102014000D02*
G75*
G03*
X59861000Y-104014000I-1J-1999999D01*
G01*
X65761000Y-106214000D02*
G75*
G03*
X63761000Y-108214000I-1J-1999999D01*
G01*
X107025000Y-115993000D02*
X112125000Y-115993000D01*
X110925000Y-120193000D02*
X116025000Y-120193000D01*
X107025000Y-115993000D02*
G75*
G03*
X105025000Y-117993000I-1J-1999999D01*
G01*
X110925000Y-120193000D02*
G75*
G03*
X108925000Y-122193000I-1J-1999999D01*
G01*
X178850000Y-121850000D02*
X201150000Y-121850000D01*
X178850000Y-124000000D02*
X178850000Y-121850000D01*
X201150000Y-121850000D02*
X201150000Y-124000000D01*
D12*
X182350000Y-126750000D02*
G75*
G03*
X182350000Y-126750000I-350000J0D01*
G01*
X198350000Y-126750000D02*
G75*
G03*
X198350000Y-126750000I-350000J0D01*
G01*
D11*
X150789000Y-121533000D02*
X155889000Y-121533000D01*
X154689000Y-125733000D02*
X159789000Y-125733000D01*
X150789000Y-121533000D02*
G75*
G03*
X148789000Y-123533000I-1J-1999999D01*
G01*
X154689000Y-125733000D02*
G75*
G03*
X152689000Y-127733000I-1J-1999999D01*
G01*
X309903000Y-102014000D02*
X315003000Y-102014000D01*
X313803000Y-106214000D02*
X318903000Y-106214000D01*
X309903000Y-102014000D02*
G75*
G03*
X307903000Y-104014000I-1J-1999999D01*
G01*
X313803000Y-106214000D02*
G75*
G03*
X311803000Y-108214000I-1J-1999999D01*
G01*
X109790000Y-91147000D02*
X114890000Y-91147000D01*
X113690000Y-95347000D02*
X118790000Y-95347000D01*
X109790000Y-91147000D02*
G75*
G03*
X107790000Y-93147000I-1J-1999999D01*
G01*
X113690000Y-95347000D02*
G75*
G03*
X111690000Y-97347000I-1J-1999999D01*
G01*
X127429000Y-130439000D02*
X132529000Y-130439000D01*
X131329000Y-134639000D02*
X136429000Y-134639000D01*
X127429000Y-130439000D02*
G75*
G03*
X125429000Y-132439000I-1J-1999999D01*
G01*
X131329000Y-134639000D02*
G75*
G03*
X129329000Y-136639000I-1J-1999999D01*
G01*
X185900000Y-57154000D02*
X191000000Y-57154000D01*
X189800000Y-61354000D02*
X194900000Y-61354000D01*
X185900000Y-57154000D02*
G75*
G03*
X183900000Y-59154000I-1J-1999999D01*
G01*
X189800000Y-61354000D02*
G75*
G03*
X187800000Y-63354000I-1J-1999999D01*
G01*
X220976000Y-121533000D02*
X226076000Y-121533000D01*
X224876000Y-125733000D02*
X229976000Y-125733000D01*
X220976000Y-121533000D02*
G75*
G03*
X218976000Y-123533000I-1J-1999999D01*
G01*
X224876000Y-125733000D02*
G75*
G03*
X222876000Y-127733000I-1J-1999999D01*
G01*
X203382000Y-187015000D02*
X208482000Y-187015000D01*
X207282000Y-191215000D02*
X212382000Y-191215000D01*
X203382000Y-187015000D02*
G75*
G03*
X201382000Y-189015000I-1J-1999999D01*
G01*
X207282000Y-191215000D02*
G75*
G03*
X205282000Y-193215000I-1J-1999999D01*
G01*
X215677000Y-165247000D02*
X220777000Y-165247000D01*
X219577000Y-169447000D02*
X224677000Y-169447000D01*
X215677000Y-165247000D02*
G75*
G03*
X213677000Y-167247000I-1J-1999999D01*
G01*
X219577000Y-169447000D02*
G75*
G03*
X217577000Y-171447000I-1J-1999999D01*
G01*
X87571000Y-67245000D02*
X92671000Y-67245000D01*
X91471000Y-71445000D02*
X96571000Y-71445000D01*
X87571000Y-67245000D02*
G75*
G03*
X85571000Y-69245000I-1J-1999999D01*
G01*
X91471000Y-71445000D02*
G75*
G03*
X89471000Y-73445000I-1J-1999999D01*
G01*
X218211000Y-96686000D02*
X223311000Y-96686000D01*
X222111000Y-100886000D02*
X227211000Y-100886000D01*
X218211000Y-96686000D02*
G75*
G03*
X216211000Y-98686000I-1J-1999999D01*
G01*
X222111000Y-100886000D02*
G75*
G03*
X220111000Y-102886000I-1J-1999999D01*
G01*
X130194000Y-105592000D02*
X135294000Y-105592000D01*
X134094000Y-109792000D02*
X139194000Y-109792000D01*
X130194000Y-105592000D02*
G75*
G03*
X128194000Y-107592000I-1J-1999999D01*
G01*
X134094000Y-109792000D02*
G75*
G03*
X132094000Y-111792000I-1J-1999999D01*
G01*
X259414000Y-66300000D02*
X264514000Y-66300000D01*
X263314000Y-70500000D02*
X268414000Y-70500000D01*
X259414000Y-66300000D02*
G75*
G03*
X257414000Y-68300000I-1J-1999999D01*
G01*
X263314000Y-70500000D02*
G75*
G03*
X261314000Y-72500000I-1J-1999999D01*
G01*
X132958000Y-80745000D02*
X138058000Y-80745000D01*
X136858000Y-84945000D02*
X141958000Y-84945000D01*
X132958000Y-80745000D02*
G75*
G03*
X130958000Y-82745000I-1J-1999999D01*
G01*
X136858000Y-84945000D02*
G75*
G03*
X134858000Y-86945000I-1J-1999999D01*
G01*
X228382000Y-187015000D02*
X233482000Y-187015000D01*
X232282000Y-191215000D02*
X237382000Y-191215000D01*
X228382000Y-187015000D02*
G75*
G03*
X226382000Y-189015000I-1J-1999999D01*
G01*
X232282000Y-191215000D02*
G75*
G03*
X230282000Y-193215000I-1J-1999999D01*
G01*
X286957000Y-92091000D02*
X292057000Y-92091000D01*
X290857000Y-96291000D02*
X295957000Y-96291000D01*
X286957000Y-92091000D02*
G75*
G03*
X284957000Y-94091000I-1J-1999999D01*
G01*
X290857000Y-96291000D02*
G75*
G03*
X288857000Y-98291000I-1J-1999999D01*
G01*
X112350000Y-66300000D02*
X117450000Y-66300000D01*
X116250000Y-70500000D02*
X121350000Y-70500000D01*
X112350000Y-66300000D02*
G75*
G03*
X110350000Y-68300000I-1J-1999999D01*
G01*
X116250000Y-70500000D02*
G75*
G03*
X114250000Y-72500000I-1J-1999999D01*
G01*
X185900000Y-76048000D02*
X191000000Y-76048000D01*
X189800000Y-80248000D02*
X194900000Y-80248000D01*
X185900000Y-76048000D02*
G75*
G03*
X183900000Y-78048000I-1J-1999999D01*
G01*
X189800000Y-80248000D02*
G75*
G03*
X187800000Y-82248000I-1J-1999999D01*
G01*
X312668000Y-126861000D02*
X317768000Y-126861000D01*
X316568000Y-131061000D02*
X321668000Y-131061000D01*
X312668000Y-126861000D02*
G75*
G03*
X310668000Y-128861000I-1J-1999999D01*
G01*
X316568000Y-131061000D02*
G75*
G03*
X314568000Y-133061000I-1J-1999999D01*
G01*
X204942000Y-57154000D02*
X210042000Y-57154000D01*
X208842000Y-61354000D02*
X213942000Y-61354000D01*
X204942000Y-57154000D02*
G75*
G03*
X202942000Y-59154000I-1J-1999999D01*
G01*
X208842000Y-61354000D02*
G75*
G03*
X206842000Y-63354000I-1J-1999999D01*
G01*
X166859000Y-57154000D02*
X171959000Y-57154000D01*
X170759000Y-61354000D02*
X175859000Y-61354000D01*
X166859000Y-57154000D02*
G75*
G03*
X164859000Y-59154000I-1J-1999999D01*
G01*
X170759000Y-61354000D02*
G75*
G03*
X168759000Y-63354000I-1J-1999999D01*
G01*
X215720000Y-208571000D02*
X220820000Y-208571000D01*
X219620000Y-212771000D02*
X224720000Y-212771000D01*
X215720000Y-208571000D02*
G75*
G03*
X213720000Y-210571000I-1J-1999999D01*
G01*
X219620000Y-212771000D02*
G75*
G03*
X217620000Y-214771000I-1J-1999999D01*
G01*
X238807000Y-80745000D02*
X243907000Y-80745000D01*
X242707000Y-84945000D02*
X247807000Y-84945000D01*
X238807000Y-80745000D02*
G75*
G03*
X236807000Y-82745000I-1J-1999999D01*
G01*
X242707000Y-84945000D02*
G75*
G03*
X240707000Y-86945000I-1J-1999999D01*
G01*
X59096000Y-126861000D02*
X64196000Y-126861000D01*
X62996000Y-131061000D02*
X68096000Y-131061000D01*
X59096000Y-126861000D02*
G75*
G03*
X57096000Y-128861000I-1J-1999999D01*
G01*
X62996000Y-131061000D02*
G75*
G03*
X60996000Y-133061000I-1J-1999999D01*
G01*
X284193000Y-67245000D02*
X289293000Y-67245000D01*
X288093000Y-71445000D02*
X293193000Y-71445000D01*
X284193000Y-67245000D02*
G75*
G03*
X282193000Y-69245000I-1J-1999999D01*
G01*
X288093000Y-71445000D02*
G75*
G03*
X286093000Y-73445000I-1J-1999999D01*
G01*
X153554000Y-96686000D02*
X158654000Y-96686000D01*
X157454000Y-100886000D02*
X162554000Y-100886000D01*
X153554000Y-96686000D02*
G75*
G03*
X151554000Y-98686000I-1J-1999999D01*
G01*
X157454000Y-100886000D02*
G75*
G03*
X155454000Y-102886000I-1J-1999999D01*
G01*
X261975000Y-91147000D02*
X267075000Y-91147000D01*
X265875000Y-95347000D02*
X270975000Y-95347000D01*
X261975000Y-91147000D02*
G75*
G03*
X259975000Y-93147000I-1J-1999999D01*
G01*
X265875000Y-95347000D02*
G75*
G03*
X263875000Y-97347000I-1J-1999999D01*
G01*
X289722000Y-116938000D02*
X294822000Y-116938000D01*
X293622000Y-121138000D02*
X298722000Y-121138000D01*
X289722000Y-116938000D02*
G75*
G03*
X287722000Y-118938000I-1J-1999999D01*
G01*
X293622000Y-121138000D02*
G75*
G03*
X291622000Y-123138000I-1J-1999999D01*
G01*
X82042000Y-116938000D02*
X87142000Y-116938000D01*
X85942000Y-121138000D02*
X91042000Y-121138000D01*
X82042000Y-116938000D02*
G75*
G03*
X80042000Y-118938000I-1J-1999999D01*
G01*
X85942000Y-121138000D02*
G75*
G03*
X83942000Y-123138000I-1J-1999999D01*
G01*
X166859000Y-76048000D02*
X171959000Y-76048000D01*
X170759000Y-80248000D02*
X175859000Y-80248000D01*
X166859000Y-76048000D02*
G75*
G03*
X164859000Y-78048000I-1J-1999999D01*
G01*
X170759000Y-80248000D02*
G75*
G03*
X168759000Y-82248000I-1J-1999999D01*
G01*
X180872164Y-119140000D02*
X181087836Y-119140000D01*
X180872164Y-119860000D02*
X181087836Y-119860000D01*
X152059000Y-221831000D02*
X152059000Y-217821000D01*
X154059000Y-221831000D02*
X152059000Y-221831000D01*
X154059000Y-221831000D02*
X154059000Y-217821000D01*
X232890000Y-57307836D02*
X232890000Y-57092164D01*
X233610000Y-57307836D02*
X233610000Y-57092164D01*
X234057836Y-72060000D02*
X233842164Y-72060000D01*
X234057836Y-71340000D02*
X233842164Y-71340000D01*
X237142164Y-60740000D02*
X237357836Y-60740000D01*
X237142164Y-61460000D02*
X237357836Y-61460000D01*
X149569000Y-109946000D02*
X149569000Y-105936000D01*
X151569000Y-109946000D02*
X149569000Y-109946000D01*
X151569000Y-109946000D02*
X151569000Y-105936000D01*
X234750000Y-72350000D02*
X234750000Y-76350000D01*
X231450000Y-72350000D02*
X234750000Y-72350000D01*
X257990000Y-104407000D02*
X257990000Y-100397000D01*
X259990000Y-104407000D02*
X257990000Y-104407000D01*
X259990000Y-104407000D02*
X259990000Y-100397000D01*
X240351000Y-143699000D02*
X240351000Y-139689000D01*
X242351000Y-143699000D02*
X240351000Y-143699000D01*
X242351000Y-143699000D02*
X242351000Y-139689000D01*
X103040000Y-129253000D02*
X103040000Y-125243000D01*
X105040000Y-129253000D02*
X103040000Y-129253000D01*
X105040000Y-129253000D02*
X105040000Y-125243000D01*
X80822000Y-105351000D02*
X80822000Y-101341000D01*
X82822000Y-105351000D02*
X80822000Y-105351000D01*
X82822000Y-105351000D02*
X82822000Y-101341000D01*
X242525000Y-58125000D02*
X242525000Y-57865000D01*
X242525000Y-52935000D02*
X244200000Y-52935000D01*
X242525000Y-52675000D02*
X242525000Y-52935000D01*
X239800000Y-58125000D02*
X242525000Y-58125000D01*
X239800000Y-58125000D02*
X237075000Y-58125000D01*
X239800000Y-52675000D02*
X242525000Y-52675000D01*
X239800000Y-52675000D02*
X237075000Y-52675000D01*
X237075000Y-58125000D02*
X237075000Y-57865000D01*
X237075000Y-52675000D02*
X237075000Y-52935000D01*
X226857836Y-65860000D02*
X226642164Y-65860000D01*
X226857836Y-65140000D02*
X226642164Y-65140000D01*
X162874000Y-89308000D02*
X162874000Y-85298000D01*
X164874000Y-89308000D02*
X162874000Y-89308000D01*
X164874000Y-89308000D02*
X164874000Y-85298000D01*
X308683000Y-140121000D02*
X308683000Y-136111000D01*
X310683000Y-140121000D02*
X308683000Y-140121000D01*
X310683000Y-140121000D02*
X310683000Y-136111000D01*
X230760000Y-70292164D02*
X230760000Y-70507836D01*
X230040000Y-70292164D02*
X230040000Y-70507836D01*
D13*
X250550000Y-70450000D02*
X250550000Y-75550000D01*
X247000000Y-70450000D02*
X249000000Y-70450000D01*
X245450000Y-70450000D02*
X245450000Y-75550000D01*
X247000000Y-75550000D02*
X249000000Y-75550000D01*
D11*
X231530000Y-57646359D02*
X231530000Y-57953641D01*
X230770000Y-57646359D02*
X230770000Y-57953641D01*
X83586000Y-80505000D02*
X83586000Y-76495000D01*
X85586000Y-80505000D02*
X83586000Y-80505000D01*
X85586000Y-80505000D02*
X85586000Y-76495000D01*
X211692000Y-178507000D02*
X211692000Y-174497000D01*
X213692000Y-178507000D02*
X211692000Y-178507000D01*
X213692000Y-178507000D02*
X213692000Y-174497000D01*
X242580000Y-60546359D02*
X242580000Y-60853641D01*
X241820000Y-60546359D02*
X241820000Y-60853641D01*
X216991000Y-134793000D02*
X216991000Y-130783000D01*
X218991000Y-134793000D02*
X216991000Y-134793000D01*
X218991000Y-134793000D02*
X218991000Y-130783000D01*
X236207836Y-52260000D02*
X235992164Y-52260000D01*
X236207836Y-51540000D02*
X235992164Y-51540000D01*
X226857836Y-61910000D02*
X226642164Y-61910000D01*
X226857836Y-61190000D02*
X226642164Y-61190000D01*
X213590000Y-53607836D02*
X213590000Y-53392164D01*
X214310000Y-53607836D02*
X214310000Y-53392164D01*
X184163641Y-53130000D02*
X183856359Y-53130000D01*
X184163641Y-52370000D02*
X183856359Y-52370000D01*
X123444000Y-143699000D02*
X123444000Y-139689000D01*
X125444000Y-143699000D02*
X123444000Y-143699000D01*
X125444000Y-143699000D02*
X125444000Y-139689000D01*
X234822000Y-94005000D02*
X234822000Y-89995000D01*
X236822000Y-94005000D02*
X234822000Y-94005000D01*
X236822000Y-94005000D02*
X236822000Y-89995000D01*
X218690000Y-53587836D02*
X218690000Y-53372164D01*
X219410000Y-53587836D02*
X219410000Y-53372164D01*
X108365000Y-79560000D02*
X108365000Y-75550000D01*
X110365000Y-79560000D02*
X108365000Y-79560000D01*
X110365000Y-79560000D02*
X110365000Y-75550000D01*
X198890000Y-120377836D02*
X198890000Y-120162164D01*
X199610000Y-120377836D02*
X199610000Y-120162164D01*
X237242164Y-65140000D02*
X237457836Y-65140000D01*
X237242164Y-65860000D02*
X237457836Y-65860000D01*
X255429000Y-79560000D02*
X255429000Y-75550000D01*
X257429000Y-79560000D02*
X255429000Y-79560000D01*
X257429000Y-79560000D02*
X257429000Y-75550000D01*
X184857836Y-112910000D02*
X184642164Y-112910000D01*
X184857836Y-112190000D02*
X184642164Y-112190000D01*
X187780000Y-111936359D02*
X187780000Y-112243641D01*
X187020000Y-111936359D02*
X187020000Y-112243641D01*
X232070000Y-71403641D02*
X232070000Y-71096359D01*
X232830000Y-71403641D02*
X232830000Y-71096359D01*
X58000000Y-115274000D02*
X58000000Y-111264000D01*
X60000000Y-115274000D02*
X58000000Y-115274000D01*
X60000000Y-115274000D02*
X60000000Y-111264000D01*
X236692000Y-178507000D02*
X236692000Y-174497000D01*
X238692000Y-178507000D02*
X236692000Y-178507000D01*
X238692000Y-178507000D02*
X238692000Y-174497000D01*
X193610000Y-113750000D02*
X189600000Y-113750000D01*
X193610000Y-111750000D02*
X193610000Y-113750000D01*
X193610000Y-111750000D02*
X189600000Y-111750000D01*
X182122164Y-120390000D02*
X182337836Y-120390000D01*
X182122164Y-121110000D02*
X182337836Y-121110000D01*
X181915000Y-89308000D02*
X181915000Y-85298000D01*
X183915000Y-89308000D02*
X181915000Y-89308000D01*
X183915000Y-89308000D02*
X183915000Y-85298000D01*
X127103000Y-178507000D02*
X127103000Y-174497000D01*
X129103000Y-178507000D02*
X127103000Y-178507000D01*
X129103000Y-178507000D02*
X129103000Y-174497000D01*
X237586000Y-118852000D02*
X237586000Y-114842000D01*
X239586000Y-118852000D02*
X237586000Y-118852000D01*
X239586000Y-118852000D02*
X239586000Y-114842000D01*
X162874000Y-70414000D02*
X162874000Y-66404000D01*
X164874000Y-70414000D02*
X162874000Y-70414000D01*
X164874000Y-70414000D02*
X164874000Y-66404000D01*
X152103000Y-178507000D02*
X152103000Y-174497000D01*
X154103000Y-178507000D02*
X152103000Y-178507000D01*
X154103000Y-178507000D02*
X154103000Y-174497000D01*
X184153641Y-54130000D02*
X183846359Y-54130000D01*
X184153641Y-53370000D02*
X183846359Y-53370000D01*
X235610000Y-68110000D02*
X235610000Y-67460000D01*
X234960000Y-68110000D02*
X235610000Y-68110000D01*
X234960000Y-60890000D02*
X235610000Y-60890000D01*
X229040000Y-68110000D02*
X228390000Y-68110000D01*
X229040000Y-60890000D02*
X228390000Y-60890000D01*
X228390000Y-68110000D02*
X228390000Y-67460000D01*
X228390000Y-60890000D02*
X228390000Y-61540000D01*
X199397000Y-200275000D02*
X199397000Y-196265000D01*
X201397000Y-200275000D02*
X199397000Y-200275000D01*
X201397000Y-200275000D02*
X201397000Y-196265000D01*
X200957000Y-89308000D02*
X200957000Y-85298000D01*
X202957000Y-89308000D02*
X200957000Y-89308000D01*
X202957000Y-89308000D02*
X202957000Y-85298000D01*
X305918000Y-115274000D02*
X305918000Y-111264000D01*
X307918000Y-115274000D02*
X305918000Y-115274000D01*
X307918000Y-115274000D02*
X307918000Y-111264000D01*
X231110000Y-74242164D02*
X231110000Y-74457836D01*
X230390000Y-74242164D02*
X230390000Y-74457836D01*
X195436359Y-115670000D02*
X195743641Y-115670000D01*
X195436359Y-116430000D02*
X195743641Y-116430000D01*
X105805000Y-104407000D02*
X105805000Y-100397000D01*
X107805000Y-104407000D02*
X105805000Y-104407000D01*
X107805000Y-104407000D02*
X107805000Y-100397000D01*
X285737000Y-130198000D02*
X285737000Y-126188000D01*
X287737000Y-130198000D02*
X285737000Y-130198000D01*
X287737000Y-130198000D02*
X287737000Y-126188000D01*
X260755000Y-129253000D02*
X260755000Y-125243000D01*
X262755000Y-129253000D02*
X260755000Y-129253000D01*
X262755000Y-129253000D02*
X262755000Y-125243000D01*
X230450000Y-57646359D02*
X230450000Y-57953641D01*
X229690000Y-57646359D02*
X229690000Y-57953641D01*
X231790000Y-70292164D02*
X231790000Y-70507836D01*
X231070000Y-70292164D02*
X231070000Y-70507836D01*
X126209000Y-118852000D02*
X126209000Y-114842000D01*
X128209000Y-118852000D02*
X126209000Y-118852000D01*
X128209000Y-118852000D02*
X128209000Y-114842000D01*
X128973000Y-94005000D02*
X128973000Y-89995000D01*
X130973000Y-94005000D02*
X128973000Y-94005000D01*
X130973000Y-94005000D02*
X130973000Y-89995000D01*
X55111000Y-140121000D02*
X55111000Y-136111000D01*
X57111000Y-140121000D02*
X55111000Y-140121000D01*
X57111000Y-140121000D02*
X57111000Y-136111000D01*
X200957000Y-70414000D02*
X200957000Y-66404000D01*
X202957000Y-70414000D02*
X200957000Y-70414000D01*
X202957000Y-70414000D02*
X202957000Y-66404000D01*
X193386359Y-115670000D02*
X193693641Y-115670000D01*
X193386359Y-116430000D02*
X193693641Y-116430000D01*
X198630000Y-120096359D02*
X198630000Y-120403641D01*
X197870000Y-120096359D02*
X197870000Y-120403641D01*
X280208000Y-80505000D02*
X280208000Y-76495000D01*
X282208000Y-80505000D02*
X280208000Y-80505000D01*
X282208000Y-80505000D02*
X282208000Y-76495000D01*
X231840000Y-57907836D02*
X231840000Y-57692164D01*
X232560000Y-57907836D02*
X232560000Y-57692164D01*
X226857836Y-60860000D02*
X226642164Y-60860000D01*
X226857836Y-60140000D02*
X226642164Y-60140000D01*
X224397000Y-200275000D02*
X224397000Y-196265000D01*
X226397000Y-200275000D02*
X224397000Y-200275000D01*
X226397000Y-200275000D02*
X226397000Y-196265000D01*
X139398000Y-200275000D02*
X139398000Y-196265000D01*
X141398000Y-200275000D02*
X139398000Y-200275000D01*
X141398000Y-200275000D02*
X141398000Y-196265000D01*
X282972000Y-105351000D02*
X282972000Y-101341000D01*
X284972000Y-105351000D02*
X282972000Y-105351000D01*
X284972000Y-105351000D02*
X284972000Y-101341000D01*
X199890000Y-120377836D02*
X199890000Y-120162164D01*
X200610000Y-120377836D02*
X200610000Y-120162164D01*
X181915000Y-70414000D02*
X181915000Y-66404000D01*
X183915000Y-70414000D02*
X181915000Y-70414000D01*
X183915000Y-70414000D02*
X183915000Y-66404000D01*
X246003641Y-53880000D02*
X245696359Y-53880000D01*
X246003641Y-53120000D02*
X245696359Y-53120000D01*
X227590000Y-58907836D02*
X227590000Y-58692164D01*
X228310000Y-58907836D02*
X228310000Y-58692164D01*
X146804000Y-134793000D02*
X146804000Y-130783000D01*
X148804000Y-134793000D02*
X146804000Y-134793000D01*
X148804000Y-134793000D02*
X148804000Y-130783000D01*
D13*
X238450000Y-75550000D02*
X238450000Y-70450000D01*
X242000000Y-75550000D02*
X240000000Y-75550000D01*
X243550000Y-75550000D02*
X243550000Y-70450000D01*
X242000000Y-70450000D02*
X240000000Y-70450000D01*
D11*
X211610000Y-52250000D02*
X207600000Y-52250000D01*
X211610000Y-50250000D02*
X211610000Y-52250000D01*
X211610000Y-50250000D02*
X207600000Y-50250000D01*
X216500000Y-51390000D02*
X215700000Y-51390000D01*
X216500000Y-51390000D02*
X217300000Y-51390000D01*
X216500000Y-54510000D02*
X214700000Y-54510000D01*
X216500000Y-54510000D02*
X217300000Y-54510000D01*
X78057000Y-130198000D02*
X78057000Y-126188000D01*
X80057000Y-130198000D02*
X78057000Y-130198000D01*
X80057000Y-130198000D02*
X80057000Y-126188000D01*
X228640000Y-57907836D02*
X228640000Y-57692164D01*
X229360000Y-57907836D02*
X229360000Y-57692164D01*
X214226000Y-109946000D02*
X214226000Y-105936000D01*
X216226000Y-109946000D02*
X214226000Y-109946000D01*
X216226000Y-109946000D02*
X216226000Y-105936000D01*
X197610000Y-120162164D02*
X197610000Y-120377836D01*
X196890000Y-120162164D02*
X196890000Y-120377836D01*
X211735000Y-221831000D02*
X211735000Y-217821000D01*
X213735000Y-221831000D02*
X211735000Y-221831000D01*
X213735000Y-221831000D02*
X213735000Y-217821000D01*
X201610000Y-120162164D02*
X201610000Y-120377836D01*
X200890000Y-120162164D02*
X200890000Y-120377836D01*
X164398000Y-200275000D02*
X164398000Y-196265000D01*
X166398000Y-200275000D02*
X164398000Y-200275000D01*
X166398000Y-200275000D02*
X166398000Y-196265000D01*
M02*
