G04 #@! TF.GenerationSoftware,KiCad,Pcbnew,(7.0.0)*
G04 #@! TF.CreationDate,2023-10-12T13:51:26-04:00*
G04 #@! TF.ProjectId,ZBox3-0,5a426f78-332d-4302-9e6b-696361645f70,rev?*
G04 #@! TF.SameCoordinates,Original*
G04 #@! TF.FileFunction,Legend,Top*
G04 #@! TF.FilePolarity,Positive*
%FSLAX46Y46*%
G04 Gerber Fmt 4.6, Leading zero omitted, Abs format (unit mm)*
G04 Created by KiCad (PCBNEW (7.0.0)) date 2023-10-12 13:51:26*
%MOMM*%
%LPD*%
G01*
G04 APERTURE LIST*
%ADD10C,0.150000*%
%ADD11C,0.120000*%
G04 APERTURE END LIST*
D10*
X58666666Y-216167380D02*
X58333333Y-215691190D01*
X58095238Y-216167380D02*
X58095238Y-215167380D01*
X58095238Y-215167380D02*
X58476190Y-215167380D01*
X58476190Y-215167380D02*
X58571428Y-215215000D01*
X58571428Y-215215000D02*
X58619047Y-215262619D01*
X58619047Y-215262619D02*
X58666666Y-215357857D01*
X58666666Y-215357857D02*
X58666666Y-215500714D01*
X58666666Y-215500714D02*
X58619047Y-215595952D01*
X58619047Y-215595952D02*
X58571428Y-215643571D01*
X58571428Y-215643571D02*
X58476190Y-215691190D01*
X58476190Y-215691190D02*
X58095238Y-215691190D01*
X59095238Y-215643571D02*
X59428571Y-215643571D01*
X59571428Y-216167380D02*
X59095238Y-216167380D01*
X59095238Y-216167380D02*
X59095238Y-215167380D01*
X59095238Y-215167380D02*
X59571428Y-215167380D01*
X60333333Y-215643571D02*
X60000000Y-215643571D01*
X60000000Y-216167380D02*
X60000000Y-215167380D01*
X60000000Y-215167380D02*
X60476190Y-215167380D01*
X61000000Y-215167380D02*
X61000000Y-215405476D01*
X60761905Y-215310238D02*
X61000000Y-215405476D01*
X61000000Y-215405476D02*
X61238095Y-215310238D01*
X60857143Y-215595952D02*
X61000000Y-215405476D01*
X61000000Y-215405476D02*
X61142857Y-215595952D01*
X61761905Y-215167380D02*
X61761905Y-215405476D01*
X61523810Y-215310238D02*
X61761905Y-215405476D01*
X61761905Y-215405476D02*
X62000000Y-215310238D01*
X61619048Y-215595952D02*
X61761905Y-215405476D01*
X61761905Y-215405476D02*
X61904762Y-215595952D01*
X158973714Y-164514380D02*
X158973714Y-163514380D01*
X159545142Y-164514380D02*
X159116571Y-163942952D01*
X159545142Y-163514380D02*
X158973714Y-164085809D01*
X160497523Y-164514380D02*
X159926095Y-164514380D01*
X160211809Y-164514380D02*
X160211809Y-163514380D01*
X160211809Y-163514380D02*
X160116571Y-163657238D01*
X160116571Y-163657238D02*
X160021333Y-163752476D01*
X160021333Y-163752476D02*
X159926095Y-163800095D01*
X161402285Y-163514380D02*
X160926095Y-163514380D01*
X160926095Y-163514380D02*
X160878476Y-163990571D01*
X160878476Y-163990571D02*
X160926095Y-163942952D01*
X160926095Y-163942952D02*
X161021333Y-163895333D01*
X161021333Y-163895333D02*
X161259428Y-163895333D01*
X161259428Y-163895333D02*
X161354666Y-163942952D01*
X161354666Y-163942952D02*
X161402285Y-163990571D01*
X161402285Y-163990571D02*
X161449904Y-164085809D01*
X161449904Y-164085809D02*
X161449904Y-164323904D01*
X161449904Y-164323904D02*
X161402285Y-164419142D01*
X161402285Y-164419142D02*
X161354666Y-164466761D01*
X161354666Y-164466761D02*
X161259428Y-164514380D01*
X161259428Y-164514380D02*
X161021333Y-164514380D01*
X161021333Y-164514380D02*
X160926095Y-164466761D01*
X160926095Y-164466761D02*
X160878476Y-164419142D01*
X146268714Y-186282380D02*
X146268714Y-185282380D01*
X146840142Y-186282380D02*
X146411571Y-185710952D01*
X146840142Y-185282380D02*
X146268714Y-185853809D01*
X147792523Y-186282380D02*
X147221095Y-186282380D01*
X147506809Y-186282380D02*
X147506809Y-185282380D01*
X147506809Y-185282380D02*
X147411571Y-185425238D01*
X147411571Y-185425238D02*
X147316333Y-185520476D01*
X147316333Y-185520476D02*
X147221095Y-185568095D01*
X148649666Y-185282380D02*
X148459190Y-185282380D01*
X148459190Y-185282380D02*
X148363952Y-185330000D01*
X148363952Y-185330000D02*
X148316333Y-185377619D01*
X148316333Y-185377619D02*
X148221095Y-185520476D01*
X148221095Y-185520476D02*
X148173476Y-185710952D01*
X148173476Y-185710952D02*
X148173476Y-186091904D01*
X148173476Y-186091904D02*
X148221095Y-186187142D01*
X148221095Y-186187142D02*
X148268714Y-186234761D01*
X148268714Y-186234761D02*
X148363952Y-186282380D01*
X148363952Y-186282380D02*
X148554428Y-186282380D01*
X148554428Y-186282380D02*
X148649666Y-186234761D01*
X148649666Y-186234761D02*
X148697285Y-186187142D01*
X148697285Y-186187142D02*
X148744904Y-186091904D01*
X148744904Y-186091904D02*
X148744904Y-185853809D01*
X148744904Y-185853809D02*
X148697285Y-185758571D01*
X148697285Y-185758571D02*
X148649666Y-185710952D01*
X148649666Y-185710952D02*
X148554428Y-185663333D01*
X148554428Y-185663333D02*
X148363952Y-185663333D01*
X148363952Y-185663333D02*
X148268714Y-185710952D01*
X148268714Y-185710952D02*
X148221095Y-185758571D01*
X148221095Y-185758571D02*
X148173476Y-185853809D01*
X247221714Y-129706380D02*
X247221714Y-128706380D01*
X247793142Y-129706380D02*
X247364571Y-129134952D01*
X247793142Y-128706380D02*
X247221714Y-129277809D01*
X248174095Y-128801619D02*
X248221714Y-128754000D01*
X248221714Y-128754000D02*
X248316952Y-128706380D01*
X248316952Y-128706380D02*
X248555047Y-128706380D01*
X248555047Y-128706380D02*
X248650285Y-128754000D01*
X248650285Y-128754000D02*
X248697904Y-128801619D01*
X248697904Y-128801619D02*
X248745523Y-128896857D01*
X248745523Y-128896857D02*
X248745523Y-128992095D01*
X248745523Y-128992095D02*
X248697904Y-129134952D01*
X248697904Y-129134952D02*
X248126476Y-129706380D01*
X248126476Y-129706380D02*
X248745523Y-129706380D01*
X249602666Y-129039714D02*
X249602666Y-129706380D01*
X249364571Y-128658761D02*
X249126476Y-129373047D01*
X249126476Y-129373047D02*
X249745523Y-129373047D01*
X207827714Y-75315380D02*
X207827714Y-74315380D01*
X208399142Y-75315380D02*
X207970571Y-74743952D01*
X208399142Y-74315380D02*
X207827714Y-74886809D01*
X209256285Y-74648714D02*
X209256285Y-75315380D01*
X209018190Y-74267761D02*
X208780095Y-74982047D01*
X208780095Y-74982047D02*
X209399142Y-74982047D01*
X209732476Y-74410619D02*
X209780095Y-74363000D01*
X209780095Y-74363000D02*
X209875333Y-74315380D01*
X209875333Y-74315380D02*
X210113428Y-74315380D01*
X210113428Y-74315380D02*
X210208666Y-74363000D01*
X210208666Y-74363000D02*
X210256285Y-74410619D01*
X210256285Y-74410619D02*
X210303904Y-74505857D01*
X210303904Y-74505857D02*
X210303904Y-74601095D01*
X210303904Y-74601095D02*
X210256285Y-74743952D01*
X210256285Y-74743952D02*
X209684857Y-75315380D01*
X209684857Y-75315380D02*
X210303904Y-75315380D01*
X88168905Y-91358380D02*
X88168905Y-90358380D01*
X88740333Y-91358380D02*
X88311762Y-90786952D01*
X88740333Y-90358380D02*
X88168905Y-90929809D01*
X89121286Y-90453619D02*
X89168905Y-90406000D01*
X89168905Y-90406000D02*
X89264143Y-90358380D01*
X89264143Y-90358380D02*
X89502238Y-90358380D01*
X89502238Y-90358380D02*
X89597476Y-90406000D01*
X89597476Y-90406000D02*
X89645095Y-90453619D01*
X89645095Y-90453619D02*
X89692714Y-90548857D01*
X89692714Y-90548857D02*
X89692714Y-90644095D01*
X89692714Y-90644095D02*
X89645095Y-90786952D01*
X89645095Y-90786952D02*
X89073667Y-91358380D01*
X89073667Y-91358380D02*
X89692714Y-91358380D01*
X171268714Y-186282380D02*
X171268714Y-185282380D01*
X171840142Y-186282380D02*
X171411571Y-185710952D01*
X171840142Y-185282380D02*
X171268714Y-185853809D01*
X172792523Y-186282380D02*
X172221095Y-186282380D01*
X172506809Y-186282380D02*
X172506809Y-185282380D01*
X172506809Y-185282380D02*
X172411571Y-185425238D01*
X172411571Y-185425238D02*
X172316333Y-185520476D01*
X172316333Y-185520476D02*
X172221095Y-185568095D01*
X173125857Y-185282380D02*
X173792523Y-185282380D01*
X173792523Y-185282380D02*
X173363952Y-186282380D01*
X158929714Y-207838380D02*
X158929714Y-206838380D01*
X159501142Y-207838380D02*
X159072571Y-207266952D01*
X159501142Y-206838380D02*
X158929714Y-207409809D01*
X160453523Y-207838380D02*
X159882095Y-207838380D01*
X160167809Y-207838380D02*
X160167809Y-206838380D01*
X160167809Y-206838380D02*
X160072571Y-206981238D01*
X160072571Y-206981238D02*
X159977333Y-207076476D01*
X159977333Y-207076476D02*
X159882095Y-207124095D01*
X161024952Y-207266952D02*
X160929714Y-207219333D01*
X160929714Y-207219333D02*
X160882095Y-207171714D01*
X160882095Y-207171714D02*
X160834476Y-207076476D01*
X160834476Y-207076476D02*
X160834476Y-207028857D01*
X160834476Y-207028857D02*
X160882095Y-206933619D01*
X160882095Y-206933619D02*
X160929714Y-206886000D01*
X160929714Y-206886000D02*
X161024952Y-206838380D01*
X161024952Y-206838380D02*
X161215428Y-206838380D01*
X161215428Y-206838380D02*
X161310666Y-206886000D01*
X161310666Y-206886000D02*
X161358285Y-206933619D01*
X161358285Y-206933619D02*
X161405904Y-207028857D01*
X161405904Y-207028857D02*
X161405904Y-207076476D01*
X161405904Y-207076476D02*
X161358285Y-207171714D01*
X161358285Y-207171714D02*
X161310666Y-207219333D01*
X161310666Y-207219333D02*
X161215428Y-207266952D01*
X161215428Y-207266952D02*
X161024952Y-207266952D01*
X161024952Y-207266952D02*
X160929714Y-207314571D01*
X160929714Y-207314571D02*
X160882095Y-207362190D01*
X160882095Y-207362190D02*
X160834476Y-207457428D01*
X160834476Y-207457428D02*
X160834476Y-207647904D01*
X160834476Y-207647904D02*
X160882095Y-207743142D01*
X160882095Y-207743142D02*
X160929714Y-207790761D01*
X160929714Y-207790761D02*
X161024952Y-207838380D01*
X161024952Y-207838380D02*
X161215428Y-207838380D01*
X161215428Y-207838380D02*
X161310666Y-207790761D01*
X161310666Y-207790761D02*
X161358285Y-207743142D01*
X161358285Y-207743142D02*
X161405904Y-207647904D01*
X161405904Y-207647904D02*
X161405904Y-207457428D01*
X161405904Y-207457428D02*
X161358285Y-207362190D01*
X161358285Y-207362190D02*
X161310666Y-207314571D01*
X161310666Y-207314571D02*
X161215428Y-207266952D01*
X318952380Y-216167380D02*
X318619047Y-215691190D01*
X318380952Y-216167380D02*
X318380952Y-215167380D01*
X318380952Y-215167380D02*
X318761904Y-215167380D01*
X318761904Y-215167380D02*
X318857142Y-215215000D01*
X318857142Y-215215000D02*
X318904761Y-215262619D01*
X318904761Y-215262619D02*
X318952380Y-215357857D01*
X318952380Y-215357857D02*
X318952380Y-215500714D01*
X318952380Y-215500714D02*
X318904761Y-215595952D01*
X318904761Y-215595952D02*
X318857142Y-215643571D01*
X318857142Y-215643571D02*
X318761904Y-215691190D01*
X318761904Y-215691190D02*
X318380952Y-215691190D01*
X319380952Y-215643571D02*
X319714285Y-215643571D01*
X319857142Y-216167380D02*
X319380952Y-216167380D01*
X319380952Y-216167380D02*
X319380952Y-215167380D01*
X319380952Y-215167380D02*
X319857142Y-215167380D01*
X320619047Y-215643571D02*
X320285714Y-215643571D01*
X320285714Y-216167380D02*
X320285714Y-215167380D01*
X320285714Y-215167380D02*
X320761904Y-215167380D01*
X321047619Y-215167380D02*
X321666666Y-215167380D01*
X321666666Y-215167380D02*
X321333333Y-215548333D01*
X321333333Y-215548333D02*
X321476190Y-215548333D01*
X321476190Y-215548333D02*
X321571428Y-215595952D01*
X321571428Y-215595952D02*
X321619047Y-215643571D01*
X321619047Y-215643571D02*
X321666666Y-215738809D01*
X321666666Y-215738809D02*
X321666666Y-215976904D01*
X321666666Y-215976904D02*
X321619047Y-216072142D01*
X321619047Y-216072142D02*
X321571428Y-216119761D01*
X321571428Y-216119761D02*
X321476190Y-216167380D01*
X321476190Y-216167380D02*
X321190476Y-216167380D01*
X321190476Y-216167380D02*
X321095238Y-216119761D01*
X321095238Y-216119761D02*
X321047619Y-216072142D01*
X244456714Y-104859380D02*
X244456714Y-103859380D01*
X245028142Y-104859380D02*
X244599571Y-104287952D01*
X245028142Y-103859380D02*
X244456714Y-104430809D01*
X245409095Y-103954619D02*
X245456714Y-103907000D01*
X245456714Y-103907000D02*
X245551952Y-103859380D01*
X245551952Y-103859380D02*
X245790047Y-103859380D01*
X245790047Y-103859380D02*
X245885285Y-103907000D01*
X245885285Y-103907000D02*
X245932904Y-103954619D01*
X245932904Y-103954619D02*
X245980523Y-104049857D01*
X245980523Y-104049857D02*
X245980523Y-104145095D01*
X245980523Y-104145095D02*
X245932904Y-104287952D01*
X245932904Y-104287952D02*
X245361476Y-104859380D01*
X245361476Y-104859380D02*
X245980523Y-104859380D01*
X246551952Y-104287952D02*
X246456714Y-104240333D01*
X246456714Y-104240333D02*
X246409095Y-104192714D01*
X246409095Y-104192714D02*
X246361476Y-104097476D01*
X246361476Y-104097476D02*
X246361476Y-104049857D01*
X246361476Y-104049857D02*
X246409095Y-103954619D01*
X246409095Y-103954619D02*
X246456714Y-103907000D01*
X246456714Y-103907000D02*
X246551952Y-103859380D01*
X246551952Y-103859380D02*
X246742428Y-103859380D01*
X246742428Y-103859380D02*
X246837666Y-103907000D01*
X246837666Y-103907000D02*
X246885285Y-103954619D01*
X246885285Y-103954619D02*
X246932904Y-104049857D01*
X246932904Y-104049857D02*
X246932904Y-104097476D01*
X246932904Y-104097476D02*
X246885285Y-104192714D01*
X246885285Y-104192714D02*
X246837666Y-104240333D01*
X246837666Y-104240333D02*
X246742428Y-104287952D01*
X246742428Y-104287952D02*
X246551952Y-104287952D01*
X246551952Y-104287952D02*
X246456714Y-104335571D01*
X246456714Y-104335571D02*
X246409095Y-104383190D01*
X246409095Y-104383190D02*
X246361476Y-104478428D01*
X246361476Y-104478428D02*
X246361476Y-104668904D01*
X246361476Y-104668904D02*
X246409095Y-104764142D01*
X246409095Y-104764142D02*
X246456714Y-104811761D01*
X246456714Y-104811761D02*
X246551952Y-104859380D01*
X246551952Y-104859380D02*
X246742428Y-104859380D01*
X246742428Y-104859380D02*
X246837666Y-104811761D01*
X246837666Y-104811761D02*
X246885285Y-104764142D01*
X246885285Y-104764142D02*
X246932904Y-104668904D01*
X246932904Y-104668904D02*
X246932904Y-104478428D01*
X246932904Y-104478428D02*
X246885285Y-104383190D01*
X246885285Y-104383190D02*
X246837666Y-104335571D01*
X246837666Y-104335571D02*
X246742428Y-104287952D01*
X243562714Y-164514380D02*
X243562714Y-163514380D01*
X244134142Y-164514380D02*
X243705571Y-163942952D01*
X244134142Y-163514380D02*
X243562714Y-164085809D01*
X244515095Y-163609619D02*
X244562714Y-163562000D01*
X244562714Y-163562000D02*
X244657952Y-163514380D01*
X244657952Y-163514380D02*
X244896047Y-163514380D01*
X244896047Y-163514380D02*
X244991285Y-163562000D01*
X244991285Y-163562000D02*
X245038904Y-163609619D01*
X245038904Y-163609619D02*
X245086523Y-163704857D01*
X245086523Y-163704857D02*
X245086523Y-163800095D01*
X245086523Y-163800095D02*
X245038904Y-163942952D01*
X245038904Y-163942952D02*
X244467476Y-164514380D01*
X244467476Y-164514380D02*
X245086523Y-164514380D01*
X245419857Y-163514380D02*
X246038904Y-163514380D01*
X246038904Y-163514380D02*
X245705571Y-163895333D01*
X245705571Y-163895333D02*
X245848428Y-163895333D01*
X245848428Y-163895333D02*
X245943666Y-163942952D01*
X245943666Y-163942952D02*
X245991285Y-163990571D01*
X245991285Y-163990571D02*
X246038904Y-164085809D01*
X246038904Y-164085809D02*
X246038904Y-164323904D01*
X246038904Y-164323904D02*
X245991285Y-164419142D01*
X245991285Y-164419142D02*
X245943666Y-164466761D01*
X245943666Y-164466761D02*
X245848428Y-164514380D01*
X245848428Y-164514380D02*
X245562714Y-164514380D01*
X245562714Y-164514380D02*
X245467476Y-164466761D01*
X245467476Y-164466761D02*
X245419857Y-164419142D01*
X133973714Y-164514380D02*
X133973714Y-163514380D01*
X134545142Y-164514380D02*
X134116571Y-163942952D01*
X134545142Y-163514380D02*
X133973714Y-164085809D01*
X135497523Y-164514380D02*
X134926095Y-164514380D01*
X135211809Y-164514380D02*
X135211809Y-163514380D01*
X135211809Y-163514380D02*
X135116571Y-163657238D01*
X135116571Y-163657238D02*
X135021333Y-163752476D01*
X135021333Y-163752476D02*
X134926095Y-163800095D01*
X136354666Y-163847714D02*
X136354666Y-164514380D01*
X136116571Y-163466761D02*
X135878476Y-164181047D01*
X135878476Y-164181047D02*
X136497523Y-164181047D01*
X267625714Y-115260380D02*
X267625714Y-114260380D01*
X268197142Y-115260380D02*
X267768571Y-114688952D01*
X268197142Y-114260380D02*
X267625714Y-114831809D01*
X268578095Y-114355619D02*
X268625714Y-114308000D01*
X268625714Y-114308000D02*
X268720952Y-114260380D01*
X268720952Y-114260380D02*
X268959047Y-114260380D01*
X268959047Y-114260380D02*
X269054285Y-114308000D01*
X269054285Y-114308000D02*
X269101904Y-114355619D01*
X269101904Y-114355619D02*
X269149523Y-114450857D01*
X269149523Y-114450857D02*
X269149523Y-114546095D01*
X269149523Y-114546095D02*
X269101904Y-114688952D01*
X269101904Y-114688952D02*
X268530476Y-115260380D01*
X268530476Y-115260380D02*
X269149523Y-115260380D01*
X270054285Y-114260380D02*
X269578095Y-114260380D01*
X269578095Y-114260380D02*
X269530476Y-114736571D01*
X269530476Y-114736571D02*
X269578095Y-114688952D01*
X269578095Y-114688952D02*
X269673333Y-114641333D01*
X269673333Y-114641333D02*
X269911428Y-114641333D01*
X269911428Y-114641333D02*
X270006666Y-114688952D01*
X270006666Y-114688952D02*
X270054285Y-114736571D01*
X270054285Y-114736571D02*
X270101904Y-114831809D01*
X270101904Y-114831809D02*
X270101904Y-115069904D01*
X270101904Y-115069904D02*
X270054285Y-115165142D01*
X270054285Y-115165142D02*
X270006666Y-115212761D01*
X270006666Y-115212761D02*
X269911428Y-115260380D01*
X269911428Y-115260380D02*
X269673333Y-115260380D01*
X269673333Y-115260380D02*
X269578095Y-115212761D01*
X269578095Y-115212761D02*
X269530476Y-115165142D01*
X65222905Y-101281380D02*
X65222905Y-100281380D01*
X65794333Y-101281380D02*
X65365762Y-100709952D01*
X65794333Y-100281380D02*
X65222905Y-100852809D01*
X66746714Y-101281380D02*
X66175286Y-101281380D01*
X66461000Y-101281380D02*
X66461000Y-100281380D01*
X66461000Y-100281380D02*
X66365762Y-100424238D01*
X66365762Y-100424238D02*
X66270524Y-100519476D01*
X66270524Y-100519476D02*
X66175286Y-100567095D01*
X110386905Y-115260380D02*
X110386905Y-114260380D01*
X110958333Y-115260380D02*
X110529762Y-114688952D01*
X110958333Y-114260380D02*
X110386905Y-114831809D01*
X111291667Y-114260380D02*
X111958333Y-114260380D01*
X111958333Y-114260380D02*
X111529762Y-115260380D01*
X318476190Y-56167380D02*
X318142857Y-55691190D01*
X317904762Y-56167380D02*
X317904762Y-55167380D01*
X317904762Y-55167380D02*
X318285714Y-55167380D01*
X318285714Y-55167380D02*
X318380952Y-55215000D01*
X318380952Y-55215000D02*
X318428571Y-55262619D01*
X318428571Y-55262619D02*
X318476190Y-55357857D01*
X318476190Y-55357857D02*
X318476190Y-55500714D01*
X318476190Y-55500714D02*
X318428571Y-55595952D01*
X318428571Y-55595952D02*
X318380952Y-55643571D01*
X318380952Y-55643571D02*
X318285714Y-55691190D01*
X318285714Y-55691190D02*
X317904762Y-55691190D01*
X318904762Y-55643571D02*
X319238095Y-55643571D01*
X319380952Y-56167380D02*
X318904762Y-56167380D01*
X318904762Y-56167380D02*
X318904762Y-55167380D01*
X318904762Y-55167380D02*
X319380952Y-55167380D01*
X320142857Y-55643571D02*
X319809524Y-55643571D01*
X319809524Y-56167380D02*
X319809524Y-55167380D01*
X319809524Y-55167380D02*
X320285714Y-55167380D01*
X320571429Y-55167380D02*
X321190476Y-55167380D01*
X321190476Y-55167380D02*
X320857143Y-55548333D01*
X320857143Y-55548333D02*
X321000000Y-55548333D01*
X321000000Y-55548333D02*
X321095238Y-55595952D01*
X321095238Y-55595952D02*
X321142857Y-55643571D01*
X321142857Y-55643571D02*
X321190476Y-55738809D01*
X321190476Y-55738809D02*
X321190476Y-55976904D01*
X321190476Y-55976904D02*
X321142857Y-56072142D01*
X321142857Y-56072142D02*
X321095238Y-56119761D01*
X321095238Y-56119761D02*
X321000000Y-56167380D01*
X321000000Y-56167380D02*
X320714286Y-56167380D01*
X320714286Y-56167380D02*
X320619048Y-56119761D01*
X320619048Y-56119761D02*
X320571429Y-56072142D01*
X322095238Y-55167380D02*
X321619048Y-55167380D01*
X321619048Y-55167380D02*
X321571429Y-55643571D01*
X321571429Y-55643571D02*
X321619048Y-55595952D01*
X321619048Y-55595952D02*
X321714286Y-55548333D01*
X321714286Y-55548333D02*
X321952381Y-55548333D01*
X321952381Y-55548333D02*
X322047619Y-55595952D01*
X322047619Y-55595952D02*
X322095238Y-55643571D01*
X322095238Y-55643571D02*
X322142857Y-55738809D01*
X322142857Y-55738809D02*
X322142857Y-55976904D01*
X322142857Y-55976904D02*
X322095238Y-56072142D01*
X322095238Y-56072142D02*
X322047619Y-56119761D01*
X322047619Y-56119761D02*
X321952381Y-56167380D01*
X321952381Y-56167380D02*
X321714286Y-56167380D01*
X321714286Y-56167380D02*
X321619048Y-56119761D01*
X321619048Y-56119761D02*
X321571429Y-56072142D01*
X189135714Y-121267380D02*
X189135714Y-120267380D01*
X189135714Y-120267380D02*
X189373809Y-120267380D01*
X189373809Y-120267380D02*
X189516666Y-120315000D01*
X189516666Y-120315000D02*
X189611904Y-120410238D01*
X189611904Y-120410238D02*
X189659523Y-120505476D01*
X189659523Y-120505476D02*
X189707142Y-120695952D01*
X189707142Y-120695952D02*
X189707142Y-120838809D01*
X189707142Y-120838809D02*
X189659523Y-121029285D01*
X189659523Y-121029285D02*
X189611904Y-121124523D01*
X189611904Y-121124523D02*
X189516666Y-121219761D01*
X189516666Y-121219761D02*
X189373809Y-121267380D01*
X189373809Y-121267380D02*
X189135714Y-121267380D01*
X190088095Y-121219761D02*
X190230952Y-121267380D01*
X190230952Y-121267380D02*
X190469047Y-121267380D01*
X190469047Y-121267380D02*
X190564285Y-121219761D01*
X190564285Y-121219761D02*
X190611904Y-121172142D01*
X190611904Y-121172142D02*
X190659523Y-121076904D01*
X190659523Y-121076904D02*
X190659523Y-120981666D01*
X190659523Y-120981666D02*
X190611904Y-120886428D01*
X190611904Y-120886428D02*
X190564285Y-120838809D01*
X190564285Y-120838809D02*
X190469047Y-120791190D01*
X190469047Y-120791190D02*
X190278571Y-120743571D01*
X190278571Y-120743571D02*
X190183333Y-120695952D01*
X190183333Y-120695952D02*
X190135714Y-120648333D01*
X190135714Y-120648333D02*
X190088095Y-120553095D01*
X190088095Y-120553095D02*
X190088095Y-120457857D01*
X190088095Y-120457857D02*
X190135714Y-120362619D01*
X190135714Y-120362619D02*
X190183333Y-120315000D01*
X190183333Y-120315000D02*
X190278571Y-120267380D01*
X190278571Y-120267380D02*
X190516666Y-120267380D01*
X190516666Y-120267380D02*
X190659523Y-120315000D01*
X191611904Y-121267380D02*
X191040476Y-121267380D01*
X191326190Y-121267380D02*
X191326190Y-120267380D01*
X191326190Y-120267380D02*
X191230952Y-120410238D01*
X191230952Y-120410238D02*
X191135714Y-120505476D01*
X191135714Y-120505476D02*
X191040476Y-120553095D01*
X58666666Y-56167380D02*
X58333333Y-55691190D01*
X58095238Y-56167380D02*
X58095238Y-55167380D01*
X58095238Y-55167380D02*
X58476190Y-55167380D01*
X58476190Y-55167380D02*
X58571428Y-55215000D01*
X58571428Y-55215000D02*
X58619047Y-55262619D01*
X58619047Y-55262619D02*
X58666666Y-55357857D01*
X58666666Y-55357857D02*
X58666666Y-55500714D01*
X58666666Y-55500714D02*
X58619047Y-55595952D01*
X58619047Y-55595952D02*
X58571428Y-55643571D01*
X58571428Y-55643571D02*
X58476190Y-55691190D01*
X58476190Y-55691190D02*
X58095238Y-55691190D01*
X59095238Y-55643571D02*
X59428571Y-55643571D01*
X59571428Y-56167380D02*
X59095238Y-56167380D01*
X59095238Y-56167380D02*
X59095238Y-55167380D01*
X59095238Y-55167380D02*
X59571428Y-55167380D01*
X60333333Y-55643571D02*
X60000000Y-55643571D01*
X60000000Y-56167380D02*
X60000000Y-55167380D01*
X60000000Y-55167380D02*
X60476190Y-55167380D01*
X61000000Y-55167380D02*
X61000000Y-55405476D01*
X60761905Y-55310238D02*
X61000000Y-55405476D01*
X61000000Y-55405476D02*
X61238095Y-55310238D01*
X60857143Y-55595952D02*
X61000000Y-55405476D01*
X61000000Y-55405476D02*
X61142857Y-55595952D01*
X61761905Y-55167380D02*
X61761905Y-55405476D01*
X61523810Y-55310238D02*
X61761905Y-55405476D01*
X61761905Y-55405476D02*
X62000000Y-55310238D01*
X61619048Y-55595952D02*
X61761905Y-55405476D01*
X61761905Y-55405476D02*
X61904762Y-55595952D01*
X153674714Y-120800380D02*
X153674714Y-119800380D01*
X154246142Y-120800380D02*
X153817571Y-120228952D01*
X154246142Y-119800380D02*
X153674714Y-120371809D01*
X155198523Y-120800380D02*
X154627095Y-120800380D01*
X154912809Y-120800380D02*
X154912809Y-119800380D01*
X154912809Y-119800380D02*
X154817571Y-119943238D01*
X154817571Y-119943238D02*
X154722333Y-120038476D01*
X154722333Y-120038476D02*
X154627095Y-120086095D01*
X155531857Y-119800380D02*
X156150904Y-119800380D01*
X156150904Y-119800380D02*
X155817571Y-120181333D01*
X155817571Y-120181333D02*
X155960428Y-120181333D01*
X155960428Y-120181333D02*
X156055666Y-120228952D01*
X156055666Y-120228952D02*
X156103285Y-120276571D01*
X156103285Y-120276571D02*
X156150904Y-120371809D01*
X156150904Y-120371809D02*
X156150904Y-120609904D01*
X156150904Y-120609904D02*
X156103285Y-120705142D01*
X156103285Y-120705142D02*
X156055666Y-120752761D01*
X156055666Y-120752761D02*
X155960428Y-120800380D01*
X155960428Y-120800380D02*
X155674714Y-120800380D01*
X155674714Y-120800380D02*
X155579476Y-120752761D01*
X155579476Y-120752761D02*
X155531857Y-120705142D01*
X312788714Y-101281380D02*
X312788714Y-100281380D01*
X313360142Y-101281380D02*
X312931571Y-100709952D01*
X313360142Y-100281380D02*
X312788714Y-100852809D01*
X313693476Y-100281380D02*
X314312523Y-100281380D01*
X314312523Y-100281380D02*
X313979190Y-100662333D01*
X313979190Y-100662333D02*
X314122047Y-100662333D01*
X314122047Y-100662333D02*
X314217285Y-100709952D01*
X314217285Y-100709952D02*
X314264904Y-100757571D01*
X314264904Y-100757571D02*
X314312523Y-100852809D01*
X314312523Y-100852809D02*
X314312523Y-101090904D01*
X314312523Y-101090904D02*
X314264904Y-101186142D01*
X314264904Y-101186142D02*
X314217285Y-101233761D01*
X314217285Y-101233761D02*
X314122047Y-101281380D01*
X314122047Y-101281380D02*
X313836333Y-101281380D01*
X313836333Y-101281380D02*
X313741095Y-101233761D01*
X313741095Y-101233761D02*
X313693476Y-101186142D01*
X315264904Y-101281380D02*
X314693476Y-101281380D01*
X314979190Y-101281380D02*
X314979190Y-100281380D01*
X314979190Y-100281380D02*
X314883952Y-100424238D01*
X314883952Y-100424238D02*
X314788714Y-100519476D01*
X314788714Y-100519476D02*
X314693476Y-100567095D01*
X113151905Y-90414380D02*
X113151905Y-89414380D01*
X113723333Y-90414380D02*
X113294762Y-89842952D01*
X113723333Y-89414380D02*
X113151905Y-89985809D01*
X114056667Y-89414380D02*
X114675714Y-89414380D01*
X114675714Y-89414380D02*
X114342381Y-89795333D01*
X114342381Y-89795333D02*
X114485238Y-89795333D01*
X114485238Y-89795333D02*
X114580476Y-89842952D01*
X114580476Y-89842952D02*
X114628095Y-89890571D01*
X114628095Y-89890571D02*
X114675714Y-89985809D01*
X114675714Y-89985809D02*
X114675714Y-90223904D01*
X114675714Y-90223904D02*
X114628095Y-90319142D01*
X114628095Y-90319142D02*
X114580476Y-90366761D01*
X114580476Y-90366761D02*
X114485238Y-90414380D01*
X114485238Y-90414380D02*
X114199524Y-90414380D01*
X114199524Y-90414380D02*
X114104286Y-90366761D01*
X114104286Y-90366761D02*
X114056667Y-90319142D01*
X130790905Y-129706380D02*
X130790905Y-128706380D01*
X131362333Y-129706380D02*
X130933762Y-129134952D01*
X131362333Y-128706380D02*
X130790905Y-129277809D01*
X131933762Y-129134952D02*
X131838524Y-129087333D01*
X131838524Y-129087333D02*
X131790905Y-129039714D01*
X131790905Y-129039714D02*
X131743286Y-128944476D01*
X131743286Y-128944476D02*
X131743286Y-128896857D01*
X131743286Y-128896857D02*
X131790905Y-128801619D01*
X131790905Y-128801619D02*
X131838524Y-128754000D01*
X131838524Y-128754000D02*
X131933762Y-128706380D01*
X131933762Y-128706380D02*
X132124238Y-128706380D01*
X132124238Y-128706380D02*
X132219476Y-128754000D01*
X132219476Y-128754000D02*
X132267095Y-128801619D01*
X132267095Y-128801619D02*
X132314714Y-128896857D01*
X132314714Y-128896857D02*
X132314714Y-128944476D01*
X132314714Y-128944476D02*
X132267095Y-129039714D01*
X132267095Y-129039714D02*
X132219476Y-129087333D01*
X132219476Y-129087333D02*
X132124238Y-129134952D01*
X132124238Y-129134952D02*
X131933762Y-129134952D01*
X131933762Y-129134952D02*
X131838524Y-129182571D01*
X131838524Y-129182571D02*
X131790905Y-129230190D01*
X131790905Y-129230190D02*
X131743286Y-129325428D01*
X131743286Y-129325428D02*
X131743286Y-129515904D01*
X131743286Y-129515904D02*
X131790905Y-129611142D01*
X131790905Y-129611142D02*
X131838524Y-129658761D01*
X131838524Y-129658761D02*
X131933762Y-129706380D01*
X131933762Y-129706380D02*
X132124238Y-129706380D01*
X132124238Y-129706380D02*
X132219476Y-129658761D01*
X132219476Y-129658761D02*
X132267095Y-129611142D01*
X132267095Y-129611142D02*
X132314714Y-129515904D01*
X132314714Y-129515904D02*
X132314714Y-129325428D01*
X132314714Y-129325428D02*
X132267095Y-129230190D01*
X132267095Y-129230190D02*
X132219476Y-129182571D01*
X132219476Y-129182571D02*
X132124238Y-129134952D01*
X188785714Y-56421380D02*
X188785714Y-55421380D01*
X189357142Y-56421380D02*
X188928571Y-55849952D01*
X189357142Y-55421380D02*
X188785714Y-55992809D01*
X189690476Y-55421380D02*
X190309523Y-55421380D01*
X190309523Y-55421380D02*
X189976190Y-55802333D01*
X189976190Y-55802333D02*
X190119047Y-55802333D01*
X190119047Y-55802333D02*
X190214285Y-55849952D01*
X190214285Y-55849952D02*
X190261904Y-55897571D01*
X190261904Y-55897571D02*
X190309523Y-55992809D01*
X190309523Y-55992809D02*
X190309523Y-56230904D01*
X190309523Y-56230904D02*
X190261904Y-56326142D01*
X190261904Y-56326142D02*
X190214285Y-56373761D01*
X190214285Y-56373761D02*
X190119047Y-56421380D01*
X190119047Y-56421380D02*
X189833333Y-56421380D01*
X189833333Y-56421380D02*
X189738095Y-56373761D01*
X189738095Y-56373761D02*
X189690476Y-56326142D01*
X190880952Y-55849952D02*
X190785714Y-55802333D01*
X190785714Y-55802333D02*
X190738095Y-55754714D01*
X190738095Y-55754714D02*
X190690476Y-55659476D01*
X190690476Y-55659476D02*
X190690476Y-55611857D01*
X190690476Y-55611857D02*
X190738095Y-55516619D01*
X190738095Y-55516619D02*
X190785714Y-55469000D01*
X190785714Y-55469000D02*
X190880952Y-55421380D01*
X190880952Y-55421380D02*
X191071428Y-55421380D01*
X191071428Y-55421380D02*
X191166666Y-55469000D01*
X191166666Y-55469000D02*
X191214285Y-55516619D01*
X191214285Y-55516619D02*
X191261904Y-55611857D01*
X191261904Y-55611857D02*
X191261904Y-55659476D01*
X191261904Y-55659476D02*
X191214285Y-55754714D01*
X191214285Y-55754714D02*
X191166666Y-55802333D01*
X191166666Y-55802333D02*
X191071428Y-55849952D01*
X191071428Y-55849952D02*
X190880952Y-55849952D01*
X190880952Y-55849952D02*
X190785714Y-55897571D01*
X190785714Y-55897571D02*
X190738095Y-55945190D01*
X190738095Y-55945190D02*
X190690476Y-56040428D01*
X190690476Y-56040428D02*
X190690476Y-56230904D01*
X190690476Y-56230904D02*
X190738095Y-56326142D01*
X190738095Y-56326142D02*
X190785714Y-56373761D01*
X190785714Y-56373761D02*
X190880952Y-56421380D01*
X190880952Y-56421380D02*
X191071428Y-56421380D01*
X191071428Y-56421380D02*
X191166666Y-56373761D01*
X191166666Y-56373761D02*
X191214285Y-56326142D01*
X191214285Y-56326142D02*
X191261904Y-56230904D01*
X191261904Y-56230904D02*
X191261904Y-56040428D01*
X191261904Y-56040428D02*
X191214285Y-55945190D01*
X191214285Y-55945190D02*
X191166666Y-55897571D01*
X191166666Y-55897571D02*
X191071428Y-55849952D01*
X223861714Y-120800380D02*
X223861714Y-119800380D01*
X224433142Y-120800380D02*
X224004571Y-120228952D01*
X224433142Y-119800380D02*
X223861714Y-120371809D01*
X224766476Y-119800380D02*
X225385523Y-119800380D01*
X225385523Y-119800380D02*
X225052190Y-120181333D01*
X225052190Y-120181333D02*
X225195047Y-120181333D01*
X225195047Y-120181333D02*
X225290285Y-120228952D01*
X225290285Y-120228952D02*
X225337904Y-120276571D01*
X225337904Y-120276571D02*
X225385523Y-120371809D01*
X225385523Y-120371809D02*
X225385523Y-120609904D01*
X225385523Y-120609904D02*
X225337904Y-120705142D01*
X225337904Y-120705142D02*
X225290285Y-120752761D01*
X225290285Y-120752761D02*
X225195047Y-120800380D01*
X225195047Y-120800380D02*
X224909333Y-120800380D01*
X224909333Y-120800380D02*
X224814095Y-120752761D01*
X224814095Y-120752761D02*
X224766476Y-120705142D01*
X226242666Y-119800380D02*
X226052190Y-119800380D01*
X226052190Y-119800380D02*
X225956952Y-119848000D01*
X225956952Y-119848000D02*
X225909333Y-119895619D01*
X225909333Y-119895619D02*
X225814095Y-120038476D01*
X225814095Y-120038476D02*
X225766476Y-120228952D01*
X225766476Y-120228952D02*
X225766476Y-120609904D01*
X225766476Y-120609904D02*
X225814095Y-120705142D01*
X225814095Y-120705142D02*
X225861714Y-120752761D01*
X225861714Y-120752761D02*
X225956952Y-120800380D01*
X225956952Y-120800380D02*
X226147428Y-120800380D01*
X226147428Y-120800380D02*
X226242666Y-120752761D01*
X226242666Y-120752761D02*
X226290285Y-120705142D01*
X226290285Y-120705142D02*
X226337904Y-120609904D01*
X226337904Y-120609904D02*
X226337904Y-120371809D01*
X226337904Y-120371809D02*
X226290285Y-120276571D01*
X226290285Y-120276571D02*
X226242666Y-120228952D01*
X226242666Y-120228952D02*
X226147428Y-120181333D01*
X226147428Y-120181333D02*
X225956952Y-120181333D01*
X225956952Y-120181333D02*
X225861714Y-120228952D01*
X225861714Y-120228952D02*
X225814095Y-120276571D01*
X225814095Y-120276571D02*
X225766476Y-120371809D01*
X206267714Y-186282380D02*
X206267714Y-185282380D01*
X206839142Y-186282380D02*
X206410571Y-185710952D01*
X206839142Y-185282380D02*
X206267714Y-185853809D01*
X207791523Y-186282380D02*
X207220095Y-186282380D01*
X207505809Y-186282380D02*
X207505809Y-185282380D01*
X207505809Y-185282380D02*
X207410571Y-185425238D01*
X207410571Y-185425238D02*
X207315333Y-185520476D01*
X207315333Y-185520476D02*
X207220095Y-185568095D01*
X208267714Y-186282380D02*
X208458190Y-186282380D01*
X208458190Y-186282380D02*
X208553428Y-186234761D01*
X208553428Y-186234761D02*
X208601047Y-186187142D01*
X208601047Y-186187142D02*
X208696285Y-186044285D01*
X208696285Y-186044285D02*
X208743904Y-185853809D01*
X208743904Y-185853809D02*
X208743904Y-185472857D01*
X208743904Y-185472857D02*
X208696285Y-185377619D01*
X208696285Y-185377619D02*
X208648666Y-185330000D01*
X208648666Y-185330000D02*
X208553428Y-185282380D01*
X208553428Y-185282380D02*
X208362952Y-185282380D01*
X208362952Y-185282380D02*
X208267714Y-185330000D01*
X208267714Y-185330000D02*
X208220095Y-185377619D01*
X208220095Y-185377619D02*
X208172476Y-185472857D01*
X208172476Y-185472857D02*
X208172476Y-185710952D01*
X208172476Y-185710952D02*
X208220095Y-185806190D01*
X208220095Y-185806190D02*
X208267714Y-185853809D01*
X208267714Y-185853809D02*
X208362952Y-185901428D01*
X208362952Y-185901428D02*
X208553428Y-185901428D01*
X208553428Y-185901428D02*
X208648666Y-185853809D01*
X208648666Y-185853809D02*
X208696285Y-185806190D01*
X208696285Y-185806190D02*
X208743904Y-185710952D01*
X218562714Y-164514380D02*
X218562714Y-163514380D01*
X219134142Y-164514380D02*
X218705571Y-163942952D01*
X219134142Y-163514380D02*
X218562714Y-164085809D01*
X219515095Y-163609619D02*
X219562714Y-163562000D01*
X219562714Y-163562000D02*
X219657952Y-163514380D01*
X219657952Y-163514380D02*
X219896047Y-163514380D01*
X219896047Y-163514380D02*
X219991285Y-163562000D01*
X219991285Y-163562000D02*
X220038904Y-163609619D01*
X220038904Y-163609619D02*
X220086523Y-163704857D01*
X220086523Y-163704857D02*
X220086523Y-163800095D01*
X220086523Y-163800095D02*
X220038904Y-163942952D01*
X220038904Y-163942952D02*
X219467476Y-164514380D01*
X219467476Y-164514380D02*
X220086523Y-164514380D01*
X220467476Y-163609619D02*
X220515095Y-163562000D01*
X220515095Y-163562000D02*
X220610333Y-163514380D01*
X220610333Y-163514380D02*
X220848428Y-163514380D01*
X220848428Y-163514380D02*
X220943666Y-163562000D01*
X220943666Y-163562000D02*
X220991285Y-163609619D01*
X220991285Y-163609619D02*
X221038904Y-163704857D01*
X221038904Y-163704857D02*
X221038904Y-163800095D01*
X221038904Y-163800095D02*
X220991285Y-163942952D01*
X220991285Y-163942952D02*
X220419857Y-164514380D01*
X220419857Y-164514380D02*
X221038904Y-164514380D01*
X90932905Y-66512380D02*
X90932905Y-65512380D01*
X91504333Y-66512380D02*
X91075762Y-65940952D01*
X91504333Y-65512380D02*
X90932905Y-66083809D01*
X91980524Y-66512380D02*
X92171000Y-66512380D01*
X92171000Y-66512380D02*
X92266238Y-66464761D01*
X92266238Y-66464761D02*
X92313857Y-66417142D01*
X92313857Y-66417142D02*
X92409095Y-66274285D01*
X92409095Y-66274285D02*
X92456714Y-66083809D01*
X92456714Y-66083809D02*
X92456714Y-65702857D01*
X92456714Y-65702857D02*
X92409095Y-65607619D01*
X92409095Y-65607619D02*
X92361476Y-65560000D01*
X92361476Y-65560000D02*
X92266238Y-65512380D01*
X92266238Y-65512380D02*
X92075762Y-65512380D01*
X92075762Y-65512380D02*
X91980524Y-65560000D01*
X91980524Y-65560000D02*
X91932905Y-65607619D01*
X91932905Y-65607619D02*
X91885286Y-65702857D01*
X91885286Y-65702857D02*
X91885286Y-65940952D01*
X91885286Y-65940952D02*
X91932905Y-66036190D01*
X91932905Y-66036190D02*
X91980524Y-66083809D01*
X91980524Y-66083809D02*
X92075762Y-66131428D01*
X92075762Y-66131428D02*
X92266238Y-66131428D01*
X92266238Y-66131428D02*
X92361476Y-66083809D01*
X92361476Y-66083809D02*
X92409095Y-66036190D01*
X92409095Y-66036190D02*
X92456714Y-65940952D01*
X221096714Y-95953380D02*
X221096714Y-94953380D01*
X221668142Y-95953380D02*
X221239571Y-95381952D01*
X221668142Y-94953380D02*
X221096714Y-95524809D01*
X222001476Y-94953380D02*
X222620523Y-94953380D01*
X222620523Y-94953380D02*
X222287190Y-95334333D01*
X222287190Y-95334333D02*
X222430047Y-95334333D01*
X222430047Y-95334333D02*
X222525285Y-95381952D01*
X222525285Y-95381952D02*
X222572904Y-95429571D01*
X222572904Y-95429571D02*
X222620523Y-95524809D01*
X222620523Y-95524809D02*
X222620523Y-95762904D01*
X222620523Y-95762904D02*
X222572904Y-95858142D01*
X222572904Y-95858142D02*
X222525285Y-95905761D01*
X222525285Y-95905761D02*
X222430047Y-95953380D01*
X222430047Y-95953380D02*
X222144333Y-95953380D01*
X222144333Y-95953380D02*
X222049095Y-95905761D01*
X222049095Y-95905761D02*
X222001476Y-95858142D01*
X223525285Y-94953380D02*
X223049095Y-94953380D01*
X223049095Y-94953380D02*
X223001476Y-95429571D01*
X223001476Y-95429571D02*
X223049095Y-95381952D01*
X223049095Y-95381952D02*
X223144333Y-95334333D01*
X223144333Y-95334333D02*
X223382428Y-95334333D01*
X223382428Y-95334333D02*
X223477666Y-95381952D01*
X223477666Y-95381952D02*
X223525285Y-95429571D01*
X223525285Y-95429571D02*
X223572904Y-95524809D01*
X223572904Y-95524809D02*
X223572904Y-95762904D01*
X223572904Y-95762904D02*
X223525285Y-95858142D01*
X223525285Y-95858142D02*
X223477666Y-95905761D01*
X223477666Y-95905761D02*
X223382428Y-95953380D01*
X223382428Y-95953380D02*
X223144333Y-95953380D01*
X223144333Y-95953380D02*
X223049095Y-95905761D01*
X223049095Y-95905761D02*
X223001476Y-95858142D01*
X133555905Y-104859380D02*
X133555905Y-103859380D01*
X134127333Y-104859380D02*
X133698762Y-104287952D01*
X134127333Y-103859380D02*
X133555905Y-104430809D01*
X134984476Y-104192714D02*
X134984476Y-104859380D01*
X134746381Y-103811761D02*
X134508286Y-104526047D01*
X134508286Y-104526047D02*
X135127333Y-104526047D01*
X262299714Y-65567380D02*
X262299714Y-64567380D01*
X262871142Y-65567380D02*
X262442571Y-64995952D01*
X262871142Y-64567380D02*
X262299714Y-65138809D01*
X263204476Y-64567380D02*
X263823523Y-64567380D01*
X263823523Y-64567380D02*
X263490190Y-64948333D01*
X263490190Y-64948333D02*
X263633047Y-64948333D01*
X263633047Y-64948333D02*
X263728285Y-64995952D01*
X263728285Y-64995952D02*
X263775904Y-65043571D01*
X263775904Y-65043571D02*
X263823523Y-65138809D01*
X263823523Y-65138809D02*
X263823523Y-65376904D01*
X263823523Y-65376904D02*
X263775904Y-65472142D01*
X263775904Y-65472142D02*
X263728285Y-65519761D01*
X263728285Y-65519761D02*
X263633047Y-65567380D01*
X263633047Y-65567380D02*
X263347333Y-65567380D01*
X263347333Y-65567380D02*
X263252095Y-65519761D01*
X263252095Y-65519761D02*
X263204476Y-65472142D01*
X264156857Y-64567380D02*
X264775904Y-64567380D01*
X264775904Y-64567380D02*
X264442571Y-64948333D01*
X264442571Y-64948333D02*
X264585428Y-64948333D01*
X264585428Y-64948333D02*
X264680666Y-64995952D01*
X264680666Y-64995952D02*
X264728285Y-65043571D01*
X264728285Y-65043571D02*
X264775904Y-65138809D01*
X264775904Y-65138809D02*
X264775904Y-65376904D01*
X264775904Y-65376904D02*
X264728285Y-65472142D01*
X264728285Y-65472142D02*
X264680666Y-65519761D01*
X264680666Y-65519761D02*
X264585428Y-65567380D01*
X264585428Y-65567380D02*
X264299714Y-65567380D01*
X264299714Y-65567380D02*
X264204476Y-65519761D01*
X264204476Y-65519761D02*
X264156857Y-65472142D01*
X135843714Y-80012380D02*
X135843714Y-79012380D01*
X136415142Y-80012380D02*
X135986571Y-79440952D01*
X136415142Y-79012380D02*
X135843714Y-79583809D01*
X137367523Y-80012380D02*
X136796095Y-80012380D01*
X137081809Y-80012380D02*
X137081809Y-79012380D01*
X137081809Y-79012380D02*
X136986571Y-79155238D01*
X136986571Y-79155238D02*
X136891333Y-79250476D01*
X136891333Y-79250476D02*
X136796095Y-79298095D01*
X138319904Y-80012380D02*
X137748476Y-80012380D01*
X138034190Y-80012380D02*
X138034190Y-79012380D01*
X138034190Y-79012380D02*
X137938952Y-79155238D01*
X137938952Y-79155238D02*
X137843714Y-79250476D01*
X137843714Y-79250476D02*
X137748476Y-79298095D01*
X231267714Y-186282380D02*
X231267714Y-185282380D01*
X231839142Y-186282380D02*
X231410571Y-185710952D01*
X231839142Y-185282380D02*
X231267714Y-185853809D01*
X232220095Y-185377619D02*
X232267714Y-185330000D01*
X232267714Y-185330000D02*
X232362952Y-185282380D01*
X232362952Y-185282380D02*
X232601047Y-185282380D01*
X232601047Y-185282380D02*
X232696285Y-185330000D01*
X232696285Y-185330000D02*
X232743904Y-185377619D01*
X232743904Y-185377619D02*
X232791523Y-185472857D01*
X232791523Y-185472857D02*
X232791523Y-185568095D01*
X232791523Y-185568095D02*
X232743904Y-185710952D01*
X232743904Y-185710952D02*
X232172476Y-186282380D01*
X232172476Y-186282380D02*
X232791523Y-186282380D01*
X233743904Y-186282380D02*
X233172476Y-186282380D01*
X233458190Y-186282380D02*
X233458190Y-185282380D01*
X233458190Y-185282380D02*
X233362952Y-185425238D01*
X233362952Y-185425238D02*
X233267714Y-185520476D01*
X233267714Y-185520476D02*
X233172476Y-185568095D01*
X289842714Y-91358380D02*
X289842714Y-90358380D01*
X290414142Y-91358380D02*
X289985571Y-90786952D01*
X290414142Y-90358380D02*
X289842714Y-90929809D01*
X290747476Y-90358380D02*
X291366523Y-90358380D01*
X291366523Y-90358380D02*
X291033190Y-90739333D01*
X291033190Y-90739333D02*
X291176047Y-90739333D01*
X291176047Y-90739333D02*
X291271285Y-90786952D01*
X291271285Y-90786952D02*
X291318904Y-90834571D01*
X291318904Y-90834571D02*
X291366523Y-90929809D01*
X291366523Y-90929809D02*
X291366523Y-91167904D01*
X291366523Y-91167904D02*
X291318904Y-91263142D01*
X291318904Y-91263142D02*
X291271285Y-91310761D01*
X291271285Y-91310761D02*
X291176047Y-91358380D01*
X291176047Y-91358380D02*
X290890333Y-91358380D01*
X290890333Y-91358380D02*
X290795095Y-91310761D01*
X290795095Y-91310761D02*
X290747476Y-91263142D01*
X291985571Y-90358380D02*
X292080809Y-90358380D01*
X292080809Y-90358380D02*
X292176047Y-90406000D01*
X292176047Y-90406000D02*
X292223666Y-90453619D01*
X292223666Y-90453619D02*
X292271285Y-90548857D01*
X292271285Y-90548857D02*
X292318904Y-90739333D01*
X292318904Y-90739333D02*
X292318904Y-90977428D01*
X292318904Y-90977428D02*
X292271285Y-91167904D01*
X292271285Y-91167904D02*
X292223666Y-91263142D01*
X292223666Y-91263142D02*
X292176047Y-91310761D01*
X292176047Y-91310761D02*
X292080809Y-91358380D01*
X292080809Y-91358380D02*
X291985571Y-91358380D01*
X291985571Y-91358380D02*
X291890333Y-91310761D01*
X291890333Y-91310761D02*
X291842714Y-91263142D01*
X291842714Y-91263142D02*
X291795095Y-91167904D01*
X291795095Y-91167904D02*
X291747476Y-90977428D01*
X291747476Y-90977428D02*
X291747476Y-90739333D01*
X291747476Y-90739333D02*
X291795095Y-90548857D01*
X291795095Y-90548857D02*
X291842714Y-90453619D01*
X291842714Y-90453619D02*
X291890333Y-90406000D01*
X291890333Y-90406000D02*
X291985571Y-90358380D01*
X115235714Y-65567380D02*
X115235714Y-64567380D01*
X115807142Y-65567380D02*
X115378571Y-64995952D01*
X115807142Y-64567380D02*
X115235714Y-65138809D01*
X116759523Y-65567380D02*
X116188095Y-65567380D01*
X116473809Y-65567380D02*
X116473809Y-64567380D01*
X116473809Y-64567380D02*
X116378571Y-64710238D01*
X116378571Y-64710238D02*
X116283333Y-64805476D01*
X116283333Y-64805476D02*
X116188095Y-64853095D01*
X117378571Y-64567380D02*
X117473809Y-64567380D01*
X117473809Y-64567380D02*
X117569047Y-64615000D01*
X117569047Y-64615000D02*
X117616666Y-64662619D01*
X117616666Y-64662619D02*
X117664285Y-64757857D01*
X117664285Y-64757857D02*
X117711904Y-64948333D01*
X117711904Y-64948333D02*
X117711904Y-65186428D01*
X117711904Y-65186428D02*
X117664285Y-65376904D01*
X117664285Y-65376904D02*
X117616666Y-65472142D01*
X117616666Y-65472142D02*
X117569047Y-65519761D01*
X117569047Y-65519761D02*
X117473809Y-65567380D01*
X117473809Y-65567380D02*
X117378571Y-65567380D01*
X117378571Y-65567380D02*
X117283333Y-65519761D01*
X117283333Y-65519761D02*
X117235714Y-65472142D01*
X117235714Y-65472142D02*
X117188095Y-65376904D01*
X117188095Y-65376904D02*
X117140476Y-65186428D01*
X117140476Y-65186428D02*
X117140476Y-64948333D01*
X117140476Y-64948333D02*
X117188095Y-64757857D01*
X117188095Y-64757857D02*
X117235714Y-64662619D01*
X117235714Y-64662619D02*
X117283333Y-64615000D01*
X117283333Y-64615000D02*
X117378571Y-64567380D01*
X188785714Y-75315380D02*
X188785714Y-74315380D01*
X189357142Y-75315380D02*
X188928571Y-74743952D01*
X189357142Y-74315380D02*
X188785714Y-74886809D01*
X190214285Y-74648714D02*
X190214285Y-75315380D01*
X189976190Y-74267761D02*
X189738095Y-74982047D01*
X189738095Y-74982047D02*
X190357142Y-74982047D01*
X191261904Y-75315380D02*
X190690476Y-75315380D01*
X190976190Y-75315380D02*
X190976190Y-74315380D01*
X190976190Y-74315380D02*
X190880952Y-74458238D01*
X190880952Y-74458238D02*
X190785714Y-74553476D01*
X190785714Y-74553476D02*
X190690476Y-74601095D01*
X315553714Y-126128380D02*
X315553714Y-125128380D01*
X316125142Y-126128380D02*
X315696571Y-125556952D01*
X316125142Y-125128380D02*
X315553714Y-125699809D01*
X316506095Y-125223619D02*
X316553714Y-125176000D01*
X316553714Y-125176000D02*
X316648952Y-125128380D01*
X316648952Y-125128380D02*
X316887047Y-125128380D01*
X316887047Y-125128380D02*
X316982285Y-125176000D01*
X316982285Y-125176000D02*
X317029904Y-125223619D01*
X317029904Y-125223619D02*
X317077523Y-125318857D01*
X317077523Y-125318857D02*
X317077523Y-125414095D01*
X317077523Y-125414095D02*
X317029904Y-125556952D01*
X317029904Y-125556952D02*
X316458476Y-126128380D01*
X316458476Y-126128380D02*
X317077523Y-126128380D01*
X317410857Y-125128380D02*
X318077523Y-125128380D01*
X318077523Y-125128380D02*
X317648952Y-126128380D01*
X207827714Y-56421380D02*
X207827714Y-55421380D01*
X208399142Y-56421380D02*
X207970571Y-55849952D01*
X208399142Y-55421380D02*
X207827714Y-55992809D01*
X208732476Y-55421380D02*
X209351523Y-55421380D01*
X209351523Y-55421380D02*
X209018190Y-55802333D01*
X209018190Y-55802333D02*
X209161047Y-55802333D01*
X209161047Y-55802333D02*
X209256285Y-55849952D01*
X209256285Y-55849952D02*
X209303904Y-55897571D01*
X209303904Y-55897571D02*
X209351523Y-55992809D01*
X209351523Y-55992809D02*
X209351523Y-56230904D01*
X209351523Y-56230904D02*
X209303904Y-56326142D01*
X209303904Y-56326142D02*
X209256285Y-56373761D01*
X209256285Y-56373761D02*
X209161047Y-56421380D01*
X209161047Y-56421380D02*
X208875333Y-56421380D01*
X208875333Y-56421380D02*
X208780095Y-56373761D01*
X208780095Y-56373761D02*
X208732476Y-56326142D01*
X209827714Y-56421380D02*
X210018190Y-56421380D01*
X210018190Y-56421380D02*
X210113428Y-56373761D01*
X210113428Y-56373761D02*
X210161047Y-56326142D01*
X210161047Y-56326142D02*
X210256285Y-56183285D01*
X210256285Y-56183285D02*
X210303904Y-55992809D01*
X210303904Y-55992809D02*
X210303904Y-55611857D01*
X210303904Y-55611857D02*
X210256285Y-55516619D01*
X210256285Y-55516619D02*
X210208666Y-55469000D01*
X210208666Y-55469000D02*
X210113428Y-55421380D01*
X210113428Y-55421380D02*
X209922952Y-55421380D01*
X209922952Y-55421380D02*
X209827714Y-55469000D01*
X209827714Y-55469000D02*
X209780095Y-55516619D01*
X209780095Y-55516619D02*
X209732476Y-55611857D01*
X209732476Y-55611857D02*
X209732476Y-55849952D01*
X209732476Y-55849952D02*
X209780095Y-55945190D01*
X209780095Y-55945190D02*
X209827714Y-55992809D01*
X209827714Y-55992809D02*
X209922952Y-56040428D01*
X209922952Y-56040428D02*
X210113428Y-56040428D01*
X210113428Y-56040428D02*
X210208666Y-55992809D01*
X210208666Y-55992809D02*
X210256285Y-55945190D01*
X210256285Y-55945190D02*
X210303904Y-55849952D01*
X169744714Y-56421380D02*
X169744714Y-55421380D01*
X170316142Y-56421380D02*
X169887571Y-55849952D01*
X170316142Y-55421380D02*
X169744714Y-55992809D01*
X170649476Y-55421380D02*
X171268523Y-55421380D01*
X171268523Y-55421380D02*
X170935190Y-55802333D01*
X170935190Y-55802333D02*
X171078047Y-55802333D01*
X171078047Y-55802333D02*
X171173285Y-55849952D01*
X171173285Y-55849952D02*
X171220904Y-55897571D01*
X171220904Y-55897571D02*
X171268523Y-55992809D01*
X171268523Y-55992809D02*
X171268523Y-56230904D01*
X171268523Y-56230904D02*
X171220904Y-56326142D01*
X171220904Y-56326142D02*
X171173285Y-56373761D01*
X171173285Y-56373761D02*
X171078047Y-56421380D01*
X171078047Y-56421380D02*
X170792333Y-56421380D01*
X170792333Y-56421380D02*
X170697095Y-56373761D01*
X170697095Y-56373761D02*
X170649476Y-56326142D01*
X171601857Y-55421380D02*
X172268523Y-55421380D01*
X172268523Y-55421380D02*
X171839952Y-56421380D01*
X218605714Y-207838380D02*
X218605714Y-206838380D01*
X219177142Y-207838380D02*
X218748571Y-207266952D01*
X219177142Y-206838380D02*
X218605714Y-207409809D01*
X219558095Y-206933619D02*
X219605714Y-206886000D01*
X219605714Y-206886000D02*
X219700952Y-206838380D01*
X219700952Y-206838380D02*
X219939047Y-206838380D01*
X219939047Y-206838380D02*
X220034285Y-206886000D01*
X220034285Y-206886000D02*
X220081904Y-206933619D01*
X220081904Y-206933619D02*
X220129523Y-207028857D01*
X220129523Y-207028857D02*
X220129523Y-207124095D01*
X220129523Y-207124095D02*
X220081904Y-207266952D01*
X220081904Y-207266952D02*
X219510476Y-207838380D01*
X219510476Y-207838380D02*
X220129523Y-207838380D01*
X220748571Y-206838380D02*
X220843809Y-206838380D01*
X220843809Y-206838380D02*
X220939047Y-206886000D01*
X220939047Y-206886000D02*
X220986666Y-206933619D01*
X220986666Y-206933619D02*
X221034285Y-207028857D01*
X221034285Y-207028857D02*
X221081904Y-207219333D01*
X221081904Y-207219333D02*
X221081904Y-207457428D01*
X221081904Y-207457428D02*
X221034285Y-207647904D01*
X221034285Y-207647904D02*
X220986666Y-207743142D01*
X220986666Y-207743142D02*
X220939047Y-207790761D01*
X220939047Y-207790761D02*
X220843809Y-207838380D01*
X220843809Y-207838380D02*
X220748571Y-207838380D01*
X220748571Y-207838380D02*
X220653333Y-207790761D01*
X220653333Y-207790761D02*
X220605714Y-207743142D01*
X220605714Y-207743142D02*
X220558095Y-207647904D01*
X220558095Y-207647904D02*
X220510476Y-207457428D01*
X220510476Y-207457428D02*
X220510476Y-207219333D01*
X220510476Y-207219333D02*
X220558095Y-207028857D01*
X220558095Y-207028857D02*
X220605714Y-206933619D01*
X220605714Y-206933619D02*
X220653333Y-206886000D01*
X220653333Y-206886000D02*
X220748571Y-206838380D01*
X241692714Y-80012380D02*
X241692714Y-79012380D01*
X242264142Y-80012380D02*
X241835571Y-79440952D01*
X242264142Y-79012380D02*
X241692714Y-79583809D01*
X242597476Y-79012380D02*
X243216523Y-79012380D01*
X243216523Y-79012380D02*
X242883190Y-79393333D01*
X242883190Y-79393333D02*
X243026047Y-79393333D01*
X243026047Y-79393333D02*
X243121285Y-79440952D01*
X243121285Y-79440952D02*
X243168904Y-79488571D01*
X243168904Y-79488571D02*
X243216523Y-79583809D01*
X243216523Y-79583809D02*
X243216523Y-79821904D01*
X243216523Y-79821904D02*
X243168904Y-79917142D01*
X243168904Y-79917142D02*
X243121285Y-79964761D01*
X243121285Y-79964761D02*
X243026047Y-80012380D01*
X243026047Y-80012380D02*
X242740333Y-80012380D01*
X242740333Y-80012380D02*
X242645095Y-79964761D01*
X242645095Y-79964761D02*
X242597476Y-79917142D01*
X244073666Y-79345714D02*
X244073666Y-80012380D01*
X243835571Y-78964761D02*
X243597476Y-79679047D01*
X243597476Y-79679047D02*
X244216523Y-79679047D01*
X62457905Y-126128380D02*
X62457905Y-125128380D01*
X63029333Y-126128380D02*
X62600762Y-125556952D01*
X63029333Y-125128380D02*
X62457905Y-125699809D01*
X63934095Y-125128380D02*
X63457905Y-125128380D01*
X63457905Y-125128380D02*
X63410286Y-125604571D01*
X63410286Y-125604571D02*
X63457905Y-125556952D01*
X63457905Y-125556952D02*
X63553143Y-125509333D01*
X63553143Y-125509333D02*
X63791238Y-125509333D01*
X63791238Y-125509333D02*
X63886476Y-125556952D01*
X63886476Y-125556952D02*
X63934095Y-125604571D01*
X63934095Y-125604571D02*
X63981714Y-125699809D01*
X63981714Y-125699809D02*
X63981714Y-125937904D01*
X63981714Y-125937904D02*
X63934095Y-126033142D01*
X63934095Y-126033142D02*
X63886476Y-126080761D01*
X63886476Y-126080761D02*
X63791238Y-126128380D01*
X63791238Y-126128380D02*
X63553143Y-126128380D01*
X63553143Y-126128380D02*
X63457905Y-126080761D01*
X63457905Y-126080761D02*
X63410286Y-126033142D01*
X287078714Y-66512380D02*
X287078714Y-65512380D01*
X287650142Y-66512380D02*
X287221571Y-65940952D01*
X287650142Y-65512380D02*
X287078714Y-66083809D01*
X287983476Y-65512380D02*
X288602523Y-65512380D01*
X288602523Y-65512380D02*
X288269190Y-65893333D01*
X288269190Y-65893333D02*
X288412047Y-65893333D01*
X288412047Y-65893333D02*
X288507285Y-65940952D01*
X288507285Y-65940952D02*
X288554904Y-65988571D01*
X288554904Y-65988571D02*
X288602523Y-66083809D01*
X288602523Y-66083809D02*
X288602523Y-66321904D01*
X288602523Y-66321904D02*
X288554904Y-66417142D01*
X288554904Y-66417142D02*
X288507285Y-66464761D01*
X288507285Y-66464761D02*
X288412047Y-66512380D01*
X288412047Y-66512380D02*
X288126333Y-66512380D01*
X288126333Y-66512380D02*
X288031095Y-66464761D01*
X288031095Y-66464761D02*
X287983476Y-66417142D01*
X288983476Y-65607619D02*
X289031095Y-65560000D01*
X289031095Y-65560000D02*
X289126333Y-65512380D01*
X289126333Y-65512380D02*
X289364428Y-65512380D01*
X289364428Y-65512380D02*
X289459666Y-65560000D01*
X289459666Y-65560000D02*
X289507285Y-65607619D01*
X289507285Y-65607619D02*
X289554904Y-65702857D01*
X289554904Y-65702857D02*
X289554904Y-65798095D01*
X289554904Y-65798095D02*
X289507285Y-65940952D01*
X289507285Y-65940952D02*
X288935857Y-66512380D01*
X288935857Y-66512380D02*
X289554904Y-66512380D01*
X156439714Y-95953380D02*
X156439714Y-94953380D01*
X157011142Y-95953380D02*
X156582571Y-95381952D01*
X157011142Y-94953380D02*
X156439714Y-95524809D01*
X157963523Y-95953380D02*
X157392095Y-95953380D01*
X157677809Y-95953380D02*
X157677809Y-94953380D01*
X157677809Y-94953380D02*
X157582571Y-95096238D01*
X157582571Y-95096238D02*
X157487333Y-95191476D01*
X157487333Y-95191476D02*
X157392095Y-95239095D01*
X158344476Y-95048619D02*
X158392095Y-95001000D01*
X158392095Y-95001000D02*
X158487333Y-94953380D01*
X158487333Y-94953380D02*
X158725428Y-94953380D01*
X158725428Y-94953380D02*
X158820666Y-95001000D01*
X158820666Y-95001000D02*
X158868285Y-95048619D01*
X158868285Y-95048619D02*
X158915904Y-95143857D01*
X158915904Y-95143857D02*
X158915904Y-95239095D01*
X158915904Y-95239095D02*
X158868285Y-95381952D01*
X158868285Y-95381952D02*
X158296857Y-95953380D01*
X158296857Y-95953380D02*
X158915904Y-95953380D01*
X264860714Y-90414380D02*
X264860714Y-89414380D01*
X265432142Y-90414380D02*
X265003571Y-89842952D01*
X265432142Y-89414380D02*
X264860714Y-89985809D01*
X265813095Y-89509619D02*
X265860714Y-89462000D01*
X265860714Y-89462000D02*
X265955952Y-89414380D01*
X265955952Y-89414380D02*
X266194047Y-89414380D01*
X266194047Y-89414380D02*
X266289285Y-89462000D01*
X266289285Y-89462000D02*
X266336904Y-89509619D01*
X266336904Y-89509619D02*
X266384523Y-89604857D01*
X266384523Y-89604857D02*
X266384523Y-89700095D01*
X266384523Y-89700095D02*
X266336904Y-89842952D01*
X266336904Y-89842952D02*
X265765476Y-90414380D01*
X265765476Y-90414380D02*
X266384523Y-90414380D01*
X266860714Y-90414380D02*
X267051190Y-90414380D01*
X267051190Y-90414380D02*
X267146428Y-90366761D01*
X267146428Y-90366761D02*
X267194047Y-90319142D01*
X267194047Y-90319142D02*
X267289285Y-90176285D01*
X267289285Y-90176285D02*
X267336904Y-89985809D01*
X267336904Y-89985809D02*
X267336904Y-89604857D01*
X267336904Y-89604857D02*
X267289285Y-89509619D01*
X267289285Y-89509619D02*
X267241666Y-89462000D01*
X267241666Y-89462000D02*
X267146428Y-89414380D01*
X267146428Y-89414380D02*
X266955952Y-89414380D01*
X266955952Y-89414380D02*
X266860714Y-89462000D01*
X266860714Y-89462000D02*
X266813095Y-89509619D01*
X266813095Y-89509619D02*
X266765476Y-89604857D01*
X266765476Y-89604857D02*
X266765476Y-89842952D01*
X266765476Y-89842952D02*
X266813095Y-89938190D01*
X266813095Y-89938190D02*
X266860714Y-89985809D01*
X266860714Y-89985809D02*
X266955952Y-90033428D01*
X266955952Y-90033428D02*
X267146428Y-90033428D01*
X267146428Y-90033428D02*
X267241666Y-89985809D01*
X267241666Y-89985809D02*
X267289285Y-89938190D01*
X267289285Y-89938190D02*
X267336904Y-89842952D01*
X292607714Y-116205380D02*
X292607714Y-115205380D01*
X293179142Y-116205380D02*
X292750571Y-115633952D01*
X293179142Y-115205380D02*
X292607714Y-115776809D01*
X293560095Y-115300619D02*
X293607714Y-115253000D01*
X293607714Y-115253000D02*
X293702952Y-115205380D01*
X293702952Y-115205380D02*
X293941047Y-115205380D01*
X293941047Y-115205380D02*
X294036285Y-115253000D01*
X294036285Y-115253000D02*
X294083904Y-115300619D01*
X294083904Y-115300619D02*
X294131523Y-115395857D01*
X294131523Y-115395857D02*
X294131523Y-115491095D01*
X294131523Y-115491095D02*
X294083904Y-115633952D01*
X294083904Y-115633952D02*
X293512476Y-116205380D01*
X293512476Y-116205380D02*
X294131523Y-116205380D01*
X294988666Y-115205380D02*
X294798190Y-115205380D01*
X294798190Y-115205380D02*
X294702952Y-115253000D01*
X294702952Y-115253000D02*
X294655333Y-115300619D01*
X294655333Y-115300619D02*
X294560095Y-115443476D01*
X294560095Y-115443476D02*
X294512476Y-115633952D01*
X294512476Y-115633952D02*
X294512476Y-116014904D01*
X294512476Y-116014904D02*
X294560095Y-116110142D01*
X294560095Y-116110142D02*
X294607714Y-116157761D01*
X294607714Y-116157761D02*
X294702952Y-116205380D01*
X294702952Y-116205380D02*
X294893428Y-116205380D01*
X294893428Y-116205380D02*
X294988666Y-116157761D01*
X294988666Y-116157761D02*
X295036285Y-116110142D01*
X295036285Y-116110142D02*
X295083904Y-116014904D01*
X295083904Y-116014904D02*
X295083904Y-115776809D01*
X295083904Y-115776809D02*
X295036285Y-115681571D01*
X295036285Y-115681571D02*
X294988666Y-115633952D01*
X294988666Y-115633952D02*
X294893428Y-115586333D01*
X294893428Y-115586333D02*
X294702952Y-115586333D01*
X294702952Y-115586333D02*
X294607714Y-115633952D01*
X294607714Y-115633952D02*
X294560095Y-115681571D01*
X294560095Y-115681571D02*
X294512476Y-115776809D01*
X85403905Y-116205380D02*
X85403905Y-115205380D01*
X85975333Y-116205380D02*
X85546762Y-115633952D01*
X85975333Y-115205380D02*
X85403905Y-115776809D01*
X86832476Y-115205380D02*
X86642000Y-115205380D01*
X86642000Y-115205380D02*
X86546762Y-115253000D01*
X86546762Y-115253000D02*
X86499143Y-115300619D01*
X86499143Y-115300619D02*
X86403905Y-115443476D01*
X86403905Y-115443476D02*
X86356286Y-115633952D01*
X86356286Y-115633952D02*
X86356286Y-116014904D01*
X86356286Y-116014904D02*
X86403905Y-116110142D01*
X86403905Y-116110142D02*
X86451524Y-116157761D01*
X86451524Y-116157761D02*
X86546762Y-116205380D01*
X86546762Y-116205380D02*
X86737238Y-116205380D01*
X86737238Y-116205380D02*
X86832476Y-116157761D01*
X86832476Y-116157761D02*
X86880095Y-116110142D01*
X86880095Y-116110142D02*
X86927714Y-116014904D01*
X86927714Y-116014904D02*
X86927714Y-115776809D01*
X86927714Y-115776809D02*
X86880095Y-115681571D01*
X86880095Y-115681571D02*
X86832476Y-115633952D01*
X86832476Y-115633952D02*
X86737238Y-115586333D01*
X86737238Y-115586333D02*
X86546762Y-115586333D01*
X86546762Y-115586333D02*
X86451524Y-115633952D01*
X86451524Y-115633952D02*
X86403905Y-115681571D01*
X86403905Y-115681571D02*
X86356286Y-115776809D01*
X169744714Y-75315380D02*
X169744714Y-74315380D01*
X170316142Y-75315380D02*
X169887571Y-74743952D01*
X170316142Y-74315380D02*
X169744714Y-74886809D01*
X171173285Y-74648714D02*
X171173285Y-75315380D01*
X170935190Y-74267761D02*
X170697095Y-74982047D01*
X170697095Y-74982047D02*
X171316142Y-74982047D01*
X171887571Y-74315380D02*
X171982809Y-74315380D01*
X171982809Y-74315380D02*
X172078047Y-74363000D01*
X172078047Y-74363000D02*
X172125666Y-74410619D01*
X172125666Y-74410619D02*
X172173285Y-74505857D01*
X172173285Y-74505857D02*
X172220904Y-74696333D01*
X172220904Y-74696333D02*
X172220904Y-74934428D01*
X172220904Y-74934428D02*
X172173285Y-75124904D01*
X172173285Y-75124904D02*
X172125666Y-75220142D01*
X172125666Y-75220142D02*
X172078047Y-75267761D01*
X172078047Y-75267761D02*
X171982809Y-75315380D01*
X171982809Y-75315380D02*
X171887571Y-75315380D01*
X171887571Y-75315380D02*
X171792333Y-75267761D01*
X171792333Y-75267761D02*
X171744714Y-75220142D01*
X171744714Y-75220142D02*
X171697095Y-75124904D01*
X171697095Y-75124904D02*
X171649476Y-74934428D01*
X171649476Y-74934428D02*
X171649476Y-74696333D01*
X171649476Y-74696333D02*
X171697095Y-74505857D01*
X171697095Y-74505857D02*
X171744714Y-74410619D01*
X171744714Y-74410619D02*
X171792333Y-74363000D01*
X171792333Y-74363000D02*
X171887571Y-74315380D01*
D11*
X153088000Y-165047000D02*
X153088000Y-179247000D01*
X153088000Y-179247000D02*
X167288000Y-179247000D01*
X167288000Y-165047000D02*
X153088000Y-165047000D01*
X167288000Y-179247000D02*
X167288000Y-165047000D01*
X140383000Y-186815000D02*
X140383000Y-201015000D01*
X140383000Y-201015000D02*
X154583000Y-201015000D01*
X154583000Y-186815000D02*
X140383000Y-186815000D01*
X154583000Y-201015000D02*
X154583000Y-186815000D01*
X241336000Y-130239000D02*
X241336000Y-144439000D01*
X241336000Y-144439000D02*
X255536000Y-144439000D01*
X255536000Y-130239000D02*
X241336000Y-130239000D01*
X255536000Y-144439000D02*
X255536000Y-130239000D01*
X201942000Y-75848000D02*
X201942000Y-90048000D01*
X201942000Y-90048000D02*
X216142000Y-90048000D01*
X216142000Y-75848000D02*
X201942000Y-75848000D01*
X216142000Y-90048000D02*
X216142000Y-75848000D01*
X81807000Y-91891000D02*
X81807000Y-106091000D01*
X81807000Y-106091000D02*
X96007000Y-106091000D01*
X96007000Y-91891000D02*
X81807000Y-91891000D01*
X96007000Y-106091000D02*
X96007000Y-91891000D01*
X165383000Y-186815000D02*
X165383000Y-201015000D01*
X165383000Y-201015000D02*
X179583000Y-201015000D01*
X179583000Y-186815000D02*
X165383000Y-186815000D01*
X179583000Y-201015000D02*
X179583000Y-186815000D01*
X153044000Y-208371000D02*
X153044000Y-222571000D01*
X153044000Y-222571000D02*
X167244000Y-222571000D01*
X167244000Y-208371000D02*
X153044000Y-208371000D01*
X167244000Y-222571000D02*
X167244000Y-208371000D01*
X238571000Y-105392000D02*
X238571000Y-119592000D01*
X238571000Y-119592000D02*
X252771000Y-119592000D01*
X252771000Y-105392000D02*
X238571000Y-105392000D01*
X252771000Y-119592000D02*
X252771000Y-105392000D01*
X237677000Y-165047000D02*
X237677000Y-179247000D01*
X237677000Y-179247000D02*
X251877000Y-179247000D01*
X251877000Y-165047000D02*
X237677000Y-165047000D01*
X251877000Y-179247000D02*
X251877000Y-165047000D01*
X128088000Y-165047000D02*
X128088000Y-179247000D01*
X128088000Y-179247000D02*
X142288000Y-179247000D01*
X142288000Y-165047000D02*
X128088000Y-165047000D01*
X142288000Y-179247000D02*
X142288000Y-165047000D01*
X261740000Y-115793000D02*
X261740000Y-129993000D01*
X261740000Y-129993000D02*
X275940000Y-129993000D01*
X275940000Y-115793000D02*
X261740000Y-115793000D01*
X275940000Y-129993000D02*
X275940000Y-115793000D01*
X58861000Y-101814000D02*
X58861000Y-116014000D01*
X58861000Y-116014000D02*
X73061000Y-116014000D01*
X73061000Y-101814000D02*
X58861000Y-101814000D01*
X73061000Y-116014000D02*
X73061000Y-101814000D01*
X104025000Y-115793000D02*
X104025000Y-129993000D01*
X104025000Y-129993000D02*
X118225000Y-129993000D01*
X118225000Y-115793000D02*
X104025000Y-115793000D01*
X118225000Y-129993000D02*
X118225000Y-115793000D01*
X176500000Y-106580000D02*
X203500000Y-106580000D01*
X176500000Y-126580000D02*
X176500000Y-106580000D01*
X203500000Y-106580000D02*
X203500000Y-126580000D01*
X203500000Y-126580000D02*
X176500000Y-126580000D01*
X147789000Y-121333000D02*
X147789000Y-135533000D01*
X147789000Y-135533000D02*
X161989000Y-135533000D01*
X161989000Y-121333000D02*
X147789000Y-121333000D01*
X161989000Y-135533000D02*
X161989000Y-121333000D01*
X306903000Y-101814000D02*
X306903000Y-116014000D01*
X306903000Y-116014000D02*
X321103000Y-116014000D01*
X321103000Y-101814000D02*
X306903000Y-101814000D01*
X321103000Y-116014000D02*
X321103000Y-101814000D01*
X106790000Y-90947000D02*
X106790000Y-105147000D01*
X106790000Y-105147000D02*
X120990000Y-105147000D01*
X120990000Y-90947000D02*
X106790000Y-90947000D01*
X120990000Y-105147000D02*
X120990000Y-90947000D01*
X124429000Y-130239000D02*
X124429000Y-144439000D01*
X124429000Y-144439000D02*
X138629000Y-144439000D01*
X138629000Y-130239000D02*
X124429000Y-130239000D01*
X138629000Y-144439000D02*
X138629000Y-130239000D01*
X182900000Y-56954000D02*
X182900000Y-71154000D01*
X182900000Y-71154000D02*
X197100000Y-71154000D01*
X197100000Y-56954000D02*
X182900000Y-56954000D01*
X197100000Y-71154000D02*
X197100000Y-56954000D01*
X217976000Y-121333000D02*
X217976000Y-135533000D01*
X217976000Y-135533000D02*
X232176000Y-135533000D01*
X232176000Y-121333000D02*
X217976000Y-121333000D01*
X232176000Y-135533000D02*
X232176000Y-121333000D01*
X200382000Y-186815000D02*
X200382000Y-201015000D01*
X200382000Y-201015000D02*
X214582000Y-201015000D01*
X214582000Y-186815000D02*
X200382000Y-186815000D01*
X214582000Y-201015000D02*
X214582000Y-186815000D01*
X212677000Y-165047000D02*
X212677000Y-179247000D01*
X212677000Y-179247000D02*
X226877000Y-179247000D01*
X226877000Y-165047000D02*
X212677000Y-165047000D01*
X226877000Y-179247000D02*
X226877000Y-165047000D01*
X84571000Y-67045000D02*
X84571000Y-81245000D01*
X84571000Y-81245000D02*
X98771000Y-81245000D01*
X98771000Y-67045000D02*
X84571000Y-67045000D01*
X98771000Y-81245000D02*
X98771000Y-67045000D01*
X215211000Y-96486000D02*
X215211000Y-110686000D01*
X215211000Y-110686000D02*
X229411000Y-110686000D01*
X229411000Y-96486000D02*
X215211000Y-96486000D01*
X229411000Y-110686000D02*
X229411000Y-96486000D01*
X127194000Y-105392000D02*
X127194000Y-119592000D01*
X127194000Y-119592000D02*
X141394000Y-119592000D01*
X141394000Y-105392000D02*
X127194000Y-105392000D01*
X141394000Y-119592000D02*
X141394000Y-105392000D01*
X256414000Y-66100000D02*
X256414000Y-80300000D01*
X256414000Y-80300000D02*
X270614000Y-80300000D01*
X270614000Y-66100000D02*
X256414000Y-66100000D01*
X270614000Y-80300000D02*
X270614000Y-66100000D01*
X129958000Y-80545000D02*
X129958000Y-94745000D01*
X129958000Y-94745000D02*
X144158000Y-94745000D01*
X144158000Y-80545000D02*
X129958000Y-80545000D01*
X144158000Y-94745000D02*
X144158000Y-80545000D01*
X225382000Y-186815000D02*
X225382000Y-201015000D01*
X225382000Y-201015000D02*
X239582000Y-201015000D01*
X239582000Y-186815000D02*
X225382000Y-186815000D01*
X239582000Y-201015000D02*
X239582000Y-186815000D01*
X283957000Y-91891000D02*
X283957000Y-106091000D01*
X283957000Y-106091000D02*
X298157000Y-106091000D01*
X298157000Y-91891000D02*
X283957000Y-91891000D01*
X298157000Y-106091000D02*
X298157000Y-91891000D01*
X109350000Y-66100000D02*
X109350000Y-80300000D01*
X109350000Y-80300000D02*
X123550000Y-80300000D01*
X123550000Y-66100000D02*
X109350000Y-66100000D01*
X123550000Y-80300000D02*
X123550000Y-66100000D01*
X182900000Y-75848000D02*
X182900000Y-90048000D01*
X182900000Y-90048000D02*
X197100000Y-90048000D01*
X197100000Y-75848000D02*
X182900000Y-75848000D01*
X197100000Y-90048000D02*
X197100000Y-75848000D01*
X309668000Y-126661000D02*
X309668000Y-140861000D01*
X309668000Y-140861000D02*
X323868000Y-140861000D01*
X323868000Y-126661000D02*
X309668000Y-126661000D01*
X323868000Y-140861000D02*
X323868000Y-126661000D01*
X201942000Y-56954000D02*
X201942000Y-71154000D01*
X201942000Y-71154000D02*
X216142000Y-71154000D01*
X216142000Y-56954000D02*
X201942000Y-56954000D01*
X216142000Y-71154000D02*
X216142000Y-56954000D01*
X163859000Y-56954000D02*
X163859000Y-71154000D01*
X163859000Y-71154000D02*
X178059000Y-71154000D01*
X178059000Y-56954000D02*
X163859000Y-56954000D01*
X178059000Y-71154000D02*
X178059000Y-56954000D01*
X212720000Y-208371000D02*
X212720000Y-222571000D01*
X212720000Y-222571000D02*
X226920000Y-222571000D01*
X226920000Y-208371000D02*
X212720000Y-208371000D01*
X226920000Y-222571000D02*
X226920000Y-208371000D01*
X235807000Y-80545000D02*
X235807000Y-94745000D01*
X235807000Y-94745000D02*
X250007000Y-94745000D01*
X250007000Y-80545000D02*
X235807000Y-80545000D01*
X250007000Y-94745000D02*
X250007000Y-80545000D01*
X56096000Y-126661000D02*
X56096000Y-140861000D01*
X56096000Y-140861000D02*
X70296000Y-140861000D01*
X70296000Y-126661000D02*
X56096000Y-126661000D01*
X70296000Y-140861000D02*
X70296000Y-126661000D01*
X281193000Y-67045000D02*
X281193000Y-81245000D01*
X281193000Y-81245000D02*
X295393000Y-81245000D01*
X295393000Y-67045000D02*
X281193000Y-67045000D01*
X295393000Y-81245000D02*
X295393000Y-67045000D01*
X150554000Y-96486000D02*
X150554000Y-110686000D01*
X150554000Y-110686000D02*
X164754000Y-110686000D01*
X164754000Y-96486000D02*
X150554000Y-96486000D01*
X164754000Y-110686000D02*
X164754000Y-96486000D01*
X258975000Y-90947000D02*
X258975000Y-105147000D01*
X258975000Y-105147000D02*
X273175000Y-105147000D01*
X273175000Y-90947000D02*
X258975000Y-90947000D01*
X273175000Y-105147000D02*
X273175000Y-90947000D01*
X286722000Y-116738000D02*
X286722000Y-130938000D01*
X286722000Y-130938000D02*
X300922000Y-130938000D01*
X300922000Y-116738000D02*
X286722000Y-116738000D01*
X300922000Y-130938000D02*
X300922000Y-116738000D01*
X79042000Y-116738000D02*
X79042000Y-130938000D01*
X79042000Y-130938000D02*
X93242000Y-130938000D01*
X93242000Y-116738000D02*
X79042000Y-116738000D01*
X93242000Y-130938000D02*
X93242000Y-116738000D01*
X163859000Y-75848000D02*
X163859000Y-90048000D01*
X163859000Y-90048000D02*
X178059000Y-90048000D01*
X178059000Y-75848000D02*
X163859000Y-75848000D01*
X178059000Y-90048000D02*
X178059000Y-75848000D01*
M02*
