G04 #@! TF.GenerationSoftware,KiCad,Pcbnew,(7.0.0)*
G04 #@! TF.CreationDate,2023-10-12T13:51:26-04:00*
G04 #@! TF.ProjectId,ZBox3-0,5a426f78-332d-4302-9e6b-696361645f70,rev?*
G04 #@! TF.SameCoordinates,Original*
G04 #@! TF.FileFunction,Soldermask,Bot*
G04 #@! TF.FilePolarity,Negative*
%FSLAX46Y46*%
G04 Gerber Fmt 4.6, Leading zero omitted, Abs format (unit mm)*
G04 Created by KiCad (PCBNEW (7.0.0)) date 2023-10-12 13:51:26*
%MOMM*%
%LPD*%
G01*
G04 APERTURE LIST*
G04 Aperture macros list*
%AMRoundRect*
0 Rectangle with rounded corners*
0 $1 Rounding radius*
0 $2 $3 $4 $5 $6 $7 $8 $9 X,Y pos of 4 corners*
0 Add a 4 corners polygon primitive as box body*
4,1,4,$2,$3,$4,$5,$6,$7,$8,$9,$2,$3,0*
0 Add four circle primitives for the rounded corners*
1,1,$1+$1,$2,$3*
1,1,$1+$1,$4,$5*
1,1,$1+$1,$6,$7*
1,1,$1+$1,$8,$9*
0 Add four rect primitives between the rounded corners*
20,1,$1+$1,$2,$3,$4,$5,0*
20,1,$1+$1,$4,$5,$6,$7,0*
20,1,$1+$1,$6,$7,$8,$9,0*
20,1,$1+$1,$8,$9,$2,$3,0*%
G04 Aperture macros list end*
%ADD10C,3.200000*%
%ADD11C,1.750000*%
%ADD12C,3.050000*%
%ADD13C,4.000000*%
%ADD14RoundRect,0.250000X-1.025000X-1.000000X1.025000X-1.000000X1.025000X1.000000X-1.025000X1.000000X0*%
%ADD15R,0.400000X2.000000*%
%ADD16RoundRect,0.140000X-0.140000X-0.170000X0.140000X-0.170000X0.140000X0.170000X-0.140000X0.170000X0*%
%ADD17RoundRect,0.225000X0.375000X-0.225000X0.375000X0.225000X-0.375000X0.225000X-0.375000X-0.225000X0*%
%ADD18RoundRect,0.140000X0.170000X-0.140000X0.170000X0.140000X-0.170000X0.140000X-0.170000X-0.140000X0*%
%ADD19RoundRect,0.140000X0.140000X0.170000X-0.140000X0.170000X-0.140000X-0.170000X0.140000X-0.170000X0*%
%ADD20R,1.200000X1.400000*%
%ADD21RoundRect,0.150000X0.650000X0.150000X-0.650000X0.150000X-0.650000X-0.150000X0.650000X-0.150000X0*%
%ADD22RoundRect,0.140000X-0.170000X0.140000X-0.170000X-0.140000X0.170000X-0.140000X0.170000X0.140000X0*%
%ADD23R,0.750000X1.000000*%
%ADD24RoundRect,0.135000X-0.185000X0.135000X-0.185000X-0.135000X0.185000X-0.135000X0.185000X0.135000X0*%
%ADD25RoundRect,0.135000X0.135000X0.185000X-0.135000X0.185000X-0.135000X-0.185000X0.135000X-0.185000X0*%
%ADD26RoundRect,0.135000X0.185000X-0.135000X0.185000X0.135000X-0.185000X0.135000X-0.185000X-0.135000X0*%
%ADD27RoundRect,0.225000X0.225000X0.375000X-0.225000X0.375000X-0.225000X-0.375000X0.225000X-0.375000X0*%
%ADD28RoundRect,0.050000X0.387500X0.050000X-0.387500X0.050000X-0.387500X-0.050000X0.387500X-0.050000X0*%
%ADD29RoundRect,0.050000X0.050000X0.387500X-0.050000X0.387500X-0.050000X-0.387500X0.050000X-0.387500X0*%
%ADD30RoundRect,0.144000X1.456000X1.456000X-1.456000X1.456000X-1.456000X-1.456000X1.456000X-1.456000X0*%
%ADD31C,0.700000*%
%ADD32R,0.300000X0.900000*%
%ADD33C,0.650000*%
%ADD34O,1.000000X1.600000*%
%ADD35RoundRect,0.135000X-0.135000X-0.185000X0.135000X-0.185000X0.135000X0.185000X-0.135000X0.185000X0*%
%ADD36RoundRect,0.150000X-0.512500X-0.150000X0.512500X-0.150000X0.512500X0.150000X-0.512500X0.150000X0*%
G04 APERTURE END LIST*
D10*
X60000000Y-220000000D03*
D11*
X155108000Y-172147000D03*
D12*
X156378000Y-169607000D03*
D13*
X160188000Y-172147000D03*
D12*
X162728000Y-167067000D03*
D11*
X165268000Y-172147000D03*
D14*
X153103000Y-169607000D03*
X166030000Y-167067000D03*
D11*
X142403000Y-193915000D03*
D12*
X143673000Y-191375000D03*
D13*
X147483000Y-193915000D03*
D12*
X150023000Y-188835000D03*
D11*
X152563000Y-193915000D03*
D14*
X140398000Y-191375000D03*
X153325000Y-188835000D03*
D11*
X243356000Y-137339000D03*
D12*
X244626000Y-134799000D03*
D13*
X248436000Y-137339000D03*
D12*
X250976000Y-132259000D03*
D11*
X253516000Y-137339000D03*
D14*
X241351000Y-134799000D03*
X254278000Y-132259000D03*
D11*
X203962000Y-82948000D03*
D12*
X205232000Y-80408000D03*
D13*
X209042000Y-82948000D03*
D12*
X211582000Y-77868000D03*
D11*
X214122000Y-82948000D03*
D14*
X201957000Y-80408000D03*
X214884000Y-77868000D03*
D11*
X83827000Y-98991000D03*
D12*
X85097000Y-96451000D03*
D13*
X88907000Y-98991000D03*
D12*
X91447000Y-93911000D03*
D11*
X93987000Y-98991000D03*
D14*
X81822000Y-96451000D03*
X94749000Y-93911000D03*
D11*
X167403000Y-193915000D03*
D12*
X168673000Y-191375000D03*
D13*
X172483000Y-193915000D03*
D12*
X175023000Y-188835000D03*
D11*
X177563000Y-193915000D03*
D14*
X165398000Y-191375000D03*
X178325000Y-188835000D03*
D11*
X155064000Y-215471000D03*
D12*
X156334000Y-212931000D03*
D13*
X160144000Y-215471000D03*
D12*
X162684000Y-210391000D03*
D11*
X165224000Y-215471000D03*
D14*
X153059000Y-212931000D03*
X165986000Y-210391000D03*
D10*
X320000000Y-220000000D03*
D11*
X240591000Y-112492000D03*
D12*
X241861000Y-109952000D03*
D13*
X245671000Y-112492000D03*
D12*
X248211000Y-107412000D03*
D11*
X250751000Y-112492000D03*
D14*
X238586000Y-109952000D03*
X251513000Y-107412000D03*
D11*
X239697000Y-172147000D03*
D12*
X240967000Y-169607000D03*
D13*
X244777000Y-172147000D03*
D12*
X247317000Y-167067000D03*
D11*
X249857000Y-172147000D03*
D14*
X237692000Y-169607000D03*
X250619000Y-167067000D03*
D11*
X130108000Y-172147000D03*
D12*
X131378000Y-169607000D03*
D13*
X135188000Y-172147000D03*
D12*
X137728000Y-167067000D03*
D11*
X140268000Y-172147000D03*
D14*
X128103000Y-169607000D03*
X141030000Y-167067000D03*
D11*
X263760000Y-122893000D03*
D12*
X265030000Y-120353000D03*
D13*
X268840000Y-122893000D03*
D12*
X271380000Y-117813000D03*
D11*
X273920000Y-122893000D03*
D14*
X261755000Y-120353000D03*
X274682000Y-117813000D03*
D11*
X60881000Y-108914000D03*
D12*
X62151000Y-106374000D03*
D13*
X65961000Y-108914000D03*
D12*
X68501000Y-103834000D03*
D11*
X71041000Y-108914000D03*
D14*
X58876000Y-106374000D03*
X71803000Y-103834000D03*
D11*
X106045000Y-122893000D03*
D12*
X107315000Y-120353000D03*
D13*
X111125000Y-122893000D03*
D12*
X113665000Y-117813000D03*
D11*
X116205000Y-122893000D03*
D14*
X104040000Y-120353000D03*
X116967000Y-117813000D03*
D10*
X320000000Y-60000000D03*
D15*
X179849999Y-122999999D03*
X180549999Y-122999999D03*
X181249999Y-122999999D03*
X181949999Y-122999999D03*
X182649999Y-122999999D03*
X183349999Y-122999999D03*
X184049999Y-122999999D03*
X184749999Y-122999999D03*
X185449999Y-122999999D03*
X186149999Y-122999999D03*
X186849999Y-122999999D03*
X187549999Y-122999999D03*
X188249999Y-122999999D03*
X188949999Y-122999999D03*
X189649999Y-122999999D03*
X190349999Y-122999999D03*
X191049999Y-122999999D03*
X191749999Y-122999999D03*
X192449999Y-122999999D03*
X193149999Y-122999999D03*
X193849999Y-122999999D03*
X194549999Y-122999999D03*
X195249999Y-122999999D03*
X195949999Y-122999999D03*
X196649999Y-122999999D03*
X197349999Y-122999999D03*
X198049999Y-122999999D03*
X198749999Y-122999999D03*
X199449999Y-122999999D03*
X200149999Y-122999999D03*
D10*
X60000000Y-60000000D03*
D11*
X149809000Y-128433000D03*
D12*
X151079000Y-125893000D03*
D13*
X154889000Y-128433000D03*
D12*
X157429000Y-123353000D03*
D11*
X159969000Y-128433000D03*
D14*
X147804000Y-125893000D03*
X160731000Y-123353000D03*
D11*
X308923000Y-108914000D03*
D12*
X310193000Y-106374000D03*
D13*
X314003000Y-108914000D03*
D12*
X316543000Y-103834000D03*
D11*
X319083000Y-108914000D03*
D14*
X306918000Y-106374000D03*
X319845000Y-103834000D03*
D11*
X108810000Y-98047000D03*
D12*
X110080000Y-95507000D03*
D13*
X113890000Y-98047000D03*
D12*
X116430000Y-92967000D03*
D11*
X118970000Y-98047000D03*
D14*
X106805000Y-95507000D03*
X119732000Y-92967000D03*
D11*
X126449000Y-137339000D03*
D12*
X127719000Y-134799000D03*
D13*
X131529000Y-137339000D03*
D12*
X134069000Y-132259000D03*
D11*
X136609000Y-137339000D03*
D14*
X124444000Y-134799000D03*
X137371000Y-132259000D03*
D11*
X184920000Y-64054000D03*
D12*
X186190000Y-61514000D03*
D13*
X190000000Y-64054000D03*
D12*
X192540000Y-58974000D03*
D11*
X195080000Y-64054000D03*
D14*
X182915000Y-61514000D03*
X195842000Y-58974000D03*
D11*
X219996000Y-128433000D03*
D12*
X221266000Y-125893000D03*
D13*
X225076000Y-128433000D03*
D12*
X227616000Y-123353000D03*
D11*
X230156000Y-128433000D03*
D14*
X217991000Y-125893000D03*
X230918000Y-123353000D03*
D11*
X202402000Y-193915000D03*
D12*
X203672000Y-191375000D03*
D13*
X207482000Y-193915000D03*
D12*
X210022000Y-188835000D03*
D11*
X212562000Y-193915000D03*
D14*
X200397000Y-191375000D03*
X213324000Y-188835000D03*
D11*
X214697000Y-172147000D03*
D12*
X215967000Y-169607000D03*
D13*
X219777000Y-172147000D03*
D12*
X222317000Y-167067000D03*
D11*
X224857000Y-172147000D03*
D14*
X212692000Y-169607000D03*
X225619000Y-167067000D03*
D11*
X86591000Y-74145000D03*
D12*
X87861000Y-71605000D03*
D13*
X91671000Y-74145000D03*
D12*
X94211000Y-69065000D03*
D11*
X96751000Y-74145000D03*
D14*
X84586000Y-71605000D03*
X97513000Y-69065000D03*
D11*
X217231000Y-103586000D03*
D12*
X218501000Y-101046000D03*
D13*
X222311000Y-103586000D03*
D12*
X224851000Y-98506000D03*
D11*
X227391000Y-103586000D03*
D14*
X215226000Y-101046000D03*
X228153000Y-98506000D03*
D11*
X129214000Y-112492000D03*
D12*
X130484000Y-109952000D03*
D13*
X134294000Y-112492000D03*
D12*
X136834000Y-107412000D03*
D11*
X139374000Y-112492000D03*
D14*
X127209000Y-109952000D03*
X140136000Y-107412000D03*
D11*
X258434000Y-73200000D03*
D12*
X259704000Y-70660000D03*
D13*
X263514000Y-73200000D03*
D12*
X266054000Y-68120000D03*
D11*
X268594000Y-73200000D03*
D14*
X256429000Y-70660000D03*
X269356000Y-68120000D03*
D11*
X131978000Y-87645000D03*
D12*
X133248000Y-85105000D03*
D13*
X137058000Y-87645000D03*
D12*
X139598000Y-82565000D03*
D11*
X142138000Y-87645000D03*
D14*
X129973000Y-85105000D03*
X142900000Y-82565000D03*
D11*
X227402000Y-193915000D03*
D12*
X228672000Y-191375000D03*
D13*
X232482000Y-193915000D03*
D12*
X235022000Y-188835000D03*
D11*
X237562000Y-193915000D03*
D14*
X225397000Y-191375000D03*
X238324000Y-188835000D03*
D11*
X285977000Y-98991000D03*
D12*
X287247000Y-96451000D03*
D13*
X291057000Y-98991000D03*
D12*
X293597000Y-93911000D03*
D11*
X296137000Y-98991000D03*
D14*
X283972000Y-96451000D03*
X296899000Y-93911000D03*
D11*
X111370000Y-73200000D03*
D12*
X112640000Y-70660000D03*
D13*
X116450000Y-73200000D03*
D12*
X118990000Y-68120000D03*
D11*
X121530000Y-73200000D03*
D14*
X109365000Y-70660000D03*
X122292000Y-68120000D03*
D11*
X184920000Y-82948000D03*
D12*
X186190000Y-80408000D03*
D13*
X190000000Y-82948000D03*
D12*
X192540000Y-77868000D03*
D11*
X195080000Y-82948000D03*
D14*
X182915000Y-80408000D03*
X195842000Y-77868000D03*
D11*
X311688000Y-133761000D03*
D12*
X312958000Y-131221000D03*
D13*
X316768000Y-133761000D03*
D12*
X319308000Y-128681000D03*
D11*
X321848000Y-133761000D03*
D14*
X309683000Y-131221000D03*
X322610000Y-128681000D03*
D11*
X203962000Y-64054000D03*
D12*
X205232000Y-61514000D03*
D13*
X209042000Y-64054000D03*
D12*
X211582000Y-58974000D03*
D11*
X214122000Y-64054000D03*
D14*
X201957000Y-61514000D03*
X214884000Y-58974000D03*
D11*
X165879000Y-64054000D03*
D12*
X167149000Y-61514000D03*
D13*
X170959000Y-64054000D03*
D12*
X173499000Y-58974000D03*
D11*
X176039000Y-64054000D03*
D14*
X163874000Y-61514000D03*
X176801000Y-58974000D03*
D11*
X214740000Y-215471000D03*
D12*
X216010000Y-212931000D03*
D13*
X219820000Y-215471000D03*
D12*
X222360000Y-210391000D03*
D11*
X224900000Y-215471000D03*
D14*
X212735000Y-212931000D03*
X225662000Y-210391000D03*
D11*
X237827000Y-87645000D03*
D12*
X239097000Y-85105000D03*
D13*
X242907000Y-87645000D03*
D12*
X245447000Y-82565000D03*
D11*
X247987000Y-87645000D03*
D14*
X235822000Y-85105000D03*
X248749000Y-82565000D03*
D11*
X58116000Y-133761000D03*
D12*
X59386000Y-131221000D03*
D13*
X63196000Y-133761000D03*
D12*
X65736000Y-128681000D03*
D11*
X68276000Y-133761000D03*
D14*
X56111000Y-131221000D03*
X69038000Y-128681000D03*
D11*
X283213000Y-74145000D03*
D12*
X284483000Y-71605000D03*
D13*
X288293000Y-74145000D03*
D12*
X290833000Y-69065000D03*
D11*
X293373000Y-74145000D03*
D14*
X281208000Y-71605000D03*
X294135000Y-69065000D03*
D11*
X152574000Y-103586000D03*
D12*
X153844000Y-101046000D03*
D13*
X157654000Y-103586000D03*
D12*
X160194000Y-98506000D03*
D11*
X162734000Y-103586000D03*
D14*
X150569000Y-101046000D03*
X163496000Y-98506000D03*
D11*
X260995000Y-98047000D03*
D12*
X262265000Y-95507000D03*
D13*
X266075000Y-98047000D03*
D12*
X268615000Y-92967000D03*
D11*
X271155000Y-98047000D03*
D14*
X258990000Y-95507000D03*
X271917000Y-92967000D03*
D11*
X288742000Y-123838000D03*
D12*
X290012000Y-121298000D03*
D13*
X293822000Y-123838000D03*
D12*
X296362000Y-118758000D03*
D11*
X298902000Y-123838000D03*
D14*
X286737000Y-121298000D03*
X299664000Y-118758000D03*
D11*
X81062000Y-123838000D03*
D12*
X82332000Y-121298000D03*
D13*
X86142000Y-123838000D03*
D12*
X88682000Y-118758000D03*
D11*
X91222000Y-123838000D03*
D14*
X79057000Y-121298000D03*
X91984000Y-118758000D03*
D11*
X165879000Y-82948000D03*
D12*
X167149000Y-80408000D03*
D13*
X170959000Y-82948000D03*
D12*
X173499000Y-77868000D03*
D11*
X176039000Y-82948000D03*
D14*
X163874000Y-80408000D03*
X176801000Y-77868000D03*
D16*
X180500000Y-119500000D03*
X181460000Y-119500000D03*
D17*
X153059000Y-221121000D03*
X153059000Y-217821000D03*
D18*
X233250000Y-57680000D03*
X233250000Y-56720000D03*
D19*
X234430000Y-71700000D03*
X233470000Y-71700000D03*
D16*
X236770000Y-61100000D03*
X237730000Y-61100000D03*
D17*
X150569000Y-109236000D03*
X150569000Y-105936000D03*
D20*
X233949999Y-73249999D03*
X233949999Y-75449999D03*
X232249999Y-75449999D03*
X232249999Y-73249999D03*
D17*
X258990000Y-103697000D03*
X258990000Y-100397000D03*
X241351000Y-142989000D03*
X241351000Y-139689000D03*
X104040000Y-128543000D03*
X104040000Y-125243000D03*
X81822000Y-104641000D03*
X81822000Y-101341000D03*
D21*
X243400000Y-53495000D03*
X243400000Y-54765000D03*
X243400000Y-56035000D03*
X243400000Y-57305000D03*
X236200000Y-57305000D03*
X236200000Y-56035000D03*
X236200000Y-54765000D03*
X236200000Y-53495000D03*
D19*
X227230000Y-65500000D03*
X226270000Y-65500000D03*
D17*
X163874000Y-88598000D03*
X163874000Y-85298000D03*
X309683000Y-139411000D03*
X309683000Y-136111000D03*
D22*
X230400000Y-69920000D03*
X230400000Y-70880000D03*
D23*
X246124999Y-69999999D03*
X246124999Y-75999999D03*
X249874999Y-69999999D03*
X249874999Y-75999999D03*
D24*
X231150000Y-57290000D03*
X231150000Y-58310000D03*
D17*
X84586000Y-79795000D03*
X84586000Y-76495000D03*
X212692000Y-177797000D03*
X212692000Y-174497000D03*
D24*
X242200000Y-60190000D03*
X242200000Y-61210000D03*
D17*
X217991000Y-134083000D03*
X217991000Y-130783000D03*
D19*
X236580000Y-51900000D03*
X235620000Y-51900000D03*
X227230000Y-61550000D03*
X226270000Y-61550000D03*
D18*
X213950000Y-53980000D03*
X213950000Y-53020000D03*
D25*
X184520000Y-52750000D03*
X183500000Y-52750000D03*
D17*
X124444000Y-142989000D03*
X124444000Y-139689000D03*
X235822000Y-93295000D03*
X235822000Y-89995000D03*
D18*
X219050000Y-53960000D03*
X219050000Y-53000000D03*
D17*
X109365000Y-78850000D03*
X109365000Y-75550000D03*
D18*
X199250000Y-120750000D03*
X199250000Y-119790000D03*
D16*
X236870000Y-65500000D03*
X237830000Y-65500000D03*
D17*
X256429000Y-78850000D03*
X256429000Y-75550000D03*
D19*
X185230000Y-112550000D03*
X184270000Y-112550000D03*
D24*
X187400000Y-111580000D03*
X187400000Y-112600000D03*
D26*
X232450000Y-71760000D03*
X232450000Y-70740000D03*
D17*
X59000000Y-114564000D03*
X59000000Y-111264000D03*
X237692000Y-177797000D03*
X237692000Y-174497000D03*
D27*
X192900000Y-112750000D03*
X189600000Y-112750000D03*
D16*
X181750000Y-120750000D03*
X182710000Y-120750000D03*
D17*
X182915000Y-88598000D03*
X182915000Y-85298000D03*
X128103000Y-177797000D03*
X128103000Y-174497000D03*
X238586000Y-118142000D03*
X238586000Y-114842000D03*
X163874000Y-69704000D03*
X163874000Y-66404000D03*
X153103000Y-177797000D03*
X153103000Y-174497000D03*
D25*
X184510000Y-53750000D03*
X183490000Y-53750000D03*
D28*
X235437500Y-61900000D03*
X235437500Y-62300000D03*
X235437500Y-62700000D03*
X235437500Y-63100000D03*
X235437500Y-63500000D03*
X235437500Y-63900000D03*
X235437500Y-64300000D03*
X235437500Y-64700000D03*
X235437500Y-65100000D03*
X235437500Y-65500000D03*
X235437500Y-65900000D03*
X235437500Y-66300000D03*
X235437500Y-66700000D03*
X235437500Y-67100000D03*
D29*
X234600000Y-67937500D03*
X234200000Y-67937500D03*
X233800000Y-67937500D03*
X233400000Y-67937500D03*
X233000000Y-67937500D03*
X232600000Y-67937500D03*
X232200000Y-67937500D03*
X231800000Y-67937500D03*
X231400000Y-67937500D03*
X231000000Y-67937500D03*
X230600000Y-67937500D03*
X230200000Y-67937500D03*
X229800000Y-67937500D03*
X229400000Y-67937500D03*
D28*
X228562500Y-67100000D03*
X228562500Y-66700000D03*
X228562500Y-66300000D03*
X228562500Y-65900000D03*
X228562500Y-65500000D03*
X228562500Y-65100000D03*
X228562500Y-64700000D03*
X228562500Y-64300000D03*
X228562500Y-63900000D03*
X228562500Y-63500000D03*
X228562500Y-63100000D03*
X228562500Y-62700000D03*
X228562500Y-62300000D03*
X228562500Y-61900000D03*
D29*
X229400000Y-61062500D03*
X229800000Y-61062500D03*
X230200000Y-61062500D03*
X230600000Y-61062500D03*
X231000000Y-61062500D03*
X231400000Y-61062500D03*
X231800000Y-61062500D03*
X232200000Y-61062500D03*
X232600000Y-61062500D03*
X233000000Y-61062500D03*
X233400000Y-61062500D03*
X233800000Y-61062500D03*
X234200000Y-61062500D03*
X234600000Y-61062500D03*
D30*
X232000000Y-64500000D03*
D17*
X200397000Y-199565000D03*
X200397000Y-196265000D03*
X201957000Y-88598000D03*
X201957000Y-85298000D03*
X306918000Y-114564000D03*
X306918000Y-111264000D03*
D22*
X230750000Y-73870000D03*
X230750000Y-74830000D03*
D31*
X186400000Y-52440000D03*
X193750000Y-52440000D03*
D32*
X187249999Y-52999999D03*
X187749999Y-52999999D03*
X188249999Y-52999999D03*
X188749999Y-52999999D03*
X189249999Y-52999999D03*
X189749999Y-52999999D03*
X190249999Y-52999999D03*
X190749999Y-52999999D03*
X191249999Y-52999999D03*
X191749999Y-52999999D03*
X192249999Y-52999999D03*
X192749999Y-52999999D03*
D33*
X192800000Y-51790000D03*
X192400000Y-51090000D03*
X191600000Y-51090000D03*
X191200000Y-51790000D03*
X190800000Y-51090000D03*
X190400000Y-51790000D03*
X189600000Y-51790000D03*
X189200000Y-51090000D03*
X188800000Y-51790000D03*
X188400000Y-51090000D03*
X187600000Y-51090000D03*
X187200000Y-51790000D03*
D34*
X185509999Y-46799999D03*
X185869999Y-51189999D03*
X194129999Y-51189999D03*
X194489999Y-46799999D03*
D35*
X195080000Y-116050000D03*
X196100000Y-116050000D03*
D17*
X106805000Y-103697000D03*
X106805000Y-100397000D03*
X286737000Y-129488000D03*
X286737000Y-126188000D03*
X261755000Y-128543000D03*
X261755000Y-125243000D03*
D24*
X230070000Y-57290000D03*
X230070000Y-58310000D03*
D22*
X231430000Y-69920000D03*
X231430000Y-70880000D03*
D17*
X127209000Y-118142000D03*
X127209000Y-114842000D03*
X129973000Y-93295000D03*
X129973000Y-89995000D03*
X56111000Y-139411000D03*
X56111000Y-136111000D03*
X201957000Y-69704000D03*
X201957000Y-66404000D03*
D35*
X193030000Y-116050000D03*
X194050000Y-116050000D03*
D24*
X198250000Y-119740000D03*
X198250000Y-120760000D03*
D17*
X281208000Y-79795000D03*
X281208000Y-76495000D03*
D18*
X232200000Y-58280000D03*
X232200000Y-57320000D03*
D19*
X227230000Y-60500000D03*
X226270000Y-60500000D03*
D17*
X225397000Y-199565000D03*
X225397000Y-196265000D03*
X140398000Y-199565000D03*
X140398000Y-196265000D03*
X283972000Y-104641000D03*
X283972000Y-101341000D03*
D18*
X200250000Y-120750000D03*
X200250000Y-119790000D03*
D17*
X182915000Y-69704000D03*
X182915000Y-66404000D03*
D25*
X246360000Y-53500000D03*
X245340000Y-53500000D03*
D18*
X227950000Y-59280000D03*
X227950000Y-58320000D03*
D17*
X147804000Y-134083000D03*
X147804000Y-130783000D03*
D23*
X242874999Y-75999999D03*
X242874999Y-69999999D03*
X239124999Y-75999999D03*
X239124999Y-69999999D03*
D27*
X210900000Y-51250000D03*
X207600000Y-51250000D03*
D36*
X215362500Y-53900000D03*
X215362500Y-52950000D03*
X215362500Y-52000000D03*
X217637500Y-52000000D03*
X217637500Y-53900000D03*
D17*
X79057000Y-129488000D03*
X79057000Y-126188000D03*
D18*
X229000000Y-58280000D03*
X229000000Y-57320000D03*
D17*
X215226000Y-109236000D03*
X215226000Y-105936000D03*
D22*
X197250000Y-119790000D03*
X197250000Y-120750000D03*
D17*
X212735000Y-221121000D03*
X212735000Y-217821000D03*
D22*
X201250000Y-119790000D03*
X201250000Y-120750000D03*
D17*
X165398000Y-199565000D03*
X165398000Y-196265000D03*
M02*
