%TF.GenerationSoftware,KiCad,Pcbnew,(7.0.0)*%
%TF.CreationDate,2024-07-28T23:05:56-04:00*%
%TF.ProjectId,ZBox3-0,5a426f78-332d-4302-9e6b-696361645f70,rev?*%
%TF.SameCoordinates,Original*%
%TF.FileFunction,Legend,Bot*%
%TF.FilePolarity,Positive*%
%FSLAX46Y46*%
G04 Gerber Fmt 4.6, Leading zero omitted, Abs format (unit mm)*
G04 Created by KiCad (PCBNEW (7.0.0)) date 2024-07-28 23:05:56*
%MOMM*%
%LPD*%
G01*
G04 APERTURE LIST*
G04 Aperture macros list*
%AMRoundRect*
0 Rectangle with rounded corners*
0 $1 Rounding radius*
0 $2 $3 $4 $5 $6 $7 $8 $9 X,Y pos of 4 corners*
0 Add a 4 corners polygon primitive as box body*
4,1,4,$2,$3,$4,$5,$6,$7,$8,$9,$2,$3,0*
0 Add four circle primitives for the rounded corners*
1,1,$1+$1,$2,$3*
1,1,$1+$1,$4,$5*
1,1,$1+$1,$6,$7*
1,1,$1+$1,$8,$9*
0 Add four rect primitives between the rounded corners*
20,1,$1+$1,$2,$3,$4,$5,0*
20,1,$1+$1,$4,$5,$6,$7,0*
20,1,$1+$1,$6,$7,$8,$9,0*
20,1,$1+$1,$8,$9,$2,$3,0*%
G04 Aperture macros list end*
%ADD10C,0.150000*%
%ADD11C,0.120000*%
%ADD12C,0.200000*%
%ADD13C,1.750000*%
%ADD14C,3.200000*%
%ADD15O,1.600000X2.000000*%
%ADD16RoundRect,0.140000X0.170000X-0.140000X0.170000X0.140000X-0.170000X0.140000X-0.170000X-0.140000X0*%
%ADD17RoundRect,0.140000X0.140000X0.170000X-0.140000X0.170000X-0.140000X-0.170000X0.140000X-0.170000X0*%
%ADD18R,0.450000X1.750000*%
%ADD19RoundRect,0.140000X-0.140000X-0.170000X0.140000X-0.170000X0.140000X0.170000X-0.140000X0.170000X0*%
%ADD20RoundRect,0.150000X0.150000X-0.587500X0.150000X0.587500X-0.150000X0.587500X-0.150000X-0.587500X0*%
%ADD21R,1.200000X1.400000*%
%ADD22RoundRect,0.150000X0.650000X0.150000X-0.650000X0.150000X-0.650000X-0.150000X0.650000X-0.150000X0*%
%ADD23RoundRect,0.140000X-0.170000X0.140000X-0.170000X-0.140000X0.170000X-0.140000X0.170000X0.140000X0*%
%ADD24R,0.750000X1.000000*%
%ADD25RoundRect,0.135000X-0.185000X0.135000X-0.185000X-0.135000X0.185000X-0.135000X0.185000X0.135000X0*%
%ADD26RoundRect,0.135000X0.135000X0.185000X-0.135000X0.185000X-0.135000X-0.185000X0.135000X-0.185000X0*%
%ADD27RoundRect,0.135000X0.185000X-0.135000X0.185000X0.135000X-0.185000X0.135000X-0.185000X-0.135000X0*%
%ADD28RoundRect,0.050000X0.387500X0.050000X-0.387500X0.050000X-0.387500X-0.050000X0.387500X-0.050000X0*%
%ADD29RoundRect,0.050000X0.050000X0.387500X-0.050000X0.387500X-0.050000X-0.387500X0.050000X-0.387500X0*%
%ADD30RoundRect,0.144000X1.456000X1.456000X-1.456000X1.456000X-1.456000X-1.456000X1.456000X-1.456000X0*%
%ADD31C,0.700000*%
%ADD32R,0.300000X0.900000*%
%ADD33C,0.650000*%
%ADD34O,1.000000X1.600000*%
%ADD35RoundRect,0.225000X0.225000X0.375000X-0.225000X0.375000X-0.225000X-0.375000X0.225000X-0.375000X0*%
%ADD36RoundRect,0.150000X-0.512500X-0.150000X0.512500X-0.150000X0.512500X0.150000X-0.512500X0.150000X0*%
G04 APERTURE END LIST*
D10*
%TO.C,C1*%
X233467714Y-53616667D02*
X233505809Y-53578571D01*
X233505809Y-53578571D02*
X233543904Y-53464286D01*
X233543904Y-53464286D02*
X233543904Y-53388095D01*
X233543904Y-53388095D02*
X233505809Y-53273809D01*
X233505809Y-53273809D02*
X233429619Y-53197619D01*
X233429619Y-53197619D02*
X233353428Y-53159524D01*
X233353428Y-53159524D02*
X233201047Y-53121428D01*
X233201047Y-53121428D02*
X233086761Y-53121428D01*
X233086761Y-53121428D02*
X232934380Y-53159524D01*
X232934380Y-53159524D02*
X232858190Y-53197619D01*
X232858190Y-53197619D02*
X232782000Y-53273809D01*
X232782000Y-53273809D02*
X232743904Y-53388095D01*
X232743904Y-53388095D02*
X232743904Y-53464286D01*
X232743904Y-53464286D02*
X232782000Y-53578571D01*
X232782000Y-53578571D02*
X232820095Y-53616667D01*
X233543904Y-54378571D02*
X233543904Y-53921428D01*
X233543904Y-54150000D02*
X232743904Y-54150000D01*
X232743904Y-54150000D02*
X232858190Y-54073809D01*
X232858190Y-54073809D02*
X232934380Y-53997619D01*
X232934380Y-53997619D02*
X232972476Y-53921428D01*
%TO.C,C15*%
X236514285Y-71967714D02*
X236552381Y-72005809D01*
X236552381Y-72005809D02*
X236666666Y-72043904D01*
X236666666Y-72043904D02*
X236742857Y-72043904D01*
X236742857Y-72043904D02*
X236857143Y-72005809D01*
X236857143Y-72005809D02*
X236933333Y-71929619D01*
X236933333Y-71929619D02*
X236971428Y-71853428D01*
X236971428Y-71853428D02*
X237009524Y-71701047D01*
X237009524Y-71701047D02*
X237009524Y-71586761D01*
X237009524Y-71586761D02*
X236971428Y-71434380D01*
X236971428Y-71434380D02*
X236933333Y-71358190D01*
X236933333Y-71358190D02*
X236857143Y-71282000D01*
X236857143Y-71282000D02*
X236742857Y-71243904D01*
X236742857Y-71243904D02*
X236666666Y-71243904D01*
X236666666Y-71243904D02*
X236552381Y-71282000D01*
X236552381Y-71282000D02*
X236514285Y-71320095D01*
X235752381Y-72043904D02*
X236209524Y-72043904D01*
X235980952Y-72043904D02*
X235980952Y-71243904D01*
X235980952Y-71243904D02*
X236057143Y-71358190D01*
X236057143Y-71358190D02*
X236133333Y-71434380D01*
X236133333Y-71434380D02*
X236209524Y-71472476D01*
X235028571Y-71243904D02*
X235409523Y-71243904D01*
X235409523Y-71243904D02*
X235447619Y-71624857D01*
X235447619Y-71624857D02*
X235409523Y-71586761D01*
X235409523Y-71586761D02*
X235333333Y-71548666D01*
X235333333Y-71548666D02*
X235142857Y-71548666D01*
X235142857Y-71548666D02*
X235066666Y-71586761D01*
X235066666Y-71586761D02*
X235028571Y-71624857D01*
X235028571Y-71624857D02*
X234990476Y-71701047D01*
X234990476Y-71701047D02*
X234990476Y-71891523D01*
X234990476Y-71891523D02*
X235028571Y-71967714D01*
X235028571Y-71967714D02*
X235066666Y-72005809D01*
X235066666Y-72005809D02*
X235142857Y-72043904D01*
X235142857Y-72043904D02*
X235333333Y-72043904D01*
X235333333Y-72043904D02*
X235409523Y-72005809D01*
X235409523Y-72005809D02*
X235447619Y-71967714D01*
%TO.C,AM2*%
X184831666Y-116714286D02*
X184831666Y-117190476D01*
X185117380Y-116619048D02*
X184117380Y-116952381D01*
X184117380Y-116952381D02*
X185117380Y-117285714D01*
X185117380Y-117619048D02*
X184117380Y-117619048D01*
X184117380Y-117619048D02*
X184831666Y-117952381D01*
X184831666Y-117952381D02*
X184117380Y-118285714D01*
X184117380Y-118285714D02*
X185117380Y-118285714D01*
X184212619Y-118714286D02*
X184165000Y-118761905D01*
X184165000Y-118761905D02*
X184117380Y-118857143D01*
X184117380Y-118857143D02*
X184117380Y-119095238D01*
X184117380Y-119095238D02*
X184165000Y-119190476D01*
X184165000Y-119190476D02*
X184212619Y-119238095D01*
X184212619Y-119238095D02*
X184307857Y-119285714D01*
X184307857Y-119285714D02*
X184403095Y-119285714D01*
X184403095Y-119285714D02*
X184545952Y-119238095D01*
X184545952Y-119238095D02*
X185117380Y-118666667D01*
X185117380Y-118666667D02*
X185117380Y-119285714D01*
%TO.C,C5*%
X237383332Y-60217714D02*
X237421428Y-60255809D01*
X237421428Y-60255809D02*
X237535713Y-60293904D01*
X237535713Y-60293904D02*
X237611904Y-60293904D01*
X237611904Y-60293904D02*
X237726190Y-60255809D01*
X237726190Y-60255809D02*
X237802380Y-60179619D01*
X237802380Y-60179619D02*
X237840475Y-60103428D01*
X237840475Y-60103428D02*
X237878571Y-59951047D01*
X237878571Y-59951047D02*
X237878571Y-59836761D01*
X237878571Y-59836761D02*
X237840475Y-59684380D01*
X237840475Y-59684380D02*
X237802380Y-59608190D01*
X237802380Y-59608190D02*
X237726190Y-59532000D01*
X237726190Y-59532000D02*
X237611904Y-59493904D01*
X237611904Y-59493904D02*
X237535713Y-59493904D01*
X237535713Y-59493904D02*
X237421428Y-59532000D01*
X237421428Y-59532000D02*
X237383332Y-59570095D01*
X236659523Y-59493904D02*
X237040475Y-59493904D01*
X237040475Y-59493904D02*
X237078571Y-59874857D01*
X237078571Y-59874857D02*
X237040475Y-59836761D01*
X237040475Y-59836761D02*
X236964285Y-59798666D01*
X236964285Y-59798666D02*
X236773809Y-59798666D01*
X236773809Y-59798666D02*
X236697618Y-59836761D01*
X236697618Y-59836761D02*
X236659523Y-59874857D01*
X236659523Y-59874857D02*
X236621428Y-59951047D01*
X236621428Y-59951047D02*
X236621428Y-60141523D01*
X236621428Y-60141523D02*
X236659523Y-60217714D01*
X236659523Y-60217714D02*
X236697618Y-60255809D01*
X236697618Y-60255809D02*
X236773809Y-60293904D01*
X236773809Y-60293904D02*
X236964285Y-60293904D01*
X236964285Y-60293904D02*
X237040475Y-60255809D01*
X237040475Y-60255809D02*
X237078571Y-60217714D01*
%TO.C,K40*%
X173726380Y-81733714D02*
X172726380Y-81733714D01*
X173726380Y-82305142D02*
X173154952Y-81876571D01*
X172726380Y-82305142D02*
X173297809Y-81733714D01*
X173059714Y-83162285D02*
X173726380Y-83162285D01*
X172678761Y-82924190D02*
X173393047Y-82686095D01*
X173393047Y-82686095D02*
X173393047Y-83305142D01*
X172726380Y-83876571D02*
X172726380Y-83971809D01*
X172726380Y-83971809D02*
X172774000Y-84067047D01*
X172774000Y-84067047D02*
X172821619Y-84114666D01*
X172821619Y-84114666D02*
X172916857Y-84162285D01*
X172916857Y-84162285D02*
X173107333Y-84209904D01*
X173107333Y-84209904D02*
X173345428Y-84209904D01*
X173345428Y-84209904D02*
X173535904Y-84162285D01*
X173535904Y-84162285D02*
X173631142Y-84114666D01*
X173631142Y-84114666D02*
X173678761Y-84067047D01*
X173678761Y-84067047D02*
X173726380Y-83971809D01*
X173726380Y-83971809D02*
X173726380Y-83876571D01*
X173726380Y-83876571D02*
X173678761Y-83781333D01*
X173678761Y-83781333D02*
X173631142Y-83733714D01*
X173631142Y-83733714D02*
X173535904Y-83686095D01*
X173535904Y-83686095D02*
X173345428Y-83638476D01*
X173345428Y-83638476D02*
X173107333Y-83638476D01*
X173107333Y-83638476D02*
X172916857Y-83686095D01*
X172916857Y-83686095D02*
X172821619Y-83733714D01*
X172821619Y-83733714D02*
X172774000Y-83781333D01*
X172774000Y-83781333D02*
X172726380Y-83876571D01*
%TO.C,K36*%
X227843380Y-127218714D02*
X226843380Y-127218714D01*
X227843380Y-127790142D02*
X227271952Y-127361571D01*
X226843380Y-127790142D02*
X227414809Y-127218714D01*
X226843380Y-128123476D02*
X226843380Y-128742523D01*
X226843380Y-128742523D02*
X227224333Y-128409190D01*
X227224333Y-128409190D02*
X227224333Y-128552047D01*
X227224333Y-128552047D02*
X227271952Y-128647285D01*
X227271952Y-128647285D02*
X227319571Y-128694904D01*
X227319571Y-128694904D02*
X227414809Y-128742523D01*
X227414809Y-128742523D02*
X227652904Y-128742523D01*
X227652904Y-128742523D02*
X227748142Y-128694904D01*
X227748142Y-128694904D02*
X227795761Y-128647285D01*
X227795761Y-128647285D02*
X227843380Y-128552047D01*
X227843380Y-128552047D02*
X227843380Y-128266333D01*
X227843380Y-128266333D02*
X227795761Y-128171095D01*
X227795761Y-128171095D02*
X227748142Y-128123476D01*
X226843380Y-129599666D02*
X226843380Y-129409190D01*
X226843380Y-129409190D02*
X226891000Y-129313952D01*
X226891000Y-129313952D02*
X226938619Y-129266333D01*
X226938619Y-129266333D02*
X227081476Y-129171095D01*
X227081476Y-129171095D02*
X227271952Y-129123476D01*
X227271952Y-129123476D02*
X227652904Y-129123476D01*
X227652904Y-129123476D02*
X227748142Y-129171095D01*
X227748142Y-129171095D02*
X227795761Y-129218714D01*
X227795761Y-129218714D02*
X227843380Y-129313952D01*
X227843380Y-129313952D02*
X227843380Y-129504428D01*
X227843380Y-129504428D02*
X227795761Y-129599666D01*
X227795761Y-129599666D02*
X227748142Y-129647285D01*
X227748142Y-129647285D02*
X227652904Y-129694904D01*
X227652904Y-129694904D02*
X227414809Y-129694904D01*
X227414809Y-129694904D02*
X227319571Y-129647285D01*
X227319571Y-129647285D02*
X227271952Y-129599666D01*
X227271952Y-129599666D02*
X227224333Y-129504428D01*
X227224333Y-129504428D02*
X227224333Y-129313952D01*
X227224333Y-129313952D02*
X227271952Y-129218714D01*
X227271952Y-129218714D02*
X227319571Y-129171095D01*
X227319571Y-129171095D02*
X227414809Y-129123476D01*
%TO.C,Y1*%
X233476190Y-77141190D02*
X233476190Y-77617380D01*
X233809523Y-76617380D02*
X233476190Y-77141190D01*
X233476190Y-77141190D02*
X233142857Y-76617380D01*
X232285714Y-77617380D02*
X232857142Y-77617380D01*
X232571428Y-77617380D02*
X232571428Y-76617380D01*
X232571428Y-76617380D02*
X232666666Y-76760238D01*
X232666666Y-76760238D02*
X232761904Y-76855476D01*
X232761904Y-76855476D02*
X232857142Y-76903095D01*
%TO.C,K6*%
X88909380Y-123099905D02*
X87909380Y-123099905D01*
X88909380Y-123671333D02*
X88337952Y-123242762D01*
X87909380Y-123671333D02*
X88480809Y-123099905D01*
X87909380Y-124528476D02*
X87909380Y-124338000D01*
X87909380Y-124338000D02*
X87957000Y-124242762D01*
X87957000Y-124242762D02*
X88004619Y-124195143D01*
X88004619Y-124195143D02*
X88147476Y-124099905D01*
X88147476Y-124099905D02*
X88337952Y-124052286D01*
X88337952Y-124052286D02*
X88718904Y-124052286D01*
X88718904Y-124052286D02*
X88814142Y-124099905D01*
X88814142Y-124099905D02*
X88861761Y-124147524D01*
X88861761Y-124147524D02*
X88909380Y-124242762D01*
X88909380Y-124242762D02*
X88909380Y-124433238D01*
X88909380Y-124433238D02*
X88861761Y-124528476D01*
X88861761Y-124528476D02*
X88814142Y-124576095D01*
X88814142Y-124576095D02*
X88718904Y-124623714D01*
X88718904Y-124623714D02*
X88480809Y-124623714D01*
X88480809Y-124623714D02*
X88385571Y-124576095D01*
X88385571Y-124576095D02*
X88337952Y-124528476D01*
X88337952Y-124528476D02*
X88290333Y-124433238D01*
X88290333Y-124433238D02*
X88290333Y-124242762D01*
X88290333Y-124242762D02*
X88337952Y-124147524D01*
X88337952Y-124147524D02*
X88385571Y-124099905D01*
X88385571Y-124099905D02*
X88480809Y-124052286D01*
%TO.C,AM1*%
X154831666Y-149714286D02*
X154831666Y-150190476D01*
X155117380Y-149619048D02*
X154117380Y-149952381D01*
X154117380Y-149952381D02*
X155117380Y-150285714D01*
X155117380Y-150619048D02*
X154117380Y-150619048D01*
X154117380Y-150619048D02*
X154831666Y-150952381D01*
X154831666Y-150952381D02*
X154117380Y-151285714D01*
X154117380Y-151285714D02*
X155117380Y-151285714D01*
X155117380Y-152285714D02*
X155117380Y-151714286D01*
X155117380Y-152000000D02*
X154117380Y-152000000D01*
X154117380Y-152000000D02*
X154260238Y-151904762D01*
X154260238Y-151904762D02*
X154355476Y-151809524D01*
X154355476Y-151809524D02*
X154403095Y-151714286D01*
%TO.C,K28*%
X248438380Y-111277714D02*
X247438380Y-111277714D01*
X248438380Y-111849142D02*
X247866952Y-111420571D01*
X247438380Y-111849142D02*
X248009809Y-111277714D01*
X247533619Y-112230095D02*
X247486000Y-112277714D01*
X247486000Y-112277714D02*
X247438380Y-112372952D01*
X247438380Y-112372952D02*
X247438380Y-112611047D01*
X247438380Y-112611047D02*
X247486000Y-112706285D01*
X247486000Y-112706285D02*
X247533619Y-112753904D01*
X247533619Y-112753904D02*
X247628857Y-112801523D01*
X247628857Y-112801523D02*
X247724095Y-112801523D01*
X247724095Y-112801523D02*
X247866952Y-112753904D01*
X247866952Y-112753904D02*
X248438380Y-112182476D01*
X248438380Y-112182476D02*
X248438380Y-112801523D01*
X247866952Y-113372952D02*
X247819333Y-113277714D01*
X247819333Y-113277714D02*
X247771714Y-113230095D01*
X247771714Y-113230095D02*
X247676476Y-113182476D01*
X247676476Y-113182476D02*
X247628857Y-113182476D01*
X247628857Y-113182476D02*
X247533619Y-113230095D01*
X247533619Y-113230095D02*
X247486000Y-113277714D01*
X247486000Y-113277714D02*
X247438380Y-113372952D01*
X247438380Y-113372952D02*
X247438380Y-113563428D01*
X247438380Y-113563428D02*
X247486000Y-113658666D01*
X247486000Y-113658666D02*
X247533619Y-113706285D01*
X247533619Y-113706285D02*
X247628857Y-113753904D01*
X247628857Y-113753904D02*
X247676476Y-113753904D01*
X247676476Y-113753904D02*
X247771714Y-113706285D01*
X247771714Y-113706285D02*
X247819333Y-113658666D01*
X247819333Y-113658666D02*
X247866952Y-113563428D01*
X247866952Y-113563428D02*
X247866952Y-113372952D01*
X247866952Y-113372952D02*
X247914571Y-113277714D01*
X247914571Y-113277714D02*
X247962190Y-113230095D01*
X247962190Y-113230095D02*
X248057428Y-113182476D01*
X248057428Y-113182476D02*
X248247904Y-113182476D01*
X248247904Y-113182476D02*
X248343142Y-113230095D01*
X248343142Y-113230095D02*
X248390761Y-113277714D01*
X248390761Y-113277714D02*
X248438380Y-113372952D01*
X248438380Y-113372952D02*
X248438380Y-113563428D01*
X248438380Y-113563428D02*
X248390761Y-113658666D01*
X248390761Y-113658666D02*
X248343142Y-113706285D01*
X248343142Y-113706285D02*
X248247904Y-113753904D01*
X248247904Y-113753904D02*
X248057428Y-113753904D01*
X248057428Y-113753904D02*
X247962190Y-113706285D01*
X247962190Y-113706285D02*
X247914571Y-113658666D01*
X247914571Y-113658666D02*
X247866952Y-113563428D01*
%TO.C,K33*%
X266281380Y-71985714D02*
X265281380Y-71985714D01*
X266281380Y-72557142D02*
X265709952Y-72128571D01*
X265281380Y-72557142D02*
X265852809Y-71985714D01*
X265281380Y-72890476D02*
X265281380Y-73509523D01*
X265281380Y-73509523D02*
X265662333Y-73176190D01*
X265662333Y-73176190D02*
X265662333Y-73319047D01*
X265662333Y-73319047D02*
X265709952Y-73414285D01*
X265709952Y-73414285D02*
X265757571Y-73461904D01*
X265757571Y-73461904D02*
X265852809Y-73509523D01*
X265852809Y-73509523D02*
X266090904Y-73509523D01*
X266090904Y-73509523D02*
X266186142Y-73461904D01*
X266186142Y-73461904D02*
X266233761Y-73414285D01*
X266233761Y-73414285D02*
X266281380Y-73319047D01*
X266281380Y-73319047D02*
X266281380Y-73033333D01*
X266281380Y-73033333D02*
X266233761Y-72938095D01*
X266233761Y-72938095D02*
X266186142Y-72890476D01*
X265281380Y-73842857D02*
X265281380Y-74461904D01*
X265281380Y-74461904D02*
X265662333Y-74128571D01*
X265662333Y-74128571D02*
X265662333Y-74271428D01*
X265662333Y-74271428D02*
X265709952Y-74366666D01*
X265709952Y-74366666D02*
X265757571Y-74414285D01*
X265757571Y-74414285D02*
X265852809Y-74461904D01*
X265852809Y-74461904D02*
X266090904Y-74461904D01*
X266090904Y-74461904D02*
X266186142Y-74414285D01*
X266186142Y-74414285D02*
X266233761Y-74366666D01*
X266233761Y-74366666D02*
X266281380Y-74271428D01*
X266281380Y-74271428D02*
X266281380Y-73985714D01*
X266281380Y-73985714D02*
X266233761Y-73890476D01*
X266233761Y-73890476D02*
X266186142Y-73842857D01*
%TO.C,K12*%
X160421380Y-102371714D02*
X159421380Y-102371714D01*
X160421380Y-102943142D02*
X159849952Y-102514571D01*
X159421380Y-102943142D02*
X159992809Y-102371714D01*
X160421380Y-103895523D02*
X160421380Y-103324095D01*
X160421380Y-103609809D02*
X159421380Y-103609809D01*
X159421380Y-103609809D02*
X159564238Y-103514571D01*
X159564238Y-103514571D02*
X159659476Y-103419333D01*
X159659476Y-103419333D02*
X159707095Y-103324095D01*
X159516619Y-104276476D02*
X159469000Y-104324095D01*
X159469000Y-104324095D02*
X159421380Y-104419333D01*
X159421380Y-104419333D02*
X159421380Y-104657428D01*
X159421380Y-104657428D02*
X159469000Y-104752666D01*
X159469000Y-104752666D02*
X159516619Y-104800285D01*
X159516619Y-104800285D02*
X159611857Y-104847904D01*
X159611857Y-104847904D02*
X159707095Y-104847904D01*
X159707095Y-104847904D02*
X159849952Y-104800285D01*
X159849952Y-104800285D02*
X160421380Y-104228857D01*
X160421380Y-104228857D02*
X160421380Y-104847904D01*
%TO.C,U6*%
X240561904Y-51207380D02*
X240561904Y-52016904D01*
X240561904Y-52016904D02*
X240514285Y-52112142D01*
X240514285Y-52112142D02*
X240466666Y-52159761D01*
X240466666Y-52159761D02*
X240371428Y-52207380D01*
X240371428Y-52207380D02*
X240180952Y-52207380D01*
X240180952Y-52207380D02*
X240085714Y-52159761D01*
X240085714Y-52159761D02*
X240038095Y-52112142D01*
X240038095Y-52112142D02*
X239990476Y-52016904D01*
X239990476Y-52016904D02*
X239990476Y-51207380D01*
X239085714Y-51207380D02*
X239276190Y-51207380D01*
X239276190Y-51207380D02*
X239371428Y-51255000D01*
X239371428Y-51255000D02*
X239419047Y-51302619D01*
X239419047Y-51302619D02*
X239514285Y-51445476D01*
X239514285Y-51445476D02*
X239561904Y-51635952D01*
X239561904Y-51635952D02*
X239561904Y-52016904D01*
X239561904Y-52016904D02*
X239514285Y-52112142D01*
X239514285Y-52112142D02*
X239466666Y-52159761D01*
X239466666Y-52159761D02*
X239371428Y-52207380D01*
X239371428Y-52207380D02*
X239180952Y-52207380D01*
X239180952Y-52207380D02*
X239085714Y-52159761D01*
X239085714Y-52159761D02*
X239038095Y-52112142D01*
X239038095Y-52112142D02*
X238990476Y-52016904D01*
X238990476Y-52016904D02*
X238990476Y-51778809D01*
X238990476Y-51778809D02*
X239038095Y-51683571D01*
X239038095Y-51683571D02*
X239085714Y-51635952D01*
X239085714Y-51635952D02*
X239180952Y-51588333D01*
X239180952Y-51588333D02*
X239371428Y-51588333D01*
X239371428Y-51588333D02*
X239466666Y-51635952D01*
X239466666Y-51635952D02*
X239514285Y-51683571D01*
X239514285Y-51683571D02*
X239561904Y-51778809D01*
%TO.C,C6*%
X226883332Y-64717714D02*
X226921428Y-64755809D01*
X226921428Y-64755809D02*
X227035713Y-64793904D01*
X227035713Y-64793904D02*
X227111904Y-64793904D01*
X227111904Y-64793904D02*
X227226190Y-64755809D01*
X227226190Y-64755809D02*
X227302380Y-64679619D01*
X227302380Y-64679619D02*
X227340475Y-64603428D01*
X227340475Y-64603428D02*
X227378571Y-64451047D01*
X227378571Y-64451047D02*
X227378571Y-64336761D01*
X227378571Y-64336761D02*
X227340475Y-64184380D01*
X227340475Y-64184380D02*
X227302380Y-64108190D01*
X227302380Y-64108190D02*
X227226190Y-64032000D01*
X227226190Y-64032000D02*
X227111904Y-63993904D01*
X227111904Y-63993904D02*
X227035713Y-63993904D01*
X227035713Y-63993904D02*
X226921428Y-64032000D01*
X226921428Y-64032000D02*
X226883332Y-64070095D01*
X226197618Y-63993904D02*
X226349999Y-63993904D01*
X226349999Y-63993904D02*
X226426190Y-64032000D01*
X226426190Y-64032000D02*
X226464285Y-64070095D01*
X226464285Y-64070095D02*
X226540475Y-64184380D01*
X226540475Y-64184380D02*
X226578571Y-64336761D01*
X226578571Y-64336761D02*
X226578571Y-64641523D01*
X226578571Y-64641523D02*
X226540475Y-64717714D01*
X226540475Y-64717714D02*
X226502380Y-64755809D01*
X226502380Y-64755809D02*
X226426190Y-64793904D01*
X226426190Y-64793904D02*
X226273809Y-64793904D01*
X226273809Y-64793904D02*
X226197618Y-64755809D01*
X226197618Y-64755809D02*
X226159523Y-64717714D01*
X226159523Y-64717714D02*
X226121428Y-64641523D01*
X226121428Y-64641523D02*
X226121428Y-64451047D01*
X226121428Y-64451047D02*
X226159523Y-64374857D01*
X226159523Y-64374857D02*
X226197618Y-64336761D01*
X226197618Y-64336761D02*
X226273809Y-64298666D01*
X226273809Y-64298666D02*
X226426190Y-64298666D01*
X226426190Y-64298666D02*
X226502380Y-64336761D01*
X226502380Y-64336761D02*
X226540475Y-64374857D01*
X226540475Y-64374857D02*
X226578571Y-64451047D01*
%TO.C,K35*%
X225078380Y-102371714D02*
X224078380Y-102371714D01*
X225078380Y-102943142D02*
X224506952Y-102514571D01*
X224078380Y-102943142D02*
X224649809Y-102371714D01*
X224078380Y-103276476D02*
X224078380Y-103895523D01*
X224078380Y-103895523D02*
X224459333Y-103562190D01*
X224459333Y-103562190D02*
X224459333Y-103705047D01*
X224459333Y-103705047D02*
X224506952Y-103800285D01*
X224506952Y-103800285D02*
X224554571Y-103847904D01*
X224554571Y-103847904D02*
X224649809Y-103895523D01*
X224649809Y-103895523D02*
X224887904Y-103895523D01*
X224887904Y-103895523D02*
X224983142Y-103847904D01*
X224983142Y-103847904D02*
X225030761Y-103800285D01*
X225030761Y-103800285D02*
X225078380Y-103705047D01*
X225078380Y-103705047D02*
X225078380Y-103419333D01*
X225078380Y-103419333D02*
X225030761Y-103324095D01*
X225030761Y-103324095D02*
X224983142Y-103276476D01*
X224078380Y-104800285D02*
X224078380Y-104324095D01*
X224078380Y-104324095D02*
X224554571Y-104276476D01*
X224554571Y-104276476D02*
X224506952Y-104324095D01*
X224506952Y-104324095D02*
X224459333Y-104419333D01*
X224459333Y-104419333D02*
X224459333Y-104657428D01*
X224459333Y-104657428D02*
X224506952Y-104752666D01*
X224506952Y-104752666D02*
X224554571Y-104800285D01*
X224554571Y-104800285D02*
X224649809Y-104847904D01*
X224649809Y-104847904D02*
X224887904Y-104847904D01*
X224887904Y-104847904D02*
X224983142Y-104800285D01*
X224983142Y-104800285D02*
X225030761Y-104752666D01*
X225030761Y-104752666D02*
X225078380Y-104657428D01*
X225078380Y-104657428D02*
X225078380Y-104419333D01*
X225078380Y-104419333D02*
X225030761Y-104324095D01*
X225030761Y-104324095D02*
X224983142Y-104276476D01*
%TO.C,K25*%
X271607380Y-121678714D02*
X270607380Y-121678714D01*
X271607380Y-122250142D02*
X271035952Y-121821571D01*
X270607380Y-122250142D02*
X271178809Y-121678714D01*
X270702619Y-122631095D02*
X270655000Y-122678714D01*
X270655000Y-122678714D02*
X270607380Y-122773952D01*
X270607380Y-122773952D02*
X270607380Y-123012047D01*
X270607380Y-123012047D02*
X270655000Y-123107285D01*
X270655000Y-123107285D02*
X270702619Y-123154904D01*
X270702619Y-123154904D02*
X270797857Y-123202523D01*
X270797857Y-123202523D02*
X270893095Y-123202523D01*
X270893095Y-123202523D02*
X271035952Y-123154904D01*
X271035952Y-123154904D02*
X271607380Y-122583476D01*
X271607380Y-122583476D02*
X271607380Y-123202523D01*
X270607380Y-124107285D02*
X270607380Y-123631095D01*
X270607380Y-123631095D02*
X271083571Y-123583476D01*
X271083571Y-123583476D02*
X271035952Y-123631095D01*
X271035952Y-123631095D02*
X270988333Y-123726333D01*
X270988333Y-123726333D02*
X270988333Y-123964428D01*
X270988333Y-123964428D02*
X271035952Y-124059666D01*
X271035952Y-124059666D02*
X271083571Y-124107285D01*
X271083571Y-124107285D02*
X271178809Y-124154904D01*
X271178809Y-124154904D02*
X271416904Y-124154904D01*
X271416904Y-124154904D02*
X271512142Y-124107285D01*
X271512142Y-124107285D02*
X271559761Y-124059666D01*
X271559761Y-124059666D02*
X271607380Y-123964428D01*
X271607380Y-123964428D02*
X271607380Y-123726333D01*
X271607380Y-123726333D02*
X271559761Y-123631095D01*
X271559761Y-123631095D02*
X271512142Y-123583476D01*
%TO.C,C3*%
X229383332Y-70217714D02*
X229421428Y-70255809D01*
X229421428Y-70255809D02*
X229535713Y-70293904D01*
X229535713Y-70293904D02*
X229611904Y-70293904D01*
X229611904Y-70293904D02*
X229726190Y-70255809D01*
X229726190Y-70255809D02*
X229802380Y-70179619D01*
X229802380Y-70179619D02*
X229840475Y-70103428D01*
X229840475Y-70103428D02*
X229878571Y-69951047D01*
X229878571Y-69951047D02*
X229878571Y-69836761D01*
X229878571Y-69836761D02*
X229840475Y-69684380D01*
X229840475Y-69684380D02*
X229802380Y-69608190D01*
X229802380Y-69608190D02*
X229726190Y-69532000D01*
X229726190Y-69532000D02*
X229611904Y-69493904D01*
X229611904Y-69493904D02*
X229535713Y-69493904D01*
X229535713Y-69493904D02*
X229421428Y-69532000D01*
X229421428Y-69532000D02*
X229383332Y-69570095D01*
X229116666Y-69493904D02*
X228621428Y-69493904D01*
X228621428Y-69493904D02*
X228888094Y-69798666D01*
X228888094Y-69798666D02*
X228773809Y-69798666D01*
X228773809Y-69798666D02*
X228697618Y-69836761D01*
X228697618Y-69836761D02*
X228659523Y-69874857D01*
X228659523Y-69874857D02*
X228621428Y-69951047D01*
X228621428Y-69951047D02*
X228621428Y-70141523D01*
X228621428Y-70141523D02*
X228659523Y-70217714D01*
X228659523Y-70217714D02*
X228697618Y-70255809D01*
X228697618Y-70255809D02*
X228773809Y-70293904D01*
X228773809Y-70293904D02*
X229002380Y-70293904D01*
X229002380Y-70293904D02*
X229078571Y-70255809D01*
X229078571Y-70255809D02*
X229116666Y-70217714D01*
D11*
%TO.C,SW2*%
X251322880Y-72365334D02*
X251346690Y-72436762D01*
X251346690Y-72436762D02*
X251346690Y-72555810D01*
X251346690Y-72555810D02*
X251322880Y-72603429D01*
X251322880Y-72603429D02*
X251299071Y-72627238D01*
X251299071Y-72627238D02*
X251251452Y-72651048D01*
X251251452Y-72651048D02*
X251203833Y-72651048D01*
X251203833Y-72651048D02*
X251156214Y-72627238D01*
X251156214Y-72627238D02*
X251132404Y-72603429D01*
X251132404Y-72603429D02*
X251108595Y-72555810D01*
X251108595Y-72555810D02*
X251084785Y-72460572D01*
X251084785Y-72460572D02*
X251060976Y-72412953D01*
X251060976Y-72412953D02*
X251037166Y-72389143D01*
X251037166Y-72389143D02*
X250989547Y-72365334D01*
X250989547Y-72365334D02*
X250941928Y-72365334D01*
X250941928Y-72365334D02*
X250894309Y-72389143D01*
X250894309Y-72389143D02*
X250870500Y-72412953D01*
X250870500Y-72412953D02*
X250846690Y-72460572D01*
X250846690Y-72460572D02*
X250846690Y-72579619D01*
X250846690Y-72579619D02*
X250870500Y-72651048D01*
X250846690Y-72817714D02*
X251346690Y-72936762D01*
X251346690Y-72936762D02*
X250989547Y-73032000D01*
X250989547Y-73032000D02*
X251346690Y-73127238D01*
X251346690Y-73127238D02*
X250846690Y-73246286D01*
X250894309Y-73412953D02*
X250870500Y-73436762D01*
X250870500Y-73436762D02*
X250846690Y-73484381D01*
X250846690Y-73484381D02*
X250846690Y-73603429D01*
X250846690Y-73603429D02*
X250870500Y-73651048D01*
X250870500Y-73651048D02*
X250894309Y-73674857D01*
X250894309Y-73674857D02*
X250941928Y-73698667D01*
X250941928Y-73698667D02*
X250989547Y-73698667D01*
X250989547Y-73698667D02*
X251060976Y-73674857D01*
X251060976Y-73674857D02*
X251346690Y-73389143D01*
X251346690Y-73389143D02*
X251346690Y-73698667D01*
D10*
%TO.C,R3*%
X231543904Y-53616667D02*
X231162952Y-53350000D01*
X231543904Y-53159524D02*
X230743904Y-53159524D01*
X230743904Y-53159524D02*
X230743904Y-53464286D01*
X230743904Y-53464286D02*
X230782000Y-53540476D01*
X230782000Y-53540476D02*
X230820095Y-53578571D01*
X230820095Y-53578571D02*
X230896285Y-53616667D01*
X230896285Y-53616667D02*
X231010571Y-53616667D01*
X231010571Y-53616667D02*
X231086761Y-53578571D01*
X231086761Y-53578571D02*
X231124857Y-53540476D01*
X231124857Y-53540476D02*
X231162952Y-53464286D01*
X231162952Y-53464286D02*
X231162952Y-53159524D01*
X230743904Y-53883333D02*
X230743904Y-54378571D01*
X230743904Y-54378571D02*
X231048666Y-54111905D01*
X231048666Y-54111905D02*
X231048666Y-54226190D01*
X231048666Y-54226190D02*
X231086761Y-54302381D01*
X231086761Y-54302381D02*
X231124857Y-54340476D01*
X231124857Y-54340476D02*
X231201047Y-54378571D01*
X231201047Y-54378571D02*
X231391523Y-54378571D01*
X231391523Y-54378571D02*
X231467714Y-54340476D01*
X231467714Y-54340476D02*
X231505809Y-54302381D01*
X231505809Y-54302381D02*
X231543904Y-54226190D01*
X231543904Y-54226190D02*
X231543904Y-53997619D01*
X231543904Y-53997619D02*
X231505809Y-53921428D01*
X231505809Y-53921428D02*
X231467714Y-53883333D01*
%TO.C,K19*%
X210249380Y-192700714D02*
X209249380Y-192700714D01*
X210249380Y-193272142D02*
X209677952Y-192843571D01*
X209249380Y-193272142D02*
X209820809Y-192700714D01*
X210249380Y-194224523D02*
X210249380Y-193653095D01*
X210249380Y-193938809D02*
X209249380Y-193938809D01*
X209249380Y-193938809D02*
X209392238Y-193843571D01*
X209392238Y-193843571D02*
X209487476Y-193748333D01*
X209487476Y-193748333D02*
X209535095Y-193653095D01*
X210249380Y-194700714D02*
X210249380Y-194891190D01*
X210249380Y-194891190D02*
X210201761Y-194986428D01*
X210201761Y-194986428D02*
X210154142Y-195034047D01*
X210154142Y-195034047D02*
X210011285Y-195129285D01*
X210011285Y-195129285D02*
X209820809Y-195176904D01*
X209820809Y-195176904D02*
X209439857Y-195176904D01*
X209439857Y-195176904D02*
X209344619Y-195129285D01*
X209344619Y-195129285D02*
X209297000Y-195081666D01*
X209297000Y-195081666D02*
X209249380Y-194986428D01*
X209249380Y-194986428D02*
X209249380Y-194795952D01*
X209249380Y-194795952D02*
X209297000Y-194700714D01*
X209297000Y-194700714D02*
X209344619Y-194653095D01*
X209344619Y-194653095D02*
X209439857Y-194605476D01*
X209439857Y-194605476D02*
X209677952Y-194605476D01*
X209677952Y-194605476D02*
X209773190Y-194653095D01*
X209773190Y-194653095D02*
X209820809Y-194700714D01*
X209820809Y-194700714D02*
X209868428Y-194795952D01*
X209868428Y-194795952D02*
X209868428Y-194986428D01*
X209868428Y-194986428D02*
X209820809Y-195081666D01*
X209820809Y-195081666D02*
X209773190Y-195129285D01*
X209773190Y-195129285D02*
X209677952Y-195176904D01*
%TO.C,K4*%
X137061380Y-111753905D02*
X136061380Y-111753905D01*
X137061380Y-112325333D02*
X136489952Y-111896762D01*
X136061380Y-112325333D02*
X136632809Y-111753905D01*
X136394714Y-113182476D02*
X137061380Y-113182476D01*
X136013761Y-112944381D02*
X136728047Y-112706286D01*
X136728047Y-112706286D02*
X136728047Y-113325333D01*
%TO.C,R5*%
X241163332Y-60993904D02*
X241429999Y-60612952D01*
X241620475Y-60993904D02*
X241620475Y-60193904D01*
X241620475Y-60193904D02*
X241315713Y-60193904D01*
X241315713Y-60193904D02*
X241239523Y-60232000D01*
X241239523Y-60232000D02*
X241201428Y-60270095D01*
X241201428Y-60270095D02*
X241163332Y-60346285D01*
X241163332Y-60346285D02*
X241163332Y-60460571D01*
X241163332Y-60460571D02*
X241201428Y-60536761D01*
X241201428Y-60536761D02*
X241239523Y-60574857D01*
X241239523Y-60574857D02*
X241315713Y-60612952D01*
X241315713Y-60612952D02*
X241620475Y-60612952D01*
X240439523Y-60193904D02*
X240820475Y-60193904D01*
X240820475Y-60193904D02*
X240858571Y-60574857D01*
X240858571Y-60574857D02*
X240820475Y-60536761D01*
X240820475Y-60536761D02*
X240744285Y-60498666D01*
X240744285Y-60498666D02*
X240553809Y-60498666D01*
X240553809Y-60498666D02*
X240477618Y-60536761D01*
X240477618Y-60536761D02*
X240439523Y-60574857D01*
X240439523Y-60574857D02*
X240401428Y-60651047D01*
X240401428Y-60651047D02*
X240401428Y-60841523D01*
X240401428Y-60841523D02*
X240439523Y-60917714D01*
X240439523Y-60917714D02*
X240477618Y-60955809D01*
X240477618Y-60955809D02*
X240553809Y-60993904D01*
X240553809Y-60993904D02*
X240744285Y-60993904D01*
X240744285Y-60993904D02*
X240820475Y-60955809D01*
X240820475Y-60955809D02*
X240858571Y-60917714D01*
%TO.C,K20*%
X222587380Y-214256714D02*
X221587380Y-214256714D01*
X222587380Y-214828142D02*
X222015952Y-214399571D01*
X221587380Y-214828142D02*
X222158809Y-214256714D01*
X221682619Y-215209095D02*
X221635000Y-215256714D01*
X221635000Y-215256714D02*
X221587380Y-215351952D01*
X221587380Y-215351952D02*
X221587380Y-215590047D01*
X221587380Y-215590047D02*
X221635000Y-215685285D01*
X221635000Y-215685285D02*
X221682619Y-215732904D01*
X221682619Y-215732904D02*
X221777857Y-215780523D01*
X221777857Y-215780523D02*
X221873095Y-215780523D01*
X221873095Y-215780523D02*
X222015952Y-215732904D01*
X222015952Y-215732904D02*
X222587380Y-215161476D01*
X222587380Y-215161476D02*
X222587380Y-215780523D01*
X221587380Y-216399571D02*
X221587380Y-216494809D01*
X221587380Y-216494809D02*
X221635000Y-216590047D01*
X221635000Y-216590047D02*
X221682619Y-216637666D01*
X221682619Y-216637666D02*
X221777857Y-216685285D01*
X221777857Y-216685285D02*
X221968333Y-216732904D01*
X221968333Y-216732904D02*
X222206428Y-216732904D01*
X222206428Y-216732904D02*
X222396904Y-216685285D01*
X222396904Y-216685285D02*
X222492142Y-216637666D01*
X222492142Y-216637666D02*
X222539761Y-216590047D01*
X222539761Y-216590047D02*
X222587380Y-216494809D01*
X222587380Y-216494809D02*
X222587380Y-216399571D01*
X222587380Y-216399571D02*
X222539761Y-216304333D01*
X222539761Y-216304333D02*
X222492142Y-216256714D01*
X222492142Y-216256714D02*
X222396904Y-216209095D01*
X222396904Y-216209095D02*
X222206428Y-216161476D01*
X222206428Y-216161476D02*
X221968333Y-216161476D01*
X221968333Y-216161476D02*
X221777857Y-216209095D01*
X221777857Y-216209095D02*
X221682619Y-216256714D01*
X221682619Y-216256714D02*
X221635000Y-216304333D01*
X221635000Y-216304333D02*
X221587380Y-216399571D01*
%TO.C,C14*%
X236514285Y-51217714D02*
X236552381Y-51255809D01*
X236552381Y-51255809D02*
X236666666Y-51293904D01*
X236666666Y-51293904D02*
X236742857Y-51293904D01*
X236742857Y-51293904D02*
X236857143Y-51255809D01*
X236857143Y-51255809D02*
X236933333Y-51179619D01*
X236933333Y-51179619D02*
X236971428Y-51103428D01*
X236971428Y-51103428D02*
X237009524Y-50951047D01*
X237009524Y-50951047D02*
X237009524Y-50836761D01*
X237009524Y-50836761D02*
X236971428Y-50684380D01*
X236971428Y-50684380D02*
X236933333Y-50608190D01*
X236933333Y-50608190D02*
X236857143Y-50532000D01*
X236857143Y-50532000D02*
X236742857Y-50493904D01*
X236742857Y-50493904D02*
X236666666Y-50493904D01*
X236666666Y-50493904D02*
X236552381Y-50532000D01*
X236552381Y-50532000D02*
X236514285Y-50570095D01*
X235752381Y-51293904D02*
X236209524Y-51293904D01*
X235980952Y-51293904D02*
X235980952Y-50493904D01*
X235980952Y-50493904D02*
X236057143Y-50608190D01*
X236057143Y-50608190D02*
X236133333Y-50684380D01*
X236133333Y-50684380D02*
X236209524Y-50722476D01*
X235066666Y-50760571D02*
X235066666Y-51293904D01*
X235257142Y-50455809D02*
X235447619Y-51027238D01*
X235447619Y-51027238D02*
X234952380Y-51027238D01*
%TO.C,C10*%
X222764285Y-61717714D02*
X222802381Y-61755809D01*
X222802381Y-61755809D02*
X222916666Y-61793904D01*
X222916666Y-61793904D02*
X222992857Y-61793904D01*
X222992857Y-61793904D02*
X223107143Y-61755809D01*
X223107143Y-61755809D02*
X223183333Y-61679619D01*
X223183333Y-61679619D02*
X223221428Y-61603428D01*
X223221428Y-61603428D02*
X223259524Y-61451047D01*
X223259524Y-61451047D02*
X223259524Y-61336761D01*
X223259524Y-61336761D02*
X223221428Y-61184380D01*
X223221428Y-61184380D02*
X223183333Y-61108190D01*
X223183333Y-61108190D02*
X223107143Y-61032000D01*
X223107143Y-61032000D02*
X222992857Y-60993904D01*
X222992857Y-60993904D02*
X222916666Y-60993904D01*
X222916666Y-60993904D02*
X222802381Y-61032000D01*
X222802381Y-61032000D02*
X222764285Y-61070095D01*
X222002381Y-61793904D02*
X222459524Y-61793904D01*
X222230952Y-61793904D02*
X222230952Y-60993904D01*
X222230952Y-60993904D02*
X222307143Y-61108190D01*
X222307143Y-61108190D02*
X222383333Y-61184380D01*
X222383333Y-61184380D02*
X222459524Y-61222476D01*
X221507142Y-60993904D02*
X221430952Y-60993904D01*
X221430952Y-60993904D02*
X221354761Y-61032000D01*
X221354761Y-61032000D02*
X221316666Y-61070095D01*
X221316666Y-61070095D02*
X221278571Y-61146285D01*
X221278571Y-61146285D02*
X221240476Y-61298666D01*
X221240476Y-61298666D02*
X221240476Y-61489142D01*
X221240476Y-61489142D02*
X221278571Y-61641523D01*
X221278571Y-61641523D02*
X221316666Y-61717714D01*
X221316666Y-61717714D02*
X221354761Y-61755809D01*
X221354761Y-61755809D02*
X221430952Y-61793904D01*
X221430952Y-61793904D02*
X221507142Y-61793904D01*
X221507142Y-61793904D02*
X221583333Y-61755809D01*
X221583333Y-61755809D02*
X221621428Y-61717714D01*
X221621428Y-61717714D02*
X221659523Y-61641523D01*
X221659523Y-61641523D02*
X221697619Y-61489142D01*
X221697619Y-61489142D02*
X221697619Y-61298666D01*
X221697619Y-61298666D02*
X221659523Y-61146285D01*
X221659523Y-61146285D02*
X221621428Y-61070095D01*
X221621428Y-61070095D02*
X221583333Y-61032000D01*
X221583333Y-61032000D02*
X221507142Y-60993904D01*
%TO.C,K11*%
X139825380Y-86430714D02*
X138825380Y-86430714D01*
X139825380Y-87002142D02*
X139253952Y-86573571D01*
X138825380Y-87002142D02*
X139396809Y-86430714D01*
X139825380Y-87954523D02*
X139825380Y-87383095D01*
X139825380Y-87668809D02*
X138825380Y-87668809D01*
X138825380Y-87668809D02*
X138968238Y-87573571D01*
X138968238Y-87573571D02*
X139063476Y-87478333D01*
X139063476Y-87478333D02*
X139111095Y-87383095D01*
X139825380Y-88906904D02*
X139825380Y-88335476D01*
X139825380Y-88621190D02*
X138825380Y-88621190D01*
X138825380Y-88621190D02*
X138968238Y-88525952D01*
X138968238Y-88525952D02*
X139063476Y-88430714D01*
X139063476Y-88430714D02*
X139111095Y-88335476D01*
%TO.C,R2*%
X182393332Y-53043904D02*
X182659999Y-52662952D01*
X182850475Y-53043904D02*
X182850475Y-52243904D01*
X182850475Y-52243904D02*
X182545713Y-52243904D01*
X182545713Y-52243904D02*
X182469523Y-52282000D01*
X182469523Y-52282000D02*
X182431428Y-52320095D01*
X182431428Y-52320095D02*
X182393332Y-52396285D01*
X182393332Y-52396285D02*
X182393332Y-52510571D01*
X182393332Y-52510571D02*
X182431428Y-52586761D01*
X182431428Y-52586761D02*
X182469523Y-52624857D01*
X182469523Y-52624857D02*
X182545713Y-52662952D01*
X182545713Y-52662952D02*
X182850475Y-52662952D01*
X182088571Y-52320095D02*
X182050475Y-52282000D01*
X182050475Y-52282000D02*
X181974285Y-52243904D01*
X181974285Y-52243904D02*
X181783809Y-52243904D01*
X181783809Y-52243904D02*
X181707618Y-52282000D01*
X181707618Y-52282000D02*
X181669523Y-52320095D01*
X181669523Y-52320095D02*
X181631428Y-52396285D01*
X181631428Y-52396285D02*
X181631428Y-52472476D01*
X181631428Y-52472476D02*
X181669523Y-52586761D01*
X181669523Y-52586761D02*
X182126666Y-53043904D01*
X182126666Y-53043904D02*
X181631428Y-53043904D01*
%TO.C,AM3*%
X214831666Y-149714286D02*
X214831666Y-150190476D01*
X215117380Y-149619048D02*
X214117380Y-149952381D01*
X214117380Y-149952381D02*
X215117380Y-150285714D01*
X215117380Y-150619048D02*
X214117380Y-150619048D01*
X214117380Y-150619048D02*
X214831666Y-150952381D01*
X214831666Y-150952381D02*
X214117380Y-151285714D01*
X214117380Y-151285714D02*
X215117380Y-151285714D01*
X214117380Y-151666667D02*
X214117380Y-152285714D01*
X214117380Y-152285714D02*
X214498333Y-151952381D01*
X214498333Y-151952381D02*
X214498333Y-152095238D01*
X214498333Y-152095238D02*
X214545952Y-152190476D01*
X214545952Y-152190476D02*
X214593571Y-152238095D01*
X214593571Y-152238095D02*
X214688809Y-152285714D01*
X214688809Y-152285714D02*
X214926904Y-152285714D01*
X214926904Y-152285714D02*
X215022142Y-152238095D01*
X215022142Y-152238095D02*
X215069761Y-152190476D01*
X215069761Y-152190476D02*
X215117380Y-152095238D01*
X215117380Y-152095238D02*
X215117380Y-151809524D01*
X215117380Y-151809524D02*
X215069761Y-151714286D01*
X215069761Y-151714286D02*
X215022142Y-151666667D01*
%TO.C,K37*%
X173726380Y-62839714D02*
X172726380Y-62839714D01*
X173726380Y-63411142D02*
X173154952Y-62982571D01*
X172726380Y-63411142D02*
X173297809Y-62839714D01*
X172726380Y-63744476D02*
X172726380Y-64363523D01*
X172726380Y-64363523D02*
X173107333Y-64030190D01*
X173107333Y-64030190D02*
X173107333Y-64173047D01*
X173107333Y-64173047D02*
X173154952Y-64268285D01*
X173154952Y-64268285D02*
X173202571Y-64315904D01*
X173202571Y-64315904D02*
X173297809Y-64363523D01*
X173297809Y-64363523D02*
X173535904Y-64363523D01*
X173535904Y-64363523D02*
X173631142Y-64315904D01*
X173631142Y-64315904D02*
X173678761Y-64268285D01*
X173678761Y-64268285D02*
X173726380Y-64173047D01*
X173726380Y-64173047D02*
X173726380Y-63887333D01*
X173726380Y-63887333D02*
X173678761Y-63792095D01*
X173678761Y-63792095D02*
X173631142Y-63744476D01*
X172726380Y-64696857D02*
X172726380Y-65363523D01*
X172726380Y-65363523D02*
X173726380Y-64934952D01*
%TO.C,K21*%
X235249380Y-192700714D02*
X234249380Y-192700714D01*
X235249380Y-193272142D02*
X234677952Y-192843571D01*
X234249380Y-193272142D02*
X234820809Y-192700714D01*
X234344619Y-193653095D02*
X234297000Y-193700714D01*
X234297000Y-193700714D02*
X234249380Y-193795952D01*
X234249380Y-193795952D02*
X234249380Y-194034047D01*
X234249380Y-194034047D02*
X234297000Y-194129285D01*
X234297000Y-194129285D02*
X234344619Y-194176904D01*
X234344619Y-194176904D02*
X234439857Y-194224523D01*
X234439857Y-194224523D02*
X234535095Y-194224523D01*
X234535095Y-194224523D02*
X234677952Y-194176904D01*
X234677952Y-194176904D02*
X235249380Y-193605476D01*
X235249380Y-193605476D02*
X235249380Y-194224523D01*
X235249380Y-195176904D02*
X235249380Y-194605476D01*
X235249380Y-194891190D02*
X234249380Y-194891190D01*
X234249380Y-194891190D02*
X234392238Y-194795952D01*
X234392238Y-194795952D02*
X234487476Y-194700714D01*
X234487476Y-194700714D02*
X234535095Y-194605476D01*
%TO.C,C13*%
X220427714Y-52965714D02*
X220465809Y-52927618D01*
X220465809Y-52927618D02*
X220503904Y-52813333D01*
X220503904Y-52813333D02*
X220503904Y-52737142D01*
X220503904Y-52737142D02*
X220465809Y-52622856D01*
X220465809Y-52622856D02*
X220389619Y-52546666D01*
X220389619Y-52546666D02*
X220313428Y-52508571D01*
X220313428Y-52508571D02*
X220161047Y-52470475D01*
X220161047Y-52470475D02*
X220046761Y-52470475D01*
X220046761Y-52470475D02*
X219894380Y-52508571D01*
X219894380Y-52508571D02*
X219818190Y-52546666D01*
X219818190Y-52546666D02*
X219742000Y-52622856D01*
X219742000Y-52622856D02*
X219703904Y-52737142D01*
X219703904Y-52737142D02*
X219703904Y-52813333D01*
X219703904Y-52813333D02*
X219742000Y-52927618D01*
X219742000Y-52927618D02*
X219780095Y-52965714D01*
X220503904Y-53727618D02*
X220503904Y-53270475D01*
X220503904Y-53499047D02*
X219703904Y-53499047D01*
X219703904Y-53499047D02*
X219818190Y-53422856D01*
X219818190Y-53422856D02*
X219894380Y-53346666D01*
X219894380Y-53346666D02*
X219932476Y-53270475D01*
X219703904Y-53994285D02*
X219703904Y-54489523D01*
X219703904Y-54489523D02*
X220008666Y-54222857D01*
X220008666Y-54222857D02*
X220008666Y-54337142D01*
X220008666Y-54337142D02*
X220046761Y-54413333D01*
X220046761Y-54413333D02*
X220084857Y-54451428D01*
X220084857Y-54451428D02*
X220161047Y-54489523D01*
X220161047Y-54489523D02*
X220351523Y-54489523D01*
X220351523Y-54489523D02*
X220427714Y-54451428D01*
X220427714Y-54451428D02*
X220465809Y-54413333D01*
X220465809Y-54413333D02*
X220503904Y-54337142D01*
X220503904Y-54337142D02*
X220503904Y-54108571D01*
X220503904Y-54108571D02*
X220465809Y-54032380D01*
X220465809Y-54032380D02*
X220427714Y-53994285D01*
%TO.C,K15*%
X162955380Y-170932714D02*
X161955380Y-170932714D01*
X162955380Y-171504142D02*
X162383952Y-171075571D01*
X161955380Y-171504142D02*
X162526809Y-170932714D01*
X162955380Y-172456523D02*
X162955380Y-171885095D01*
X162955380Y-172170809D02*
X161955380Y-172170809D01*
X161955380Y-172170809D02*
X162098238Y-172075571D01*
X162098238Y-172075571D02*
X162193476Y-171980333D01*
X162193476Y-171980333D02*
X162241095Y-171885095D01*
X161955380Y-173361285D02*
X161955380Y-172885095D01*
X161955380Y-172885095D02*
X162431571Y-172837476D01*
X162431571Y-172837476D02*
X162383952Y-172885095D01*
X162383952Y-172885095D02*
X162336333Y-172980333D01*
X162336333Y-172980333D02*
X162336333Y-173218428D01*
X162336333Y-173218428D02*
X162383952Y-173313666D01*
X162383952Y-173313666D02*
X162431571Y-173361285D01*
X162431571Y-173361285D02*
X162526809Y-173408904D01*
X162526809Y-173408904D02*
X162764904Y-173408904D01*
X162764904Y-173408904D02*
X162860142Y-173361285D01*
X162860142Y-173361285D02*
X162907761Y-173313666D01*
X162907761Y-173313666D02*
X162955380Y-173218428D01*
X162955380Y-173218428D02*
X162955380Y-172980333D01*
X162955380Y-172980333D02*
X162907761Y-172885095D01*
X162907761Y-172885095D02*
X162860142Y-172837476D01*
%TO.C,C7*%
X237483332Y-64717714D02*
X237521428Y-64755809D01*
X237521428Y-64755809D02*
X237635713Y-64793904D01*
X237635713Y-64793904D02*
X237711904Y-64793904D01*
X237711904Y-64793904D02*
X237826190Y-64755809D01*
X237826190Y-64755809D02*
X237902380Y-64679619D01*
X237902380Y-64679619D02*
X237940475Y-64603428D01*
X237940475Y-64603428D02*
X237978571Y-64451047D01*
X237978571Y-64451047D02*
X237978571Y-64336761D01*
X237978571Y-64336761D02*
X237940475Y-64184380D01*
X237940475Y-64184380D02*
X237902380Y-64108190D01*
X237902380Y-64108190D02*
X237826190Y-64032000D01*
X237826190Y-64032000D02*
X237711904Y-63993904D01*
X237711904Y-63993904D02*
X237635713Y-63993904D01*
X237635713Y-63993904D02*
X237521428Y-64032000D01*
X237521428Y-64032000D02*
X237483332Y-64070095D01*
X237216666Y-63993904D02*
X236683332Y-63993904D01*
X236683332Y-63993904D02*
X237026190Y-64793904D01*
%TO.C,K41*%
X192767380Y-81733714D02*
X191767380Y-81733714D01*
X192767380Y-82305142D02*
X192195952Y-81876571D01*
X191767380Y-82305142D02*
X192338809Y-81733714D01*
X192100714Y-83162285D02*
X192767380Y-83162285D01*
X191719761Y-82924190D02*
X192434047Y-82686095D01*
X192434047Y-82686095D02*
X192434047Y-83305142D01*
X192767380Y-84209904D02*
X192767380Y-83638476D01*
X192767380Y-83924190D02*
X191767380Y-83924190D01*
X191767380Y-83924190D02*
X191910238Y-83828952D01*
X191910238Y-83828952D02*
X192005476Y-83733714D01*
X192005476Y-83733714D02*
X192053095Y-83638476D01*
%TO.C,R7*%
X233753332Y-71043904D02*
X234019999Y-70662952D01*
X234210475Y-71043904D02*
X234210475Y-70243904D01*
X234210475Y-70243904D02*
X233905713Y-70243904D01*
X233905713Y-70243904D02*
X233829523Y-70282000D01*
X233829523Y-70282000D02*
X233791428Y-70320095D01*
X233791428Y-70320095D02*
X233753332Y-70396285D01*
X233753332Y-70396285D02*
X233753332Y-70510571D01*
X233753332Y-70510571D02*
X233791428Y-70586761D01*
X233791428Y-70586761D02*
X233829523Y-70624857D01*
X233829523Y-70624857D02*
X233905713Y-70662952D01*
X233905713Y-70662952D02*
X234210475Y-70662952D01*
X233486666Y-70243904D02*
X232953332Y-70243904D01*
X232953332Y-70243904D02*
X233296190Y-71043904D01*
%TO.C,K7*%
X113892380Y-122154905D02*
X112892380Y-122154905D01*
X113892380Y-122726333D02*
X113320952Y-122297762D01*
X112892380Y-122726333D02*
X113463809Y-122154905D01*
X112892380Y-123059667D02*
X112892380Y-123726333D01*
X112892380Y-123726333D02*
X113892380Y-123297762D01*
%TO.C,K27*%
X319535380Y-132546714D02*
X318535380Y-132546714D01*
X319535380Y-133118142D02*
X318963952Y-132689571D01*
X318535380Y-133118142D02*
X319106809Y-132546714D01*
X318630619Y-133499095D02*
X318583000Y-133546714D01*
X318583000Y-133546714D02*
X318535380Y-133641952D01*
X318535380Y-133641952D02*
X318535380Y-133880047D01*
X318535380Y-133880047D02*
X318583000Y-133975285D01*
X318583000Y-133975285D02*
X318630619Y-134022904D01*
X318630619Y-134022904D02*
X318725857Y-134070523D01*
X318725857Y-134070523D02*
X318821095Y-134070523D01*
X318821095Y-134070523D02*
X318963952Y-134022904D01*
X318963952Y-134022904D02*
X319535380Y-133451476D01*
X319535380Y-133451476D02*
X319535380Y-134070523D01*
X318535380Y-134403857D02*
X318535380Y-135070523D01*
X318535380Y-135070523D02*
X319535380Y-134641952D01*
%TO.C,K42*%
X211809380Y-81733714D02*
X210809380Y-81733714D01*
X211809380Y-82305142D02*
X211237952Y-81876571D01*
X210809380Y-82305142D02*
X211380809Y-81733714D01*
X211142714Y-83162285D02*
X211809380Y-83162285D01*
X210761761Y-82924190D02*
X211476047Y-82686095D01*
X211476047Y-82686095D02*
X211476047Y-83305142D01*
X210904619Y-83638476D02*
X210857000Y-83686095D01*
X210857000Y-83686095D02*
X210809380Y-83781333D01*
X210809380Y-83781333D02*
X210809380Y-84019428D01*
X210809380Y-84019428D02*
X210857000Y-84114666D01*
X210857000Y-84114666D02*
X210904619Y-84162285D01*
X210904619Y-84162285D02*
X210999857Y-84209904D01*
X210999857Y-84209904D02*
X211095095Y-84209904D01*
X211095095Y-84209904D02*
X211237952Y-84162285D01*
X211237952Y-84162285D02*
X211809380Y-83590857D01*
X211809380Y-83590857D02*
X211809380Y-84209904D01*
%TO.C,K22*%
X222544380Y-170932714D02*
X221544380Y-170932714D01*
X222544380Y-171504142D02*
X221972952Y-171075571D01*
X221544380Y-171504142D02*
X222115809Y-170932714D01*
X221639619Y-171885095D02*
X221592000Y-171932714D01*
X221592000Y-171932714D02*
X221544380Y-172027952D01*
X221544380Y-172027952D02*
X221544380Y-172266047D01*
X221544380Y-172266047D02*
X221592000Y-172361285D01*
X221592000Y-172361285D02*
X221639619Y-172408904D01*
X221639619Y-172408904D02*
X221734857Y-172456523D01*
X221734857Y-172456523D02*
X221830095Y-172456523D01*
X221830095Y-172456523D02*
X221972952Y-172408904D01*
X221972952Y-172408904D02*
X222544380Y-171837476D01*
X222544380Y-171837476D02*
X222544380Y-172456523D01*
X221639619Y-172837476D02*
X221592000Y-172885095D01*
X221592000Y-172885095D02*
X221544380Y-172980333D01*
X221544380Y-172980333D02*
X221544380Y-173218428D01*
X221544380Y-173218428D02*
X221592000Y-173313666D01*
X221592000Y-173313666D02*
X221639619Y-173361285D01*
X221639619Y-173361285D02*
X221734857Y-173408904D01*
X221734857Y-173408904D02*
X221830095Y-173408904D01*
X221830095Y-173408904D02*
X221972952Y-173361285D01*
X221972952Y-173361285D02*
X222544380Y-172789857D01*
X222544380Y-172789857D02*
X222544380Y-173408904D01*
%TO.C,K29*%
X268842380Y-96832714D02*
X267842380Y-96832714D01*
X268842380Y-97404142D02*
X268270952Y-96975571D01*
X267842380Y-97404142D02*
X268413809Y-96832714D01*
X267937619Y-97785095D02*
X267890000Y-97832714D01*
X267890000Y-97832714D02*
X267842380Y-97927952D01*
X267842380Y-97927952D02*
X267842380Y-98166047D01*
X267842380Y-98166047D02*
X267890000Y-98261285D01*
X267890000Y-98261285D02*
X267937619Y-98308904D01*
X267937619Y-98308904D02*
X268032857Y-98356523D01*
X268032857Y-98356523D02*
X268128095Y-98356523D01*
X268128095Y-98356523D02*
X268270952Y-98308904D01*
X268270952Y-98308904D02*
X268842380Y-97737476D01*
X268842380Y-97737476D02*
X268842380Y-98356523D01*
X268842380Y-98832714D02*
X268842380Y-99023190D01*
X268842380Y-99023190D02*
X268794761Y-99118428D01*
X268794761Y-99118428D02*
X268747142Y-99166047D01*
X268747142Y-99166047D02*
X268604285Y-99261285D01*
X268604285Y-99261285D02*
X268413809Y-99308904D01*
X268413809Y-99308904D02*
X268032857Y-99308904D01*
X268032857Y-99308904D02*
X267937619Y-99261285D01*
X267937619Y-99261285D02*
X267890000Y-99213666D01*
X267890000Y-99213666D02*
X267842380Y-99118428D01*
X267842380Y-99118428D02*
X267842380Y-98927952D01*
X267842380Y-98927952D02*
X267890000Y-98832714D01*
X267890000Y-98832714D02*
X267937619Y-98785095D01*
X267937619Y-98785095D02*
X268032857Y-98737476D01*
X268032857Y-98737476D02*
X268270952Y-98737476D01*
X268270952Y-98737476D02*
X268366190Y-98785095D01*
X268366190Y-98785095D02*
X268413809Y-98832714D01*
X268413809Y-98832714D02*
X268461428Y-98927952D01*
X268461428Y-98927952D02*
X268461428Y-99118428D01*
X268461428Y-99118428D02*
X268413809Y-99213666D01*
X268413809Y-99213666D02*
X268366190Y-99261285D01*
X268366190Y-99261285D02*
X268270952Y-99308904D01*
%TO.C,K18*%
X162911380Y-214256714D02*
X161911380Y-214256714D01*
X162911380Y-214828142D02*
X162339952Y-214399571D01*
X161911380Y-214828142D02*
X162482809Y-214256714D01*
X162911380Y-215780523D02*
X162911380Y-215209095D01*
X162911380Y-215494809D02*
X161911380Y-215494809D01*
X161911380Y-215494809D02*
X162054238Y-215399571D01*
X162054238Y-215399571D02*
X162149476Y-215304333D01*
X162149476Y-215304333D02*
X162197095Y-215209095D01*
X162339952Y-216351952D02*
X162292333Y-216256714D01*
X162292333Y-216256714D02*
X162244714Y-216209095D01*
X162244714Y-216209095D02*
X162149476Y-216161476D01*
X162149476Y-216161476D02*
X162101857Y-216161476D01*
X162101857Y-216161476D02*
X162006619Y-216209095D01*
X162006619Y-216209095D02*
X161959000Y-216256714D01*
X161959000Y-216256714D02*
X161911380Y-216351952D01*
X161911380Y-216351952D02*
X161911380Y-216542428D01*
X161911380Y-216542428D02*
X161959000Y-216637666D01*
X161959000Y-216637666D02*
X162006619Y-216685285D01*
X162006619Y-216685285D02*
X162101857Y-216732904D01*
X162101857Y-216732904D02*
X162149476Y-216732904D01*
X162149476Y-216732904D02*
X162244714Y-216685285D01*
X162244714Y-216685285D02*
X162292333Y-216637666D01*
X162292333Y-216637666D02*
X162339952Y-216542428D01*
X162339952Y-216542428D02*
X162339952Y-216351952D01*
X162339952Y-216351952D02*
X162387571Y-216256714D01*
X162387571Y-216256714D02*
X162435190Y-216209095D01*
X162435190Y-216209095D02*
X162530428Y-216161476D01*
X162530428Y-216161476D02*
X162720904Y-216161476D01*
X162720904Y-216161476D02*
X162816142Y-216209095D01*
X162816142Y-216209095D02*
X162863761Y-216256714D01*
X162863761Y-216256714D02*
X162911380Y-216351952D01*
X162911380Y-216351952D02*
X162911380Y-216542428D01*
X162911380Y-216542428D02*
X162863761Y-216637666D01*
X162863761Y-216637666D02*
X162816142Y-216685285D01*
X162816142Y-216685285D02*
X162720904Y-216732904D01*
X162720904Y-216732904D02*
X162530428Y-216732904D01*
X162530428Y-216732904D02*
X162435190Y-216685285D01*
X162435190Y-216685285D02*
X162387571Y-216637666D01*
X162387571Y-216637666D02*
X162339952Y-216542428D01*
%TO.C,K14*%
X137955380Y-170932714D02*
X136955380Y-170932714D01*
X137955380Y-171504142D02*
X137383952Y-171075571D01*
X136955380Y-171504142D02*
X137526809Y-170932714D01*
X137955380Y-172456523D02*
X137955380Y-171885095D01*
X137955380Y-172170809D02*
X136955380Y-172170809D01*
X136955380Y-172170809D02*
X137098238Y-172075571D01*
X137098238Y-172075571D02*
X137193476Y-171980333D01*
X137193476Y-171980333D02*
X137241095Y-171885095D01*
X137288714Y-173313666D02*
X137955380Y-173313666D01*
X136907761Y-173075571D02*
X137622047Y-172837476D01*
X137622047Y-172837476D02*
X137622047Y-173456523D01*
%TO.C,K5*%
X65963380Y-133022905D02*
X64963380Y-133022905D01*
X65963380Y-133594333D02*
X65391952Y-133165762D01*
X64963380Y-133594333D02*
X65534809Y-133022905D01*
X64963380Y-134499095D02*
X64963380Y-134022905D01*
X64963380Y-134022905D02*
X65439571Y-133975286D01*
X65439571Y-133975286D02*
X65391952Y-134022905D01*
X65391952Y-134022905D02*
X65344333Y-134118143D01*
X65344333Y-134118143D02*
X65344333Y-134356238D01*
X65344333Y-134356238D02*
X65391952Y-134451476D01*
X65391952Y-134451476D02*
X65439571Y-134499095D01*
X65439571Y-134499095D02*
X65534809Y-134546714D01*
X65534809Y-134546714D02*
X65772904Y-134546714D01*
X65772904Y-134546714D02*
X65868142Y-134499095D01*
X65868142Y-134499095D02*
X65915761Y-134451476D01*
X65915761Y-134451476D02*
X65963380Y-134356238D01*
X65963380Y-134356238D02*
X65963380Y-134118143D01*
X65963380Y-134118143D02*
X65915761Y-134022905D01*
X65915761Y-134022905D02*
X65868142Y-133975286D01*
%TO.C,K2*%
X91674380Y-98252905D02*
X90674380Y-98252905D01*
X91674380Y-98824333D02*
X91102952Y-98395762D01*
X90674380Y-98824333D02*
X91245809Y-98252905D01*
X90769619Y-99205286D02*
X90722000Y-99252905D01*
X90722000Y-99252905D02*
X90674380Y-99348143D01*
X90674380Y-99348143D02*
X90674380Y-99586238D01*
X90674380Y-99586238D02*
X90722000Y-99681476D01*
X90722000Y-99681476D02*
X90769619Y-99729095D01*
X90769619Y-99729095D02*
X90864857Y-99776714D01*
X90864857Y-99776714D02*
X90960095Y-99776714D01*
X90960095Y-99776714D02*
X91102952Y-99729095D01*
X91102952Y-99729095D02*
X91674380Y-99157667D01*
X91674380Y-99157667D02*
X91674380Y-99776714D01*
%TO.C,R1*%
X185893332Y-54043904D02*
X186159999Y-53662952D01*
X186350475Y-54043904D02*
X186350475Y-53243904D01*
X186350475Y-53243904D02*
X186045713Y-53243904D01*
X186045713Y-53243904D02*
X185969523Y-53282000D01*
X185969523Y-53282000D02*
X185931428Y-53320095D01*
X185931428Y-53320095D02*
X185893332Y-53396285D01*
X185893332Y-53396285D02*
X185893332Y-53510571D01*
X185893332Y-53510571D02*
X185931428Y-53586761D01*
X185931428Y-53586761D02*
X185969523Y-53624857D01*
X185969523Y-53624857D02*
X186045713Y-53662952D01*
X186045713Y-53662952D02*
X186350475Y-53662952D01*
X185131428Y-54043904D02*
X185588571Y-54043904D01*
X185359999Y-54043904D02*
X185359999Y-53243904D01*
X185359999Y-53243904D02*
X185436190Y-53358190D01*
X185436190Y-53358190D02*
X185512380Y-53434380D01*
X185512380Y-53434380D02*
X185588571Y-53472476D01*
%TO.C,U2*%
X232761904Y-59047380D02*
X232761904Y-59856904D01*
X232761904Y-59856904D02*
X232714285Y-59952142D01*
X232714285Y-59952142D02*
X232666666Y-59999761D01*
X232666666Y-59999761D02*
X232571428Y-60047380D01*
X232571428Y-60047380D02*
X232380952Y-60047380D01*
X232380952Y-60047380D02*
X232285714Y-59999761D01*
X232285714Y-59999761D02*
X232238095Y-59952142D01*
X232238095Y-59952142D02*
X232190476Y-59856904D01*
X232190476Y-59856904D02*
X232190476Y-59047380D01*
X231761904Y-59142619D02*
X231714285Y-59095000D01*
X231714285Y-59095000D02*
X231619047Y-59047380D01*
X231619047Y-59047380D02*
X231380952Y-59047380D01*
X231380952Y-59047380D02*
X231285714Y-59095000D01*
X231285714Y-59095000D02*
X231238095Y-59142619D01*
X231238095Y-59142619D02*
X231190476Y-59237857D01*
X231190476Y-59237857D02*
X231190476Y-59333095D01*
X231190476Y-59333095D02*
X231238095Y-59475952D01*
X231238095Y-59475952D02*
X231809523Y-60047380D01*
X231809523Y-60047380D02*
X231190476Y-60047380D01*
%TO.C,C16*%
X229514285Y-74667714D02*
X229552381Y-74705809D01*
X229552381Y-74705809D02*
X229666666Y-74743904D01*
X229666666Y-74743904D02*
X229742857Y-74743904D01*
X229742857Y-74743904D02*
X229857143Y-74705809D01*
X229857143Y-74705809D02*
X229933333Y-74629619D01*
X229933333Y-74629619D02*
X229971428Y-74553428D01*
X229971428Y-74553428D02*
X230009524Y-74401047D01*
X230009524Y-74401047D02*
X230009524Y-74286761D01*
X230009524Y-74286761D02*
X229971428Y-74134380D01*
X229971428Y-74134380D02*
X229933333Y-74058190D01*
X229933333Y-74058190D02*
X229857143Y-73982000D01*
X229857143Y-73982000D02*
X229742857Y-73943904D01*
X229742857Y-73943904D02*
X229666666Y-73943904D01*
X229666666Y-73943904D02*
X229552381Y-73982000D01*
X229552381Y-73982000D02*
X229514285Y-74020095D01*
X228752381Y-74743904D02*
X229209524Y-74743904D01*
X228980952Y-74743904D02*
X228980952Y-73943904D01*
X228980952Y-73943904D02*
X229057143Y-74058190D01*
X229057143Y-74058190D02*
X229133333Y-74134380D01*
X229133333Y-74134380D02*
X229209524Y-74172476D01*
X228066666Y-73943904D02*
X228219047Y-73943904D01*
X228219047Y-73943904D02*
X228295238Y-73982000D01*
X228295238Y-73982000D02*
X228333333Y-74020095D01*
X228333333Y-74020095D02*
X228409523Y-74134380D01*
X228409523Y-74134380D02*
X228447619Y-74286761D01*
X228447619Y-74286761D02*
X228447619Y-74591523D01*
X228447619Y-74591523D02*
X228409523Y-74667714D01*
X228409523Y-74667714D02*
X228371428Y-74705809D01*
X228371428Y-74705809D02*
X228295238Y-74743904D01*
X228295238Y-74743904D02*
X228142857Y-74743904D01*
X228142857Y-74743904D02*
X228066666Y-74705809D01*
X228066666Y-74705809D02*
X228028571Y-74667714D01*
X228028571Y-74667714D02*
X227990476Y-74591523D01*
X227990476Y-74591523D02*
X227990476Y-74401047D01*
X227990476Y-74401047D02*
X228028571Y-74324857D01*
X228028571Y-74324857D02*
X228066666Y-74286761D01*
X228066666Y-74286761D02*
X228142857Y-74248666D01*
X228142857Y-74248666D02*
X228295238Y-74248666D01*
X228295238Y-74248666D02*
X228371428Y-74286761D01*
X228371428Y-74286761D02*
X228409523Y-74324857D01*
X228409523Y-74324857D02*
X228447619Y-74401047D01*
%TO.C,K34*%
X245674380Y-86430714D02*
X244674380Y-86430714D01*
X245674380Y-87002142D02*
X245102952Y-86573571D01*
X244674380Y-87002142D02*
X245245809Y-86430714D01*
X244674380Y-87335476D02*
X244674380Y-87954523D01*
X244674380Y-87954523D02*
X245055333Y-87621190D01*
X245055333Y-87621190D02*
X245055333Y-87764047D01*
X245055333Y-87764047D02*
X245102952Y-87859285D01*
X245102952Y-87859285D02*
X245150571Y-87906904D01*
X245150571Y-87906904D02*
X245245809Y-87954523D01*
X245245809Y-87954523D02*
X245483904Y-87954523D01*
X245483904Y-87954523D02*
X245579142Y-87906904D01*
X245579142Y-87906904D02*
X245626761Y-87859285D01*
X245626761Y-87859285D02*
X245674380Y-87764047D01*
X245674380Y-87764047D02*
X245674380Y-87478333D01*
X245674380Y-87478333D02*
X245626761Y-87383095D01*
X245626761Y-87383095D02*
X245579142Y-87335476D01*
X245007714Y-88811666D02*
X245674380Y-88811666D01*
X244626761Y-88573571D02*
X245341047Y-88335476D01*
X245341047Y-88335476D02*
X245341047Y-88954523D01*
%TO.C,K31*%
X316770380Y-107699714D02*
X315770380Y-107699714D01*
X316770380Y-108271142D02*
X316198952Y-107842571D01*
X315770380Y-108271142D02*
X316341809Y-107699714D01*
X315770380Y-108604476D02*
X315770380Y-109223523D01*
X315770380Y-109223523D02*
X316151333Y-108890190D01*
X316151333Y-108890190D02*
X316151333Y-109033047D01*
X316151333Y-109033047D02*
X316198952Y-109128285D01*
X316198952Y-109128285D02*
X316246571Y-109175904D01*
X316246571Y-109175904D02*
X316341809Y-109223523D01*
X316341809Y-109223523D02*
X316579904Y-109223523D01*
X316579904Y-109223523D02*
X316675142Y-109175904D01*
X316675142Y-109175904D02*
X316722761Y-109128285D01*
X316722761Y-109128285D02*
X316770380Y-109033047D01*
X316770380Y-109033047D02*
X316770380Y-108747333D01*
X316770380Y-108747333D02*
X316722761Y-108652095D01*
X316722761Y-108652095D02*
X316675142Y-108604476D01*
X316770380Y-110175904D02*
X316770380Y-109604476D01*
X316770380Y-109890190D02*
X315770380Y-109890190D01*
X315770380Y-109890190D02*
X315913238Y-109794952D01*
X315913238Y-109794952D02*
X316008476Y-109699714D01*
X316008476Y-109699714D02*
X316056095Y-109604476D01*
%TO.C,K24*%
X251203380Y-136124714D02*
X250203380Y-136124714D01*
X251203380Y-136696142D02*
X250631952Y-136267571D01*
X250203380Y-136696142D02*
X250774809Y-136124714D01*
X250298619Y-137077095D02*
X250251000Y-137124714D01*
X250251000Y-137124714D02*
X250203380Y-137219952D01*
X250203380Y-137219952D02*
X250203380Y-137458047D01*
X250203380Y-137458047D02*
X250251000Y-137553285D01*
X250251000Y-137553285D02*
X250298619Y-137600904D01*
X250298619Y-137600904D02*
X250393857Y-137648523D01*
X250393857Y-137648523D02*
X250489095Y-137648523D01*
X250489095Y-137648523D02*
X250631952Y-137600904D01*
X250631952Y-137600904D02*
X251203380Y-137029476D01*
X251203380Y-137029476D02*
X251203380Y-137648523D01*
X250536714Y-138505666D02*
X251203380Y-138505666D01*
X250155761Y-138267571D02*
X250870047Y-138029476D01*
X250870047Y-138029476D02*
X250870047Y-138648523D01*
%TO.C,R4*%
X230543904Y-53616667D02*
X230162952Y-53350000D01*
X230543904Y-53159524D02*
X229743904Y-53159524D01*
X229743904Y-53159524D02*
X229743904Y-53464286D01*
X229743904Y-53464286D02*
X229782000Y-53540476D01*
X229782000Y-53540476D02*
X229820095Y-53578571D01*
X229820095Y-53578571D02*
X229896285Y-53616667D01*
X229896285Y-53616667D02*
X230010571Y-53616667D01*
X230010571Y-53616667D02*
X230086761Y-53578571D01*
X230086761Y-53578571D02*
X230124857Y-53540476D01*
X230124857Y-53540476D02*
X230162952Y-53464286D01*
X230162952Y-53464286D02*
X230162952Y-53159524D01*
X230010571Y-54302381D02*
X230543904Y-54302381D01*
X229705809Y-54111905D02*
X230277238Y-53921428D01*
X230277238Y-53921428D02*
X230277238Y-54416667D01*
%TO.C,C9*%
X232883332Y-69967714D02*
X232921428Y-70005809D01*
X232921428Y-70005809D02*
X233035713Y-70043904D01*
X233035713Y-70043904D02*
X233111904Y-70043904D01*
X233111904Y-70043904D02*
X233226190Y-70005809D01*
X233226190Y-70005809D02*
X233302380Y-69929619D01*
X233302380Y-69929619D02*
X233340475Y-69853428D01*
X233340475Y-69853428D02*
X233378571Y-69701047D01*
X233378571Y-69701047D02*
X233378571Y-69586761D01*
X233378571Y-69586761D02*
X233340475Y-69434380D01*
X233340475Y-69434380D02*
X233302380Y-69358190D01*
X233302380Y-69358190D02*
X233226190Y-69282000D01*
X233226190Y-69282000D02*
X233111904Y-69243904D01*
X233111904Y-69243904D02*
X233035713Y-69243904D01*
X233035713Y-69243904D02*
X232921428Y-69282000D01*
X232921428Y-69282000D02*
X232883332Y-69320095D01*
X232502380Y-70043904D02*
X232349999Y-70043904D01*
X232349999Y-70043904D02*
X232273809Y-70005809D01*
X232273809Y-70005809D02*
X232235713Y-69967714D01*
X232235713Y-69967714D02*
X232159523Y-69853428D01*
X232159523Y-69853428D02*
X232121428Y-69701047D01*
X232121428Y-69701047D02*
X232121428Y-69396285D01*
X232121428Y-69396285D02*
X232159523Y-69320095D01*
X232159523Y-69320095D02*
X232197618Y-69282000D01*
X232197618Y-69282000D02*
X232273809Y-69243904D01*
X232273809Y-69243904D02*
X232426190Y-69243904D01*
X232426190Y-69243904D02*
X232502380Y-69282000D01*
X232502380Y-69282000D02*
X232540475Y-69320095D01*
X232540475Y-69320095D02*
X232578571Y-69396285D01*
X232578571Y-69396285D02*
X232578571Y-69586761D01*
X232578571Y-69586761D02*
X232540475Y-69662952D01*
X232540475Y-69662952D02*
X232502380Y-69701047D01*
X232502380Y-69701047D02*
X232426190Y-69739142D01*
X232426190Y-69739142D02*
X232273809Y-69739142D01*
X232273809Y-69739142D02*
X232197618Y-69701047D01*
X232197618Y-69701047D02*
X232159523Y-69662952D01*
X232159523Y-69662952D02*
X232121428Y-69586761D01*
%TO.C,K26*%
X296589380Y-122623714D02*
X295589380Y-122623714D01*
X296589380Y-123195142D02*
X296017952Y-122766571D01*
X295589380Y-123195142D02*
X296160809Y-122623714D01*
X295684619Y-123576095D02*
X295637000Y-123623714D01*
X295637000Y-123623714D02*
X295589380Y-123718952D01*
X295589380Y-123718952D02*
X295589380Y-123957047D01*
X295589380Y-123957047D02*
X295637000Y-124052285D01*
X295637000Y-124052285D02*
X295684619Y-124099904D01*
X295684619Y-124099904D02*
X295779857Y-124147523D01*
X295779857Y-124147523D02*
X295875095Y-124147523D01*
X295875095Y-124147523D02*
X296017952Y-124099904D01*
X296017952Y-124099904D02*
X296589380Y-123528476D01*
X296589380Y-123528476D02*
X296589380Y-124147523D01*
X295589380Y-125004666D02*
X295589380Y-124814190D01*
X295589380Y-124814190D02*
X295637000Y-124718952D01*
X295637000Y-124718952D02*
X295684619Y-124671333D01*
X295684619Y-124671333D02*
X295827476Y-124576095D01*
X295827476Y-124576095D02*
X296017952Y-124528476D01*
X296017952Y-124528476D02*
X296398904Y-124528476D01*
X296398904Y-124528476D02*
X296494142Y-124576095D01*
X296494142Y-124576095D02*
X296541761Y-124623714D01*
X296541761Y-124623714D02*
X296589380Y-124718952D01*
X296589380Y-124718952D02*
X296589380Y-124909428D01*
X296589380Y-124909428D02*
X296541761Y-125004666D01*
X296541761Y-125004666D02*
X296494142Y-125052285D01*
X296494142Y-125052285D02*
X296398904Y-125099904D01*
X296398904Y-125099904D02*
X296160809Y-125099904D01*
X296160809Y-125099904D02*
X296065571Y-125052285D01*
X296065571Y-125052285D02*
X296017952Y-125004666D01*
X296017952Y-125004666D02*
X295970333Y-124909428D01*
X295970333Y-124909428D02*
X295970333Y-124718952D01*
X295970333Y-124718952D02*
X296017952Y-124623714D01*
X296017952Y-124623714D02*
X296065571Y-124576095D01*
X296065571Y-124576095D02*
X296160809Y-124528476D01*
%TO.C,K8*%
X134296380Y-136600905D02*
X133296380Y-136600905D01*
X134296380Y-137172333D02*
X133724952Y-136743762D01*
X133296380Y-137172333D02*
X133867809Y-136600905D01*
X133724952Y-137743762D02*
X133677333Y-137648524D01*
X133677333Y-137648524D02*
X133629714Y-137600905D01*
X133629714Y-137600905D02*
X133534476Y-137553286D01*
X133534476Y-137553286D02*
X133486857Y-137553286D01*
X133486857Y-137553286D02*
X133391619Y-137600905D01*
X133391619Y-137600905D02*
X133344000Y-137648524D01*
X133344000Y-137648524D02*
X133296380Y-137743762D01*
X133296380Y-137743762D02*
X133296380Y-137934238D01*
X133296380Y-137934238D02*
X133344000Y-138029476D01*
X133344000Y-138029476D02*
X133391619Y-138077095D01*
X133391619Y-138077095D02*
X133486857Y-138124714D01*
X133486857Y-138124714D02*
X133534476Y-138124714D01*
X133534476Y-138124714D02*
X133629714Y-138077095D01*
X133629714Y-138077095D02*
X133677333Y-138029476D01*
X133677333Y-138029476D02*
X133724952Y-137934238D01*
X133724952Y-137934238D02*
X133724952Y-137743762D01*
X133724952Y-137743762D02*
X133772571Y-137648524D01*
X133772571Y-137648524D02*
X133820190Y-137600905D01*
X133820190Y-137600905D02*
X133915428Y-137553286D01*
X133915428Y-137553286D02*
X134105904Y-137553286D01*
X134105904Y-137553286D02*
X134201142Y-137600905D01*
X134201142Y-137600905D02*
X134248761Y-137648524D01*
X134248761Y-137648524D02*
X134296380Y-137743762D01*
X134296380Y-137743762D02*
X134296380Y-137934238D01*
X134296380Y-137934238D02*
X134248761Y-138029476D01*
X134248761Y-138029476D02*
X134201142Y-138077095D01*
X134201142Y-138077095D02*
X134105904Y-138124714D01*
X134105904Y-138124714D02*
X133915428Y-138124714D01*
X133915428Y-138124714D02*
X133820190Y-138077095D01*
X133820190Y-138077095D02*
X133772571Y-138029476D01*
X133772571Y-138029476D02*
X133724952Y-137934238D01*
%TO.C,C4*%
X232467714Y-53616667D02*
X232505809Y-53578571D01*
X232505809Y-53578571D02*
X232543904Y-53464286D01*
X232543904Y-53464286D02*
X232543904Y-53388095D01*
X232543904Y-53388095D02*
X232505809Y-53273809D01*
X232505809Y-53273809D02*
X232429619Y-53197619D01*
X232429619Y-53197619D02*
X232353428Y-53159524D01*
X232353428Y-53159524D02*
X232201047Y-53121428D01*
X232201047Y-53121428D02*
X232086761Y-53121428D01*
X232086761Y-53121428D02*
X231934380Y-53159524D01*
X231934380Y-53159524D02*
X231858190Y-53197619D01*
X231858190Y-53197619D02*
X231782000Y-53273809D01*
X231782000Y-53273809D02*
X231743904Y-53388095D01*
X231743904Y-53388095D02*
X231743904Y-53464286D01*
X231743904Y-53464286D02*
X231782000Y-53578571D01*
X231782000Y-53578571D02*
X231820095Y-53616667D01*
X232010571Y-54302381D02*
X232543904Y-54302381D01*
X231705809Y-54111905D02*
X232277238Y-53921428D01*
X232277238Y-53921428D02*
X232277238Y-54416667D01*
%TO.C,K23*%
X247544380Y-170932714D02*
X246544380Y-170932714D01*
X247544380Y-171504142D02*
X246972952Y-171075571D01*
X246544380Y-171504142D02*
X247115809Y-170932714D01*
X246639619Y-171885095D02*
X246592000Y-171932714D01*
X246592000Y-171932714D02*
X246544380Y-172027952D01*
X246544380Y-172027952D02*
X246544380Y-172266047D01*
X246544380Y-172266047D02*
X246592000Y-172361285D01*
X246592000Y-172361285D02*
X246639619Y-172408904D01*
X246639619Y-172408904D02*
X246734857Y-172456523D01*
X246734857Y-172456523D02*
X246830095Y-172456523D01*
X246830095Y-172456523D02*
X246972952Y-172408904D01*
X246972952Y-172408904D02*
X247544380Y-171837476D01*
X247544380Y-171837476D02*
X247544380Y-172456523D01*
X246544380Y-172789857D02*
X246544380Y-173408904D01*
X246544380Y-173408904D02*
X246925333Y-173075571D01*
X246925333Y-173075571D02*
X246925333Y-173218428D01*
X246925333Y-173218428D02*
X246972952Y-173313666D01*
X246972952Y-173313666D02*
X247020571Y-173361285D01*
X247020571Y-173361285D02*
X247115809Y-173408904D01*
X247115809Y-173408904D02*
X247353904Y-173408904D01*
X247353904Y-173408904D02*
X247449142Y-173361285D01*
X247449142Y-173361285D02*
X247496761Y-173313666D01*
X247496761Y-173313666D02*
X247544380Y-173218428D01*
X247544380Y-173218428D02*
X247544380Y-172932714D01*
X247544380Y-172932714D02*
X247496761Y-172837476D01*
X247496761Y-172837476D02*
X247449142Y-172789857D01*
%TO.C,C11*%
X222764285Y-60717714D02*
X222802381Y-60755809D01*
X222802381Y-60755809D02*
X222916666Y-60793904D01*
X222916666Y-60793904D02*
X222992857Y-60793904D01*
X222992857Y-60793904D02*
X223107143Y-60755809D01*
X223107143Y-60755809D02*
X223183333Y-60679619D01*
X223183333Y-60679619D02*
X223221428Y-60603428D01*
X223221428Y-60603428D02*
X223259524Y-60451047D01*
X223259524Y-60451047D02*
X223259524Y-60336761D01*
X223259524Y-60336761D02*
X223221428Y-60184380D01*
X223221428Y-60184380D02*
X223183333Y-60108190D01*
X223183333Y-60108190D02*
X223107143Y-60032000D01*
X223107143Y-60032000D02*
X222992857Y-59993904D01*
X222992857Y-59993904D02*
X222916666Y-59993904D01*
X222916666Y-59993904D02*
X222802381Y-60032000D01*
X222802381Y-60032000D02*
X222764285Y-60070095D01*
X222002381Y-60793904D02*
X222459524Y-60793904D01*
X222230952Y-60793904D02*
X222230952Y-59993904D01*
X222230952Y-59993904D02*
X222307143Y-60108190D01*
X222307143Y-60108190D02*
X222383333Y-60184380D01*
X222383333Y-60184380D02*
X222459524Y-60222476D01*
X221240476Y-60793904D02*
X221697619Y-60793904D01*
X221469047Y-60793904D02*
X221469047Y-59993904D01*
X221469047Y-59993904D02*
X221545238Y-60108190D01*
X221545238Y-60108190D02*
X221621428Y-60184380D01*
X221621428Y-60184380D02*
X221697619Y-60222476D01*
%TO.C,K39*%
X211809380Y-62839714D02*
X210809380Y-62839714D01*
X211809380Y-63411142D02*
X211237952Y-62982571D01*
X210809380Y-63411142D02*
X211380809Y-62839714D01*
X210809380Y-63744476D02*
X210809380Y-64363523D01*
X210809380Y-64363523D02*
X211190333Y-64030190D01*
X211190333Y-64030190D02*
X211190333Y-64173047D01*
X211190333Y-64173047D02*
X211237952Y-64268285D01*
X211237952Y-64268285D02*
X211285571Y-64315904D01*
X211285571Y-64315904D02*
X211380809Y-64363523D01*
X211380809Y-64363523D02*
X211618904Y-64363523D01*
X211618904Y-64363523D02*
X211714142Y-64315904D01*
X211714142Y-64315904D02*
X211761761Y-64268285D01*
X211761761Y-64268285D02*
X211809380Y-64173047D01*
X211809380Y-64173047D02*
X211809380Y-63887333D01*
X211809380Y-63887333D02*
X211761761Y-63792095D01*
X211761761Y-63792095D02*
X211714142Y-63744476D01*
X211809380Y-64839714D02*
X211809380Y-65030190D01*
X211809380Y-65030190D02*
X211761761Y-65125428D01*
X211761761Y-65125428D02*
X211714142Y-65173047D01*
X211714142Y-65173047D02*
X211571285Y-65268285D01*
X211571285Y-65268285D02*
X211380809Y-65315904D01*
X211380809Y-65315904D02*
X210999857Y-65315904D01*
X210999857Y-65315904D02*
X210904619Y-65268285D01*
X210904619Y-65268285D02*
X210857000Y-65220666D01*
X210857000Y-65220666D02*
X210809380Y-65125428D01*
X210809380Y-65125428D02*
X210809380Y-64934952D01*
X210809380Y-64934952D02*
X210857000Y-64839714D01*
X210857000Y-64839714D02*
X210904619Y-64792095D01*
X210904619Y-64792095D02*
X210999857Y-64744476D01*
X210999857Y-64744476D02*
X211237952Y-64744476D01*
X211237952Y-64744476D02*
X211333190Y-64792095D01*
X211333190Y-64792095D02*
X211380809Y-64839714D01*
X211380809Y-64839714D02*
X211428428Y-64934952D01*
X211428428Y-64934952D02*
X211428428Y-65125428D01*
X211428428Y-65125428D02*
X211380809Y-65220666D01*
X211380809Y-65220666D02*
X211333190Y-65268285D01*
X211333190Y-65268285D02*
X211237952Y-65315904D01*
%TO.C,R6*%
X245983332Y-52623904D02*
X246249999Y-52242952D01*
X246440475Y-52623904D02*
X246440475Y-51823904D01*
X246440475Y-51823904D02*
X246135713Y-51823904D01*
X246135713Y-51823904D02*
X246059523Y-51862000D01*
X246059523Y-51862000D02*
X246021428Y-51900095D01*
X246021428Y-51900095D02*
X245983332Y-51976285D01*
X245983332Y-51976285D02*
X245983332Y-52090571D01*
X245983332Y-52090571D02*
X246021428Y-52166761D01*
X246021428Y-52166761D02*
X246059523Y-52204857D01*
X246059523Y-52204857D02*
X246135713Y-52242952D01*
X246135713Y-52242952D02*
X246440475Y-52242952D01*
X245297618Y-51823904D02*
X245449999Y-51823904D01*
X245449999Y-51823904D02*
X245526190Y-51862000D01*
X245526190Y-51862000D02*
X245564285Y-51900095D01*
X245564285Y-51900095D02*
X245640475Y-52014380D01*
X245640475Y-52014380D02*
X245678571Y-52166761D01*
X245678571Y-52166761D02*
X245678571Y-52471523D01*
X245678571Y-52471523D02*
X245640475Y-52547714D01*
X245640475Y-52547714D02*
X245602380Y-52585809D01*
X245602380Y-52585809D02*
X245526190Y-52623904D01*
X245526190Y-52623904D02*
X245373809Y-52623904D01*
X245373809Y-52623904D02*
X245297618Y-52585809D01*
X245297618Y-52585809D02*
X245259523Y-52547714D01*
X245259523Y-52547714D02*
X245221428Y-52471523D01*
X245221428Y-52471523D02*
X245221428Y-52281047D01*
X245221428Y-52281047D02*
X245259523Y-52204857D01*
X245259523Y-52204857D02*
X245297618Y-52166761D01*
X245297618Y-52166761D02*
X245373809Y-52128666D01*
X245373809Y-52128666D02*
X245526190Y-52128666D01*
X245526190Y-52128666D02*
X245602380Y-52166761D01*
X245602380Y-52166761D02*
X245640475Y-52204857D01*
X245640475Y-52204857D02*
X245678571Y-52281047D01*
%TO.C,C8*%
X228467714Y-53616667D02*
X228505809Y-53578571D01*
X228505809Y-53578571D02*
X228543904Y-53464286D01*
X228543904Y-53464286D02*
X228543904Y-53388095D01*
X228543904Y-53388095D02*
X228505809Y-53273809D01*
X228505809Y-53273809D02*
X228429619Y-53197619D01*
X228429619Y-53197619D02*
X228353428Y-53159524D01*
X228353428Y-53159524D02*
X228201047Y-53121428D01*
X228201047Y-53121428D02*
X228086761Y-53121428D01*
X228086761Y-53121428D02*
X227934380Y-53159524D01*
X227934380Y-53159524D02*
X227858190Y-53197619D01*
X227858190Y-53197619D02*
X227782000Y-53273809D01*
X227782000Y-53273809D02*
X227743904Y-53388095D01*
X227743904Y-53388095D02*
X227743904Y-53464286D01*
X227743904Y-53464286D02*
X227782000Y-53578571D01*
X227782000Y-53578571D02*
X227820095Y-53616667D01*
X228086761Y-54073809D02*
X228048666Y-53997619D01*
X228048666Y-53997619D02*
X228010571Y-53959524D01*
X228010571Y-53959524D02*
X227934380Y-53921428D01*
X227934380Y-53921428D02*
X227896285Y-53921428D01*
X227896285Y-53921428D02*
X227820095Y-53959524D01*
X227820095Y-53959524D02*
X227782000Y-53997619D01*
X227782000Y-53997619D02*
X227743904Y-54073809D01*
X227743904Y-54073809D02*
X227743904Y-54226190D01*
X227743904Y-54226190D02*
X227782000Y-54302381D01*
X227782000Y-54302381D02*
X227820095Y-54340476D01*
X227820095Y-54340476D02*
X227896285Y-54378571D01*
X227896285Y-54378571D02*
X227934380Y-54378571D01*
X227934380Y-54378571D02*
X228010571Y-54340476D01*
X228010571Y-54340476D02*
X228048666Y-54302381D01*
X228048666Y-54302381D02*
X228086761Y-54226190D01*
X228086761Y-54226190D02*
X228086761Y-54073809D01*
X228086761Y-54073809D02*
X228124857Y-53997619D01*
X228124857Y-53997619D02*
X228162952Y-53959524D01*
X228162952Y-53959524D02*
X228239142Y-53921428D01*
X228239142Y-53921428D02*
X228391523Y-53921428D01*
X228391523Y-53921428D02*
X228467714Y-53959524D01*
X228467714Y-53959524D02*
X228505809Y-53997619D01*
X228505809Y-53997619D02*
X228543904Y-54073809D01*
X228543904Y-54073809D02*
X228543904Y-54226190D01*
X228543904Y-54226190D02*
X228505809Y-54302381D01*
X228505809Y-54302381D02*
X228467714Y-54340476D01*
X228467714Y-54340476D02*
X228391523Y-54378571D01*
X228391523Y-54378571D02*
X228239142Y-54378571D01*
X228239142Y-54378571D02*
X228162952Y-54340476D01*
X228162952Y-54340476D02*
X228124857Y-54302381D01*
X228124857Y-54302381D02*
X228086761Y-54226190D01*
D11*
%TO.C,SW1*%
X237996880Y-72301334D02*
X238020690Y-72372762D01*
X238020690Y-72372762D02*
X238020690Y-72491810D01*
X238020690Y-72491810D02*
X237996880Y-72539429D01*
X237996880Y-72539429D02*
X237973071Y-72563238D01*
X237973071Y-72563238D02*
X237925452Y-72587048D01*
X237925452Y-72587048D02*
X237877833Y-72587048D01*
X237877833Y-72587048D02*
X237830214Y-72563238D01*
X237830214Y-72563238D02*
X237806404Y-72539429D01*
X237806404Y-72539429D02*
X237782595Y-72491810D01*
X237782595Y-72491810D02*
X237758785Y-72396572D01*
X237758785Y-72396572D02*
X237734976Y-72348953D01*
X237734976Y-72348953D02*
X237711166Y-72325143D01*
X237711166Y-72325143D02*
X237663547Y-72301334D01*
X237663547Y-72301334D02*
X237615928Y-72301334D01*
X237615928Y-72301334D02*
X237568309Y-72325143D01*
X237568309Y-72325143D02*
X237544500Y-72348953D01*
X237544500Y-72348953D02*
X237520690Y-72396572D01*
X237520690Y-72396572D02*
X237520690Y-72515619D01*
X237520690Y-72515619D02*
X237544500Y-72587048D01*
X237520690Y-72753714D02*
X238020690Y-72872762D01*
X238020690Y-72872762D02*
X237663547Y-72968000D01*
X237663547Y-72968000D02*
X238020690Y-73063238D01*
X238020690Y-73063238D02*
X237520690Y-73182286D01*
X238020690Y-73634667D02*
X238020690Y-73348953D01*
X238020690Y-73491810D02*
X237520690Y-73491810D01*
X237520690Y-73491810D02*
X237592119Y-73444191D01*
X237592119Y-73444191D02*
X237639738Y-73396572D01*
X237639738Y-73396572D02*
X237663547Y-73348953D01*
D10*
%TO.C,K3*%
X116657380Y-97308905D02*
X115657380Y-97308905D01*
X116657380Y-97880333D02*
X116085952Y-97451762D01*
X115657380Y-97880333D02*
X116228809Y-97308905D01*
X115657380Y-98213667D02*
X115657380Y-98832714D01*
X115657380Y-98832714D02*
X116038333Y-98499381D01*
X116038333Y-98499381D02*
X116038333Y-98642238D01*
X116038333Y-98642238D02*
X116085952Y-98737476D01*
X116085952Y-98737476D02*
X116133571Y-98785095D01*
X116133571Y-98785095D02*
X116228809Y-98832714D01*
X116228809Y-98832714D02*
X116466904Y-98832714D01*
X116466904Y-98832714D02*
X116562142Y-98785095D01*
X116562142Y-98785095D02*
X116609761Y-98737476D01*
X116609761Y-98737476D02*
X116657380Y-98642238D01*
X116657380Y-98642238D02*
X116657380Y-98356524D01*
X116657380Y-98356524D02*
X116609761Y-98261286D01*
X116609761Y-98261286D02*
X116562142Y-98213667D01*
%TO.C,K10*%
X119217380Y-71985714D02*
X118217380Y-71985714D01*
X119217380Y-72557142D02*
X118645952Y-72128571D01*
X118217380Y-72557142D02*
X118788809Y-71985714D01*
X119217380Y-73509523D02*
X119217380Y-72938095D01*
X119217380Y-73223809D02*
X118217380Y-73223809D01*
X118217380Y-73223809D02*
X118360238Y-73128571D01*
X118360238Y-73128571D02*
X118455476Y-73033333D01*
X118455476Y-73033333D02*
X118503095Y-72938095D01*
X118217380Y-74128571D02*
X118217380Y-74223809D01*
X118217380Y-74223809D02*
X118265000Y-74319047D01*
X118265000Y-74319047D02*
X118312619Y-74366666D01*
X118312619Y-74366666D02*
X118407857Y-74414285D01*
X118407857Y-74414285D02*
X118598333Y-74461904D01*
X118598333Y-74461904D02*
X118836428Y-74461904D01*
X118836428Y-74461904D02*
X119026904Y-74414285D01*
X119026904Y-74414285D02*
X119122142Y-74366666D01*
X119122142Y-74366666D02*
X119169761Y-74319047D01*
X119169761Y-74319047D02*
X119217380Y-74223809D01*
X119217380Y-74223809D02*
X119217380Y-74128571D01*
X119217380Y-74128571D02*
X119169761Y-74033333D01*
X119169761Y-74033333D02*
X119122142Y-73985714D01*
X119122142Y-73985714D02*
X119026904Y-73938095D01*
X119026904Y-73938095D02*
X118836428Y-73890476D01*
X118836428Y-73890476D02*
X118598333Y-73890476D01*
X118598333Y-73890476D02*
X118407857Y-73938095D01*
X118407857Y-73938095D02*
X118312619Y-73985714D01*
X118312619Y-73985714D02*
X118265000Y-74033333D01*
X118265000Y-74033333D02*
X118217380Y-74128571D01*
%TO.C,K9*%
X94438380Y-73406905D02*
X93438380Y-73406905D01*
X94438380Y-73978333D02*
X93866952Y-73549762D01*
X93438380Y-73978333D02*
X94009809Y-73406905D01*
X94438380Y-74454524D02*
X94438380Y-74645000D01*
X94438380Y-74645000D02*
X94390761Y-74740238D01*
X94390761Y-74740238D02*
X94343142Y-74787857D01*
X94343142Y-74787857D02*
X94200285Y-74883095D01*
X94200285Y-74883095D02*
X94009809Y-74930714D01*
X94009809Y-74930714D02*
X93628857Y-74930714D01*
X93628857Y-74930714D02*
X93533619Y-74883095D01*
X93533619Y-74883095D02*
X93486000Y-74835476D01*
X93486000Y-74835476D02*
X93438380Y-74740238D01*
X93438380Y-74740238D02*
X93438380Y-74549762D01*
X93438380Y-74549762D02*
X93486000Y-74454524D01*
X93486000Y-74454524D02*
X93533619Y-74406905D01*
X93533619Y-74406905D02*
X93628857Y-74359286D01*
X93628857Y-74359286D02*
X93866952Y-74359286D01*
X93866952Y-74359286D02*
X93962190Y-74406905D01*
X93962190Y-74406905D02*
X94009809Y-74454524D01*
X94009809Y-74454524D02*
X94057428Y-74549762D01*
X94057428Y-74549762D02*
X94057428Y-74740238D01*
X94057428Y-74740238D02*
X94009809Y-74835476D01*
X94009809Y-74835476D02*
X93962190Y-74883095D01*
X93962190Y-74883095D02*
X93866952Y-74930714D01*
%TO.C,K17*%
X175250380Y-192700714D02*
X174250380Y-192700714D01*
X175250380Y-193272142D02*
X174678952Y-192843571D01*
X174250380Y-193272142D02*
X174821809Y-192700714D01*
X175250380Y-194224523D02*
X175250380Y-193653095D01*
X175250380Y-193938809D02*
X174250380Y-193938809D01*
X174250380Y-193938809D02*
X174393238Y-193843571D01*
X174393238Y-193843571D02*
X174488476Y-193748333D01*
X174488476Y-193748333D02*
X174536095Y-193653095D01*
X174250380Y-194557857D02*
X174250380Y-195224523D01*
X174250380Y-195224523D02*
X175250380Y-194795952D01*
%TO.C,D43*%
X206571428Y-51493904D02*
X206571428Y-50693904D01*
X206571428Y-50693904D02*
X206380952Y-50693904D01*
X206380952Y-50693904D02*
X206266666Y-50732000D01*
X206266666Y-50732000D02*
X206190476Y-50808190D01*
X206190476Y-50808190D02*
X206152381Y-50884380D01*
X206152381Y-50884380D02*
X206114285Y-51036761D01*
X206114285Y-51036761D02*
X206114285Y-51151047D01*
X206114285Y-51151047D02*
X206152381Y-51303428D01*
X206152381Y-51303428D02*
X206190476Y-51379619D01*
X206190476Y-51379619D02*
X206266666Y-51455809D01*
X206266666Y-51455809D02*
X206380952Y-51493904D01*
X206380952Y-51493904D02*
X206571428Y-51493904D01*
X205428571Y-50960571D02*
X205428571Y-51493904D01*
X205619047Y-50655809D02*
X205809524Y-51227238D01*
X205809524Y-51227238D02*
X205314285Y-51227238D01*
X205085714Y-50693904D02*
X204590476Y-50693904D01*
X204590476Y-50693904D02*
X204857142Y-50998666D01*
X204857142Y-50998666D02*
X204742857Y-50998666D01*
X204742857Y-50998666D02*
X204666666Y-51036761D01*
X204666666Y-51036761D02*
X204628571Y-51074857D01*
X204628571Y-51074857D02*
X204590476Y-51151047D01*
X204590476Y-51151047D02*
X204590476Y-51341523D01*
X204590476Y-51341523D02*
X204628571Y-51417714D01*
X204628571Y-51417714D02*
X204666666Y-51455809D01*
X204666666Y-51455809D02*
X204742857Y-51493904D01*
X204742857Y-51493904D02*
X204971428Y-51493904D01*
X204971428Y-51493904D02*
X205047619Y-51455809D01*
X205047619Y-51455809D02*
X205085714Y-51417714D01*
%TO.C,U5*%
X217261904Y-54717380D02*
X217261904Y-55526904D01*
X217261904Y-55526904D02*
X217214285Y-55622142D01*
X217214285Y-55622142D02*
X217166666Y-55669761D01*
X217166666Y-55669761D02*
X217071428Y-55717380D01*
X217071428Y-55717380D02*
X216880952Y-55717380D01*
X216880952Y-55717380D02*
X216785714Y-55669761D01*
X216785714Y-55669761D02*
X216738095Y-55622142D01*
X216738095Y-55622142D02*
X216690476Y-55526904D01*
X216690476Y-55526904D02*
X216690476Y-54717380D01*
X215738095Y-54717380D02*
X216214285Y-54717380D01*
X216214285Y-54717380D02*
X216261904Y-55193571D01*
X216261904Y-55193571D02*
X216214285Y-55145952D01*
X216214285Y-55145952D02*
X216119047Y-55098333D01*
X216119047Y-55098333D02*
X215880952Y-55098333D01*
X215880952Y-55098333D02*
X215785714Y-55145952D01*
X215785714Y-55145952D02*
X215738095Y-55193571D01*
X215738095Y-55193571D02*
X215690476Y-55288809D01*
X215690476Y-55288809D02*
X215690476Y-55526904D01*
X215690476Y-55526904D02*
X215738095Y-55622142D01*
X215738095Y-55622142D02*
X215785714Y-55669761D01*
X215785714Y-55669761D02*
X215880952Y-55717380D01*
X215880952Y-55717380D02*
X216119047Y-55717380D01*
X216119047Y-55717380D02*
X216214285Y-55669761D01*
X216214285Y-55669761D02*
X216261904Y-55622142D01*
%TO.C,C2*%
X229467714Y-53616667D02*
X229505809Y-53578571D01*
X229505809Y-53578571D02*
X229543904Y-53464286D01*
X229543904Y-53464286D02*
X229543904Y-53388095D01*
X229543904Y-53388095D02*
X229505809Y-53273809D01*
X229505809Y-53273809D02*
X229429619Y-53197619D01*
X229429619Y-53197619D02*
X229353428Y-53159524D01*
X229353428Y-53159524D02*
X229201047Y-53121428D01*
X229201047Y-53121428D02*
X229086761Y-53121428D01*
X229086761Y-53121428D02*
X228934380Y-53159524D01*
X228934380Y-53159524D02*
X228858190Y-53197619D01*
X228858190Y-53197619D02*
X228782000Y-53273809D01*
X228782000Y-53273809D02*
X228743904Y-53388095D01*
X228743904Y-53388095D02*
X228743904Y-53464286D01*
X228743904Y-53464286D02*
X228782000Y-53578571D01*
X228782000Y-53578571D02*
X228820095Y-53616667D01*
X228820095Y-53921428D02*
X228782000Y-53959524D01*
X228782000Y-53959524D02*
X228743904Y-54035714D01*
X228743904Y-54035714D02*
X228743904Y-54226190D01*
X228743904Y-54226190D02*
X228782000Y-54302381D01*
X228782000Y-54302381D02*
X228820095Y-54340476D01*
X228820095Y-54340476D02*
X228896285Y-54378571D01*
X228896285Y-54378571D02*
X228972476Y-54378571D01*
X228972476Y-54378571D02*
X229086761Y-54340476D01*
X229086761Y-54340476D02*
X229543904Y-53883333D01*
X229543904Y-53883333D02*
X229543904Y-54378571D01*
%TO.C,K32*%
X291060380Y-72930714D02*
X290060380Y-72930714D01*
X291060380Y-73502142D02*
X290488952Y-73073571D01*
X290060380Y-73502142D02*
X290631809Y-72930714D01*
X290060380Y-73835476D02*
X290060380Y-74454523D01*
X290060380Y-74454523D02*
X290441333Y-74121190D01*
X290441333Y-74121190D02*
X290441333Y-74264047D01*
X290441333Y-74264047D02*
X290488952Y-74359285D01*
X290488952Y-74359285D02*
X290536571Y-74406904D01*
X290536571Y-74406904D02*
X290631809Y-74454523D01*
X290631809Y-74454523D02*
X290869904Y-74454523D01*
X290869904Y-74454523D02*
X290965142Y-74406904D01*
X290965142Y-74406904D02*
X291012761Y-74359285D01*
X291012761Y-74359285D02*
X291060380Y-74264047D01*
X291060380Y-74264047D02*
X291060380Y-73978333D01*
X291060380Y-73978333D02*
X291012761Y-73883095D01*
X291012761Y-73883095D02*
X290965142Y-73835476D01*
X290155619Y-74835476D02*
X290108000Y-74883095D01*
X290108000Y-74883095D02*
X290060380Y-74978333D01*
X290060380Y-74978333D02*
X290060380Y-75216428D01*
X290060380Y-75216428D02*
X290108000Y-75311666D01*
X290108000Y-75311666D02*
X290155619Y-75359285D01*
X290155619Y-75359285D02*
X290250857Y-75406904D01*
X290250857Y-75406904D02*
X290346095Y-75406904D01*
X290346095Y-75406904D02*
X290488952Y-75359285D01*
X290488952Y-75359285D02*
X291060380Y-74787857D01*
X291060380Y-74787857D02*
X291060380Y-75406904D01*
%TO.C,K38*%
X192767380Y-62839714D02*
X191767380Y-62839714D01*
X192767380Y-63411142D02*
X192195952Y-62982571D01*
X191767380Y-63411142D02*
X192338809Y-62839714D01*
X191767380Y-63744476D02*
X191767380Y-64363523D01*
X191767380Y-64363523D02*
X192148333Y-64030190D01*
X192148333Y-64030190D02*
X192148333Y-64173047D01*
X192148333Y-64173047D02*
X192195952Y-64268285D01*
X192195952Y-64268285D02*
X192243571Y-64315904D01*
X192243571Y-64315904D02*
X192338809Y-64363523D01*
X192338809Y-64363523D02*
X192576904Y-64363523D01*
X192576904Y-64363523D02*
X192672142Y-64315904D01*
X192672142Y-64315904D02*
X192719761Y-64268285D01*
X192719761Y-64268285D02*
X192767380Y-64173047D01*
X192767380Y-64173047D02*
X192767380Y-63887333D01*
X192767380Y-63887333D02*
X192719761Y-63792095D01*
X192719761Y-63792095D02*
X192672142Y-63744476D01*
X192195952Y-64934952D02*
X192148333Y-64839714D01*
X192148333Y-64839714D02*
X192100714Y-64792095D01*
X192100714Y-64792095D02*
X192005476Y-64744476D01*
X192005476Y-64744476D02*
X191957857Y-64744476D01*
X191957857Y-64744476D02*
X191862619Y-64792095D01*
X191862619Y-64792095D02*
X191815000Y-64839714D01*
X191815000Y-64839714D02*
X191767380Y-64934952D01*
X191767380Y-64934952D02*
X191767380Y-65125428D01*
X191767380Y-65125428D02*
X191815000Y-65220666D01*
X191815000Y-65220666D02*
X191862619Y-65268285D01*
X191862619Y-65268285D02*
X191957857Y-65315904D01*
X191957857Y-65315904D02*
X192005476Y-65315904D01*
X192005476Y-65315904D02*
X192100714Y-65268285D01*
X192100714Y-65268285D02*
X192148333Y-65220666D01*
X192148333Y-65220666D02*
X192195952Y-65125428D01*
X192195952Y-65125428D02*
X192195952Y-64934952D01*
X192195952Y-64934952D02*
X192243571Y-64839714D01*
X192243571Y-64839714D02*
X192291190Y-64792095D01*
X192291190Y-64792095D02*
X192386428Y-64744476D01*
X192386428Y-64744476D02*
X192576904Y-64744476D01*
X192576904Y-64744476D02*
X192672142Y-64792095D01*
X192672142Y-64792095D02*
X192719761Y-64839714D01*
X192719761Y-64839714D02*
X192767380Y-64934952D01*
X192767380Y-64934952D02*
X192767380Y-65125428D01*
X192767380Y-65125428D02*
X192719761Y-65220666D01*
X192719761Y-65220666D02*
X192672142Y-65268285D01*
X192672142Y-65268285D02*
X192576904Y-65315904D01*
X192576904Y-65315904D02*
X192386428Y-65315904D01*
X192386428Y-65315904D02*
X192291190Y-65268285D01*
X192291190Y-65268285D02*
X192243571Y-65220666D01*
X192243571Y-65220666D02*
X192195952Y-65125428D01*
%TO.C,K30*%
X293824380Y-97776714D02*
X292824380Y-97776714D01*
X293824380Y-98348142D02*
X293252952Y-97919571D01*
X292824380Y-98348142D02*
X293395809Y-97776714D01*
X292824380Y-98681476D02*
X292824380Y-99300523D01*
X292824380Y-99300523D02*
X293205333Y-98967190D01*
X293205333Y-98967190D02*
X293205333Y-99110047D01*
X293205333Y-99110047D02*
X293252952Y-99205285D01*
X293252952Y-99205285D02*
X293300571Y-99252904D01*
X293300571Y-99252904D02*
X293395809Y-99300523D01*
X293395809Y-99300523D02*
X293633904Y-99300523D01*
X293633904Y-99300523D02*
X293729142Y-99252904D01*
X293729142Y-99252904D02*
X293776761Y-99205285D01*
X293776761Y-99205285D02*
X293824380Y-99110047D01*
X293824380Y-99110047D02*
X293824380Y-98824333D01*
X293824380Y-98824333D02*
X293776761Y-98729095D01*
X293776761Y-98729095D02*
X293729142Y-98681476D01*
X292824380Y-99919571D02*
X292824380Y-100014809D01*
X292824380Y-100014809D02*
X292872000Y-100110047D01*
X292872000Y-100110047D02*
X292919619Y-100157666D01*
X292919619Y-100157666D02*
X293014857Y-100205285D01*
X293014857Y-100205285D02*
X293205333Y-100252904D01*
X293205333Y-100252904D02*
X293443428Y-100252904D01*
X293443428Y-100252904D02*
X293633904Y-100205285D01*
X293633904Y-100205285D02*
X293729142Y-100157666D01*
X293729142Y-100157666D02*
X293776761Y-100110047D01*
X293776761Y-100110047D02*
X293824380Y-100014809D01*
X293824380Y-100014809D02*
X293824380Y-99919571D01*
X293824380Y-99919571D02*
X293776761Y-99824333D01*
X293776761Y-99824333D02*
X293729142Y-99776714D01*
X293729142Y-99776714D02*
X293633904Y-99729095D01*
X293633904Y-99729095D02*
X293443428Y-99681476D01*
X293443428Y-99681476D02*
X293205333Y-99681476D01*
X293205333Y-99681476D02*
X293014857Y-99729095D01*
X293014857Y-99729095D02*
X292919619Y-99776714D01*
X292919619Y-99776714D02*
X292872000Y-99824333D01*
X292872000Y-99824333D02*
X292824380Y-99919571D01*
%TO.C,K16*%
X150250380Y-192700714D02*
X149250380Y-192700714D01*
X150250380Y-193272142D02*
X149678952Y-192843571D01*
X149250380Y-193272142D02*
X149821809Y-192700714D01*
X150250380Y-194224523D02*
X150250380Y-193653095D01*
X150250380Y-193938809D02*
X149250380Y-193938809D01*
X149250380Y-193938809D02*
X149393238Y-193843571D01*
X149393238Y-193843571D02*
X149488476Y-193748333D01*
X149488476Y-193748333D02*
X149536095Y-193653095D01*
X149250380Y-195081666D02*
X149250380Y-194891190D01*
X149250380Y-194891190D02*
X149298000Y-194795952D01*
X149298000Y-194795952D02*
X149345619Y-194748333D01*
X149345619Y-194748333D02*
X149488476Y-194653095D01*
X149488476Y-194653095D02*
X149678952Y-194605476D01*
X149678952Y-194605476D02*
X150059904Y-194605476D01*
X150059904Y-194605476D02*
X150155142Y-194653095D01*
X150155142Y-194653095D02*
X150202761Y-194700714D01*
X150202761Y-194700714D02*
X150250380Y-194795952D01*
X150250380Y-194795952D02*
X150250380Y-194986428D01*
X150250380Y-194986428D02*
X150202761Y-195081666D01*
X150202761Y-195081666D02*
X150155142Y-195129285D01*
X150155142Y-195129285D02*
X150059904Y-195176904D01*
X150059904Y-195176904D02*
X149821809Y-195176904D01*
X149821809Y-195176904D02*
X149726571Y-195129285D01*
X149726571Y-195129285D02*
X149678952Y-195081666D01*
X149678952Y-195081666D02*
X149631333Y-194986428D01*
X149631333Y-194986428D02*
X149631333Y-194795952D01*
X149631333Y-194795952D02*
X149678952Y-194700714D01*
X149678952Y-194700714D02*
X149726571Y-194653095D01*
X149726571Y-194653095D02*
X149821809Y-194605476D01*
%TO.C,K1*%
X68728380Y-108175905D02*
X67728380Y-108175905D01*
X68728380Y-108747333D02*
X68156952Y-108318762D01*
X67728380Y-108747333D02*
X68299809Y-108175905D01*
X68728380Y-109699714D02*
X68728380Y-109128286D01*
X68728380Y-109414000D02*
X67728380Y-109414000D01*
X67728380Y-109414000D02*
X67871238Y-109318762D01*
X67871238Y-109318762D02*
X67966476Y-109223524D01*
X67966476Y-109223524D02*
X68014095Y-109128286D01*
%TO.C,K13*%
X157656380Y-127218714D02*
X156656380Y-127218714D01*
X157656380Y-127790142D02*
X157084952Y-127361571D01*
X156656380Y-127790142D02*
X157227809Y-127218714D01*
X157656380Y-128742523D02*
X157656380Y-128171095D01*
X157656380Y-128456809D02*
X156656380Y-128456809D01*
X156656380Y-128456809D02*
X156799238Y-128361571D01*
X156799238Y-128361571D02*
X156894476Y-128266333D01*
X156894476Y-128266333D02*
X156942095Y-128171095D01*
X156656380Y-129075857D02*
X156656380Y-129694904D01*
X156656380Y-129694904D02*
X157037333Y-129361571D01*
X157037333Y-129361571D02*
X157037333Y-129504428D01*
X157037333Y-129504428D02*
X157084952Y-129599666D01*
X157084952Y-129599666D02*
X157132571Y-129647285D01*
X157132571Y-129647285D02*
X157227809Y-129694904D01*
X157227809Y-129694904D02*
X157465904Y-129694904D01*
X157465904Y-129694904D02*
X157561142Y-129647285D01*
X157561142Y-129647285D02*
X157608761Y-129599666D01*
X157608761Y-129599666D02*
X157656380Y-129504428D01*
X157656380Y-129504428D02*
X157656380Y-129218714D01*
X157656380Y-129218714D02*
X157608761Y-129123476D01*
X157608761Y-129123476D02*
X157561142Y-129075857D01*
D11*
%TO.C,C1*%
X232890000Y-57307836D02*
X232890000Y-57092164D01*
X233610000Y-57307836D02*
X233610000Y-57092164D01*
%TO.C,C15*%
X234057836Y-72060000D02*
X233842164Y-72060000D01*
X234057836Y-71340000D02*
X233842164Y-71340000D01*
D10*
%TO.C,AM2*%
X194325000Y-115125000D02*
X194025000Y-115125000D01*
X194325000Y-115125000D02*
X194325000Y-120875000D01*
X185900000Y-115125000D02*
X185900000Y-113525000D01*
X185675000Y-115125000D02*
X185900000Y-115125000D01*
X185675000Y-115125000D02*
X185675000Y-120875000D01*
X194325000Y-120875000D02*
X194025000Y-120875000D01*
X185675000Y-120875000D02*
X185975000Y-120875000D01*
D11*
%TO.C,C5*%
X237142164Y-60740000D02*
X237357836Y-60740000D01*
X237142164Y-61460000D02*
X237357836Y-61460000D01*
%TO.C,K40*%
X169399000Y-82948000D02*
X169399000Y-83598000D01*
X169399000Y-82948000D02*
X169399000Y-82298000D01*
X172519000Y-82948000D02*
X172519000Y-84623000D01*
X172519000Y-82948000D02*
X172519000Y-82298000D01*
%TO.C,K36*%
X223516000Y-128433000D02*
X223516000Y-129083000D01*
X223516000Y-128433000D02*
X223516000Y-127783000D01*
X226636000Y-128433000D02*
X226636000Y-130108000D01*
X226636000Y-128433000D02*
X226636000Y-127783000D01*
%TO.C,Y1*%
X234750000Y-72350000D02*
X234750000Y-76350000D01*
X231450000Y-72350000D02*
X234750000Y-72350000D01*
%TO.C,K6*%
X84582000Y-123838000D02*
X84582000Y-124488000D01*
X84582000Y-123838000D02*
X84582000Y-123188000D01*
X87702000Y-123838000D02*
X87702000Y-125513000D01*
X87702000Y-123838000D02*
X87702000Y-123188000D01*
D10*
%TO.C,AM1*%
X164325000Y-148125000D02*
X164025000Y-148125000D01*
X164325000Y-148125000D02*
X164325000Y-153875000D01*
X155900000Y-148125000D02*
X155900000Y-146525000D01*
X155675000Y-148125000D02*
X155900000Y-148125000D01*
X155675000Y-148125000D02*
X155675000Y-153875000D01*
X164325000Y-153875000D02*
X164025000Y-153875000D01*
X155675000Y-153875000D02*
X155975000Y-153875000D01*
D11*
%TO.C,K28*%
X244111000Y-112492000D02*
X244111000Y-113142000D01*
X244111000Y-112492000D02*
X244111000Y-111842000D01*
X247231000Y-112492000D02*
X247231000Y-114167000D01*
X247231000Y-112492000D02*
X247231000Y-111842000D01*
%TO.C,K33*%
X261954000Y-73200000D02*
X261954000Y-73850000D01*
X261954000Y-73200000D02*
X261954000Y-72550000D01*
X265074000Y-73200000D02*
X265074000Y-74875000D01*
X265074000Y-73200000D02*
X265074000Y-72550000D01*
%TO.C,K12*%
X156094000Y-103586000D02*
X156094000Y-104236000D01*
X156094000Y-103586000D02*
X156094000Y-102936000D01*
X159214000Y-103586000D02*
X159214000Y-105261000D01*
X159214000Y-103586000D02*
X159214000Y-102936000D01*
%TO.C,U6*%
X242525000Y-58125000D02*
X242525000Y-57865000D01*
X242525000Y-52935000D02*
X244200000Y-52935000D01*
X242525000Y-52675000D02*
X242525000Y-52935000D01*
X239800000Y-58125000D02*
X242525000Y-58125000D01*
X239800000Y-58125000D02*
X237075000Y-58125000D01*
X239800000Y-52675000D02*
X242525000Y-52675000D01*
X239800000Y-52675000D02*
X237075000Y-52675000D01*
X237075000Y-58125000D02*
X237075000Y-57865000D01*
X237075000Y-52675000D02*
X237075000Y-52935000D01*
%TO.C,C6*%
X226857836Y-65860000D02*
X226642164Y-65860000D01*
X226857836Y-65140000D02*
X226642164Y-65140000D01*
%TO.C,K35*%
X220751000Y-103586000D02*
X220751000Y-104236000D01*
X220751000Y-103586000D02*
X220751000Y-102936000D01*
X223871000Y-103586000D02*
X223871000Y-105261000D01*
X223871000Y-103586000D02*
X223871000Y-102936000D01*
%TO.C,K25*%
X267280000Y-122893000D02*
X267280000Y-123543000D01*
X267280000Y-122893000D02*
X267280000Y-122243000D01*
X270400000Y-122893000D02*
X270400000Y-124568000D01*
X270400000Y-122893000D02*
X270400000Y-122243000D01*
%TO.C,C3*%
X230760000Y-70292164D02*
X230760000Y-70507836D01*
X230040000Y-70292164D02*
X230040000Y-70507836D01*
D12*
%TO.C,SW2*%
X250550000Y-70450000D02*
X250550000Y-75550000D01*
X247000000Y-70450000D02*
X249000000Y-70450000D01*
X245450000Y-70450000D02*
X245450000Y-75550000D01*
X247000000Y-75550000D02*
X249000000Y-75550000D01*
D11*
%TO.C,R3*%
X231530000Y-57646359D02*
X231530000Y-57953641D01*
X230770000Y-57646359D02*
X230770000Y-57953641D01*
%TO.C,K19*%
X205922000Y-193915000D02*
X205922000Y-194565000D01*
X205922000Y-193915000D02*
X205922000Y-193265000D01*
X209042000Y-193915000D02*
X209042000Y-195590000D01*
X209042000Y-193915000D02*
X209042000Y-193265000D01*
%TO.C,K4*%
X132734000Y-112492000D02*
X132734000Y-113142000D01*
X132734000Y-112492000D02*
X132734000Y-111842000D01*
X135854000Y-112492000D02*
X135854000Y-114167000D01*
X135854000Y-112492000D02*
X135854000Y-111842000D01*
%TO.C,R5*%
X242580000Y-60546359D02*
X242580000Y-60853641D01*
X241820000Y-60546359D02*
X241820000Y-60853641D01*
%TO.C,K20*%
X218260000Y-215471000D02*
X218260000Y-216121000D01*
X218260000Y-215471000D02*
X218260000Y-214821000D01*
X221380000Y-215471000D02*
X221380000Y-217146000D01*
X221380000Y-215471000D02*
X221380000Y-214821000D01*
%TO.C,C14*%
X236207836Y-52260000D02*
X235992164Y-52260000D01*
X236207836Y-51540000D02*
X235992164Y-51540000D01*
%TO.C,C10*%
X226857836Y-61910000D02*
X226642164Y-61910000D01*
X226857836Y-61190000D02*
X226642164Y-61190000D01*
%TO.C,C12*%
X213590000Y-53607836D02*
X213590000Y-53392164D01*
X214310000Y-53607836D02*
X214310000Y-53392164D01*
%TO.C,K11*%
X135498000Y-87645000D02*
X135498000Y-88295000D01*
X135498000Y-87645000D02*
X135498000Y-86995000D01*
X138618000Y-87645000D02*
X138618000Y-89320000D01*
X138618000Y-87645000D02*
X138618000Y-86995000D01*
%TO.C,R2*%
X184163641Y-53130000D02*
X183856359Y-53130000D01*
X184163641Y-52370000D02*
X183856359Y-52370000D01*
D10*
%TO.C,AM3*%
X224325000Y-148125000D02*
X224025000Y-148125000D01*
X224325000Y-148125000D02*
X224325000Y-153875000D01*
X215900000Y-148125000D02*
X215900000Y-146525000D01*
X215675000Y-148125000D02*
X215900000Y-148125000D01*
X215675000Y-148125000D02*
X215675000Y-153875000D01*
X224325000Y-153875000D02*
X224025000Y-153875000D01*
X215675000Y-153875000D02*
X215975000Y-153875000D01*
D11*
%TO.C,K37*%
X169399000Y-64054000D02*
X169399000Y-64704000D01*
X169399000Y-64054000D02*
X169399000Y-63404000D01*
X172519000Y-64054000D02*
X172519000Y-65729000D01*
X172519000Y-64054000D02*
X172519000Y-63404000D01*
%TO.C,K21*%
X230922000Y-193915000D02*
X230922000Y-194565000D01*
X230922000Y-193915000D02*
X230922000Y-193265000D01*
X234042000Y-193915000D02*
X234042000Y-195590000D01*
X234042000Y-193915000D02*
X234042000Y-193265000D01*
%TO.C,C13*%
X218690000Y-53587836D02*
X218690000Y-53372164D01*
X219410000Y-53587836D02*
X219410000Y-53372164D01*
%TO.C,K15*%
X158628000Y-172147000D02*
X158628000Y-172797000D01*
X158628000Y-172147000D02*
X158628000Y-171497000D01*
X161748000Y-172147000D02*
X161748000Y-173822000D01*
X161748000Y-172147000D02*
X161748000Y-171497000D01*
%TO.C,C7*%
X237242164Y-65140000D02*
X237457836Y-65140000D01*
X237242164Y-65860000D02*
X237457836Y-65860000D01*
%TO.C,K41*%
X188440000Y-82948000D02*
X188440000Y-83598000D01*
X188440000Y-82948000D02*
X188440000Y-82298000D01*
X191560000Y-82948000D02*
X191560000Y-84623000D01*
X191560000Y-82948000D02*
X191560000Y-82298000D01*
%TO.C,R7*%
X232070000Y-71403641D02*
X232070000Y-71096359D01*
X232830000Y-71403641D02*
X232830000Y-71096359D01*
%TO.C,K7*%
X109565000Y-122893000D02*
X109565000Y-123543000D01*
X109565000Y-122893000D02*
X109565000Y-122243000D01*
X112685000Y-122893000D02*
X112685000Y-124568000D01*
X112685000Y-122893000D02*
X112685000Y-122243000D01*
%TO.C,K27*%
X315208000Y-133761000D02*
X315208000Y-134411000D01*
X315208000Y-133761000D02*
X315208000Y-133111000D01*
X318328000Y-133761000D02*
X318328000Y-135436000D01*
X318328000Y-133761000D02*
X318328000Y-133111000D01*
%TO.C,K42*%
X207482000Y-82948000D02*
X207482000Y-83598000D01*
X207482000Y-82948000D02*
X207482000Y-82298000D01*
X210602000Y-82948000D02*
X210602000Y-84623000D01*
X210602000Y-82948000D02*
X210602000Y-82298000D01*
%TO.C,K22*%
X218217000Y-172147000D02*
X218217000Y-172797000D01*
X218217000Y-172147000D02*
X218217000Y-171497000D01*
X221337000Y-172147000D02*
X221337000Y-173822000D01*
X221337000Y-172147000D02*
X221337000Y-171497000D01*
%TO.C,K29*%
X264515000Y-98047000D02*
X264515000Y-98697000D01*
X264515000Y-98047000D02*
X264515000Y-97397000D01*
X267635000Y-98047000D02*
X267635000Y-99722000D01*
X267635000Y-98047000D02*
X267635000Y-97397000D01*
%TO.C,K18*%
X158584000Y-215471000D02*
X158584000Y-216121000D01*
X158584000Y-215471000D02*
X158584000Y-214821000D01*
X161704000Y-215471000D02*
X161704000Y-217146000D01*
X161704000Y-215471000D02*
X161704000Y-214821000D01*
%TO.C,K14*%
X133628000Y-172147000D02*
X133628000Y-172797000D01*
X133628000Y-172147000D02*
X133628000Y-171497000D01*
X136748000Y-172147000D02*
X136748000Y-173822000D01*
X136748000Y-172147000D02*
X136748000Y-171497000D01*
%TO.C,K5*%
X61636000Y-133761000D02*
X61636000Y-134411000D01*
X61636000Y-133761000D02*
X61636000Y-133111000D01*
X64756000Y-133761000D02*
X64756000Y-135436000D01*
X64756000Y-133761000D02*
X64756000Y-133111000D01*
%TO.C,K2*%
X87347000Y-98991000D02*
X87347000Y-99641000D01*
X87347000Y-98991000D02*
X87347000Y-98341000D01*
X90467000Y-98991000D02*
X90467000Y-100666000D01*
X90467000Y-98991000D02*
X90467000Y-98341000D01*
%TO.C,R1*%
X184153641Y-54130000D02*
X183846359Y-54130000D01*
X184153641Y-53370000D02*
X183846359Y-53370000D01*
%TO.C,U2*%
X235610000Y-68110000D02*
X235610000Y-67460000D01*
X234960000Y-68110000D02*
X235610000Y-68110000D01*
X234960000Y-60890000D02*
X235610000Y-60890000D01*
X229040000Y-68110000D02*
X228390000Y-68110000D01*
X229040000Y-60890000D02*
X228390000Y-60890000D01*
X228390000Y-68110000D02*
X228390000Y-67460000D01*
X228390000Y-60890000D02*
X228390000Y-61540000D01*
%TO.C,C16*%
X231110000Y-74242164D02*
X231110000Y-74457836D01*
X230390000Y-74242164D02*
X230390000Y-74457836D01*
%TO.C,K34*%
X241347000Y-87645000D02*
X241347000Y-88295000D01*
X241347000Y-87645000D02*
X241347000Y-86995000D01*
X244467000Y-87645000D02*
X244467000Y-89320000D01*
X244467000Y-87645000D02*
X244467000Y-86995000D01*
%TO.C,K31*%
X312443000Y-108914000D02*
X312443000Y-109564000D01*
X312443000Y-108914000D02*
X312443000Y-108264000D01*
X315563000Y-108914000D02*
X315563000Y-110589000D01*
X315563000Y-108914000D02*
X315563000Y-108264000D01*
%TO.C,K24*%
X246876000Y-137339000D02*
X246876000Y-137989000D01*
X246876000Y-137339000D02*
X246876000Y-136689000D01*
X249996000Y-137339000D02*
X249996000Y-139014000D01*
X249996000Y-137339000D02*
X249996000Y-136689000D01*
%TO.C,R4*%
X230450000Y-57646359D02*
X230450000Y-57953641D01*
X229690000Y-57646359D02*
X229690000Y-57953641D01*
%TO.C,C9*%
X231790000Y-70292164D02*
X231790000Y-70507836D01*
X231070000Y-70292164D02*
X231070000Y-70507836D01*
%TO.C,K26*%
X292262000Y-123838000D02*
X292262000Y-124488000D01*
X292262000Y-123838000D02*
X292262000Y-123188000D01*
X295382000Y-123838000D02*
X295382000Y-125513000D01*
X295382000Y-123838000D02*
X295382000Y-123188000D01*
%TO.C,K8*%
X129969000Y-137339000D02*
X129969000Y-137989000D01*
X129969000Y-137339000D02*
X129969000Y-136689000D01*
X133089000Y-137339000D02*
X133089000Y-139014000D01*
X133089000Y-137339000D02*
X133089000Y-136689000D01*
%TO.C,C4*%
X231840000Y-57907836D02*
X231840000Y-57692164D01*
X232560000Y-57907836D02*
X232560000Y-57692164D01*
%TO.C,K23*%
X243217000Y-172147000D02*
X243217000Y-172797000D01*
X243217000Y-172147000D02*
X243217000Y-171497000D01*
X246337000Y-172147000D02*
X246337000Y-173822000D01*
X246337000Y-172147000D02*
X246337000Y-171497000D01*
%TO.C,C11*%
X226857836Y-60860000D02*
X226642164Y-60860000D01*
X226857836Y-60140000D02*
X226642164Y-60140000D01*
%TO.C,K39*%
X207482000Y-64054000D02*
X207482000Y-64704000D01*
X207482000Y-64054000D02*
X207482000Y-63404000D01*
X210602000Y-64054000D02*
X210602000Y-65729000D01*
X210602000Y-64054000D02*
X210602000Y-63404000D01*
%TO.C,R6*%
X246003641Y-53880000D02*
X245696359Y-53880000D01*
X246003641Y-53120000D02*
X245696359Y-53120000D01*
%TO.C,C8*%
X227590000Y-58907836D02*
X227590000Y-58692164D01*
X228310000Y-58907836D02*
X228310000Y-58692164D01*
D12*
%TO.C,SW1*%
X238450000Y-75550000D02*
X238450000Y-70450000D01*
X242000000Y-75550000D02*
X240000000Y-75550000D01*
X243550000Y-75550000D02*
X243550000Y-70450000D01*
X242000000Y-70450000D02*
X240000000Y-70450000D01*
D11*
%TO.C,K3*%
X112330000Y-98047000D02*
X112330000Y-98697000D01*
X112330000Y-98047000D02*
X112330000Y-97397000D01*
X115450000Y-98047000D02*
X115450000Y-99722000D01*
X115450000Y-98047000D02*
X115450000Y-97397000D01*
%TO.C,K10*%
X114890000Y-73200000D02*
X114890000Y-73850000D01*
X114890000Y-73200000D02*
X114890000Y-72550000D01*
X118010000Y-73200000D02*
X118010000Y-74875000D01*
X118010000Y-73200000D02*
X118010000Y-72550000D01*
%TO.C,K9*%
X90111000Y-74145000D02*
X90111000Y-74795000D01*
X90111000Y-74145000D02*
X90111000Y-73495000D01*
X93231000Y-74145000D02*
X93231000Y-75820000D01*
X93231000Y-74145000D02*
X93231000Y-73495000D01*
%TO.C,K17*%
X170923000Y-193915000D02*
X170923000Y-194565000D01*
X170923000Y-193915000D02*
X170923000Y-193265000D01*
X174043000Y-193915000D02*
X174043000Y-195590000D01*
X174043000Y-193915000D02*
X174043000Y-193265000D01*
%TO.C,D43*%
X211610000Y-52250000D02*
X207600000Y-52250000D01*
X211610000Y-50250000D02*
X211610000Y-52250000D01*
X211610000Y-50250000D02*
X207600000Y-50250000D01*
%TO.C,U5*%
X216500000Y-51390000D02*
X215700000Y-51390000D01*
X216500000Y-51390000D02*
X217300000Y-51390000D01*
X216500000Y-54510000D02*
X214700000Y-54510000D01*
X216500000Y-54510000D02*
X217300000Y-54510000D01*
%TO.C,C2*%
X228640000Y-57907836D02*
X228640000Y-57692164D01*
X229360000Y-57907836D02*
X229360000Y-57692164D01*
%TO.C,K32*%
X286733000Y-74145000D02*
X286733000Y-74795000D01*
X286733000Y-74145000D02*
X286733000Y-73495000D01*
X289853000Y-74145000D02*
X289853000Y-75820000D01*
X289853000Y-74145000D02*
X289853000Y-73495000D01*
%TO.C,K38*%
X188440000Y-64054000D02*
X188440000Y-64704000D01*
X188440000Y-64054000D02*
X188440000Y-63404000D01*
X191560000Y-64054000D02*
X191560000Y-65729000D01*
X191560000Y-64054000D02*
X191560000Y-63404000D01*
%TO.C,K30*%
X289497000Y-98991000D02*
X289497000Y-99641000D01*
X289497000Y-98991000D02*
X289497000Y-98341000D01*
X292617000Y-98991000D02*
X292617000Y-100666000D01*
X292617000Y-98991000D02*
X292617000Y-98341000D01*
%TO.C,K16*%
X145923000Y-193915000D02*
X145923000Y-194565000D01*
X145923000Y-193915000D02*
X145923000Y-193265000D01*
X149043000Y-193915000D02*
X149043000Y-195590000D01*
X149043000Y-193915000D02*
X149043000Y-193265000D01*
%TO.C,K1*%
X64401000Y-108914000D02*
X64401000Y-109564000D01*
X64401000Y-108914000D02*
X64401000Y-108264000D01*
X67521000Y-108914000D02*
X67521000Y-110589000D01*
X67521000Y-108914000D02*
X67521000Y-108264000D01*
%TO.C,K13*%
X153329000Y-128433000D02*
X153329000Y-129083000D01*
X153329000Y-128433000D02*
X153329000Y-127783000D01*
X156449000Y-128433000D02*
X156449000Y-130108000D01*
X156449000Y-128433000D02*
X156449000Y-127783000D01*
%TD*%
%LPC*%
D13*
%TO.C,KH12*%
X152574000Y-103586000D03*
X162734000Y-103586000D03*
%TD*%
D14*
%TO.C,H4*%
X190000000Y-100000000D03*
%TD*%
D13*
%TO.C,KH40*%
X165879000Y-82948000D03*
X176039000Y-82948000D03*
%TD*%
%TO.C,KH39*%
X203962000Y-64054000D03*
X214122000Y-64054000D03*
%TD*%
%TO.C,KH32*%
X283213000Y-74145000D03*
X293373000Y-74145000D03*
%TD*%
D14*
%TO.C,H3*%
X60000000Y-220000000D03*
%TD*%
%TO.C,H8*%
X320000000Y-60000000D03*
%TD*%
%TO.C,H1*%
X60000000Y-60000000D03*
%TD*%
D13*
%TO.C,KH11*%
X131978000Y-87645000D03*
X142138000Y-87645000D03*
%TD*%
%TO.C,KH27*%
X311688000Y-133761000D03*
X321848000Y-133761000D03*
%TD*%
%TO.C,KH17*%
X167403000Y-193915000D03*
X177563000Y-193915000D03*
%TD*%
%TO.C,KH7*%
X106045000Y-122893000D03*
X116205000Y-122893000D03*
%TD*%
%TO.C,KH19*%
X202402000Y-193915000D03*
X212562000Y-193915000D03*
%TD*%
D14*
%TO.C,H6*%
X320000000Y-220000000D03*
%TD*%
D13*
%TO.C,KH10*%
X111370000Y-73200000D03*
X121530000Y-73200000D03*
%TD*%
%TO.C,KH25*%
X263760000Y-122893000D03*
X273920000Y-122893000D03*
%TD*%
%TO.C,KH26*%
X288742000Y-123838000D03*
X298902000Y-123838000D03*
%TD*%
%TO.C,KH3*%
X108810000Y-98047000D03*
X118970000Y-98047000D03*
%TD*%
D14*
%TO.C,H11*%
X260000000Y-154000000D03*
%TD*%
%TO.C,H5*%
X190000000Y-210000000D03*
%TD*%
D13*
%TO.C,KH18*%
X155064000Y-215471000D03*
X165224000Y-215471000D03*
%TD*%
%TO.C,KH38*%
X184920000Y-64054000D03*
X195080000Y-64054000D03*
%TD*%
%TO.C,KH14*%
X130108000Y-172147000D03*
X140268000Y-172147000D03*
%TD*%
%TO.C,KH6*%
X81062000Y-123838000D03*
X91222000Y-123838000D03*
%TD*%
%TO.C,KH30*%
X285977000Y-98991000D03*
X296137000Y-98991000D03*
%TD*%
D14*
%TO.C,H10*%
X190000000Y-140000000D03*
%TD*%
D13*
%TO.C,KH24*%
X243356000Y-137339000D03*
X253516000Y-137339000D03*
%TD*%
D14*
%TO.C,H9*%
X115000000Y-151000000D03*
%TD*%
D13*
%TO.C,KH42*%
X203962000Y-82948000D03*
X214122000Y-82948000D03*
%TD*%
%TO.C,KH31*%
X308923000Y-108914000D03*
X319083000Y-108914000D03*
%TD*%
%TO.C,KH2*%
X83827000Y-98991000D03*
X93987000Y-98991000D03*
%TD*%
%TO.C,KH9*%
X86591000Y-74145000D03*
X96751000Y-74145000D03*
%TD*%
%TO.C,KH29*%
X260995000Y-98047000D03*
X271155000Y-98047000D03*
%TD*%
%TO.C,KH8*%
X126449000Y-137339000D03*
X136609000Y-137339000D03*
%TD*%
%TO.C,KH4*%
X129214000Y-112492000D03*
X139374000Y-112492000D03*
%TD*%
%TO.C,KH23*%
X239697000Y-172147000D03*
X249857000Y-172147000D03*
%TD*%
D15*
%TO.C,U1*%
X186379999Y-107399999D03*
X188919999Y-107399999D03*
X191459999Y-107399999D03*
X193999999Y-107399999D03*
%TD*%
D13*
%TO.C,KH22*%
X214697000Y-172147000D03*
X224857000Y-172147000D03*
%TD*%
%TO.C,KH33*%
X258434000Y-73200000D03*
X268594000Y-73200000D03*
%TD*%
%TO.C,KH13*%
X149809000Y-128433000D03*
X159969000Y-128433000D03*
%TD*%
%TO.C,KH36*%
X219996000Y-128433000D03*
X230156000Y-128433000D03*
%TD*%
%TO.C,KH37*%
X165879000Y-64054000D03*
X176039000Y-64054000D03*
%TD*%
D14*
%TO.C,H2*%
X60000000Y-155000000D03*
%TD*%
%TO.C,H7*%
X320000000Y-155000000D03*
%TD*%
D13*
%TO.C,KH35*%
X217231000Y-103586000D03*
X227391000Y-103586000D03*
%TD*%
%TO.C,KH5*%
X58116000Y-133761000D03*
X68276000Y-133761000D03*
%TD*%
%TO.C,KH21*%
X227402000Y-193915000D03*
X237562000Y-193915000D03*
%TD*%
%TO.C,KH1*%
X60881000Y-108914000D03*
X71041000Y-108914000D03*
%TD*%
D14*
%TO.C,H12*%
X145000000Y-64000000D03*
%TD*%
D13*
%TO.C,KH34*%
X237827000Y-87645000D03*
X247987000Y-87645000D03*
%TD*%
%TO.C,KH20*%
X214740000Y-215471000D03*
X224900000Y-215471000D03*
%TD*%
%TO.C,KH15*%
X155108000Y-172147000D03*
X165268000Y-172147000D03*
%TD*%
%TO.C,KH16*%
X142403000Y-193915000D03*
X152563000Y-193915000D03*
%TD*%
%TO.C,KH28*%
X240591000Y-112492000D03*
X250751000Y-112492000D03*
%TD*%
%TO.C,KH41*%
X184920000Y-82948000D03*
X195080000Y-82948000D03*
%TD*%
D16*
%TO.C,C1*%
X233250000Y-57680000D03*
X233250000Y-56720000D03*
%TD*%
D17*
%TO.C,C15*%
X234430000Y-71700000D03*
X233470000Y-71700000D03*
%TD*%
D18*
%TO.C,AM2*%
X186424999Y-114399999D03*
X187074999Y-114399999D03*
X187724999Y-114399999D03*
X188374999Y-114399999D03*
X189024999Y-114399999D03*
X189674999Y-114399999D03*
X190324999Y-114399999D03*
X190974999Y-114399999D03*
X191624999Y-114399999D03*
X192274999Y-114399999D03*
X192924999Y-114399999D03*
X193574999Y-114399999D03*
X193574999Y-121599999D03*
X192924999Y-121599999D03*
X192274999Y-121599999D03*
X191624999Y-121599999D03*
X190974999Y-121599999D03*
X190324999Y-121599999D03*
X189674999Y-121599999D03*
X189024999Y-121599999D03*
X188374999Y-121599999D03*
X187724999Y-121599999D03*
X187074999Y-121599999D03*
X186424999Y-121599999D03*
%TD*%
D19*
%TO.C,C5*%
X236770000Y-61100000D03*
X237730000Y-61100000D03*
%TD*%
D20*
%TO.C,K40*%
X171909000Y-83885500D03*
X170009000Y-83885500D03*
X170959000Y-82010500D03*
%TD*%
%TO.C,K36*%
X226026000Y-129370500D03*
X224126000Y-129370500D03*
X225076000Y-127495500D03*
%TD*%
D21*
%TO.C,Y1*%
X233949999Y-73249999D03*
X233949999Y-75449999D03*
X232249999Y-75449999D03*
X232249999Y-73249999D03*
%TD*%
D20*
%TO.C,K6*%
X87092000Y-124775500D03*
X85192000Y-124775500D03*
X86142000Y-122900500D03*
%TD*%
D18*
%TO.C,AM1*%
X156424999Y-147399999D03*
X157074999Y-147399999D03*
X157724999Y-147399999D03*
X158374999Y-147399999D03*
X159024999Y-147399999D03*
X159674999Y-147399999D03*
X160324999Y-147399999D03*
X160974999Y-147399999D03*
X161624999Y-147399999D03*
X162274999Y-147399999D03*
X162924999Y-147399999D03*
X163574999Y-147399999D03*
X163574999Y-154599999D03*
X162924999Y-154599999D03*
X162274999Y-154599999D03*
X161624999Y-154599999D03*
X160974999Y-154599999D03*
X160324999Y-154599999D03*
X159674999Y-154599999D03*
X159024999Y-154599999D03*
X158374999Y-154599999D03*
X157724999Y-154599999D03*
X157074999Y-154599999D03*
X156424999Y-154599999D03*
%TD*%
D20*
%TO.C,K28*%
X246621000Y-113429500D03*
X244721000Y-113429500D03*
X245671000Y-111554500D03*
%TD*%
%TO.C,K33*%
X264464000Y-74137500D03*
X262564000Y-74137500D03*
X263514000Y-72262500D03*
%TD*%
%TO.C,K12*%
X158604000Y-104523500D03*
X156704000Y-104523500D03*
X157654000Y-102648500D03*
%TD*%
D22*
%TO.C,U6*%
X243400000Y-53495000D03*
X243400000Y-54765000D03*
X243400000Y-56035000D03*
X243400000Y-57305000D03*
X236200000Y-57305000D03*
X236200000Y-56035000D03*
X236200000Y-54765000D03*
X236200000Y-53495000D03*
%TD*%
D17*
%TO.C,C6*%
X227230000Y-65500000D03*
X226270000Y-65500000D03*
%TD*%
D20*
%TO.C,K35*%
X223261000Y-104523500D03*
X221361000Y-104523500D03*
X222311000Y-102648500D03*
%TD*%
%TO.C,K25*%
X269790000Y-123830500D03*
X267890000Y-123830500D03*
X268840000Y-121955500D03*
%TD*%
D23*
%TO.C,C3*%
X230400000Y-69920000D03*
X230400000Y-70880000D03*
%TD*%
D24*
%TO.C,SW2*%
X246124999Y-69999999D03*
X246124999Y-75999999D03*
X249874999Y-69999999D03*
X249874999Y-75999999D03*
%TD*%
D25*
%TO.C,R3*%
X231150000Y-57290000D03*
X231150000Y-58310000D03*
%TD*%
D20*
%TO.C,K19*%
X208432000Y-194852500D03*
X206532000Y-194852500D03*
X207482000Y-192977500D03*
%TD*%
%TO.C,K4*%
X135244000Y-113429500D03*
X133344000Y-113429500D03*
X134294000Y-111554500D03*
%TD*%
D25*
%TO.C,R5*%
X242200000Y-60190000D03*
X242200000Y-61210000D03*
%TD*%
D20*
%TO.C,K20*%
X220770000Y-216408500D03*
X218870000Y-216408500D03*
X219820000Y-214533500D03*
%TD*%
D17*
%TO.C,C14*%
X236580000Y-51900000D03*
X235620000Y-51900000D03*
%TD*%
%TO.C,C10*%
X227230000Y-61550000D03*
X226270000Y-61550000D03*
%TD*%
D16*
%TO.C,C12*%
X213950000Y-53980000D03*
X213950000Y-53020000D03*
%TD*%
D20*
%TO.C,K11*%
X138008000Y-88582500D03*
X136108000Y-88582500D03*
X137058000Y-86707500D03*
%TD*%
D26*
%TO.C,R2*%
X184520000Y-52750000D03*
X183500000Y-52750000D03*
%TD*%
D18*
%TO.C,AM3*%
X216424999Y-147399999D03*
X217074999Y-147399999D03*
X217724999Y-147399999D03*
X218374999Y-147399999D03*
X219024999Y-147399999D03*
X219674999Y-147399999D03*
X220324999Y-147399999D03*
X220974999Y-147399999D03*
X221624999Y-147399999D03*
X222274999Y-147399999D03*
X222924999Y-147399999D03*
X223574999Y-147399999D03*
X223574999Y-154599999D03*
X222924999Y-154599999D03*
X222274999Y-154599999D03*
X221624999Y-154599999D03*
X220974999Y-154599999D03*
X220324999Y-154599999D03*
X219674999Y-154599999D03*
X219024999Y-154599999D03*
X218374999Y-154599999D03*
X217724999Y-154599999D03*
X217074999Y-154599999D03*
X216424999Y-154599999D03*
%TD*%
D20*
%TO.C,K37*%
X171909000Y-64991500D03*
X170009000Y-64991500D03*
X170959000Y-63116500D03*
%TD*%
%TO.C,K21*%
X233432000Y-194852500D03*
X231532000Y-194852500D03*
X232482000Y-192977500D03*
%TD*%
D16*
%TO.C,C13*%
X219050000Y-53960000D03*
X219050000Y-53000000D03*
%TD*%
D20*
%TO.C,K15*%
X161138000Y-173084500D03*
X159238000Y-173084500D03*
X160188000Y-171209500D03*
%TD*%
D19*
%TO.C,C7*%
X236870000Y-65500000D03*
X237830000Y-65500000D03*
%TD*%
D20*
%TO.C,K41*%
X190950000Y-83885500D03*
X189050000Y-83885500D03*
X190000000Y-82010500D03*
%TD*%
D27*
%TO.C,R7*%
X232450000Y-71760000D03*
X232450000Y-70740000D03*
%TD*%
D20*
%TO.C,K7*%
X112075000Y-123830500D03*
X110175000Y-123830500D03*
X111125000Y-121955500D03*
%TD*%
%TO.C,K27*%
X317718000Y-134698500D03*
X315818000Y-134698500D03*
X316768000Y-132823500D03*
%TD*%
%TO.C,K42*%
X209992000Y-83885500D03*
X208092000Y-83885500D03*
X209042000Y-82010500D03*
%TD*%
%TO.C,K22*%
X220727000Y-173084500D03*
X218827000Y-173084500D03*
X219777000Y-171209500D03*
%TD*%
%TO.C,K29*%
X267025000Y-98984500D03*
X265125000Y-98984500D03*
X266075000Y-97109500D03*
%TD*%
%TO.C,K18*%
X161094000Y-216408500D03*
X159194000Y-216408500D03*
X160144000Y-214533500D03*
%TD*%
%TO.C,K14*%
X136138000Y-173084500D03*
X134238000Y-173084500D03*
X135188000Y-171209500D03*
%TD*%
%TO.C,K5*%
X64146000Y-134698500D03*
X62246000Y-134698500D03*
X63196000Y-132823500D03*
%TD*%
%TO.C,K2*%
X89857000Y-99928500D03*
X87957000Y-99928500D03*
X88907000Y-98053500D03*
%TD*%
D26*
%TO.C,R1*%
X184510000Y-53750000D03*
X183490000Y-53750000D03*
%TD*%
D28*
%TO.C,U2*%
X235437500Y-61900000D03*
X235437500Y-62300000D03*
X235437500Y-62700000D03*
X235437500Y-63100000D03*
X235437500Y-63500000D03*
X235437500Y-63900000D03*
X235437500Y-64300000D03*
X235437500Y-64700000D03*
X235437500Y-65100000D03*
X235437500Y-65500000D03*
X235437500Y-65900000D03*
X235437500Y-66300000D03*
X235437500Y-66700000D03*
X235437500Y-67100000D03*
D29*
X234600000Y-67937500D03*
X234200000Y-67937500D03*
X233800000Y-67937500D03*
X233400000Y-67937500D03*
X233000000Y-67937500D03*
X232600000Y-67937500D03*
X232200000Y-67937500D03*
X231800000Y-67937500D03*
X231400000Y-67937500D03*
X231000000Y-67937500D03*
X230600000Y-67937500D03*
X230200000Y-67937500D03*
X229800000Y-67937500D03*
X229400000Y-67937500D03*
D28*
X228562500Y-67100000D03*
X228562500Y-66700000D03*
X228562500Y-66300000D03*
X228562500Y-65900000D03*
X228562500Y-65500000D03*
X228562500Y-65100000D03*
X228562500Y-64700000D03*
X228562500Y-64300000D03*
X228562500Y-63900000D03*
X228562500Y-63500000D03*
X228562500Y-63100000D03*
X228562500Y-62700000D03*
X228562500Y-62300000D03*
X228562500Y-61900000D03*
D29*
X229400000Y-61062500D03*
X229800000Y-61062500D03*
X230200000Y-61062500D03*
X230600000Y-61062500D03*
X231000000Y-61062500D03*
X231400000Y-61062500D03*
X231800000Y-61062500D03*
X232200000Y-61062500D03*
X232600000Y-61062500D03*
X233000000Y-61062500D03*
X233400000Y-61062500D03*
X233800000Y-61062500D03*
X234200000Y-61062500D03*
X234600000Y-61062500D03*
D30*
X232000000Y-64500000D03*
%TD*%
D23*
%TO.C,C16*%
X230750000Y-73870000D03*
X230750000Y-74830000D03*
%TD*%
D31*
%TO.C,J5*%
X186400000Y-52440000D03*
X193750000Y-52440000D03*
D32*
X187249999Y-52999999D03*
X187749999Y-52999999D03*
X188249999Y-52999999D03*
X188749999Y-52999999D03*
X189249999Y-52999999D03*
X189749999Y-52999999D03*
X190249999Y-52999999D03*
X190749999Y-52999999D03*
X191249999Y-52999999D03*
X191749999Y-52999999D03*
X192249999Y-52999999D03*
X192749999Y-52999999D03*
D33*
X192800000Y-51790000D03*
X192400000Y-51090000D03*
X191600000Y-51090000D03*
X191200000Y-51790000D03*
X190800000Y-51090000D03*
X190400000Y-51790000D03*
X189600000Y-51790000D03*
X189200000Y-51090000D03*
X188800000Y-51790000D03*
X188400000Y-51090000D03*
X187600000Y-51090000D03*
X187200000Y-51790000D03*
D34*
X185509999Y-46799999D03*
X185869999Y-51189999D03*
X194129999Y-51189999D03*
X194489999Y-46799999D03*
%TD*%
D20*
%TO.C,K34*%
X243857000Y-88582500D03*
X241957000Y-88582500D03*
X242907000Y-86707500D03*
%TD*%
%TO.C,K31*%
X314953000Y-109851500D03*
X313053000Y-109851500D03*
X314003000Y-107976500D03*
%TD*%
%TO.C,K24*%
X249386000Y-138276500D03*
X247486000Y-138276500D03*
X248436000Y-136401500D03*
%TD*%
D25*
%TO.C,R4*%
X230070000Y-57290000D03*
X230070000Y-58310000D03*
%TD*%
D23*
%TO.C,C9*%
X231430000Y-69920000D03*
X231430000Y-70880000D03*
%TD*%
D20*
%TO.C,K26*%
X294772000Y-124775500D03*
X292872000Y-124775500D03*
X293822000Y-122900500D03*
%TD*%
%TO.C,K8*%
X132479000Y-138276500D03*
X130579000Y-138276500D03*
X131529000Y-136401500D03*
%TD*%
D16*
%TO.C,C4*%
X232200000Y-58280000D03*
X232200000Y-57320000D03*
%TD*%
D20*
%TO.C,K23*%
X245727000Y-173084500D03*
X243827000Y-173084500D03*
X244777000Y-171209500D03*
%TD*%
D17*
%TO.C,C11*%
X227230000Y-60500000D03*
X226270000Y-60500000D03*
%TD*%
D20*
%TO.C,K39*%
X209992000Y-64991500D03*
X208092000Y-64991500D03*
X209042000Y-63116500D03*
%TD*%
D26*
%TO.C,R6*%
X246360000Y-53500000D03*
X245340000Y-53500000D03*
%TD*%
D16*
%TO.C,C8*%
X227950000Y-59280000D03*
X227950000Y-58320000D03*
%TD*%
D24*
%TO.C,SW1*%
X242874999Y-75999999D03*
X242874999Y-69999999D03*
X239124999Y-75999999D03*
X239124999Y-69999999D03*
%TD*%
D20*
%TO.C,K3*%
X114840000Y-98984500D03*
X112940000Y-98984500D03*
X113890000Y-97109500D03*
%TD*%
%TO.C,K10*%
X117400000Y-74137500D03*
X115500000Y-74137500D03*
X116450000Y-72262500D03*
%TD*%
%TO.C,K9*%
X92621000Y-75082500D03*
X90721000Y-75082500D03*
X91671000Y-73207500D03*
%TD*%
%TO.C,K17*%
X173433000Y-194852500D03*
X171533000Y-194852500D03*
X172483000Y-192977500D03*
%TD*%
D35*
%TO.C,D43*%
X210900000Y-51250000D03*
X207600000Y-51250000D03*
%TD*%
D36*
%TO.C,U5*%
X215362500Y-53900000D03*
X215362500Y-52950000D03*
X215362500Y-52000000D03*
X217637500Y-52000000D03*
X217637500Y-53900000D03*
%TD*%
D16*
%TO.C,C2*%
X229000000Y-58280000D03*
X229000000Y-57320000D03*
%TD*%
D20*
%TO.C,K32*%
X289243000Y-75082500D03*
X287343000Y-75082500D03*
X288293000Y-73207500D03*
%TD*%
%TO.C,K38*%
X190950000Y-64991500D03*
X189050000Y-64991500D03*
X190000000Y-63116500D03*
%TD*%
%TO.C,K30*%
X292007000Y-99928500D03*
X290107000Y-99928500D03*
X291057000Y-98053500D03*
%TD*%
%TO.C,K16*%
X148433000Y-194852500D03*
X146533000Y-194852500D03*
X147483000Y-192977500D03*
%TD*%
%TO.C,K1*%
X66911000Y-109851500D03*
X65011000Y-109851500D03*
X65961000Y-107976500D03*
%TD*%
%TO.C,K13*%
X155839000Y-129370500D03*
X153939000Y-129370500D03*
X154889000Y-127495500D03*
%TD*%
M02*
