M48
; DRILL file {KiCad (7.0.0)} date Sun Jul 28 23:05:56 2024
; FORMAT={-:-/ absolute / inch / decimal}
; #@! TF.CreationDate,2024-07-28T23:05:56-04:00
; #@! TF.GenerationSoftware,Kicad,Pcbnew,(7.0.0)
; #@! TF.FileFunction,Plated,1,2,PTH
FMAT,2
INCH
; #@! TA.AperFunction,Plated,PTH,ViaDrill
T1C0.0138
; #@! TA.AperFunction,Plated,PTH,ComponentDrill
T2C0.0138
; #@! TA.AperFunction,Plated,PTH,ViaDrill
T3C0.0157
; #@! TA.AperFunction,Plated,PTH,ComponentDrill
T4C0.0157
; #@! TA.AperFunction,Plated,PTH,ComponentDrill
T5C0.0197
; #@! TA.AperFunction,Plated,PTH,ComponentDrill
T6C0.0394
%
G90
G05
T1
X2.4902Y-5.1181
X2.5984Y-4.124
X2.9626Y-5.7185
X2.9823Y-6.1122
X3.3957Y-4.6949
X3.5039Y-3.7402
X3.6122Y-2.7657
X4.4094Y-4.5866
X4.4783Y-3.6516
X4.5866Y-2.7067
X5.1969Y-5.1673
X5.3386Y-6.6378
X5.3839Y-4.2717
X5.3937Y-3.3169
X5.8425Y-7.5079
X6.0764Y-5.8043
X6.0945Y-6.0827
X6.1024Y-4.8228
X6.2106Y-3.9173
X6.3071Y-6.6614
X6.3307Y-8.3504
X6.5315Y-5.8031
X6.563Y-5.8031
X6.5945Y-5.8031
X6.626Y-5.8031
X6.7323Y-2.4213
X6.7323Y-3.1535
X6.7913Y-7.5118
X6.9094Y-4.0957
X6.985Y-4.0583
X7.1555Y-2.0768
X7.2244Y-2.0079
X7.2402Y-4.5055
X7.2559Y-4.7874
X7.2817Y-1.9589
X7.3228Y-2.1555
X7.4114Y-2.1555
X7.4803Y-2.4134
X7.4803Y-3.1457
X7.5197Y-2.1555
X7.5823Y-3.3091
X7.6083Y-1.939
X7.6476Y-2.185
X7.7087Y-4.4961
X7.7165Y-2.185
X7.7264Y-1.9882
X7.7264Y-2.0472
X7.7441Y-4.4961
X7.7559Y-2.1358
X7.7559Y-2.1693
X7.7756Y-4.4961
X7.8071Y-4.4961
X8.1102Y-2.0551
X8.1689Y-7.515
X8.2283Y-2.4094
X8.2323Y-3.1575
X8.2677Y-5.6299
X8.2677Y-5.6693
X8.2677Y-5.7087
X8.2677Y-5.748
X8.3583Y-2.2795
X8.376Y-2.0866
X8.5827Y-3.2441
X8.6024Y-3.4094
X8.6102Y-2.2992
X8.6567Y-8.3654
X8.749Y-5.7323
X8.7717Y-5.685
X8.7786Y-6.1693
X8.7795Y-2.1378
X8.7795Y-2.2303
X8.8071Y-6.2008
X8.8543Y-2.7598
X8.8622Y-4.9291
X8.8642Y-2.3819
X8.8642Y-2.4232
X8.8681Y-2.5787
X8.8764Y-2.7826
X8.9036Y-2.7984
X8.9325Y-2.8108
X8.9744Y-2.2618
X9.0079Y-3.6457
X9.0118Y-2.8937
X9.0157Y-2.2264
X9.0335Y-2.7913
X9.0413Y-3.0059
X9.0886Y-2.7205
X9.0925Y-2.8287
X9.1024Y-2.4545
X9.1083Y-2.6224
X9.1417Y-2.3287
X9.1417Y-2.2165
X9.1476Y-3.0394
X9.1535Y-7.5043
X9.1811Y-2.7402
X9.1831Y-2.1909
X9.2323Y-2.0433
X9.2992Y-2.7697
X9.3012Y-3.0138
X9.3268Y-2.8504
X9.3996Y-2.4055
X9.4016Y-2.5787
X9.5197Y-2.2559
X9.562Y-2.874
X9.563Y-3.3465
X9.5787Y-2.4114
X9.5787Y-2.6575
X9.5984Y-3.6457
X9.6358Y-2.4114
X9.639Y-6.663
X9.6732Y-4.3307
X9.69Y-2.874
X9.7638Y-2.4114
X9.7835Y-5.2283
X10.374Y-2.7717
X10.4764Y-3.7441
X10.5827Y-4.7126
X11.3504Y-2.7953
X11.4606Y-3.7756
X11.5709Y-4.7165
X12.3622Y-4.1299
X12.4724Y-5.0709
T2
X9.0837Y-2.4892
X9.0837Y-2.5394
X9.0837Y-2.5896
X9.1339Y-2.4892
X9.1339Y-2.5394
X9.1339Y-2.5896
X9.1841Y-2.4892
X9.1841Y-2.5394
X9.1841Y-2.5896
T3
X6.5827Y-5.5512
X7.6378Y-4.437
X8.6575Y-6.622
X8.752Y-3.9213
T4
X7.3701Y-2.039
X7.3858Y-2.0114
X7.4173Y-2.0114
X7.4331Y-2.039
X7.4488Y-2.0114
X7.4646Y-2.039
X7.4961Y-2.039
X7.5118Y-2.0114
X7.5276Y-2.039
X7.5433Y-2.0114
X7.5748Y-2.0114
X7.5906Y-2.039
T6
X7.3378Y-4.2283
X7.4378Y-4.2283
X7.5378Y-4.2283
X7.6378Y-4.2283
T5
G00X7.3035Y-1.8307
M15
G01X7.3035Y-1.8543
M16
G05
G00X7.3177Y-2.0035
M15
G01X7.3177Y-2.0272
M16
G05
G00X7.6429Y-2.0035
M15
G01X7.6429Y-2.0272
M16
G05
G00X7.6571Y-1.8307
M15
G01X7.6571Y-1.8543
M16
G05
T0
M30
