%TF.GenerationSoftware,KiCad,Pcbnew,(7.0.0)*%
%TF.CreationDate,2024-07-28T23:05:56-04:00*%
%TF.ProjectId,ZBox3-0,5a426f78-332d-4302-9e6b-696361645f70,rev?*%
%TF.SameCoordinates,Original*%
%TF.FileFunction,Paste,Bot*%
%TF.FilePolarity,Positive*%
%FSLAX46Y46*%
G04 Gerber Fmt 4.6, Leading zero omitted, Abs format (unit mm)*
G04 Created by KiCad (PCBNEW (7.0.0)) date 2024-07-28 23:05:56*
%MOMM*%
%LPD*%
G01*
G04 APERTURE LIST*
G04 Aperture macros list*
%AMRoundRect*
0 Rectangle with rounded corners*
0 $1 Rounding radius*
0 $2 $3 $4 $5 $6 $7 $8 $9 X,Y pos of 4 corners*
0 Add a 4 corners polygon primitive as box body*
4,1,4,$2,$3,$4,$5,$6,$7,$8,$9,$2,$3,0*
0 Add four circle primitives for the rounded corners*
1,1,$1+$1,$2,$3*
1,1,$1+$1,$4,$5*
1,1,$1+$1,$6,$7*
1,1,$1+$1,$8,$9*
0 Add four rect primitives between the rounded corners*
20,1,$1+$1,$2,$3,$4,$5,0*
20,1,$1+$1,$4,$5,$6,$7,0*
20,1,$1+$1,$6,$7,$8,$9,0*
20,1,$1+$1,$8,$9,$2,$3,0*%
G04 Aperture macros list end*
%ADD10RoundRect,0.140000X0.170000X-0.140000X0.170000X0.140000X-0.170000X0.140000X-0.170000X-0.140000X0*%
%ADD11RoundRect,0.140000X0.140000X0.170000X-0.140000X0.170000X-0.140000X-0.170000X0.140000X-0.170000X0*%
%ADD12R,0.450000X1.750000*%
%ADD13RoundRect,0.140000X-0.140000X-0.170000X0.140000X-0.170000X0.140000X0.170000X-0.140000X0.170000X0*%
%ADD14RoundRect,0.150000X0.150000X-0.587500X0.150000X0.587500X-0.150000X0.587500X-0.150000X-0.587500X0*%
%ADD15R,1.200000X1.400000*%
%ADD16RoundRect,0.150000X0.650000X0.150000X-0.650000X0.150000X-0.650000X-0.150000X0.650000X-0.150000X0*%
%ADD17RoundRect,0.140000X-0.170000X0.140000X-0.170000X-0.140000X0.170000X-0.140000X0.170000X0.140000X0*%
%ADD18R,0.750000X1.000000*%
%ADD19RoundRect,0.135000X-0.185000X0.135000X-0.185000X-0.135000X0.185000X-0.135000X0.185000X0.135000X0*%
%ADD20RoundRect,0.135000X0.135000X0.185000X-0.135000X0.185000X-0.135000X-0.185000X0.135000X-0.185000X0*%
%ADD21RoundRect,0.135000X0.185000X-0.135000X0.185000X0.135000X-0.185000X0.135000X-0.185000X-0.135000X0*%
%ADD22RoundRect,0.250000X0.292217X0.292217X-0.292217X0.292217X-0.292217X-0.292217X0.292217X-0.292217X0*%
%ADD23RoundRect,0.050000X0.387500X0.050000X-0.387500X0.050000X-0.387500X-0.050000X0.387500X-0.050000X0*%
%ADD24RoundRect,0.050000X0.050000X0.387500X-0.050000X0.387500X-0.050000X-0.387500X0.050000X-0.387500X0*%
%ADD25R,0.300000X0.900000*%
%ADD26RoundRect,0.225000X0.225000X0.375000X-0.225000X0.375000X-0.225000X-0.375000X0.225000X-0.375000X0*%
%ADD27RoundRect,0.150000X-0.512500X-0.150000X0.512500X-0.150000X0.512500X0.150000X-0.512500X0.150000X0*%
G04 APERTURE END LIST*
D10*
%TO.C,C1*%
X233250000Y-57680000D03*
X233250000Y-56720000D03*
%TD*%
D11*
%TO.C,C15*%
X234430000Y-71700000D03*
X233470000Y-71700000D03*
%TD*%
D12*
%TO.C,AM2*%
X186424999Y-114399999D03*
X187074999Y-114399999D03*
X187724999Y-114399999D03*
X188374999Y-114399999D03*
X189024999Y-114399999D03*
X189674999Y-114399999D03*
X190324999Y-114399999D03*
X190974999Y-114399999D03*
X191624999Y-114399999D03*
X192274999Y-114399999D03*
X192924999Y-114399999D03*
X193574999Y-114399999D03*
X193574999Y-121599999D03*
X192924999Y-121599999D03*
X192274999Y-121599999D03*
X191624999Y-121599999D03*
X190974999Y-121599999D03*
X190324999Y-121599999D03*
X189674999Y-121599999D03*
X189024999Y-121599999D03*
X188374999Y-121599999D03*
X187724999Y-121599999D03*
X187074999Y-121599999D03*
X186424999Y-121599999D03*
%TD*%
D13*
%TO.C,C5*%
X236770000Y-61100000D03*
X237730000Y-61100000D03*
%TD*%
D14*
%TO.C,K40*%
X171909000Y-83885500D03*
X170009000Y-83885500D03*
X170959000Y-82010500D03*
%TD*%
%TO.C,K36*%
X226026000Y-129370500D03*
X224126000Y-129370500D03*
X225076000Y-127495500D03*
%TD*%
D15*
%TO.C,Y1*%
X233949999Y-73249999D03*
X233949999Y-75449999D03*
X232249999Y-75449999D03*
X232249999Y-73249999D03*
%TD*%
D14*
%TO.C,K6*%
X87092000Y-124775500D03*
X85192000Y-124775500D03*
X86142000Y-122900500D03*
%TD*%
D12*
%TO.C,AM1*%
X156424999Y-147399999D03*
X157074999Y-147399999D03*
X157724999Y-147399999D03*
X158374999Y-147399999D03*
X159024999Y-147399999D03*
X159674999Y-147399999D03*
X160324999Y-147399999D03*
X160974999Y-147399999D03*
X161624999Y-147399999D03*
X162274999Y-147399999D03*
X162924999Y-147399999D03*
X163574999Y-147399999D03*
X163574999Y-154599999D03*
X162924999Y-154599999D03*
X162274999Y-154599999D03*
X161624999Y-154599999D03*
X160974999Y-154599999D03*
X160324999Y-154599999D03*
X159674999Y-154599999D03*
X159024999Y-154599999D03*
X158374999Y-154599999D03*
X157724999Y-154599999D03*
X157074999Y-154599999D03*
X156424999Y-154599999D03*
%TD*%
D14*
%TO.C,K28*%
X246621000Y-113429500D03*
X244721000Y-113429500D03*
X245671000Y-111554500D03*
%TD*%
%TO.C,K33*%
X264464000Y-74137500D03*
X262564000Y-74137500D03*
X263514000Y-72262500D03*
%TD*%
%TO.C,K12*%
X158604000Y-104523500D03*
X156704000Y-104523500D03*
X157654000Y-102648500D03*
%TD*%
D16*
%TO.C,U6*%
X243400000Y-53495000D03*
X243400000Y-54765000D03*
X243400000Y-56035000D03*
X243400000Y-57305000D03*
X236200000Y-57305000D03*
X236200000Y-56035000D03*
X236200000Y-54765000D03*
X236200000Y-53495000D03*
%TD*%
D11*
%TO.C,C6*%
X227230000Y-65500000D03*
X226270000Y-65500000D03*
%TD*%
D14*
%TO.C,K35*%
X223261000Y-104523500D03*
X221361000Y-104523500D03*
X222311000Y-102648500D03*
%TD*%
%TO.C,K25*%
X269790000Y-123830500D03*
X267890000Y-123830500D03*
X268840000Y-121955500D03*
%TD*%
D17*
%TO.C,C3*%
X230400000Y-69920000D03*
X230400000Y-70880000D03*
%TD*%
D18*
%TO.C,SW2*%
X246124999Y-69999999D03*
X246124999Y-75999999D03*
X249874999Y-69999999D03*
X249874999Y-75999999D03*
%TD*%
D19*
%TO.C,R3*%
X231150000Y-57290000D03*
X231150000Y-58310000D03*
%TD*%
D14*
%TO.C,K19*%
X208432000Y-194852500D03*
X206532000Y-194852500D03*
X207482000Y-192977500D03*
%TD*%
%TO.C,K4*%
X135244000Y-113429500D03*
X133344000Y-113429500D03*
X134294000Y-111554500D03*
%TD*%
D19*
%TO.C,R5*%
X242200000Y-60190000D03*
X242200000Y-61210000D03*
%TD*%
D14*
%TO.C,K20*%
X220770000Y-216408500D03*
X218870000Y-216408500D03*
X219820000Y-214533500D03*
%TD*%
D11*
%TO.C,C14*%
X236580000Y-51900000D03*
X235620000Y-51900000D03*
%TD*%
%TO.C,C10*%
X227230000Y-61550000D03*
X226270000Y-61550000D03*
%TD*%
D10*
%TO.C,C12*%
X213950000Y-53980000D03*
X213950000Y-53020000D03*
%TD*%
D14*
%TO.C,K11*%
X138008000Y-88582500D03*
X136108000Y-88582500D03*
X137058000Y-86707500D03*
%TD*%
D20*
%TO.C,R2*%
X184520000Y-52750000D03*
X183500000Y-52750000D03*
%TD*%
D12*
%TO.C,AM3*%
X216424999Y-147399999D03*
X217074999Y-147399999D03*
X217724999Y-147399999D03*
X218374999Y-147399999D03*
X219024999Y-147399999D03*
X219674999Y-147399999D03*
X220324999Y-147399999D03*
X220974999Y-147399999D03*
X221624999Y-147399999D03*
X222274999Y-147399999D03*
X222924999Y-147399999D03*
X223574999Y-147399999D03*
X223574999Y-154599999D03*
X222924999Y-154599999D03*
X222274999Y-154599999D03*
X221624999Y-154599999D03*
X220974999Y-154599999D03*
X220324999Y-154599999D03*
X219674999Y-154599999D03*
X219024999Y-154599999D03*
X218374999Y-154599999D03*
X217724999Y-154599999D03*
X217074999Y-154599999D03*
X216424999Y-154599999D03*
%TD*%
D14*
%TO.C,K37*%
X171909000Y-64991500D03*
X170009000Y-64991500D03*
X170959000Y-63116500D03*
%TD*%
%TO.C,K21*%
X233432000Y-194852500D03*
X231532000Y-194852500D03*
X232482000Y-192977500D03*
%TD*%
D10*
%TO.C,C13*%
X219050000Y-53960000D03*
X219050000Y-53000000D03*
%TD*%
D14*
%TO.C,K15*%
X161138000Y-173084500D03*
X159238000Y-173084500D03*
X160188000Y-171209500D03*
%TD*%
D13*
%TO.C,C7*%
X236870000Y-65500000D03*
X237830000Y-65500000D03*
%TD*%
D14*
%TO.C,K41*%
X190950000Y-83885500D03*
X189050000Y-83885500D03*
X190000000Y-82010500D03*
%TD*%
D21*
%TO.C,R7*%
X232450000Y-71760000D03*
X232450000Y-70740000D03*
%TD*%
D14*
%TO.C,K7*%
X112075000Y-123830500D03*
X110175000Y-123830500D03*
X111125000Y-121955500D03*
%TD*%
%TO.C,K27*%
X317718000Y-134698500D03*
X315818000Y-134698500D03*
X316768000Y-132823500D03*
%TD*%
%TO.C,K42*%
X209992000Y-83885500D03*
X208092000Y-83885500D03*
X209042000Y-82010500D03*
%TD*%
%TO.C,K22*%
X220727000Y-173084500D03*
X218827000Y-173084500D03*
X219777000Y-171209500D03*
%TD*%
%TO.C,K29*%
X267025000Y-98984500D03*
X265125000Y-98984500D03*
X266075000Y-97109500D03*
%TD*%
%TO.C,K18*%
X161094000Y-216408500D03*
X159194000Y-216408500D03*
X160144000Y-214533500D03*
%TD*%
%TO.C,K14*%
X136138000Y-173084500D03*
X134238000Y-173084500D03*
X135188000Y-171209500D03*
%TD*%
%TO.C,K5*%
X64146000Y-134698500D03*
X62246000Y-134698500D03*
X63196000Y-132823500D03*
%TD*%
%TO.C,K2*%
X89857000Y-99928500D03*
X87957000Y-99928500D03*
X88907000Y-98053500D03*
%TD*%
D20*
%TO.C,R1*%
X184510000Y-53750000D03*
X183490000Y-53750000D03*
%TD*%
D22*
%TO.C,U2*%
X232637500Y-65137500D03*
X232637500Y-63862500D03*
X231362500Y-65137500D03*
X231362500Y-63862500D03*
D23*
X235437500Y-61900000D03*
X235437500Y-62300000D03*
X235437500Y-62700000D03*
X235437500Y-63100000D03*
X235437500Y-63500000D03*
X235437500Y-63900000D03*
X235437500Y-64300000D03*
X235437500Y-64700000D03*
X235437500Y-65100000D03*
X235437500Y-65500000D03*
X235437500Y-65900000D03*
X235437500Y-66300000D03*
X235437500Y-66700000D03*
X235437500Y-67100000D03*
D24*
X234600000Y-67937500D03*
X234200000Y-67937500D03*
X233800000Y-67937500D03*
X233400000Y-67937500D03*
X233000000Y-67937500D03*
X232600000Y-67937500D03*
X232200000Y-67937500D03*
X231800000Y-67937500D03*
X231400000Y-67937500D03*
X231000000Y-67937500D03*
X230600000Y-67937500D03*
X230200000Y-67937500D03*
X229800000Y-67937500D03*
X229400000Y-67937500D03*
D23*
X228562500Y-67100000D03*
X228562500Y-66700000D03*
X228562500Y-66300000D03*
X228562500Y-65900000D03*
X228562500Y-65500000D03*
X228562500Y-65100000D03*
X228562500Y-64700000D03*
X228562500Y-64300000D03*
X228562500Y-63900000D03*
X228562500Y-63500000D03*
X228562500Y-63100000D03*
X228562500Y-62700000D03*
X228562500Y-62300000D03*
X228562500Y-61900000D03*
D24*
X229400000Y-61062500D03*
X229800000Y-61062500D03*
X230200000Y-61062500D03*
X230600000Y-61062500D03*
X231000000Y-61062500D03*
X231400000Y-61062500D03*
X231800000Y-61062500D03*
X232200000Y-61062500D03*
X232600000Y-61062500D03*
X233000000Y-61062500D03*
X233400000Y-61062500D03*
X233800000Y-61062500D03*
X234200000Y-61062500D03*
X234600000Y-61062500D03*
%TD*%
D17*
%TO.C,C16*%
X230750000Y-73870000D03*
X230750000Y-74830000D03*
%TD*%
D25*
%TO.C,J5*%
X187249999Y-52999999D03*
X187749999Y-52999999D03*
X188249999Y-52999999D03*
X188749999Y-52999999D03*
X189249999Y-52999999D03*
X189749999Y-52999999D03*
X190249999Y-52999999D03*
X190749999Y-52999999D03*
X191249999Y-52999999D03*
X191749999Y-52999999D03*
X192249999Y-52999999D03*
X192749999Y-52999999D03*
%TD*%
D14*
%TO.C,K34*%
X243857000Y-88582500D03*
X241957000Y-88582500D03*
X242907000Y-86707500D03*
%TD*%
%TO.C,K31*%
X314953000Y-109851500D03*
X313053000Y-109851500D03*
X314003000Y-107976500D03*
%TD*%
%TO.C,K24*%
X249386000Y-138276500D03*
X247486000Y-138276500D03*
X248436000Y-136401500D03*
%TD*%
D19*
%TO.C,R4*%
X230070000Y-57290000D03*
X230070000Y-58310000D03*
%TD*%
D17*
%TO.C,C9*%
X231430000Y-69920000D03*
X231430000Y-70880000D03*
%TD*%
D14*
%TO.C,K26*%
X294772000Y-124775500D03*
X292872000Y-124775500D03*
X293822000Y-122900500D03*
%TD*%
%TO.C,K8*%
X132479000Y-138276500D03*
X130579000Y-138276500D03*
X131529000Y-136401500D03*
%TD*%
D10*
%TO.C,C4*%
X232200000Y-58280000D03*
X232200000Y-57320000D03*
%TD*%
D14*
%TO.C,K23*%
X245727000Y-173084500D03*
X243827000Y-173084500D03*
X244777000Y-171209500D03*
%TD*%
D11*
%TO.C,C11*%
X227230000Y-60500000D03*
X226270000Y-60500000D03*
%TD*%
D14*
%TO.C,K39*%
X209992000Y-64991500D03*
X208092000Y-64991500D03*
X209042000Y-63116500D03*
%TD*%
D20*
%TO.C,R6*%
X246360000Y-53500000D03*
X245340000Y-53500000D03*
%TD*%
D10*
%TO.C,C8*%
X227950000Y-59280000D03*
X227950000Y-58320000D03*
%TD*%
D18*
%TO.C,SW1*%
X242874999Y-75999999D03*
X242874999Y-69999999D03*
X239124999Y-75999999D03*
X239124999Y-69999999D03*
%TD*%
D14*
%TO.C,K3*%
X114840000Y-98984500D03*
X112940000Y-98984500D03*
X113890000Y-97109500D03*
%TD*%
%TO.C,K10*%
X117400000Y-74137500D03*
X115500000Y-74137500D03*
X116450000Y-72262500D03*
%TD*%
%TO.C,K9*%
X92621000Y-75082500D03*
X90721000Y-75082500D03*
X91671000Y-73207500D03*
%TD*%
%TO.C,K17*%
X173433000Y-194852500D03*
X171533000Y-194852500D03*
X172483000Y-192977500D03*
%TD*%
D26*
%TO.C,D43*%
X210900000Y-51250000D03*
X207600000Y-51250000D03*
%TD*%
D27*
%TO.C,U5*%
X215362500Y-53900000D03*
X215362500Y-52950000D03*
X215362500Y-52000000D03*
X217637500Y-52000000D03*
X217637500Y-53900000D03*
%TD*%
D10*
%TO.C,C2*%
X229000000Y-58280000D03*
X229000000Y-57320000D03*
%TD*%
D14*
%TO.C,K32*%
X289243000Y-75082500D03*
X287343000Y-75082500D03*
X288293000Y-73207500D03*
%TD*%
%TO.C,K38*%
X190950000Y-64991500D03*
X189050000Y-64991500D03*
X190000000Y-63116500D03*
%TD*%
%TO.C,K30*%
X292007000Y-99928500D03*
X290107000Y-99928500D03*
X291057000Y-98053500D03*
%TD*%
%TO.C,K16*%
X148433000Y-194852500D03*
X146533000Y-194852500D03*
X147483000Y-192977500D03*
%TD*%
%TO.C,K1*%
X66911000Y-109851500D03*
X65011000Y-109851500D03*
X65961000Y-107976500D03*
%TD*%
%TO.C,K13*%
X155839000Y-129370500D03*
X153939000Y-129370500D03*
X154889000Y-127495500D03*
%TD*%
M02*
