M48
; DRILL file {KiCad (7.0.0)} date Sun Jul 28 23:05:56 2024
; FORMAT={-:-/ absolute / inch / decimal}
; #@! TF.CreationDate,2024-07-28T23:05:56-04:00
; #@! TF.GenerationSoftware,Kicad,Pcbnew,(7.0.0)
; #@! TF.FileFunction,NonPlated,1,2,NPTH
FMAT,2
INCH
; #@! TA.AperFunction,NonPlated,NPTH,ComponentDrill
T1C0.0276
; #@! TA.AperFunction,NonPlated,NPTH,ComponentDrill
T2C0.0689
; #@! TA.AperFunction,NonPlated,NPTH,ComponentDrill
T3C0.1260
%
G90
G05
T1
X7.3386Y-2.0646
X7.628Y-2.0646
T2
X2.288Y-5.2662
X2.3969Y-4.288
X2.688Y-5.2662
X2.7969Y-4.288
X3.1914Y-4.8755
X3.3003Y-3.8973
X3.4091Y-2.9191
X3.5914Y-4.8755
X3.7003Y-3.8973
X3.8091Y-2.9191
X4.175Y-4.8383
X4.2839Y-3.8601
X4.3846Y-2.8819
X4.575Y-4.8383
X4.6839Y-3.8601
X4.7846Y-2.8819
X4.9783Y-5.407
X5.0872Y-4.4288
X5.1224Y-6.7774
X5.196Y-3.4506
X5.3783Y-5.407
X5.4872Y-4.4288
X5.5224Y-6.7774
X5.596Y-3.4506
X5.6064Y-7.6344
X5.898Y-5.0564
X6.0064Y-7.6344
X6.0069Y-4.0782
X6.1049Y-8.4831
X6.1066Y-6.7774
X6.298Y-5.0564
X6.4069Y-4.0782
X6.5049Y-8.4831
X6.5066Y-6.7774
X6.5307Y-2.5218
X6.5307Y-3.2657
X6.5907Y-7.6344
X6.9307Y-2.5218
X6.9307Y-3.2657
X6.9907Y-7.6344
X7.2803Y-2.5218
X7.2803Y-3.2657
X7.6803Y-2.5218
X7.6803Y-3.2657
X7.9686Y-7.6344
X8.03Y-2.5218
X8.03Y-3.2657
X8.3686Y-7.6344
X8.43Y-2.5218
X8.43Y-3.2657
X8.4526Y-6.7774
X8.4543Y-8.4831
X8.5524Y-4.0782
X8.6613Y-5.0564
X8.8526Y-6.7774
X8.8543Y-8.4831
X8.9524Y-4.0782
X8.9528Y-7.6344
X9.0613Y-5.0564
X9.3528Y-7.6344
X9.3633Y-3.4506
X9.4369Y-6.7774
X9.4721Y-4.4288
X9.5809Y-5.407
X9.7633Y-3.4506
X9.8369Y-6.7774
X9.8721Y-4.4288
X9.9809Y-5.407
X10.1746Y-2.8819
X10.2754Y-3.8601
X10.3843Y-4.8383
X10.5746Y-2.8819
X10.6754Y-3.8601
X10.7843Y-4.8383
X11.1501Y-2.9191
X11.2589Y-3.8973
X11.3678Y-4.8755
X11.5501Y-2.9191
X11.6589Y-3.8973
X11.7678Y-4.8755
X12.1623Y-4.288
X12.2712Y-5.2662
X12.5623Y-4.288
X12.6712Y-5.2662
T3
X2.3622Y-2.3622
X2.3622Y-6.1024
X2.3622Y-8.6614
X4.5276Y-5.9449
X5.7087Y-2.5197
X7.4803Y-3.937
X7.4803Y-5.5118
X7.4803Y-8.2677
X10.2362Y-6.063
X12.5984Y-2.3622
X12.5984Y-6.1024
X12.5984Y-8.6614
T0
M30
